<?xml version="1.0" encoding="utf-8"?>
<!-- Generator: Adobe Illustrator 24.0.1, SVG Export Plug-In . SVG Version: 6.00 Build 0)  -->
<svg version="1.1" id="Layer_1" xmlns="http://www.w3.org/2000/svg" xmlns:xlink="http://www.w3.org/1999/xlink" x="0px" y="0px"
	 viewBox="0 0 368 110" style="enable-background:new 0 0 368 110;" xml:space="preserve">
<style type="text/css">
	.st0{fill:#FFFFFF;}
	.st1{fill:#00A2E1;}
</style>
<g>
	<path class="st0" d="M312.6,88.6H55.4c-17.1,0-31-14-31-31v-5.1c0-17.1,14-31,31-31h257.1c17.1,0,31,14,31,31v5.1
		C343.6,74.6,329.6,88.6,312.6,88.6z"/>
	<g>
		<path class="st1" d="M290.7,57.6v-4.6c0-0.8,0.6-1.4,1.4-1.4h13.3V44c0-1.2,1.5-1.8,2.3-1l11.3,11.3c0.5,0.5,0.5,1.4,0,1.9
			l-11.3,11.3c-0.9,0.9-2.3-1-2.3-1V59h-13.4C291.3,59,290.7,58.4,290.7,57.6z"/>
	</g>
	<g>
		<path class="st1" d="M58.3,46.3h3.9l8.3,19.6h-4.5l-1.8-4.4h-8.2l-1.8,4.4H50L58.3,46.3z M62.8,57.8l-2.6-6.3l-2.6,6.3H62.8z"/>
		<path class="st1" d="M74,46.5h7.9c1.2,0,2.2,0.2,3.1,0.5c0.9,0.3,1.7,0.8,2.3,1.4c0.6,0.6,1.1,1.3,1.5,2.1
			c0.3,0.8,0.5,1.7,0.5,2.7v0.1c0,1.1-0.2,2.1-0.6,3c-0.4,0.9-1,1.6-1.7,2.1c-0.7,0.6-1.5,1-2.5,1.3c-1,0.3-2,0.4-3.1,0.4h-3.2v5.8
			H74V46.5z M81.6,56.3c1.1,0,1.9-0.3,2.5-0.8c0.6-0.6,0.9-1.3,0.9-2.1v-0.1c0-1-0.3-1.7-0.9-2.2c-0.6-0.5-1.5-0.7-2.5-0.7h-3.3v5.9
			H81.6z"/>
		<path class="st1" d="M92.9,46.5h7.9c1.2,0,2.2,0.2,3.1,0.5c0.9,0.3,1.7,0.8,2.3,1.4c0.6,0.6,1.1,1.3,1.5,2.1
			c0.3,0.8,0.5,1.7,0.5,2.7v0.1c0,1.1-0.2,2.1-0.6,3c-0.4,0.9-1,1.6-1.7,2.1c-0.7,0.6-1.5,1-2.5,1.3c-1,0.3-2,0.4-3.1,0.4h-3.2v5.8
			h-4.3V46.5z M100.6,56.3c1.1,0,1.9-0.3,2.5-0.8c0.6-0.6,0.9-1.3,0.9-2.1v-0.1c0-1-0.3-1.7-0.9-2.2c-0.6-0.5-1.5-0.7-2.5-0.7h-3.3
			v5.9H100.6z"/>
		<path class="st1" d="M111.8,46.5h4.3V62h9.7v3.9h-14V46.5z"/>
		<path class="st1" d="M134.9,58.2l-7.5-11.8h5l4.6,7.8l4.7-7.8h4.9l-7.5,11.7v7.7h-4.3V58.2z"/>
		<path class="st1" d="M162.5,50.4h-5.9v-3.9h16.1v3.9h-5.9v15.5h-4.3V50.4z"/>
		<path class="st1" d="M185.8,66.2c-1.5,0-2.9-0.3-4.1-0.8s-2.3-1.2-3.3-2.1c-0.9-0.9-1.6-2-2.1-3.2c-0.5-1.2-0.8-2.5-0.8-3.9v-0.1
			c0-1.4,0.3-2.7,0.8-3.9c0.5-1.2,1.2-2.3,2.2-3.2c0.9-0.9,2-1.6,3.3-2.2c1.3-0.5,2.7-0.8,4.1-0.8c1.5,0,2.9,0.3,4.1,0.8
			c1.3,0.5,2.3,1.2,3.3,2.1s1.6,2,2.1,3.2s0.8,2.5,0.8,3.9v0.1c0,1.4-0.3,2.7-0.8,3.9c-0.5,1.2-1.2,2.3-2.2,3.2
			c-0.9,0.9-2,1.6-3.3,2.2S187.3,66.2,185.8,66.2z M185.8,62.3c0.9,0,1.6-0.2,2.4-0.5c0.7-0.3,1.3-0.7,1.8-1.3
			c0.5-0.6,0.9-1.2,1.2-1.9c0.3-0.7,0.4-1.5,0.4-2.3v-0.1c0-0.8-0.1-1.6-0.4-2.4c-0.3-0.7-0.7-1.4-1.2-1.9c-0.5-0.6-1.2-1-1.9-1.3
			c-0.7-0.3-1.5-0.5-2.4-0.5c-0.9,0-1.7,0.2-2.4,0.5c-0.7,0.3-1.3,0.8-1.8,1.3c-0.5,0.6-0.9,1.2-1.2,1.9c-0.3,0.7-0.4,1.5-0.4,2.3
			v0.1c0,0.8,0.1,1.6,0.4,2.4c0.3,0.7,0.7,1.4,1.2,1.9c0.5,0.6,1.1,1,1.9,1.3C184.2,62.1,185,62.3,185.8,62.3z"/>
		<path class="st1" d="M200.3,46.5h7.6c1.5,0,2.9,0.2,4.2,0.7c1.3,0.5,2.4,1.2,3.3,2s1.6,1.9,2.1,3.1c0.5,1.2,0.7,2.4,0.7,3.8v0.1
			c0,1.4-0.2,2.6-0.7,3.8c-0.5,1.2-1.2,2.2-2.1,3.1c-0.9,0.9-2,1.6-3.3,2.1c-1.3,0.5-2.7,0.7-4.2,0.7h-7.6V46.5z M207.9,62
			c0.9,0,1.7-0.1,2.4-0.4c0.7-0.3,1.3-0.7,1.8-1.2c0.5-0.5,0.9-1.1,1.2-1.8s0.4-1.5,0.4-2.4v-0.1c0-0.9-0.1-1.6-0.4-2.4
			s-0.7-1.3-1.2-1.9s-1.1-0.9-1.8-1.2c-0.7-0.3-1.5-0.4-2.4-0.4h-3.3V62H207.9z"/>
		<path class="st1" d="M229.1,46.3h3.9l8.3,19.6h-4.5l-1.8-4.4h-8.2l-1.8,4.4h-4.4L229.1,46.3z M233.6,57.8l-2.6-6.3l-2.6,6.3H233.6
			z"/>
		<path class="st1" d="M250.2,58.2l-7.5-11.8h5l4.6,7.8l4.7-7.8h4.9l-7.5,11.7v7.7h-4.3V58.2z"/>
	</g>
</g>
</svg>
