<?xml version="1.0" encoding="utf-8"?>
<!-- Generator: Adobe Illustrator 24.0.1, SVG Export Plug-In . SVG Version: 6.00 Build 0)  -->
<svg version="1.1" id="Layer_1" xmlns="http://www.w3.org/2000/svg" xmlns:xlink="http://www.w3.org/1999/xlink" x="0px" y="0px"
	 viewBox="0 0 478 256" style="enable-background:new 0 0 478 256;" xml:space="preserve">
<style type="text/css">
	.st0{fill:#FFFFFF;}
</style>
<g>
	<path class="st0" d="M37.3,31.8h8.8l20.3,26.6V31.8h9.4v43.2h-8.1L46.7,47.6v27.5h-9.4V31.8z"/>
	<path class="st0" d="M101.4,75.8c-2.6,0-4.9-0.4-7.1-1.3c-2.2-0.9-4.1-2.1-5.7-3.6c-1.6-1.5-2.8-3.4-3.7-5.4
		c-0.9-2.1-1.4-4.3-1.4-6.7v-0.1c0-2.4,0.5-4.6,1.4-6.7c0.9-2.1,2.2-3.9,3.8-5.5c1.6-1.6,3.5-2.8,5.7-3.7c2.2-0.9,4.6-1.4,7.2-1.4
		c2.6,0,4.9,0.4,7.1,1.3c2.2,0.9,4.1,2.1,5.7,3.6c1.6,1.5,2.8,3.4,3.7,5.4c0.9,2.1,1.4,4.3,1.4,6.7v0.1c0,2.4-0.5,4.6-1.4,6.7
		c-0.9,2.1-2.2,3.9-3.8,5.5c-1.6,1.6-3.5,2.8-5.7,3.7C106.3,75.4,103.9,75.8,101.4,75.8z M101.5,67.7c1.4,0,2.6-0.2,3.6-0.7
		c1-0.5,1.9-1.1,2.7-1.9c0.7-0.8,1.3-1.8,1.7-2.9c0.4-1.1,0.6-2.3,0.6-3.5v-0.1c0-1.2-0.2-2.4-0.6-3.5c-0.4-1.1-1-2.1-1.8-2.9
		c-0.8-0.8-1.7-1.5-2.8-2c-1.1-0.5-2.2-0.7-3.5-0.7c-1.4,0-2.6,0.2-3.6,0.7c-1.1,0.5-1.9,1.1-2.7,1.9c-0.7,0.8-1.3,1.8-1.7,2.9
		c-0.4,1.1-0.6,2.3-0.6,3.5v0.1c0,1.2,0.2,2.4,0.6,3.5c0.4,1.1,1,2.1,1.8,2.9c0.8,0.8,1.7,1.5,2.7,2S100.2,67.7,101.5,67.7z"/>
	<path class="st0" d="M123.4,42h9.5l5.3,20.1l6.2-20.2h8.1l6.3,20.3l5.4-20.1h9.3l-10.3,33.4h-8.5L148.5,55L142,75.3h-8.4L123.4,42z
		"/>
	<path class="st0" d="M197.8,30h9.4v16.7c0.5-0.7,1.1-1.4,1.8-2c0.6-0.6,1.3-1.2,2.1-1.7c0.8-0.5,1.6-0.9,2.6-1.2s2-0.4,3.2-0.4
		c3.6,0,6.4,1.1,8.3,3.3c2,2.2,2.9,5.2,2.9,9v21.4h-9.4V56.6c0-2.2-0.5-3.9-1.5-5c-1-1.1-2.4-1.7-4.2-1.7c-1.8,0-3.2,0.6-4.3,1.7
		s-1.6,2.8-1.6,5v18.4h-9.4V30z"/>
	<path class="st0" d="M236.5,30h9.9v8.3h-9.9V30z M236.7,42h9.4v33.1h-9.4V42z"/>
	<path class="st0" d="M254.9,42h9.4v6.7c0.9-2.3,2.2-4.1,3.9-5.4s3.9-2,6.7-1.9v9.8h-0.5c-3.1,0-5.6,0.9-7.4,2.8
		c-1.8,1.9-2.7,4.8-2.7,8.8v12.2h-9.4V42z"/>
	<path class="st0" d="M280.9,30h9.9v8.3h-9.9V30z M281.2,42h9.4v33.1h-9.4V42z"/>
	<path class="st0" d="M299.4,42h9.4v4.7c0.5-0.7,1.1-1.4,1.8-2c0.6-0.6,1.3-1.2,2.1-1.7c0.8-0.5,1.6-0.9,2.6-1.2s2-0.4,3.2-0.4
		c3.6,0,6.4,1.1,8.3,3.3c2,2.2,2.9,5.2,2.9,9v21.4h-9.4V56.6c0-2.2-0.5-3.9-1.5-5c-1-1.1-2.4-1.7-4.2-1.7c-1.8,0-3.2,0.6-4.3,1.7
		s-1.6,2.8-1.6,5v18.4h-9.4V42z"/>
	<path class="st0" d="M352.7,85.1c-2.7,0-5.3-0.3-7.8-0.9c-2.5-0.6-4.8-1.5-6.9-2.6l3.2-7c1.7,0.9,3.5,1.7,5.2,2.2
		c1.7,0.5,3.7,0.8,6,0.8c3.2,0,5.6-0.8,7.1-2.3s2.3-3.8,2.3-6.7V67c-1.4,1.7-2.9,3-4.6,4c-1.6,0.9-3.7,1.4-6.2,1.4
		c-1.9,0-3.8-0.3-5.6-1c-1.8-0.7-3.3-1.7-4.7-3c-1.4-1.3-2.4-2.9-3.2-4.8c-0.8-1.9-1.2-4.1-1.2-6.6v-0.1c0-2.5,0.4-4.7,1.2-6.6
		s1.9-3.5,3.3-4.8c1.4-1.3,2.9-2.3,4.7-3c1.8-0.7,3.6-1,5.5-1c2.6,0,4.7,0.5,6.3,1.4c1.6,0.9,3.1,2.1,4.4,3.5V42h9.4v25.6
		c0,5.9-1.4,10.2-4.2,13c-1.6,1.6-3.5,2.7-5.9,3.4C358.7,84.7,355.9,85.1,352.7,85.1z M353.8,64.6c1.2,0,2.2-0.2,3.2-0.6
		c1-0.4,1.8-0.9,2.6-1.6c0.7-0.7,1.3-1.5,1.7-2.4c0.4-0.9,0.6-2,0.6-3.1v-0.1c0-1.1-0.2-2.1-0.6-3.1c-0.4-0.9-1-1.8-1.7-2.4
		c-0.7-0.7-1.6-1.2-2.6-1.6s-2.1-0.6-3.2-0.6c-1.2,0-2.2,0.2-3.2,0.6c-1,0.4-1.8,0.9-2.5,1.6c-0.7,0.7-1.3,1.5-1.7,2.4
		c-0.4,0.9-0.6,2-0.6,3.1v0.1c0,2.3,0.8,4.2,2.3,5.6C349.6,63.9,351.5,64.6,353.8,64.6z"/>
	<path class="st0" d="M37.3,104.8h10.3l11.4,18.3l11.4-18.3h10.3v43.2h-9.4v-28.2L59,138.3h-0.2l-12-18.3v28h-9.4V104.8z"/>
	<path class="st0" d="M106.2,148.8c-2.6,0-4.9-0.4-7.1-1.3c-2.2-0.9-4.1-2.1-5.7-3.6c-1.6-1.5-2.8-3.4-3.7-5.4
		c-0.9-2.1-1.4-4.3-1.4-6.7v-0.1c0-2.4,0.5-4.6,1.4-6.7c0.9-2.1,2.2-3.9,3.8-5.5c1.6-1.6,3.5-2.8,5.7-3.7c2.2-0.9,4.6-1.4,7.2-1.4
		c2.6,0,4.9,0.4,7.1,1.3c2.2,0.9,4.1,2.1,5.7,3.6c1.6,1.5,2.8,3.4,3.7,5.4c0.9,2.1,1.4,4.3,1.4,6.7v0.1c0,2.4-0.5,4.6-1.4,6.7
		c-0.9,2.1-2.2,3.9-3.8,5.5c-1.6,1.6-3.5,2.8-5.7,3.7C111.1,148.4,108.8,148.8,106.2,148.8z M106.3,140.7c1.4,0,2.6-0.2,3.6-0.7
		c1-0.5,1.9-1.1,2.7-1.9c0.7-0.8,1.3-1.8,1.7-2.9c0.4-1.1,0.6-2.3,0.6-3.5v-0.1c0-1.2-0.2-2.4-0.6-3.5c-0.4-1.1-1-2.1-1.8-2.9
		c-0.8-0.8-1.7-1.5-2.8-2c-1.1-0.5-2.2-0.7-3.5-0.7c-1.4,0-2.6,0.2-3.6,0.7c-1.1,0.5-1.9,1.1-2.7,1.9c-0.7,0.8-1.3,1.8-1.7,2.9
		c-0.4,1.1-0.6,2.3-0.6,3.5v0.1c0,1.2,0.2,2.4,0.6,3.5c0.4,1.1,1,2.1,1.8,2.9c0.8,0.8,1.7,1.5,2.7,2S105,140.7,106.3,140.7z"/>
	<path class="st0" d="M130.9,115h9.4v6.7c0.9-2.3,2.2-4.1,3.9-5.4c1.6-1.4,3.9-2,6.7-1.9v9.8h-0.5c-3.1,0-5.6,0.9-7.4,2.8
		s-2.7,4.8-2.7,8.8v12.2h-9.4V115z"/>
	<path class="st0" d="M167.9,148.6c-1.4,0-2.7-0.2-3.9-0.5c-1.2-0.3-2.2-0.9-3-1.6c-0.8-0.8-1.5-1.8-2-3.1c-0.5-1.3-0.7-2.9-0.7-4.8
		V123h-4v-8h4v-8.5h9.4v8.5h7.8v8h-7.8v14.2c0,2.1,1,3.2,3,3.2c1.6,0,3.2-0.4,4.6-1.2v7.5c-1,0.6-2.1,1-3.3,1.4
		C170.9,148.4,169.5,148.6,167.9,148.6z"/>
	<path class="st0" d="M197.2,158.1c-2.7,0-5.3-0.3-7.8-0.9c-2.5-0.6-4.8-1.5-6.9-2.6l3.2-7c1.7,0.9,3.5,1.7,5.2,2.2
		c1.7,0.5,3.7,0.8,6,0.8c3.2,0,5.6-0.8,7.1-2.3s2.3-3.8,2.3-6.7V140c-1.4,1.7-2.9,3-4.6,4s-3.7,1.4-6.2,1.4c-1.9,0-3.8-0.3-5.6-1
		s-3.3-1.7-4.7-3c-1.4-1.3-2.4-2.9-3.2-4.8c-0.8-1.9-1.2-4.1-1.2-6.6v-0.1c0-2.5,0.4-4.7,1.2-6.6c0.8-1.9,1.9-3.5,3.3-4.8
		c1.4-1.3,2.9-2.3,4.7-3c1.8-0.7,3.6-1,5.5-1c2.6,0,4.7,0.5,6.3,1.4c1.6,0.9,3.1,2.1,4.4,3.5V115h9.4v25.6c0,5.9-1.4,10.2-4.2,13
		c-1.6,1.6-3.5,2.7-5.9,3.4C203.2,157.7,200.4,158.1,197.2,158.1z M198.3,137.6c1.2,0,2.2-0.2,3.2-0.6c1-0.4,1.8-0.9,2.6-1.6
		c0.7-0.7,1.3-1.5,1.7-2.4c0.4-0.9,0.6-2,0.6-3.1v-0.1c0-1.1-0.2-2.1-0.6-3.1c-0.4-0.9-1-1.8-1.7-2.4c-0.7-0.7-1.6-1.2-2.6-1.6
		c-1-0.4-2.1-0.6-3.2-0.6c-1.2,0-2.2,0.2-3.2,0.6c-1,0.4-1.8,0.9-2.5,1.6c-0.7,0.7-1.3,1.5-1.7,2.4c-0.4,0.9-0.6,2-0.6,3.1v0.1
		c0,2.3,0.8,4.2,2.3,5.6C194.1,136.9,196,137.6,198.3,137.6z"/>
	<path class="st0" d="M233.5,148.7c-1.6,0-3-0.2-4.4-0.6c-1.4-0.4-2.6-1.1-3.6-1.9c-1-0.9-1.8-1.9-2.4-3.2c-0.6-1.3-0.9-2.7-0.9-4.4
		v-0.1c0-1.8,0.3-3.4,1-4.7c0.7-1.3,1.6-2.4,2.7-3.3c1.2-0.9,2.6-1.5,4.2-1.9c1.6-0.4,3.4-0.6,5.4-0.6c1.7,0,3.2,0.1,4.4,0.4
		c1.3,0.2,2.5,0.6,3.7,1v-0.6c0-2-0.6-3.5-1.8-4.5s-3-1.5-5.3-1.5c-1.8,0-3.4,0.2-4.8,0.5s-2.8,0.8-4.4,1.3l-2.3-7.2
		c1.8-0.8,3.7-1.4,5.7-1.9s4.4-0.7,7.2-0.7c2.6,0,4.8,0.3,6.6,1c1.8,0.6,3.3,1.6,4.5,2.7c1.2,1.2,2.1,2.7,2.7,4.5
		c0.6,1.8,0.9,3.8,0.9,6v19.2h-9.1v-3.6c-1.2,1.3-2.5,2.3-4.1,3.1C237.7,148.3,235.8,148.7,233.5,148.7z M236.3,142.2
		c2.2,0,4-0.5,5.3-1.6c1.3-1.1,2-2.5,2-4.2v-1.7c-0.8-0.4-1.7-0.7-2.7-0.9c-1-0.2-2.1-0.3-3.2-0.3c-2,0-3.6,0.4-4.8,1.2
		c-1.2,0.8-1.7,1.9-1.7,3.4v0.1c0,1.3,0.5,2.3,1.4,3C233.5,141.8,234.8,142.2,236.3,142.2z"/>
	<path class="st0" d="M275.4,158.1c-2.7,0-5.3-0.3-7.8-0.9c-2.5-0.6-4.8-1.5-6.9-2.6l3.2-7c1.7,0.9,3.5,1.7,5.2,2.2
		c1.7,0.5,3.7,0.8,6,0.8c3.2,0,5.6-0.8,7.1-2.3s2.3-3.8,2.3-6.7V140c-1.4,1.7-2.9,3-4.6,4s-3.7,1.4-6.2,1.4c-1.9,0-3.8-0.3-5.6-1
		s-3.3-1.7-4.7-3c-1.4-1.3-2.4-2.9-3.2-4.8c-0.8-1.9-1.2-4.1-1.2-6.6v-0.1c0-2.5,0.4-4.7,1.2-6.6c0.8-1.9,1.9-3.5,3.3-4.8
		c1.4-1.3,2.9-2.3,4.7-3c1.8-0.7,3.6-1,5.5-1c2.6,0,4.7,0.5,6.3,1.4c1.6,0.9,3.1,2.1,4.4,3.5V115h9.4v25.6c0,5.9-1.4,10.2-4.2,13
		c-1.6,1.6-3.5,2.7-5.9,3.4C281.4,157.7,278.7,158.1,275.4,158.1z M276.6,137.6c1.2,0,2.2-0.2,3.2-0.6c1-0.4,1.8-0.9,2.6-1.6
		c0.7-0.7,1.3-1.5,1.7-2.4c0.4-0.9,0.6-2,0.6-3.1v-0.1c0-1.1-0.2-2.1-0.6-3.1c-0.4-0.9-1-1.8-1.7-2.4c-0.7-0.7-1.6-1.2-2.6-1.6
		c-1-0.4-2.1-0.6-3.2-0.6c-1.2,0-2.2,0.2-3.2,0.6c-1,0.4-1.8,0.9-2.5,1.6c-0.7,0.7-1.3,1.5-1.7,2.4c-0.4,0.9-0.6,2-0.6,3.1v0.1
		c0,2.3,0.8,4.2,2.3,5.6C272.3,136.9,274.3,137.6,276.6,137.6z"/>
	<path class="st0" d="M318,148.8c-2.5,0-4.8-0.4-6.9-1.2c-2.1-0.8-4-2-5.5-3.5c-1.5-1.5-2.7-3.3-3.6-5.4c-0.9-2.1-1.3-4.4-1.3-6.9
		v-0.1c0-2.3,0.4-4.6,1.2-6.7c0.8-2.1,1.9-3.9,3.4-5.5c1.4-1.6,3.2-2.8,5.2-3.7c2-0.9,4.2-1.4,6.6-1.4c2.8,0,5.1,0.5,7.2,1.5
		c2,1,3.7,2.3,5,4c1.3,1.7,2.3,3.6,3,5.7c0.6,2.2,1,4.4,1,6.8c0,0.4,0,0.8,0,1.2c0,0.4-0.1,0.8-0.1,1.3h-23c0.5,2.1,1.4,3.8,2.8,4.8
		c1.4,1.1,3.2,1.6,5.3,1.6c1.6,0,3-0.3,4.2-0.8c1.2-0.5,2.5-1.4,3.8-2.6l5.4,4.8c-1.6,1.9-3.5,3.4-5.7,4.5
		C323.6,148.3,321,148.8,318,148.8z M324.1,128.9c-0.3-2.1-1-3.8-2.2-5.1c-1.2-1.3-2.8-1.9-4.8-1.9s-3.6,0.6-4.8,1.9
		c-1.2,1.3-2,3-2.4,5.1H324.1z"/>
	<path class="st0" d="M37.3,177.8H55c2.6,0,4.9,0.4,6.9,1.1c2,0.7,3.8,1.7,5.2,3.1c1.4,1.3,2.5,2.9,3.3,4.7c0.8,1.8,1.1,3.9,1.1,6.1
		v0.1c0,2.5-0.5,4.7-1.4,6.6c-0.9,1.9-2.2,3.5-3.7,4.8c-1.6,1.3-3.4,2.2-5.6,2.9c-2.1,0.6-4.4,1-6.8,1h-7.2v13h-9.5V177.8z
		 M54.4,199.6c2.4,0,4.2-0.6,5.6-1.9c1.3-1.3,2-2.8,2-4.7V193c0-2.1-0.7-3.8-2.1-4.9c-1.4-1.1-3.3-1.7-5.7-1.7h-7.3v13.2H54.4z"/>
	<path class="st0" d="M77.6,188H87v6.7c0.9-2.3,2.2-4.1,3.9-5.4c1.6-1.4,3.9-2,6.7-1.9v9.8H97c-3.1,0-5.6,0.9-7.4,2.8
		s-2.7,4.8-2.7,8.8v12.2h-9.4V188z"/>
	<path class="st0" d="M119.6,221.8c-2.6,0-4.9-0.4-7.1-1.3c-2.2-0.9-4.1-2.1-5.7-3.6c-1.6-1.5-2.8-3.4-3.7-5.4
		c-0.9-2.1-1.4-4.3-1.4-6.7v-0.1c0-2.4,0.5-4.6,1.4-6.7c0.9-2.1,2.2-3.9,3.8-5.5c1.6-1.6,3.5-2.8,5.7-3.7c2.2-0.9,4.6-1.4,7.2-1.4
		c2.6,0,4.9,0.4,7.1,1.3c2.2,0.9,4.1,2.1,5.7,3.6c1.6,1.5,2.8,3.4,3.7,5.4c0.9,2.1,1.4,4.3,1.4,6.7v0.1c0,2.4-0.5,4.6-1.4,6.7
		c-0.9,2.1-2.2,3.9-3.8,5.5c-1.6,1.6-3.5,2.8-5.7,3.7C124.6,221.4,122.2,221.8,119.6,221.8z M119.8,213.7c1.4,0,2.6-0.2,3.6-0.7
		c1-0.5,1.9-1.1,2.7-1.9c0.7-0.8,1.3-1.8,1.7-2.9c0.4-1.1,0.6-2.3,0.6-3.5v-0.1c0-1.2-0.2-2.4-0.6-3.5c-0.4-1.1-1-2.1-1.8-2.9
		c-0.8-0.8-1.7-1.5-2.8-2c-1.1-0.5-2.2-0.7-3.5-0.7c-1.4,0-2.6,0.2-3.6,0.7c-1.1,0.5-1.9,1.1-2.7,1.9c-0.7,0.8-1.3,1.8-1.7,2.9
		c-0.4,1.1-0.6,2.3-0.6,3.5v0.1c0,1.2,0.2,2.4,0.6,3.5c0.4,1.1,1,2.1,1.8,2.9c0.8,0.8,1.7,1.5,2.7,2S118.4,213.7,119.8,213.7z"/>
	<path class="st0" d="M146,196h-3.9v-7.7h3.9v-2.1c0-3.6,0.9-6.3,2.7-8c1.7-1.7,4.3-2.6,7.6-2.6c1.5,0,2.7,0.1,3.8,0.2
		c1.1,0.2,2,0.4,2.9,0.7v7.8c-0.7-0.2-1.4-0.4-2-0.6c-0.7-0.1-1.4-0.2-2.2-0.2c-2.3,0-3.4,1.2-3.4,3.6v1.3h7.6v7.7h-7.5v25.1H146
		V196z"/>
	<path class="st0" d="M183.7,221.8c-2.5,0-4.8-0.4-6.9-1.2c-2.1-0.8-4-2-5.5-3.5c-1.5-1.5-2.7-3.3-3.6-5.4c-0.9-2.1-1.3-4.4-1.3-6.9
		v-0.1c0-2.3,0.4-4.6,1.2-6.7c0.8-2.1,1.9-3.9,3.4-5.5c1.4-1.6,3.2-2.8,5.2-3.7c2-0.9,4.2-1.4,6.6-1.4c2.8,0,5.1,0.5,7.2,1.5
		c2,1,3.7,2.3,5,4c1.3,1.7,2.3,3.6,3,5.7c0.6,2.2,1,4.4,1,6.8c0,0.4,0,0.8,0,1.2c0,0.4-0.1,0.8-0.1,1.3h-23c0.5,2.1,1.4,3.8,2.8,4.8
		c1.4,1.1,3.2,1.6,5.3,1.6c1.6,0,3-0.3,4.2-0.8c1.2-0.5,2.5-1.4,3.8-2.6l5.4,4.8c-1.6,1.9-3.5,3.4-5.7,4.5
		C189.3,221.3,186.7,221.8,183.7,221.8z M189.7,201.9c-0.3-2.1-1-3.8-2.2-5.1c-1.2-1.3-2.8-1.9-4.8-1.9s-3.6,0.6-4.8,1.9
		c-1.2,1.3-2,3-2.4,5.1H189.7z"/>
	<path class="st0" d="M217.5,221.7c-2.3,0-4.7-0.4-7.2-1.2c-2.5-0.8-4.8-2.1-7-3.8l4-6.2c1.8,1.3,3.6,2.3,5.4,3c1.8,0.7,3.5,1,5,1
		c1.4,0,2.4-0.2,3-0.7c0.6-0.5,1-1.1,1-1.8v-0.1c0-0.5-0.2-0.9-0.6-1.3s-0.9-0.7-1.5-1c-0.6-0.3-1.4-0.5-2.2-0.8
		c-0.8-0.2-1.7-0.5-2.6-0.8c-1.2-0.3-2.3-0.7-3.5-1.2c-1.2-0.5-2.2-1.1-3.2-1.9s-1.7-1.7-2.3-2.8c-0.6-1.1-0.9-2.5-0.9-4.1V198
		c0-1.7,0.3-3.2,1-4.5c0.6-1.3,1.5-2.4,2.6-3.3c1.1-0.9,2.4-1.6,3.8-2c1.5-0.5,3-0.7,4.7-0.7c2.1,0,4.2,0.3,6.4,1
		c2.2,0.7,4.1,1.6,6,2.8l-3.6,6.5c-1.6-0.9-3.3-1.7-4.8-2.3c-1.6-0.6-2.9-0.8-4.1-0.8c-1.2,0-2,0.2-2.6,0.6c-0.6,0.4-0.9,1-0.9,1.6
		v0.1c0,0.5,0.2,0.9,0.6,1.2s0.9,0.7,1.5,1c0.6,0.3,1.3,0.6,2.1,0.9c0.8,0.3,1.7,0.6,2.6,0.9c1.2,0.4,2.3,0.8,3.5,1.3
		c1.2,0.5,2.3,1.1,3.2,1.9s1.7,1.6,2.3,2.7c0.6,1.1,0.9,2.4,0.9,3.9v0.1c0,1.9-0.3,3.4-1,4.8c-0.6,1.3-1.5,2.4-2.7,3.3
		c-1.2,0.9-2.5,1.5-4,1.9C220.9,221.5,219.2,221.7,217.5,221.7z"/>
	<path class="st0" d="M248.5,221.7c-2.3,0-4.7-0.4-7.2-1.2c-2.5-0.8-4.8-2.1-7-3.8l4-6.2c1.8,1.3,3.6,2.3,5.4,3c1.8,0.7,3.5,1,5,1
		c1.4,0,2.4-0.2,3-0.7c0.6-0.5,1-1.1,1-1.8v-0.1c0-0.5-0.2-0.9-0.6-1.3s-0.9-0.7-1.5-1c-0.6-0.3-1.4-0.5-2.2-0.8
		c-0.8-0.2-1.7-0.5-2.6-0.8c-1.2-0.3-2.3-0.7-3.5-1.2c-1.2-0.5-2.2-1.1-3.2-1.9s-1.7-1.7-2.3-2.8c-0.6-1.1-0.9-2.5-0.9-4.1V198
		c0-1.7,0.3-3.2,1-4.5c0.6-1.3,1.5-2.4,2.6-3.3c1.1-0.9,2.4-1.6,3.8-2c1.5-0.5,3-0.7,4.7-0.7c2.1,0,4.2,0.3,6.4,1
		c2.2,0.7,4.1,1.6,6,2.8l-3.6,6.5c-1.6-0.9-3.3-1.7-4.8-2.3c-1.6-0.6-2.9-0.8-4.1-0.8c-1.2,0-2,0.2-2.6,0.6c-0.6,0.4-0.9,1-0.9,1.6
		v0.1c0,0.5,0.2,0.9,0.6,1.2s0.9,0.7,1.5,1c0.6,0.3,1.3,0.6,2.1,0.9c0.8,0.3,1.7,0.6,2.6,0.9c1.2,0.4,2.3,0.8,3.5,1.3
		c1.2,0.5,2.3,1.1,3.2,1.9s1.7,1.6,2.3,2.7c0.6,1.1,0.9,2.4,0.9,3.9v0.1c0,1.9-0.3,3.4-1,4.8c-0.6,1.3-1.5,2.4-2.7,3.3
		c-1.2,0.9-2.5,1.5-4,1.9C251.9,221.5,250.2,221.7,248.5,221.7z"/>
	<path class="st0" d="M268,176h9.9v8.3H268V176z M268.3,188h9.4v33.1h-9.4V188z"/>
	<path class="st0" d="M302.7,221.8c-2.6,0-4.9-0.4-7.1-1.3c-2.2-0.9-4.1-2.1-5.7-3.6c-1.6-1.5-2.8-3.4-3.7-5.4s-1.4-4.3-1.4-6.7
		v-0.1c0-2.4,0.5-4.6,1.4-6.7s2.2-3.9,3.8-5.5c1.6-1.6,3.5-2.8,5.7-3.7s4.6-1.4,7.2-1.4c2.6,0,4.9,0.4,7.1,1.3
		c2.2,0.9,4.1,2.1,5.7,3.6c1.6,1.5,2.8,3.4,3.7,5.4c0.9,2.1,1.4,4.3,1.4,6.7v0.1c0,2.4-0.5,4.6-1.4,6.7c-0.9,2.1-2.2,3.9-3.8,5.5
		c-1.6,1.6-3.5,2.8-5.7,3.7C307.7,221.4,305.3,221.8,302.7,221.8z M302.9,213.7c1.4,0,2.6-0.2,3.6-0.7c1-0.5,1.9-1.1,2.7-1.9
		c0.7-0.8,1.3-1.8,1.7-2.9c0.4-1.1,0.6-2.3,0.6-3.5v-0.1c0-1.2-0.2-2.4-0.6-3.5c-0.4-1.1-1-2.1-1.8-2.9c-0.8-0.8-1.7-1.5-2.8-2
		c-1.1-0.5-2.2-0.7-3.5-0.7c-1.4,0-2.6,0.2-3.6,0.7c-1,0.5-1.9,1.1-2.7,1.9c-0.7,0.8-1.3,1.8-1.7,2.9c-0.4,1.1-0.6,2.3-0.6,3.5v0.1
		c0,1.2,0.2,2.4,0.6,3.5c0.4,1.1,1,2.1,1.8,2.9c0.8,0.8,1.7,1.5,2.7,2S301.6,213.7,302.9,213.7z"/>
	<path class="st0" d="M327.5,188h9.4v4.7c0.5-0.7,1.1-1.4,1.8-2s1.3-1.2,2.1-1.7s1.6-0.9,2.6-1.2c0.9-0.3,2-0.4,3.2-0.4
		c3.6,0,6.4,1.1,8.3,3.3c2,2.2,2.9,5.2,2.9,9v21.4h-9.4v-18.4c0-2.2-0.5-3.9-1.5-5c-1-1.1-2.4-1.7-4.2-1.7c-1.8,0-3.2,0.6-4.3,1.7
		s-1.6,2.8-1.6,5v18.4h-9.4V188z"/>
	<path class="st0" d="M375.4,221.7c-1.6,0-3-0.2-4.4-0.6c-1.4-0.4-2.6-1.1-3.6-1.9c-1-0.9-1.8-1.9-2.4-3.2c-0.6-1.3-0.9-2.7-0.9-4.4
		v-0.1c0-1.8,0.3-3.4,1-4.7c0.7-1.3,1.6-2.4,2.7-3.3c1.2-0.9,2.6-1.5,4.2-1.9c1.6-0.4,3.4-0.6,5.4-0.6c1.7,0,3.2,0.1,4.4,0.4
		c1.3,0.2,2.5,0.6,3.7,1v-0.6c0-2-0.6-3.5-1.8-4.5s-3-1.5-5.3-1.5c-1.8,0-3.4,0.2-4.8,0.5s-2.8,0.8-4.4,1.3l-2.3-7.2
		c1.8-0.8,3.7-1.4,5.7-1.9s4.4-0.7,7.2-0.7c2.6,0,4.8,0.3,6.6,1c1.8,0.6,3.3,1.6,4.5,2.7c1.2,1.2,2.1,2.7,2.7,4.5
		c0.6,1.8,0.9,3.8,0.9,6v19.2h-9.1v-3.6c-1.2,1.3-2.5,2.3-4.1,3.1C379.6,221.3,377.7,221.7,375.4,221.7z M378.2,215.2
		c2.2,0,4-0.5,5.3-1.6c1.3-1.1,2-2.5,2-4.2v-1.7c-0.8-0.4-1.7-0.7-2.7-0.9c-1-0.2-2.1-0.3-3.2-0.3c-2,0-3.6,0.4-4.8,1.2
		c-1.2,0.8-1.7,1.9-1.7,3.4v0.1c0,1.3,0.5,2.3,1.4,3C375.5,214.8,376.7,215.2,378.2,215.2z"/>
	<path class="st0" d="M403,176h9.4v45.1H403V176z"/>
	<path class="st0" d="M432.8,221.7c-2.3,0-4.7-0.4-7.2-1.2c-2.5-0.8-4.8-2.1-7-3.8l4-6.2c1.8,1.3,3.6,2.3,5.4,3c1.8,0.7,3.5,1,5,1
		c1.4,0,2.4-0.2,3-0.7c0.6-0.5,1-1.1,1-1.8v-0.1c0-0.5-0.2-0.9-0.6-1.3s-0.9-0.7-1.5-1c-0.6-0.3-1.4-0.5-2.2-0.8
		c-0.8-0.2-1.7-0.5-2.6-0.8c-1.2-0.3-2.3-0.7-3.5-1.2c-1.2-0.5-2.2-1.1-3.2-1.9s-1.7-1.7-2.3-2.8c-0.6-1.1-0.9-2.5-0.9-4.1V198
		c0-1.7,0.3-3.2,1-4.5c0.6-1.3,1.5-2.4,2.6-3.3c1.1-0.9,2.4-1.6,3.8-2c1.5-0.5,3-0.7,4.7-0.7c2.1,0,4.2,0.3,6.4,1
		c2.2,0.7,4.1,1.6,6,2.8l-3.6,6.5c-1.6-0.9-3.3-1.7-4.8-2.3c-1.6-0.6-2.9-0.8-4.1-0.8c-1.2,0-2,0.2-2.6,0.6c-0.6,0.4-0.9,1-0.9,1.6
		v0.1c0,0.5,0.2,0.9,0.6,1.2s0.9,0.7,1.5,1c0.6,0.3,1.3,0.6,2.1,0.9c0.8,0.3,1.7,0.6,2.6,0.9c1.2,0.4,2.3,0.8,3.5,1.3
		c1.2,0.5,2.3,1.1,3.2,1.9s1.7,1.6,2.3,2.7c0.6,1.1,0.9,2.4,0.9,3.9v0.1c0,1.9-0.3,3.4-1,4.8c-0.6,1.3-1.5,2.4-2.7,3.3
		c-1.2,0.9-2.5,1.5-4,1.9C436.2,221.5,434.6,221.7,432.8,221.7z"/>
</g>
</svg>
