<?xml version="1.0" encoding="utf-8"?>
<!-- Generator: Adobe Illustrator 24.0.1, SVG Export Plug-In . SVG Version: 6.00 Build 0)  -->
<svg version="1.1" id="Layer_1" xmlns="http://www.w3.org/2000/svg" xmlns:xlink="http://www.w3.org/1999/xlink" x="0px" y="0px"
	 viewBox="0 0 740 200" style="enable-background:new 0 0 740 200;" xml:space="preserve">
<style type="text/css">
	.st0{fill:#FFFFFF;}
</style>
<g>
	<g>
		<path class="st0" d="M204.1,73.2L204.1,73.2c-0.1-0.1-0.2-0.2-0.2-0.3c-1.1-1.3-2.3-2.4-3.8-3.2c-1.7-1.1-3.4-2-4.4-2.7
			c-0.1,0,2.1,1.6-0.9,11.9l-1,3.1l-0.3,0.9c-0.6,1.8-0.8,2.6-0.9,2.8l-0.1,0.2l-4.2,13.2l-1.4,4.5l-4.2,13.2l-18.2,57
			c-3.7,11.2-8.4,12.7-8.4,12.7c6,1.4,11.3,0.1,11.5,0l0,0c4.1-1.1,7.6-4.2,9.3-8.4c0,0,0,0,0,0l29.7-91.7
			C208,81.7,206.9,76.8,204.1,73.2"/>
		<path class="st0" d="M189.1,62.5L189.1,62.5C189.1,62.5,189,62.5,189.1,62.5c-0.2-0.2-0.2-0.3-0.3-0.5c-1.1-1.2-2.3-2.3-3.8-3.1
			c-1.7-1.1-3.3-1.9-4.2-2.6c-0.1,0,2.2,1.6-1,12.2l-0.8,2.6l-0.2,0.7c-0.6,1.9-0.9,2.8-1,3.1l-4.3,13.2l-1.4,4.4l-4.3,13.2
			L145.4,175c-3.5,10-7.7,11.3-7.7,11.3c1.3,0.4,2.6,0.6,3.8,0.7l0,0c0,0,0.1,0,0.1,0c4.3,0.4,7.3-0.6,7.3-0.6
			c4-1.1,7.5-4.1,9.2-8.3c0.1-0.2,20.9-64,20.9-64l4.3-13.1l1.5-4.5l4.3-13.1l1.3-3.9l1.2-3.8C193,71,191.9,66.1,189.1,62.5"/>
		<path class="st0" d="M174,51.4c-2.4-3-6.6-4.8-8.4-6.1c0,0,0,0,0.1,0.1c0.4,0.5,1.7,3-1.2,12.4c-0.2,0.8-0.5,1.6-0.8,2.5
			c-1,2.9-1.2,3.7-1.2,3.7l-4.3,13.3l-1.4,4.3l-4.3,13.3l-26.2,81.3c-3.3,9-6.2,10.4-6.2,10.4c0.8,0.1,1.7,0.3,2.7,0.4l0,0.1
			c0,0,0.1,0,0.1,0c0.8,0.1,1.6,0.1,2.4,0.1c6.8,0.1,11.9-3.1,14.1-9c0,0,0,0,0.1,0l24.5-74.9l4.3-13.2l1.4-4.4l4.3-13.2l1.2-3.8
			l1.3-4C178,59.9,176.8,54.9,174,51.4"/>
		<path class="st0" d="M165.7,45.4l-41.2-29.9c-4-2.8-9.1-3.3-13.3-1.7l0,0c-0.2,0.1-5.4,2.2-9.5,7c0,0,4.9-1.6,14.8,5.6
			c2.5,1.8,3.2,2.3,3.2,2.3l0-0.1l44.1,31.8l0.8-2.5C167.3,48.4,166,45.8,165.7,45.4"/>
		<path class="st0" d="M162.5,64L110.1,26c-4-2.8-9-3.3-13.3-1.7c0,0-5,1.6-9.2,6.9c0,0,4.2-1.4,13.3,4.9l57.3,41.4L162.5,64z"/>
		<path class="st0" d="M156.8,81.6L95.1,36.7c-5.5-3.9-11.9-3.5-17.6,0.8c-1.7,1.2-3.1,2.6-4.1,3.6c0,0,3.2-0.6,11.5,4.9l67.5,48.9
			L156.8,81.6z"/>
		<path class="st0" d="M121.4,176.3c-3.3,9-6.2,10.4-6.2,10.4l-55.5,0L24,77l45.4-32.9c0,0,3.4-1.1,10,3.7c1.6,1.2,2.1,1.5,2.1,1.5
			l31.8,23.3L82.3,95l13.4,41.2h38.6l-12.9,40.2"/>
	</g>
	<g>
		<path class="st0" d="M236.9,45.7h30.8c18,0,28.8,10.7,28.8,26v0.2c0,17.4-13.6,26.5-30.5,26.5h-12.6V121h-16.6V45.7z M266.6,83.7
			c8.3,0,13.1-4.9,13.1-11.4V72c0-7.4-5.2-11.4-13.5-11.4h-12.8v23H266.6z"/>
		<polygon class="st0" points="312.5,45.7 369.3,45.7 369.3,60.4 329,60.4 329,75.7 364.5,75.7 364.5,90.5 329,90.5 329,106.3 
			369.9,106.3 369.9,121 312.5,121 		"/>
		<polygon class="st0" points="389.6,45.7 404.9,45.7 440.2,92.1 440.2,45.7 456.6,45.7 456.6,121 442.5,121 406,73.1 406,121 
			389.6,121 		"/>
		<polygon class="st0" points="479.3,45.7 536.7,45.7 536.7,60.7 495.9,60.7 495.9,76.8 531.8,76.8 531.8,91.8 495.9,91.8 
			495.9,121 479.3,121 		"/>
		<polygon class="st0" points="553.4,45.7 610.3,45.7 610.3,60.4 569.9,60.4 569.9,75.7 605.4,75.7 605.4,90.5 569.9,90.5 
			569.9,106.3 610.8,106.3 610.8,121 553.4,121 		"/>
		<path class="st0" d="M630.5,45.7h29.4c23.7,0,40,16.3,40,37.5v0.2c0,21.2-16.4,37.7-40,37.7h-29.4V45.7z M647.1,60.6v45.4h12.8
			c13.6,0,22.7-9.1,22.7-22.5v-0.2c0-13.3-9.1-22.7-22.7-22.7H647.1z"/>
		<path class="st0" d="M233.9,161.7v-0.1c0-10.4,7.9-19,19.1-19c6.9,0,11.1,2.3,14.5,5.7l-5.1,5.9c-2.8-2.6-5.7-4.1-9.4-4.1
			c-6.2,0-10.6,5.1-10.6,11.4v0.1c0,6.3,4.3,11.5,10.6,11.5c4.2,0,6.8-1.7,9.6-4.3l5.1,5.2c-3.8,4-8,6.5-15,6.5
			C241.9,180.6,233.9,172.2,233.9,161.7"/>
		<path class="st0" d="M279.1,143.3h16.8c4.7,0,8.3,1.3,10.7,3.7c2,2,3.1,4.9,3.1,8.4v0.1c0,5.9-3.2,9.6-7.9,11.4l9,13.1h-9.4
			l-7.9-11.7h-6.3v11.7h-8.1V143.3z M295.3,161.1c3.9,0,6.2-2.1,6.2-5.2v-0.1c0-3.5-2.4-5.2-6.3-5.2h-8v10.5H295.3z"/>
		<polygon class="st0" points="322.6,143.3 350.2,143.3 350.2,150.4 330.6,150.4 330.6,157.9 347.9,157.9 347.9,165.1 330.6,165.1 
			330.6,172.8 350.5,172.8 350.5,179.9 322.6,179.9 		"/>
		<path class="st0" d="M363.6,143.3h14.3c11.5,0,19.5,7.9,19.5,18.2v0.1c0,10.3-8,18.3-19.5,18.3h-14.3V143.3z M371.7,150.5v22.1
			h6.2c6.6,0,11.1-4.5,11.1-10.9v-0.1c0-6.5-4.5-11.1-11.1-11.1H371.7z"/>
		<rect x="410.2" y="143.3" class="st0" width="8.1" height="36.7"/>
		<polygon class="st0" points="440.5,150.7 429.3,150.7 429.3,143.3 459.7,143.3 459.7,150.7 448.5,150.7 448.5,179.9 440.5,179.9 
					"/>
		<path class="st0" d="M491.5,164.2v-21h8.1V164c0,6,3,9.1,7.9,9.1c4.9,0,7.9-3,7.9-8.8v-21h8.1V164c0,11.1-6.2,16.6-16.1,16.6
			S491.5,175,491.5,164.2"/>
		<polygon class="st0" points="537.5,143.3 545,143.3 562.1,165.8 562.1,143.3 570.1,143.3 570.1,179.9 563.2,179.9 545.5,156.6 
			545.5,179.9 537.5,179.9 		"/>
		<rect x="584.8" y="143.3" class="st0" width="8.1" height="36.7"/>
		<path class="st0" d="M605.5,161.7v-0.1c0-10.4,8.2-19,19.5-19c11.3,0,19.4,8.4,19.4,18.9v0.1c0,10.4-8.2,19-19.5,19
			C613.6,180.6,605.5,172.1,605.5,161.7 M636.1,161.7v-0.1c0-6.3-4.6-11.5-11.1-11.5c-6.5,0-11,5.1-11,11.4v0.1
			c0,6.3,4.6,11.5,11.1,11.5C631.6,173.1,636.1,168,636.1,161.7"/>
		<polygon class="st0" points="657,143.3 664.5,143.3 681.7,165.8 681.7,143.3 689.6,143.3 689.6,179.9 682.8,179.9 665,156.6 
			665,179.9 657,179.9 		"/>
		<path class="st0" d="M716,56.2c0,4-3.2,7.2-7.3,7.2c-4.1,0-7.3-3.2-7.3-7.2c0-4,3.3-7.1,7.3-7.1C712.8,49.1,716,52.3,716,56.2
			 M703.2,56.2c0,3.2,2.3,5.7,5.6,5.7c3.1,0,5.4-2.5,5.4-5.6c0-3.2-2.3-5.7-5.5-5.7C705.5,50.5,703.2,53.1,703.2,56.2 M707.6,60
			h-1.7v-7.1c0.6-0.1,1.6-0.2,2.7-0.2c1.3,0,2,0.2,2.5,0.5c0.4,0.3,0.7,0.9,0.7,1.6c0,0.8-0.6,1.4-1.5,1.6v0.1
			c0.7,0.3,1.1,0.8,1.3,1.7c0.2,1.1,0.3,1.5,0.5,1.8h-1.8c-0.2-0.3-0.3-0.9-0.6-1.7c-0.1-0.8-0.6-1.1-1.5-1.1h-0.8V60z M707.6,55.9
			h0.8c0.9,0,1.6-0.3,1.6-1c0-0.7-0.5-1.1-1.5-1.1c-0.4,0-0.7,0-0.9,0.1V55.9z"/>
	</g>
</g>
</svg>
