<?xml version="1.0" encoding="utf-8"?>
<!-- Generator: Adobe Illustrator 24.0.1, SVG Export Plug-In . SVG Version: 6.00 Build 0)  -->
<svg version="1.1" id="content" xmlns="http://www.w3.org/2000/svg" xmlns:xlink="http://www.w3.org/1999/xlink" x="0px" y="0px"
	 viewBox="0 0 279 100" style="enable-background:new 0 0 279 100;" xml:space="preserve">
<style type="text/css">
	.st0{display:none;}
	.st1{display:inline;}
	.st2{fill:#FFFFFF;}
	.st3{fill:#0090B9;}
	.st4{clip-path:url(#SVGID_2_);fill:#0090B9;}
	.st5{fill:#008FBE;}
	.st6{fill:#00539D;}
	.st7{display:none;fill:#00539D;}
	.st8{font-family:'SharpSans-Book';}
	.st9{font-size:24.5px;}
</style>
<g id="CTA" class="st0">
	<g class="st1">
		<rect x="774.5" y="72.7" class="st2" width="227.1" height="42.6"/>
		<path class="st3" d="M1000.1,74.2v39.7H775.9V74.2H1000.1 M1003,71.2H773v45.6h230V71.2L1003,71.2z"/>
	</g>
	
		<text transform="matrix(1 0 0 1 804.9033 103.2107)" style="display:inline;fill:#00539D; font-family:'SharpSans-Bold'; font-size:22.7399px;">APPLY NOW</text>
	<g class="st1">
		<defs>
			
				<rect id="SVGID_1_" x="958.1" y="80.5" transform="matrix(0.7071 0.7071 -0.7071 0.7071 345.4616 -659.7308)" width="22" height="13.3"/>
		</defs>
		<clipPath id="SVGID_2_">
			<use xlink:href="#SVGID_1_"  style="overflow:visible;"/>
		</clipPath>
		
			<rect x="957.8" y="85.3" transform="matrix(-1 -8.987179e-11 8.987179e-11 -1 1928.772 183.708)" class="st4" width="13.1" height="13.1"/>
	</g>
</g>
<g>
	<path class="st5" d="M10.9,24.5H26v4.9h-9.9v3.6H26v4.9h-9.9v3.7H26v4.9H10.9V24.5z"/>
	<path class="st5" d="M33.2,38l-5.5-7.8h5.9l2.7,4.1l2.7-4.1h5.9l-5.5,7.9l6,8.3h-6l-3.1-4.3l-3,4.3h-6L33.2,38z"/>
	<path class="st5" d="M51.8,44.6v8.2h-5V30.2h5v2c0.9-1.4,2.5-2.3,4.6-2.3c3.9,0,7.5,3.2,7.5,8.4c0,5.2-3.7,8.4-7.4,8.4
		C54.4,46.7,52.8,46,51.8,44.6z M58.9,38.3c0-2-1.7-3.7-3.7-3.7s-3.7,1.6-3.7,3.7s1.6,3.7,3.7,3.7S58.9,40.3,58.9,38.3z"/>
	<path class="st5" d="M66.2,22.7h5v23.6h-5V22.7z"/>
	<path class="st5" d="M73.5,38.3c0-4.6,3.6-8.4,8.7-8.4c5,0,8.7,3.8,8.7,8.4s-3.6,8.4-8.7,8.4C77.1,46.7,73.5,42.9,73.5,38.3z
		 M85.8,38.3c0-2-1.7-3.7-3.7-3.7s-3.7,1.6-3.7,3.7s1.7,3.7,3.7,3.7S85.8,40.3,85.8,38.3z"/>
	<path class="st5" d="M93.2,30.2h5v2.3c0.8-1.9,2.5-2.6,4.6-2.6c1,0,2,0.3,2.7,0.6l-1.7,5c-0.5-0.4-1.4-0.7-2.3-0.7
		c-2,0-3.2,1-3.2,3.6v7.9h-5V30.2z"/>
	<path class="st5" d="M105.5,38.3c0-4.6,3.6-8.4,8.5-8.4c4.9,0,8.4,3.6,8.4,8.3V40h-12.1c0.5,1.6,1.9,2.5,3.8,2.5
		c1.6,0,2.7-0.6,3.3-1.7l4.1,2.4c-1.6,2.2-3.9,3.5-7.5,3.5C108.8,46.7,105.5,43,105.5,38.3z M110.6,36.2h6.9
		c-0.5-1.4-1.8-2.2-3.4-2.2C112.5,34.1,111.2,34.9,110.6,36.2z"/>
	<path class="st6" d="M131.6,22.7h5V32c1-1.4,2.5-2.2,4.3-2.2c3.6,0,5.9,2.4,5.9,6.4v10.2h-5.2v-9.1c0-1.9-0.8-2.9-2.5-2.9
		c-1.5,0-2.5,1.1-2.5,3.2v8.9h-5V22.7z"/>
	<path class="st6" d="M149.1,38.3c0-4.6,3.6-8.4,8.5-8.4c5,0,8.4,3.6,8.4,8.3V40H154c0.5,1.6,1.9,2.5,3.8,2.5c1.6,0,2.7-0.6,3.3-1.7
		l4.1,2.4c-1.7,2.2-3.9,3.5-7.5,3.5C152.4,46.7,149.1,43,149.1,38.3z M154.1,36.2h6.9c-0.5-1.4-1.8-2.2-3.4-2.2
		C156,34.1,154.8,34.9,154.1,36.2z"/>
	<path class="st6" d="M168.3,30.2h5v2.3c0.8-1.9,2.5-2.6,4.6-2.6c1.1,0,2,0.3,2.7,0.6l-1.7,5c-0.5-0.4-1.3-0.7-2.3-0.7
		c-2,0-3.2,1-3.2,3.6v7.9h-5V30.2z"/>
	<path class="st6" d="M180.6,38.3c0-4.6,3.6-8.4,8.7-8.4c5,0,8.7,3.8,8.7,8.4s-3.6,8.4-8.7,8.4C184.2,46.7,180.6,42.9,180.6,38.3z
		 M193,38.3c0-2-1.6-3.7-3.7-3.7s-3.7,1.6-3.7,3.7s1.7,3.7,3.7,3.7S193,40.3,193,38.3z"/>
	<path class="st6" d="M202.9,22.9c1.8,0,3,1.3,3,3.1c0,1.7-1.2,3-3,3c-1.8,0-3-1.3-3-3C199.9,24.1,201.2,22.9,202.9,22.9z
		 M200.4,30.2h5.2v16.2h-5.2V30.2z"/>
	<path class="st6" d="M207.9,38.3c0-4.8,3.7-8.4,8.5-8.4c3.9,0,6.8,2.1,8.1,5.3l-4.7,1.8c-0.5-1.5-1.8-2.4-3.3-2.4
		c-2,0-3.6,1.7-3.6,3.7c0,2,1.7,3.6,3.6,3.6c1.5,0,2.7-0.9,3.3-2.3l4.8,1.9c-1.5,3-4.2,5.2-8.2,5.2C211.5,46.7,207.9,43,207.9,38.3z
		"/>
	<path class="st5" d="M10.3,70.3c0-4.8,3.7-8.4,8.5-8.4c3.9,0,6.8,2.1,8.1,5.3L22.2,69c-0.5-1.5-1.8-2.4-3.3-2.4
		c-2,0-3.6,1.7-3.6,3.7c0,2,1.7,3.6,3.6,3.6c1.5,0,2.7-0.9,3.3-2.3l4.8,1.9c-1.5,3-4.2,5.2-8.2,5.2C13.9,78.7,10.3,75,10.3,70.3z"/>
	<path class="st5" d="M28.3,73.9c0-3.4,2.8-5.5,7.3-5.5h3.7v-0.1c0-1.3-1-2.2-2.8-2.2c-1.5,0-2.5,0.6-3.1,1.7l-4.8-2.1
		c1.7-2.2,4-3.7,7.8-3.7c4.9,0,7.7,2.4,7.7,6.6v9.9h-4.8v-2.2c-1.1,1.5-3.1,2.5-5.5,2.5C30.5,78.7,28.3,76.9,28.3,73.9z M39.4,72.2
		v-0.3h-3.1c-1.9,0-2.7,0.6-2.7,1.6c0,0.9,0.7,1.3,1.9,1.3C37.2,74.7,39,73.6,39.4,72.2z"/>
	<path class="st5" d="M46.9,62.2h5v2.3c0.8-1.9,2.5-2.6,4.6-2.6c1.1,0,2,0.3,2.7,0.6l-1.7,5c-0.5-0.4-1.3-0.7-2.3-0.7
		c-2,0-3.2,1-3.2,3.6v7.9h-5V62.2z"/>
	<path class="st5" d="M59.3,70.3c0-4.6,3.6-8.4,8.5-8.4c5,0,8.4,3.6,8.4,8.3V72H64.2c0.5,1.6,1.9,2.5,3.8,2.5c1.6,0,2.7-0.6,3.3-1.7
		l4.1,2.4c-1.7,2.2-3.9,3.5-7.5,3.5C62.6,78.7,59.3,75,59.3,70.3z M64.3,68.2h6.9c-0.5-1.4-1.8-2.2-3.4-2.2
		C66.2,66.1,65,66.9,64.3,68.2z"/>
	<path class="st5" d="M78.1,70.3c0-4.6,3.6-8.4,8.5-8.4c5,0,8.4,3.6,8.4,8.3V72H83c0.5,1.6,1.9,2.5,3.8,2.5c1.6,0,2.7-0.6,3.3-1.7
		l4.1,2.4c-1.7,2.2-3.9,3.5-7.5,3.5C81.4,78.7,78.1,75,78.1,70.3z M83.2,68.2h6.9c-0.5-1.4-1.8-2.2-3.4-2.2
		C85.1,66.1,83.8,66.9,83.2,68.2z"/>
	<path class="st5" d="M97.3,62.2h5v2.3c0.8-1.9,2.5-2.6,4.6-2.6c1.1,0,2,0.3,2.7,0.6l-1.7,5c-0.5-0.4-1.3-0.7-2.3-0.7
		c-2,0-3.2,1-3.2,3.6v7.9h-5V62.2z"/>
	<path class="st5" d="M109.6,74.2l5.1-1.4c0.5,1.3,1.7,2,3.1,2c1.3,0,1.9-0.6,1.9-1.3c0-0.9-1.5-1.1-3.5-1.5
		c-2.8-0.5-5.9-1.3-5.9-4.9c0-2.9,2.8-5.3,7-5.3c3.8,0,5.8,1.5,7.4,3.9l-4.8,1.5c-0.5-1-1.4-1.5-2.6-1.5c-1.2,0-1.8,0.4-1.8,1.1
		c0,0.8,1.2,1,3.4,1.4c2.7,0.5,6,1.4,6,5c0,2.7-2.4,5.6-7.3,5.5C113.4,78.7,110.8,77.1,109.6,74.2z"/>
</g>
<text transform="matrix(1 0 0 1 224.2908 77.7765)" class="st7 st8 st9">Open your eyes to Better opportunities.</text>
</svg>
