<?xml version="1.0" encoding="utf-8"?>
<!-- Generator: Adobe Illustrator 24.0.1, SVG Export Plug-In . SVG Version: 6.00 Build 0)  -->
<svg version="1.1" id="content" xmlns="http://www.w3.org/2000/svg" xmlns:xlink="http://www.w3.org/1999/xlink" x="0px" y="0px"
	 viewBox="0 0 279 100" style="enable-background:new 0 0 279 100;" xml:space="preserve">
<style type="text/css">
	.st0{display:none;}
	.st1{display:inline;}
	.st2{fill:#FFFFFF;}
	.st3{fill:#0090B9;}
	.st4{clip-path:url(#SVGID_2_);fill:#0090B9;}
	.st5{fill:#008FBE;}
	.st6{fill:#00539D;}
	.st7{display:none;fill:#00539D;}
	.st8{font-family:'SharpSans-Book';}
	.st9{font-size:24.5px;}
</style>
<g id="CTA" class="st0">
	<g class="st1">
		<rect x="774.5" y="72.7" class="st2" width="227.1" height="42.6"/>
		<path class="st3" d="M1000.1,74.2v39.7H775.9V74.2H1000.1 M1003,71.2H773v45.6h230V71.2L1003,71.2z"/>
	</g>
	
		<text transform="matrix(1 0 0 1 804.9033 103.2107)" style="display:inline;fill:#00539D; font-family:'SharpSans-Bold'; font-size:22.7399px;">APPLY NOW</text>
	<g class="st1">
		<defs>
			
				<rect id="SVGID_1_" x="958.1" y="80.5" transform="matrix(0.7071 0.7071 -0.7071 0.7071 345.4616 -659.7308)" width="22" height="13.3"/>
		</defs>
		<clipPath id="SVGID_2_">
			<use xlink:href="#SVGID_1_"  style="overflow:visible;"/>
		</clipPath>
		
			<rect x="957.8" y="85.3" transform="matrix(-1 -8.987179e-11 8.987179e-11 -1 1928.772 183.708)" class="st4" width="13.1" height="13.1"/>
	</g>
</g>
<g>
	<path class="st5" d="M10.1,24.5h5.3L18.9,38l3.8-13.5h5L31.4,38l3.5-13.5h5.2L34,46.4h-5l-3.8-13.8l-3.8,13.8h-5.2L10.1,24.5z"/>
	<path class="st5" d="M39.5,38.3c0-4.6,3.6-8.4,8.5-8.4c4.9,0,8.4,3.6,8.4,8.3V40H44.4c0.5,1.6,1.9,2.5,3.8,2.5
		c1.6,0,2.7-0.6,3.3-1.7l4.1,2.4c-1.6,2.2-3.9,3.5-7.5,3.5C42.8,46.7,39.5,43,39.5,38.3z M44.5,36.2h6.9c-0.5-1.4-1.8-2.2-3.4-2.2
		C46.4,34.1,45.2,34.9,44.5,36.2z"/>
	<path class="st5" d="M65.6,22.7h5V32c1-1.4,2.5-2.2,4.3-2.2c3.6,0,5.9,2.4,5.9,6.4v10.2h-5.2v-9.1c0-1.9-0.8-2.9-2.5-2.9
		c-1.5,0-2.5,1.1-2.5,3.2v8.9h-5V22.7z"/>
	<path class="st5" d="M86.1,22.9c1.8,0,3,1.3,3,3.1c0,1.7-1.2,3-3,3s-3-1.3-3-3C83.1,24.1,84.3,22.9,86.1,22.9z M83.5,30.2h5.2v16.2
		h-5.2V30.2z"/>
	<path class="st5" d="M91.5,30.2h5v2.3c0.8-1.9,2.5-2.6,4.6-2.6c1,0,2,0.3,2.7,0.6l-1.7,5c-0.5-0.4-1.4-0.7-2.3-0.7
		c-2,0-3.2,1-3.2,3.6v7.9h-5V30.2z"/>
	<path class="st5" d="M103.8,38.3c0-4.6,3.6-8.4,8.5-8.4c5,0,8.4,3.6,8.4,8.3V40h-12.1c0.5,1.6,1.9,2.5,3.8,2.5
		c1.6,0,2.7-0.6,3.3-1.7l4.1,2.4c-1.7,2.2-3.9,3.5-7.5,3.5C107.1,46.7,103.8,43,103.8,38.3z M108.9,36.2h6.9
		c-0.5-1.4-1.8-2.2-3.4-2.2C110.8,34.1,109.5,34.9,108.9,36.2z"/>
	<path class="st5" d="M10.4,67.4c0-6.4,4.8-11.2,11.2-11.2c4.2,0,7.8,2.2,9.7,5.4l-4.6,2.9c-1-2-2.7-3.2-5.1-3.2
		c-3.5,0-5.9,2.7-5.9,6.1c0,3.3,2.4,6.1,5.8,6.1c2.6,0,4.4-1.5,5.3-3.6l4.8,2.6c-1.9,3.6-5.4,6.2-10.1,6.2
		C14.9,78.7,10.4,73.7,10.4,67.4z"/>
	<path class="st5" d="M32.8,67.4c0-6.2,4.9-11.2,11.2-11.2c6.2,0,11.2,5,11.2,11.2c0,6.2-4.9,11.2-11.2,11.2
		C37.7,78.7,32.8,73.7,32.8,67.4z M49.9,67.4c0-3.4-2.6-6.1-6-6.1c-3.4,0-5.9,2.8-5.9,6.1c0,3.3,2.5,6.1,5.9,6.1
		C47.4,73.5,49.9,70.8,49.9,67.4z"/>
	<path class="st5" d="M55.1,56.5h5.5l5.2,14.8l5.2-14.8h5.4l-8.1,21.9h-5L55.1,56.5z"/>
	<path class="st5" d="M78.3,56.5h5.3v21.9h-5.3V56.5z"/>
	<path class="st5" d="M86.9,56.5h7.8c6.8,0,11.4,4.7,11.4,11c0,6.2-4.8,10.9-11.3,10.9h-7.9V56.5z M92.1,61.3v12.1h2.4
		c3.8,0,6.3-2.7,6.3-6.1c0-3.5-2.2-6.1-6.4-6.1H92.1z"/>
	<path class="st5" d="M109,68.6h11.1v4.3H109V68.6z"/>
	<path class="st5" d="M128.1,78.4V64.2c-0.8,1.6-2.6,2.5-4.7,2.5h-0.6v-5.1h0.2c3.5,0,5.3-1.6,5.3-5h5v21.9H128.1z"/>
	<path class="st5" d="M136.2,77.3l2.4-4.6c0.9,0.6,2.2,1.1,3.7,1.1c3.1,0,4.7-1.3,5.1-4.9c-0.8,1.4-2.2,2.2-4.4,2.2
		c-3.7,0-6.8-2.8-6.8-7.4c0-4.4,3.4-7.6,8-7.6c2.9,0,4.6,1,6.1,2.8c1.3,1.6,2.1,3.9,2.1,8c0,7.3-3,11.8-10.1,11.8
		C139.9,78.7,137.8,78.2,136.2,77.3z M146.9,63.8c0-1.6-1.2-2.8-2.8-2.8c-1.6,0-2.9,1.3-2.9,2.9c0,1.6,1.3,2.8,2.9,2.8
		C145.7,66.6,146.9,65.3,146.9,63.8z"/>
	<path class="st6" d="M174.4,70h-7.2v8.4H162V56.5h5.2v8.3h7.2v-8.3h5.2v21.9h-5.2V70z"/>
	<path class="st6" d="M182.1,70.3c0-4.6,3.6-8.4,8.5-8.4c4.9,0,8.4,3.6,8.4,8.3V72H187c0.5,1.6,1.9,2.5,3.8,2.5
		c1.6,0,2.7-0.6,3.3-1.7l4.1,2.4c-1.6,2.2-3.9,3.5-7.5,3.5C185.4,78.7,182.1,75,182.1,70.3z M187.2,68.2h6.9
		c-0.5-1.4-1.8-2.2-3.4-2.2C189,66.1,187.8,66.9,187.2,68.2z"/>
	<path class="st6" d="M201.3,62.2h5v2.3c0.8-1.9,2.5-2.6,4.6-2.6c1,0,2,0.3,2.7,0.6l-1.7,5c-0.5-0.4-1.4-0.7-2.3-0.7
		c-2,0-3.2,1-3.2,3.6v7.9h-5V62.2z"/>
	<path class="st6" d="M213.7,70.3c0-4.6,3.6-8.4,8.7-8.4c5,0,8.7,3.8,8.7,8.4s-3.6,8.4-8.7,8.4C217.3,78.7,213.7,74.9,213.7,70.3z
		 M226,70.3c0-2-1.7-3.7-3.7-3.7s-3.7,1.6-3.7,3.7s1.7,3.7,3.7,3.7S226,72.3,226,70.3z"/>
	<path class="st6" d="M233,70.3c0-4.6,3.6-8.4,8.5-8.4c4.9,0,8.4,3.6,8.4,8.3V72h-12.1c0.5,1.6,1.9,2.5,3.8,2.5
		c1.6,0,2.7-0.6,3.3-1.7l4.1,2.4c-1.6,2.2-3.9,3.5-7.5,3.5C236.2,78.7,233,75,233,70.3z M238,68.2h6.9c-0.5-1.4-1.8-2.2-3.4-2.2
		C239.9,66.1,238.6,66.9,238,68.2z"/>
	<path class="st6" d="M251.3,74.2l5.1-1.4c0.5,1.3,1.6,2,3.1,2c1.3,0,2-0.6,2-1.3c0-0.9-1.5-1.1-3.5-1.5c-2.8-0.5-5.9-1.3-5.9-4.9
		c0-2.9,2.8-5.3,7-5.3c3.8,0,5.8,1.5,7.4,3.9l-4.8,1.5c-0.5-1-1.4-1.5-2.6-1.5c-1.2,0-1.8,0.4-1.8,1.1c0,0.8,1.2,1,3.4,1.4
		c2.7,0.5,6,1.4,6,5c0,2.7-2.4,5.6-7.3,5.5C255,78.7,252.5,77.1,251.3,74.2z"/>
</g>
<text transform="matrix(1 0 0 1 224.2908 77.7765)" class="st7 st8 st9">Open your eyes to Better opportunities.</text>
</svg>
