<?xml version="1.0" encoding="utf-8"?>
<!-- Generator: Adobe Illustrator 24.0.1, SVG Export Plug-In . SVG Version: 6.00 Build 0)  -->
<svg version="1.1" id="Layer_1" xmlns="http://www.w3.org/2000/svg" xmlns:xlink="http://www.w3.org/1999/xlink" x="0px" y="0px"
	 viewBox="0 0 165.9 46" style="enable-background:new 0 0 165.9 46;" xml:space="preserve">
<style type="text/css">
	.st0{enable-background:new    ;}
	.st1{fill:#008FBE;}
	.st2{fill:#003DA6;}
</style>
<g class="st0">
	<path class="st1" d="M5.7,8h3.1l4.6,7.4V8h2.8v12.3h-2.8l-4.8-7.7v7.7H5.7V8z"/>
	<path class="st1" d="M17.5,15.7c0-2.6,2-4.7,4.9-4.7c2.8,0,4.9,2.1,4.9,4.7c0,2.6-2,4.7-4.9,4.7C19.5,20.4,17.5,18.3,17.5,15.7z
		 M24.5,15.7c0-1.1-0.9-2.1-2.1-2.1s-2.1,0.9-2.1,2.1s0.9,2.1,2.1,2.1S24.5,16.8,24.5,15.7z"/>
	<path class="st1" d="M27.5,11.2h2.8l1.6,5.2l1.8-5.2h2.4l1.8,5.3l1.6-5.3h2.8l-3,9.1h-2.6l-1.9-5.2l-1.9,5.2h-2.7L27.5,11.2z"/>
	<path class="st1" d="M47.1,7h2.8v5.2c0.6-0.8,1.4-1.2,2.4-1.2c2,0,3.3,1.3,3.3,3.6v5.7h-2.9v-5.1c0-1-0.5-1.7-1.4-1.7
		c-0.8,0-1.4,0.6-1.4,1.8v5h-2.8V7z"/>
	<path class="st1" d="M58.6,7.1c1,0,1.7,0.7,1.7,1.7c0,1-0.7,1.7-1.7,1.7s-1.7-0.7-1.7-1.7C56.9,7.8,57.6,7.1,58.6,7.1z M57.2,11.2
		h2.9v9.1h-2.9V11.2z"/>
	<path class="st1" d="M61.7,11.2h2.8v1.3c0.5-1,1.4-1.5,2.6-1.5c0.6,0,1.1,0.2,1.5,0.4l-1,2.8c-0.3-0.2-0.8-0.4-1.3-0.4
		c-1.1,0-1.8,0.6-1.8,2v4.5h-2.8V11.2z"/>
	<path class="st1" d="M71,7.1c1,0,1.7,0.7,1.7,1.7c0,1-0.7,1.7-1.7,1.7s-1.7-0.7-1.7-1.7C69.3,7.8,70,7.1,71,7.1z M69.5,11.2h2.9
		v9.1h-2.9V11.2z"/>
	<path class="st1" d="M74,11.2h2.8v1.1c0.6-0.8,1.4-1.2,2.4-1.2c2,0,3.3,1.3,3.3,3.6v5.7h-2.9v-5.1c0-1-0.5-1.7-1.4-1.7
		c-0.8,0-1.4,0.6-1.4,1.8v5H74V11.2z"/>
	<path class="st1" d="M83.9,15.7c0-2.9,2-4.7,4.2-4.7c1.2,0,2,0.5,2.6,1.2v-1h2.8v8.5c0,2.6-1.9,4.6-4.9,4.6c-2,0-3.3-0.5-4.4-1.7
		l2.4-1.8c0.5,0.6,1,1,1.9,1c1.2,0,2.1-0.8,2.1-2v-0.6c-0.6,0.8-1.5,1.3-2.6,1.3C86,20.4,83.9,18.6,83.9,15.7z M90.8,15.7
		c0-1.2-0.9-2.1-2.1-2.1c-1.1,0-2.1,0.9-2.1,2.1c0,1.2,0.9,2.1,2.1,2.1C89.9,17.7,90.8,16.8,90.8,15.7z"/>
</g>
<g class="st0">
	<path class="st2" d="M5.4,32c0-3.6,2.7-6.3,6.3-6.3c2.4,0,4.4,1.2,5.5,3l-2.6,1.6c-0.6-1.1-1.5-1.8-2.9-1.8c-2,0-3.3,1.5-3.3,3.4
		c0,1.9,1.3,3.4,3.3,3.4c1.5,0,2.5-0.8,3-2l2.7,1.4c-1,2-3,3.5-5.7,3.5C7.9,38.3,5.4,35.5,5.4,32z"/>
	<path class="st2" d="M18.2,35.6c0-1.9,1.6-3.1,4.1-3.1h2.1v-0.1c0-0.8-0.5-1.3-1.5-1.3c-0.9,0-1.4,0.3-1.7,0.9L18.5,31
		c1-1.2,2.3-2.1,4.4-2.1c2.7,0,4.3,1.4,4.3,3.7v5.6h-2.7V37c-0.6,0.9-1.7,1.4-3.1,1.4C19.4,38.3,18.2,37.3,18.2,35.6z M24.4,34.7
		v-0.2h-1.7c-1.1,0-1.5,0.4-1.5,0.9c0,0.5,0.4,0.7,1.1,0.7C23.2,36.1,24.2,35.5,24.4,34.7z"/>
	<path class="st2" d="M28.6,29.1h2.8v1.3c0.5-1,1.4-1.5,2.6-1.5c0.6,0,1.1,0.2,1.5,0.4l-1,2.8c-0.3-0.2-0.8-0.4-1.3-0.4
		c-1.1,0-1.8,0.6-1.8,2v4.5h-2.8V29.1z"/>
	<path class="st2" d="M35.6,33.6c0-2.9,2-4.7,4.2-4.7c1.1,0,2,0.5,2.5,1.2v-5.2h2.8v13.3h-2.8v-1.1c-0.6,0.8-1.5,1.3-2.6,1.3
		C37.7,38.3,35.6,36.6,35.6,33.6z M42.5,33.6c0-1.1-0.9-2.1-2.1-2.1c-1.1,0-2.1,0.9-2.1,2.1s0.9,2.1,2.1,2.1
		C41.6,35.7,42.5,34.7,42.5,33.6z"/>
	<path class="st2" d="M48.1,25c1,0,1.7,0.7,1.7,1.7c0,1-0.7,1.7-1.7,1.7s-1.7-0.7-1.7-1.7C46.4,25.7,47.1,25,48.1,25z M46.7,29.1
		h2.9v9.1h-2.9V29.1z"/>
	<path class="st2" d="M50.9,35.6c0-1.9,1.6-3.1,4.1-3.1h2.1v-0.1c0-0.8-0.5-1.3-1.5-1.3c-0.9,0-1.4,0.3-1.7,0.9L51.1,31
		c1-1.2,2.3-2.1,4.4-2.1c2.7,0,4.3,1.4,4.3,3.7v5.6h-2.7V37c-0.6,0.9-1.7,1.4-3.1,1.4C52.1,38.3,50.9,37.3,50.9,35.6z M57.1,34.7
		v-0.2h-1.7c-1.1,0-1.5,0.4-1.5,0.9c0,0.5,0.4,0.7,1.1,0.7C55.9,36.1,56.8,35.5,57.1,34.7z"/>
	<path class="st2" d="M61.1,33.6c0-2.7,2.1-4.7,4.8-4.7c2.2,0,3.8,1.2,4.5,3l-2.6,1c-0.3-0.8-1-1.3-1.9-1.3c-1.1,0-2,0.9-2,2.1
		c0,1.1,0.9,2,2,2c0.9,0,1.5-0.5,1.8-1.3l2.7,1.1c-0.8,1.7-2.3,2.9-4.6,2.9C63.1,38.3,61.1,36.3,61.1,33.6z"/>
	<path class="st2" d="M75.5,25.9h5.3c3,0,4.6,1.9,4.6,4.2c0,1.6-0.8,2.9-2,3.6l2.3,4.4h-3.2l-1.7-3.7h-2.3v3.7h-2.9V25.9z
		 M78.5,28.5v3.3h2.1c1.2,0,1.8-0.7,1.8-1.7c0-1-0.6-1.6-1.8-1.6H78.5z"/>
	<path class="st2" d="M87,25.9H90l4.6,7.4v-7.4h2.8v12.3h-2.8l-4.8-7.7v7.7H87V25.9z"/>
	<path class="st2" d="M98.5,35.8l2.8-0.8c0.3,0.7,0.9,1.1,1.7,1.1c0.7,0,1.1-0.3,1.1-0.7c0-0.5-0.8-0.6-2-0.9
		c-1.5-0.3-3.3-0.8-3.3-2.7c0-1.6,1.6-3,3.9-3c2.1,0,3.3,0.8,4.2,2.2l-2.7,0.8c-0.3-0.6-0.8-0.9-1.5-0.9c-0.7,0-1,0.2-1,0.6
		c0,0.4,0.7,0.6,1.9,0.8c1.5,0.3,3.4,0.8,3.4,2.8c0,1.5-1.3,3.1-4.1,3.1C100.6,38.3,99.2,37.4,98.5,35.8z"/>
	<path class="st2" d="M110.1,35c1,0,1.7,0.7,1.7,1.7c0,1-0.7,1.7-1.7,1.7c-1,0-1.7-0.7-1.7-1.7C108.4,35.7,109.1,35,110.1,35z"/>
</g>
</svg>
