<?xml version="1.0" encoding="utf-8"?>
<!-- Generator: Adobe Illustrator 24.0.1, SVG Export Plug-In . SVG Version: 6.00 Build 0)  -->
<svg version="1.1" id="Layer_1" xmlns="http://www.w3.org/2000/svg" xmlns:xlink="http://www.w3.org/1999/xlink" x="0px" y="0px"
	 viewBox="0 0 165.9 46" style="enable-background:new 0 0 165.9 46;" xml:space="preserve">
<style type="text/css">
	.st0{display:none;fill:#008FBE;enable-background:new    ;}
	.st1{font-family:'SharpSans-Extrabold';}
	.st2{font-size:16.8449px;}
	.st3{display:none;fill:#003DA6;enable-background:new    ;}
	.st4{font-size:16.845px;}
	.st5{enable-background:new    ;}
	.st6{fill:#008FBE;}
	.st7{fill:#003DA6;}
</style>
<text transform="matrix(1 0 0 1 4.7408 20.2668)" class="st0 st1 st2">Now hiring</text>
<text transform="matrix(1 0 0 1 161.0426 20.2668)" class="st0 st1 st2"> </text>
<text transform="matrix(1 0 0 1 4.7408 38.1643)" class="st3 st1 st4">Cardiac RNs.</text>
<g>
	<g class="st5">
		<path class="st6" d="M6.2,8.6h3l4.5,7.2V8.6h2.7v12.1h-2.8L9,13v7.6H6.2V8.6z"/>
		<path class="st6" d="M18.1,17.3v-5.6h2.9v5c0,1,0.4,1.6,1.4,1.6c0.8,0,1.4-0.6,1.4-1.7v-4.9l2.8,0v8.9l-2.8,0v-1
			c-0.6,0.8-1.4,1.2-2.4,1.2C19.3,20.8,18.1,19.5,18.1,17.3z"/>
		<path class="st6" d="M28.1,11.7h2.7V13c0.5-1,1.4-1.4,2.5-1.4c0.6,0,1.1,0.1,1.5,0.3l-1,2.8c-0.3-0.2-0.7-0.4-1.3-0.4
			c-1.1,0-1.8,0.5-1.8,2v4.4h-2.8V11.7z"/>
		<path class="st6" d="M34.8,18.3l2.8-0.8c0.2,0.7,0.9,1.1,1.7,1.1c0.7,0,1.1-0.3,1.1-0.7c0-0.5-0.8-0.6-1.9-0.8
			c-1.5-0.3-3.2-0.7-3.2-2.7c0-1.6,1.6-2.9,3.9-2.9c2.1,0,3.2,0.8,4.1,2.1l-2.6,0.8c-0.3-0.5-0.8-0.8-1.5-0.8c-0.7,0-1,0.2-1,0.6
			c0,0.4,0.6,0.5,1.9,0.8c1.5,0.3,3.3,0.8,3.3,2.8c0,1.5-1.3,3.1-4,3.1C36.9,20.8,35.5,19.9,34.8,18.3z"/>
		<path class="st6" d="M44.2,16.2c0-2.6,2-4.6,4.7-4.6c2.7,0,4.6,2,4.6,4.6v1h-6.6c0.3,0.9,1,1.4,2.1,1.4c0.9,0,1.5-0.3,1.8-0.9
			l2.2,1.3c-0.9,1.2-2.1,2-4.1,2C46.1,20.8,44.2,18.8,44.2,16.2z M47,15h3.8c-0.3-0.8-1-1.2-1.9-1.2C48.1,13.8,47.4,14.3,47,15z"/>
		<path class="st6" d="M54.3,18.3l2.8-0.8c0.2,0.7,0.9,1.1,1.7,1.1c0.7,0,1.1-0.3,1.1-0.7c0-0.5-0.8-0.6-1.9-0.8
			c-1.5-0.3-3.2-0.7-3.2-2.7c0-1.6,1.6-2.9,3.9-2.9c2.1,0,3.2,0.8,4.1,2.1L60,14.4c-0.3-0.5-0.8-0.8-1.5-0.8c-0.7,0-1,0.2-1,0.6
			c0,0.4,0.6,0.5,1.9,0.8c1.5,0.3,3.3,0.8,3.3,2.8c0,1.5-1.3,3.1-4,3.1C56.4,20.8,55,19.9,54.3,18.3z"/>
		<path class="st6" d="M67.2,11.7H70l1.5,5.1l1.8-5.1h2.3l1.8,5.2l1.6-5.2h2.8l-2.9,8.9h-2.6l-1.8-5.1l-1.8,5.1H70L67.2,11.7z"/>
		<path class="st6" d="M84.1,7.7c1,0,1.7,0.7,1.7,1.7c0,1-0.7,1.7-1.7,1.7c-1,0-1.7-0.7-1.7-1.7C82.4,8.4,83.1,7.7,84.1,7.7z
			 M82.7,11.7h2.9v8.9h-2.9V11.7z"/>
		<path class="st6" d="M86.7,11.7h1.5V9.8L91,8.3v3.4h2.2v2.4H91v2.9c0,0.9,0.3,1.1,0.8,1.1c0.3,0,0.5-0.1,0.7-0.3l1.3,2.1
			c-0.6,0.5-1.5,0.8-2.4,0.8c-2,0-3.1-0.9-3.1-3.6v-3.1h-1.5V11.7z"/>
		<path class="st6" d="M94.5,7.6h2.7v5.1c0.6-0.7,1.4-1.2,2.4-1.2c2,0,3.3,1.3,3.3,3.5v5.6H100v-5c0-1-0.4-1.6-1.4-1.6
			c-0.8,0-1.4,0.6-1.4,1.8v4.9h-2.7V7.6z"/>
		<path class="st6" d="M108.1,7.6h2.7v5.1c0.6-0.7,1.4-1.2,2.4-1.2c2,0,3.3,1.3,3.3,3.5v5.6h-2.9v-5c0-1-0.4-1.6-1.4-1.6
			c-0.8,0-1.4,0.6-1.4,1.8v4.9h-2.7V7.6z"/>
		<path class="st6" d="M117.8,16.2c0-2.6,2-4.6,4.7-4.6c2.7,0,4.6,2,4.6,4.6v1h-6.6c0.3,0.9,1,1.4,2.1,1.4c0.9,0,1.5-0.3,1.8-0.9
			l2.2,1.3c-0.9,1.2-2.1,2-4.1,2C119.6,20.8,117.8,18.8,117.8,16.2z M120.5,15h3.8c-0.3-0.8-1-1.2-1.9-1.2
			C121.6,13.8,120.9,14.3,120.5,15z"/>
		<path class="st6" d="M127.9,18.1c0-1.9,1.6-3,4-3h2V15c0-0.7-0.5-1.2-1.5-1.2c-0.8,0-1.4,0.3-1.7,0.9l-2.6-1.2
			c0.9-1.2,2.2-2,4.3-2c2.7,0,4.2,1.3,4.2,3.7v5.5H134v-1.2c-0.6,0.8-1.7,1.4-3.1,1.4C129.1,20.8,127.9,19.8,127.9,18.1z M134,17.2
			V17h-1.7c-1,0-1.5,0.3-1.5,0.9c0,0.5,0.4,0.7,1.1,0.7C132.8,18.6,133.8,18,134,17.2z"/>
		<path class="st6" d="M138.2,11.7h2.7V13c0.5-1,1.4-1.4,2.5-1.4c0.6,0,1.1,0.1,1.5,0.3l-1,2.8c-0.3-0.2-0.7-0.4-1.3-0.4
			c-1.1,0-1.8,0.5-1.8,2v4.4h-2.8V11.7z"/>
		<path class="st6" d="M145.5,11.7h1.5V9.8l2.7-1.5v3.4h2.2v2.4h-2.2v2.9c0,0.9,0.3,1.1,0.8,1.1c0.3,0,0.5-0.1,0.7-0.3l1.3,2.1
			c-0.6,0.5-1.5,0.8-2.4,0.8c-2,0-3.1-0.9-3.1-3.6v-3.1h-1.5V11.7z"/>
	</g>
	<g class="st5">
		<path class="st6" d="M6.1,28.2h2.8v1.1c0.5-0.8,1.4-1.3,2.4-1.3c1.3,0,2.1,0.5,2.6,1.4c0.6-0.9,1.5-1.4,2.7-1.4
			c2.1,0,3.2,1.3,3.2,3.5v5.6H17V32c0-1-0.4-1.6-1.3-1.6c-0.8,0-1.3,0.5-1.3,1.7v4.9h-2.8V32c0-1-0.4-1.6-1.3-1.6
			c-0.8,0-1.4,0.6-1.4,1.7v4.9H6.1V28.2z"/>
		<path class="st6" d="M21,34.6c0-1.9,1.6-3,4-3h2v-0.1c0-0.7-0.5-1.2-1.5-1.2c-0.8,0-1.4,0.3-1.7,0.9L21.2,30c0.9-1.2,2.2-2,4.3-2
			c2.7,0,4.2,1.3,4.2,3.7v5.5h-2.7v-1.2c-0.6,0.8-1.7,1.4-3.1,1.4C22.2,37.3,21,36.2,21,34.6z M27.1,33.7v-0.2h-1.7
			c-1,0-1.5,0.3-1.5,0.9c0,0.5,0.4,0.7,1.1,0.7C25.9,35.1,26.8,34.4,27.1,33.7z"/>
		<path class="st6" d="M35.1,33.8L34,35.1v2h-2.8v-13H34v7.8l3.1-3.7h3.3L37.1,32l3.4,5.1h-3.1L35.1,33.8z"/>
		<path class="st6" d="M40.1,32.6c0-2.6,2-4.6,4.7-4.6c2.7,0,4.6,2,4.6,4.6v1h-6.6c0.3,0.9,1,1.4,2.1,1.4c0.9,0,1.5-0.3,1.8-0.9
			l2.2,1.3c-0.9,1.2-2.1,2-4.1,2C41.9,37.3,40.1,35.2,40.1,32.6z M42.9,31.5h3.8c-0.3-0.8-1-1.2-1.9-1.2
			C43.9,30.3,43.2,30.8,42.9,31.5z"/>
		<path class="st6" d="M54.4,33.7v-5.6h2.9v5c0,1,0.4,1.6,1.4,1.6c0.8,0,1.4-0.6,1.4-1.7v-4.9l2.8,0v8.9l-2.8,0v-1
			c-0.6,0.8-1.4,1.2-2.4,1.2C55.7,37.3,54.4,36,54.4,33.7z"/>
		<path class="st6" d="M63.8,34.8l2.8-0.8c0.2,0.7,0.9,1.1,1.7,1.1c0.7,0,1.1-0.3,1.1-0.7c0-0.5-0.8-0.6-1.9-0.8
			c-1.5-0.3-3.2-0.7-3.2-2.7c0-1.6,1.6-2.9,3.9-2.9c2.1,0,3.2,0.8,4.1,2.1l-2.6,0.8c-0.3-0.5-0.8-0.8-1.5-0.8c-0.7,0-1,0.2-1,0.6
			c0,0.4,0.6,0.5,1.9,0.8c1.5,0.3,3.3,0.8,3.3,2.8c0,1.5-1.3,3.1-4,3.1C65.9,37.3,64.5,36.4,63.8,34.8z"/>
	</g>
	<g>
		<path class="st6" d="M122.9,29.2v-1.4h-2.3v6.8l2.3,2.3l0,0v-4.8c0-1.6,0.8-2.1,2-2.1c0.5,0,1,0.1,1.2,0.3L127,28
			c-0.4-0.2-1-0.4-1.6-0.4C124.3,27.7,123.4,28.1,122.9,29.2"/>
		<path class="st6" d="M119.7,32.3c0-2.7-2-4.7-4.8-4.7c-0.5,0-0.9,0-1.3,0.2l1.9,1.9c0.9,0.2,1.6,0.8,1.8,1.7h-0.1l1.8,1.8h0.6
			L119.7,32.3L119.7,32.3z"/>
		<polygon class="st7" points="120.6,34.6 120.6,36.9 122.9,36.9 		"/>
		<g>
			<path class="st7" d="M115.1,35.1c-1.4,0-2.3-0.7-2.7-1.9h6.7l-1.8-1.8h-4.8c0.4-1.1,1.3-1.7,2.5-1.7c0.2,0,0.4,0,0.6,0l-1.9-1.9
				c-2.1,0.5-3.5,2.4-3.5,4.6c0,2.7,1.9,4.7,4.9,4.7c2,0,3.3-0.8,4.3-2.1l-1.9-1.1C116.9,34.6,116.2,35.1,115.1,35.1"/>
			<path class="st7" d="M108.6,35c-0.6,0-1-0.3-1-1.3V30h2.4v-2.1h-2.4v-3.3l-2.3,1.3v2h-1.7V30h1.7v3.8c0,2.5,1.1,3.4,3.1,3.4
				c0.9,0,1.6-0.3,2.2-0.7l-1.1-1.8C109.2,34.8,108.9,35,108.6,35"/>
			<path class="st7" d="M101.7,35c-0.6,0-1-0.3-1-1.3V30h2.4v-2.1h-2.4v-3.3l-2.3,1.3v2h-1.7V30h1.7v3.8c0,2.5,1.1,3.4,3.1,3.4
				c0.9,0,1.6-0.3,2.2-0.7l-1.1-1.8C102.3,34.8,102,35,101.7,35"/>
			<path class="st7" d="M89.5,31.4c0.4-1.1,1.3-1.7,2.5-1.7s2.1,0.6,2.4,1.7H89.5z M92,27.6c-2.7,0-4.8,2.1-4.8,4.8s1.9,4.7,4.9,4.7
				c2,0,3.3-0.8,4.3-2.1l-1.9-1.1c-0.5,0.7-1.2,1.2-2.3,1.2c-1.4,0-2.3-0.7-2.7-1.9h7.3v-0.9C96.8,29.7,94.8,27.6,92,27.6"/>
			<path class="st7" d="M82.2,34.8h-2.8v-3.1h2.7c1.5,0,2.1,0.5,2.1,1.5C84.2,34.2,83.5,34.8,82.2,34.8 M79.3,26.8h2.8
				c1.3,0,1.9,0.5,1.9,1.4c0,0.8-0.5,1.5-1.8,1.5h-2.9C79.3,29.6,79.3,26.8,79.3,26.8z M85,30.6c0.9-0.5,1.4-1.4,1.4-2.5
				c0-2.2-1.6-3.4-4.3-3.4H77V37h5.2c2.8,0,4.5-1.2,4.5-3.7C86.6,32,86,31.1,85,30.6"/>
		</g>
		<g class="st5">
			<path class="st6" d="M126.7,34.6c0.8,0,1.4,0.6,1.4,1.5s-0.6,1.5-1.4,1.5c-0.9,0-1.4-0.6-1.4-1.5S125.8,34.6,126.7,34.6z"/>
		</g>
	</g>
</g>
</svg>
