<?xml version="1.0" encoding="utf-8"?>
<!-- Generator: Adobe Illustrator 24.0.1, SVG Export Plug-In . SVG Version: 6.00 Build 0)  -->
<svg version="1.1" id="Layer_1" xmlns="http://www.w3.org/2000/svg" xmlns:xlink="http://www.w3.org/1999/xlink" x="0px" y="0px"
	 viewBox="0 0 165.9 46" style="enable-background:new 0 0 165.9 46;" xml:space="preserve">
<style type="text/css">
	.st0{display:none;fill:#008FBE;}
	.st1{font-family:'SharpSans-Extrabold';}
	.st2{font-size:16.8449px;}
	.st3{display:none;fill:#003DA6;}
	.st4{font-size:16.845px;}
	.st5{fill:#008FBE;}
	.st6{font-size:16.5305px;}
	.st7{fill:#003DA6;}
	.st8{font-family:'SharpSans-Bold';}
</style>
<text transform="matrix(1 0 0 1 4.7408 20.2668)" class="st0 st1 st2">Now hiring</text>
<text transform="matrix(1 0 0 1 161.0426 20.2668)" class="st0 st1 st2"> </text>
<text transform="matrix(1 0 0 1 4.7408 38.1643)" class="st3 st1 st4">Cardiac RNs.</text>
<g>
	<text transform="matrix(1 0 0 1 5.3375 20.6203)" class="st5 st1 st6">Nurses with heart</text>
	<text transform="matrix(1 0 0 1 5.3375 37.0862)" class="st5 st1 st6">make us </text>
	<g>
		<path class="st5" d="M122.9,29.2v-1.4h-2.3v6.8l2.3,2.3l0,0v-4.8c0-1.6,0.8-2.1,2-2.1c0.5,0,1,0.1,1.2,0.3L127,28
			c-0.4-0.2-1-0.4-1.6-0.4C124.3,27.7,123.4,28.1,122.9,29.2"/>
		<path class="st5" d="M119.7,32.3c0-2.7-2-4.7-4.8-4.7c-0.5,0-0.9,0-1.3,0.2l1.9,1.9c0.9,0.2,1.6,0.8,1.8,1.7h-0.1l1.8,1.8h0.6
			L119.7,32.3L119.7,32.3z"/>
		<polygon class="st7" points="120.6,34.6 120.6,36.9 122.9,36.9 		"/>
		<g>
			<path class="st7" d="M115.1,35.1c-1.4,0-2.3-0.7-2.7-1.9h6.7l-1.8-1.8h-4.8c0.4-1.1,1.3-1.7,2.5-1.7c0.2,0,0.4,0,0.6,0l-1.9-1.9
				c-2.1,0.5-3.5,2.4-3.5,4.6c0,2.7,1.9,4.7,4.9,4.7c2,0,3.3-0.8,4.3-2.1l-1.9-1.1C116.9,34.6,116.2,35.1,115.1,35.1"/>
			<path class="st7" d="M108.6,35c-0.6,0-1-0.3-1-1.3v-3.7h2.4v-2.1h-2.4v-3.3l-2.3,1.3v2h-1.7v2.1h1.7v3.8c0,2.5,1.1,3.4,3.1,3.4
				c0.9,0,1.6-0.3,2.2-0.7l-1.1-1.8C109.2,34.8,108.9,35,108.6,35"/>
			<path class="st7" d="M101.7,35c-0.6,0-1-0.3-1-1.3v-3.7h2.4v-2.1h-2.4v-3.3l-2.3,1.3v2h-1.7v2.1h1.7v3.8c0,2.5,1.1,3.4,3.1,3.4
				c0.9,0,1.6-0.3,2.2-0.7l-1.1-1.8C102.3,34.8,102,35,101.7,35"/>
			<path class="st7" d="M89.5,31.4c0.4-1.1,1.3-1.7,2.5-1.7s2.1,0.6,2.4,1.7H89.5z M92,27.6c-2.7,0-4.8,2.1-4.8,4.8s1.9,4.7,4.9,4.7
				c2,0,3.3-0.8,4.3-2.1l-1.9-1.1c-0.5,0.7-1.2,1.2-2.3,1.2c-1.4,0-2.3-0.7-2.7-1.9h7.3v-0.9C96.8,29.7,94.8,27.6,92,27.6"/>
			<path class="st7" d="M82.2,34.8h-2.8v-3.1h2.7c1.5,0,2.1,0.5,2.1,1.5C84.2,34.2,83.5,34.8,82.2,34.8 M79.3,26.8h2.8
				c1.3,0,1.9,0.5,1.9,1.4c0,0.8-0.5,1.5-1.8,1.5h-2.9C79.3,29.6,79.3,26.8,79.3,26.8z M85,30.6c0.9-0.5,1.4-1.4,1.4-2.5
				c0-2.2-1.6-3.4-4.3-3.4h-5.1V37h5.2c2.8,0,4.5-1.2,4.5-3.7C86.6,32,86,31.1,85,30.6"/>
		</g>
		<text transform="matrix(1 0 0 1 124.539 37.299)" class="st5 st8 st6">.</text>
	</g>
</g>
</svg>
