<?xml version="1.0" encoding="utf-8"?>
<!-- Generator: Adobe Illustrator 24.0.1, SVG Export Plug-In . SVG Version: 6.00 Build 0)  -->
<svg version="1.1" id="Layer_2" xmlns="http://www.w3.org/2000/svg" xmlns:xlink="http://www.w3.org/1999/xlink" x="0px" y="0px"
	 viewBox="0 0 360 324" style="enable-background:new 0 0 360 324;" xml:space="preserve">
<style type="text/css">
	.st0{fill:#FFB71B;}
	.st1{fill:#008FBE;}
	.st2{fill:#003DA6;}
</style>
<polygon class="st0" points="90.4,202.2 179.5,291.3 179.5,229.8 121.2,171.5 28,77.7 28,139 87.5,199.3 87.5,199.3 90.4,202.2 
	90.4,202.2 "/>
<polygon class="st1" points="73,32.7 28,77.7 28,138.9 134.4,32.7 "/>
<polygon class="st2" points="179.5,77.7 134.5,32.7 73,32.7 179.5,139.2 "/>
<polygon class="st0" points="224.4,32.7 179.5,77.7 179.5,139.2 286,32.7 "/>
<polygon class="st1" points="286.1,32.7 224.5,32.7 331,139.2 331,77.7 "/>
<polygon class="st2" points="331,77.7 282.3,127 179.5,229.8 179.5,291.3 314.4,156.4 314.4,156.4 331,139.2 "/>
</svg>
