<?xml version="1.0" encoding="utf-8"?>
<!-- Generator: Adobe Illustrator 24.0.1, SVG Export Plug-In . SVG Version: 6.00 Build 0)  -->
<svg version="1.1" id="Layer_1" xmlns="http://www.w3.org/2000/svg" xmlns:xlink="http://www.w3.org/1999/xlink" x="0px" y="0px"
	 viewBox="0 0 300 124" style="enable-background:new 0 0 300 124;" xml:space="preserve">
<style type="text/css">
	.st0{enable-background:new    ;}
	.st1{fill:#008FBE;}
	.st2{fill:#003DA6;}
</style>
<g>
	<g class="st0">
		<path class="st1" d="M55.8,25.6h6.6l9.9,15.8V25.6h6V52h-6.1L61.9,35.4V52h-6V25.6z"/>
		<path class="st1" d="M81.3,42.2c0-5.6,4.3-10.2,10.5-10.2c6,0,10.5,4.6,10.5,10.2c0,5.6-4.3,10.1-10.5,10.1
			C85.7,52.3,81.3,47.8,81.3,42.2z M96.2,42.2c0-2.5-2-4.4-4.4-4.4s-4.4,2-4.4,4.4c0,2.5,2,4.4,4.4,4.4S96.2,44.6,96.2,42.2z"/>
		<path class="st1" d="M102.8,32.4h6.1l3.4,11.2l3.9-11.2h5.1l3.8,11.3l3.5-11.3h6.1L128.3,52h-5.7l-4-11.1l-4,11.1h-5.7L102.8,32.4
			z"/>
		<path class="st1" d="M144.9,23.5h6v11.2c1.2-1.6,3-2.6,5.2-2.6c4.3,0,7.1,2.9,7.1,7.7V52h-6.3v-11c0-2.2-1-3.5-3-3.5
			c-1.8,0-3.1,1.3-3.1,3.8V52h-6V23.5z"/>
		<path class="st1" d="M169.6,23.6c2.2,0,3.7,1.5,3.7,3.7c0,2.1-1.5,3.6-3.7,3.6s-3.6-1.5-3.6-3.6C166,25.1,167.4,23.6,169.6,23.6z
			 M166.5,32.4h6.3V52h-6.3V32.4z"/>
		<path class="st1" d="M176.1,32.4h6v2.7c1-2.2,3-3.1,5.5-3.1c1.3,0,2.4,0.3,3.3,0.8l-2.1,6.1c-0.6-0.4-1.6-0.8-2.7-0.8
			c-2.4,0-3.9,1.2-3.9,4.3V52h-6V32.4z"/>
		<path class="st1" d="M196.1,23.6c2.2,0,3.7,1.5,3.7,3.7c0,2.1-1.5,3.6-3.7,3.6s-3.6-1.5-3.6-3.6C192.5,25.1,193.9,23.6,196.1,23.6
			z M193,32.4h6.3V52H193V32.4z"/>
		<path class="st1" d="M202.6,32.4h6.1v2.3c1.2-1.7,3-2.7,5.2-2.7c4.3,0,7.1,2.9,7.1,7.7V52h-6.3v-11c0-2.2-1-3.5-3-3.5
			c-1.8,0-3.1,1.3-3.1,3.8V52h-6.1V32.4z"/>
		<path class="st1" d="M223.8,42.1c0-6.2,4.3-10.1,9.1-10.1c2.5,0,4.3,1,5.5,2.6v-2.2h6.1v18.2c0,5.5-4,9.8-10.5,9.8
			c-4.2,0-7.1-1.2-9.4-3.7l5.1-3.8c1.1,1.3,2.2,2.2,4.2,2.2c2.6,0,4.5-1.8,4.5-4.4v-1.3c-1.2,1.7-3.1,2.7-5.5,2.7
			C228.3,52.1,223.8,48.4,223.8,42.1z M238.7,42.1c0-2.5-2-4.4-4.4-4.4s-4.4,1.9-4.4,4.4c0,2.5,2,4.4,4.4,4.4S238.7,44.6,238.7,42.1
			z"/>
	</g>
	<g class="st0">
		<path class="st2" d="M35.8,78.8c0-7.7,5.8-13.6,13.5-13.6c5.1,0,9.4,2.6,11.8,6.5l-5.5,3.5c-1.2-2.4-3.3-3.8-6.2-3.8
			c-4.2,0-7.1,3.3-7.1,7.4c0,4,2.9,7.3,7.1,7.3c3.1,0,5.3-1.8,6.4-4.3l5.8,3.1c-2.2,4.4-6.5,7.4-12.2,7.4
			C41.1,92.4,35.8,86.4,35.8,78.8z"/>
		<path class="st2" d="M63.3,86.6c0-4,3.4-6.6,8.8-6.6h4.5v-0.1c0-1.6-1.2-2.7-3.3-2.7c-1.8,0-3,0.7-3.7,2l-5.8-2.6
			c2.1-2.6,4.9-4.4,9.4-4.4c5.9,0,9.2,2.9,9.2,8V92h-5.8v-2.6c-1.3,1.8-3.7,3-6.7,3C65.9,92.4,63.3,90.2,63.3,86.6z M76.7,84.6v-0.4
			h-3.7c-2.3,0-3.3,0.8-3.3,1.9c0,1.1,0.8,1.6,2.3,1.6C74,87.6,76.1,86.3,76.7,84.6z"/>
		<path class="st2" d="M85.7,72.5h6v2.7c1-2.2,3-3.1,5.5-3.1c1.3,0,2.4,0.3,3.3,0.8L98.4,79c-0.6-0.4-1.6-0.8-2.7-0.8
			c-2.4,0-3.9,1.2-3.9,4.3V92h-6V72.5z"/>
		<path class="st2" d="M100.6,82.3c0-6.3,4.3-10.2,9.1-10.2c2.5,0,4.3,1,5.4,2.6V63.5h6V92h-6v-2.4c-1.2,1.8-3.1,2.8-5.5,2.8
			C105.1,92.4,100.6,88.6,100.6,82.3z M115.5,82.2c0-2.5-2-4.4-4.4-4.4s-4.4,2-4.4,4.4c0,2.5,2,4.4,4.4,4.4S115.5,84.7,115.5,82.2z"
			/>
		<path class="st2" d="M127.6,63.7c2.2,0,3.7,1.5,3.7,3.7c0,2.1-1.5,3.6-3.7,3.6s-3.6-1.5-3.6-3.6C123.9,65.2,125.4,63.7,127.6,63.7
			z M124.4,72.5h6.3V92h-6.3V72.5z"/>
		<path class="st2" d="M133.5,86.6c0-4,3.4-6.6,8.8-6.6h4.5v-0.1c0-1.6-1.2-2.7-3.3-2.7c-1.8,0-3,0.7-3.7,2l-5.8-2.6
			c2.1-2.6,4.9-4.4,9.4-4.4c5.9,0,9.2,2.9,9.2,8V92h-5.8v-2.6c-1.3,1.8-3.7,3-6.7,3C136.1,92.4,133.5,90.2,133.5,86.6z M146.8,84.6
			v-0.4h-3.7c-2.3,0-3.3,0.8-3.3,1.9c0,1.1,0.8,1.6,2.3,1.6C144.2,87.6,146.3,86.3,146.8,84.6z"/>
		<path class="st2" d="M155.4,82.3c0-5.8,4.4-10.2,10.3-10.2c4.7,0,8.2,2.6,9.8,6.4l-5.7,2.1c-0.6-1.8-2.1-2.9-4-2.9
			c-2.4,0-4.3,2-4.3,4.4c0,2.4,2,4.4,4.3,4.4c1.8,0,3.3-1.1,3.9-2.8l5.8,2.3c-1.8,3.7-5,6.3-9.9,6.3C159.7,92.4,155.4,88,155.4,82.3
			z"/>
		<path class="st2" d="M186.4,65.6h11.4c6.4,0,9.9,4.1,9.9,9.1c0,3.4-1.6,6.2-4.3,7.8l4.9,9.5h-6.9l-3.7-7.9h-5V92h-6.3V65.6z
			 M192.7,71.4v7h4.6c2.7,0,3.9-1.6,3.9-3.5c0-2.2-1.3-3.5-3.9-3.5H192.7z"/>
		<path class="st2" d="M210.9,65.6h6.6l9.9,15.8V65.6h6V92h-6.1L217,75.4V92h-6V65.6z"/>
		<path class="st2" d="M235.7,87.1l6.1-1.7c0.5,1.6,2,2.4,3.7,2.4c1.6,0,2.4-0.7,2.4-1.5c0-1.1-1.8-1.4-4.2-1.8
			c-3.3-0.7-7.1-1.6-7.1-5.9c0-3.5,3.4-6.4,8.5-6.4c4.6,0,7,1.8,8.9,4.7l-5.8,1.8c-0.6-1.2-1.7-1.8-3.2-1.8c-1.5,0-2.2,0.5-2.2,1.3
			c0,0.9,1.4,1.2,4.1,1.7c3.3,0.7,7.3,1.7,7.3,6.1c0,3.3-2.9,6.7-8.8,6.7C240.3,92.4,237.2,90.5,235.7,87.1z"/>
		<path class="st2" d="M260.6,85.3c2.1,0,3.5,1.5,3.5,3.6s-1.4,3.5-3.5,3.5c-2.1,0-3.5-1.4-3.5-3.5S258.5,85.3,260.6,85.3z"/>
	</g>
</g>
</svg>
