<?xml version="1.0" encoding="utf-8"?>
<!-- Generator: Adobe Illustrator 24.0.1, SVG Export Plug-In . SVG Version: 6.00 Build 0)  -->
<svg version="1.1" id="Layer_1" xmlns="http://www.w3.org/2000/svg" xmlns:xlink="http://www.w3.org/1999/xlink" x="0px" y="0px"
	 viewBox="0 0 300 124" style="enable-background:new 0 0 300 124;" xml:space="preserve">
<style type="text/css">
	.st0{display:none;}
	.st1{display:inline;fill:#008FBE;}
	.st2{font-family:'SharpSans-Extrabold';}
	.st3{font-size:32.4296px;}
	.st4{display:inline;fill:#003DA6;}
	.st5{enable-background:new    ;}
	.st6{fill:#008FBE;}
	.st7{fill:#003DA6;}
</style>
<g class="st0">
	<text transform="matrix(1 0 0 1 63.5342 38.2568)" class="st1 st2 st3">Cardiac RN</text>
	<text transform="matrix(1 0 0 1 57.4536 71.6401)" class="st1 st2 st3">Hiring Event</text>
	<text transform="matrix(1 0 0 1 242.5459 71.6401)" class="st1 st2 st3"> </text>
	<text transform="matrix(1 0 0 1 58.4106 105.0239)" class="st4 st2 st3">February 19</text>
</g>
<g>
	<g class="st5">
		<path class="st6" d="M46.1,8.6h6.6l9.9,15.8V8.6h6V35h-6.1L52.2,18.4V35h-6V8.6z"/>
		<path class="st6" d="M72.1,27.6V15.5h6.3v11c0,2.2,0.9,3.5,3,3.5c1.8,0,3-1.2,3-3.8V15.5l6.2,0v19.5l-6.1,0v-2.2
			c-1.2,1.7-3,2.6-5.2,2.6C74.8,35.4,72.1,32.5,72.1,27.6z"/>
		<path class="st6" d="M93.9,15.5h6v2.7c1-2.2,3-3.1,5.5-3.1c1.3,0,2.4,0.3,3.3,0.8l-2.1,6.1c-0.6-0.4-1.6-0.8-2.7-0.8
			c-2.4,0-3.9,1.2-3.9,4.3V35h-6V15.5z"/>
		<path class="st6" d="M108.7,30l6.1-1.7c0.5,1.6,2,2.4,3.7,2.4c1.6,0,2.4-0.7,2.4-1.5c0-1.1-1.8-1.4-4.2-1.8
			c-3.3-0.7-7.1-1.6-7.1-5.9c0-3.5,3.4-6.4,8.5-6.4c4.6,0,7,1.8,8.9,4.7l-5.8,1.8c-0.6-1.2-1.7-1.8-3.2-1.8c-1.5,0-2.2,0.5-2.2,1.3
			c0,0.9,1.4,1.2,4.1,1.7c3.3,0.7,7.3,1.7,7.3,6.1c0,3.3-2.9,6.7-8.8,6.7C113.3,35.4,110.2,33.4,108.7,30z"/>
		<path class="st6" d="M129.3,25.2c0-5.6,4.4-10.2,10.3-10.2c6,0,10.2,4.3,10.2,10.1v2.1h-14.5c0.7,2,2.3,3,4.5,3
			c1.9,0,3.2-0.8,4-2.1l4.9,2.9c-2,2.7-4.7,4.3-9,4.3C133.3,35.3,129.3,30.9,129.3,25.2z M135.4,22.8h8.4c-0.7-1.7-2.1-2.6-4.1-2.6
			C137.7,20.1,136.1,21.1,135.4,22.8z"/>
		<path class="st6" d="M151.4,30l6.1-1.7c0.5,1.6,2,2.4,3.7,2.4c1.6,0,2.4-0.7,2.4-1.5c0-1.1-1.8-1.4-4.2-1.8
			c-3.3-0.7-7.1-1.6-7.1-5.9c0-3.5,3.4-6.4,8.5-6.4c4.6,0,7,1.8,8.9,4.7l-5.8,1.8c-0.6-1.2-1.7-1.8-3.2-1.8c-1.5,0-2.2,0.5-2.2,1.3
			c0,0.9,1.4,1.2,4.1,1.7c3.3,0.7,7.3,1.7,7.3,6.1c0,3.3-2.9,6.7-8.8,6.7C155.9,35.4,152.8,33.4,151.4,30z"/>
		<path class="st6" d="M179.5,15.5h6.1l3.4,11.2l3.9-11.2h5.1l3.8,11.3l3.5-11.3h6.1L205,35h-5.7l-4-11.1l-4,11.1h-5.7L179.5,15.5z"
			/>
		<path class="st6" d="M216.5,6.6c2.2,0,3.7,1.5,3.7,3.7c0,2.1-1.5,3.6-3.7,3.6s-3.6-1.5-3.6-3.6C212.9,8.2,214.3,6.6,216.5,6.6z
			 M213.4,15.5h6.3V35h-6.3V15.5z"/>
		<path class="st6" d="M222.2,15.5h3.4v-4.2l6-3.3v7.5h4.8v5.4h-4.8v6.4c0,2,0.7,2.5,1.7,2.5c0.6,0,1.1-0.2,1.6-0.7l2.7,4.6
			c-1.4,1.1-3.2,1.7-5.2,1.7c-4.3,0-6.8-2-6.8-7.8v-6.8h-3.4V15.5z"/>
		<path class="st6" d="M239.3,6.5h6v11.2c1.2-1.6,3-2.6,5.2-2.6c4.3,0,7.1,2.9,7.1,7.7V35h-6.3V24c0-2.2-1-3.5-3-3.5
			c-1.8,0-3.1,1.3-3.1,3.8V35h-6V6.5z"/>
	</g>
	<g class="st5">
		<path class="st6" d="M20.1,42.5h6v11.2c1.2-1.6,3-2.6,5.2-2.6c4.3,0,7.1,2.9,7.1,7.7V71h-6.3V60c0-2.2-1-3.5-3-3.5
			c-1.8,0-3.1,1.3-3.1,3.8V71h-6V42.5z"/>
		<path class="st6" d="M41.2,61.2c0-5.6,4.4-10.2,10.3-10.2c6,0,10.2,4.3,10.2,10.1v2.1H47.1c0.7,2,2.3,3,4.5,3c1.9,0,3.2-0.8,4-2.1
			l4.9,2.9c-2,2.7-4.7,4.3-9,4.3C45.2,71.4,41.2,66.9,41.2,61.2z M47.3,58.8h8.4c-0.7-1.7-2.1-2.6-4.1-2.6
			C49.6,56.1,48,57.2,47.3,58.8z"/>
		<path class="st6" d="M63.4,65.5c0-4,3.4-6.6,8.8-6.6h4.5v-0.1c0-1.6-1.2-2.7-3.3-2.7c-1.8,0-3,0.7-3.7,2L64,55.5
			c2.1-2.6,4.9-4.4,9.4-4.4c5.9,0,9.2,2.9,9.2,8V71h-5.8v-2.6c-1.3,1.8-3.7,3-6.7,3C66.1,71.4,63.4,69.2,63.4,65.5z M76.8,63.6v-0.4
			h-3.7c-2.3,0-3.3,0.8-3.3,1.9c0,1.1,0.8,1.6,2.3,1.6C74.2,66.6,76.2,65.2,76.8,63.6z"/>
		<path class="st6" d="M85.8,51.5h6v2.7c1-2.2,3-3.1,5.5-3.1c1.3,0,2.4,0.3,3.3,0.8l-2.1,6.1c-0.6-0.4-1.6-0.8-2.7-0.8
			c-2.4,0-3.9,1.2-3.9,4.3V71h-6V51.5z"/>
		<path class="st6" d="M102,51.5h3.4v-4.2l6-3.3v7.5h4.8v5.4h-4.8v6.4c0,2,0.7,2.5,1.7,2.5c0.6,0,1.1-0.2,1.6-0.7l2.7,4.6
			c-1.4,1.1-3.2,1.7-5.2,1.7c-4.3,0-6.8-2-6.8-7.8v-6.8H102V51.5z"/>
		<path class="st6" d="M127.3,51.5h6.1v2.4c1.2-1.7,3.1-2.7,5.3-2.7c2.7,0,4.7,1.1,5.7,3.1c1.2-2,3.3-3.1,5.8-3.1
			c4.6,0,7.1,2.9,7.1,7.6V71h-6.2V59.9c0-2.2-0.8-3.5-2.8-3.5c-1.7,0-2.9,1.2-2.9,3.8V71h-6.2V59.9c0-2.2-0.9-3.4-2.7-3.4
			c-1.8,0-3,1.2-3,3.8V71h-6.1V51.5z"/>
		<path class="st6" d="M159.8,65.5c0-4,3.4-6.6,8.8-6.6h4.5v-0.1c0-1.6-1.2-2.7-3.3-2.7c-1.8,0-3,0.7-3.7,2l-5.8-2.6
			c2.1-2.6,4.9-4.4,9.4-4.4c5.9,0,9.2,2.9,9.2,8V71h-5.8v-2.6c-1.3,1.8-3.7,3-6.7,3C162.5,71.4,159.8,69.2,159.8,65.5z M173.2,63.6
			v-0.4h-3.7c-2.3,0-3.3,0.8-3.3,1.9c0,1.1,0.8,1.6,2.3,1.6C170.6,66.6,172.6,65.2,173.2,63.6z"/>
		<path class="st6" d="M190.8,63.8l-2.5,2.9V71h-6V42.5h6v17l6.7-8.1h7.2l-7.1,8.4l7.4,11.1h-6.9L190.8,63.8z"/>
		<path class="st6" d="M201.6,61.2c0-5.6,4.4-10.2,10.3-10.2c6,0,10.2,4.3,10.2,10.1v2.1h-14.5c0.7,2,2.3,3,4.5,3
			c1.9,0,3.2-0.8,4-2.1l4.9,2.9c-2,2.7-4.7,4.3-9,4.3C205.6,71.4,201.6,66.9,201.6,61.2z M207.7,58.8h8.4c-0.7-1.7-2.1-2.6-4.1-2.6
			C210,56.1,208.5,57.2,207.7,58.8z"/>
		<path class="st6" d="M233,63.7V51.5h6.3v11c0,2.2,0.9,3.5,3,3.5c1.8,0,3-1.2,3-3.8V51.5l6.2,0V71l-6.1,0v-2.2
			c-1.2,1.7-3,2.6-5.2,2.6C235.7,71.4,233,68.6,233,63.7z"/>
		<path class="st6" d="M253.6,66l6.1-1.7c0.5,1.6,2,2.4,3.7,2.4c1.6,0,2.4-0.7,2.4-1.5c0-1.1-1.8-1.4-4.2-1.8
			c-3.3-0.7-7.1-1.6-7.1-5.9c0-3.5,3.4-6.4,8.5-6.4c4.6,0,7,1.8,8.9,4.7l-5.8,1.8c-0.6-1.2-1.7-1.8-3.2-1.8c-1.5,0-2.2,0.5-2.2,1.3
			c0,0.9,1.4,1.2,4.1,1.7c3.3,0.7,7.3,1.7,7.3,6.1c0,3.3-2.9,6.7-8.8,6.7C258.1,71.4,255.1,69.5,253.6,66z"/>
	</g>
	<g>
		<path class="st6" d="M193.8,91.6v-3.1h-5.1v14.9l5.1,5l0,0V97.9c0-3.4,1.7-4.7,4.4-4.7c1.2,0,2.1,0.3,2.7,0.7l1.9-5
			c-0.9-0.4-2.1-0.8-3.4-0.8C196.8,88.2,194.8,89.2,193.8,91.6"/>
		<path class="st6" d="M186.8,98.3c0-5.9-4.4-10.2-10.4-10.2c-1,0-1.9,0.1-2.8,0.4l4.1,4.1c2,0.4,3.5,1.7,4,3.7h-0.2l4,4h1.3
			L186.8,98.3L186.8,98.3z"/>
		<polygon class="st7" points="188.7,103.4 188.7,108.4 193.8,108.4 		"/>
		<g>
			<path class="st7" d="M176.6,104.5c-3,0-5.1-1.6-5.8-4.2h14.7l-4-4H171c0.8-2.3,2.8-3.8,5.5-3.8c0.5,0,0.9,0,1.3,0.1l-4.1-4.1
				c-4.6,1.2-7.7,5.2-7.7,10c0,5.8,4.2,10.3,10.7,10.3c4.4,0,7.3-1.8,9.3-4.6l-4.2-2.4C180.6,103.4,179,104.5,176.6,104.5"/>
			<path class="st7" d="M162.4,104.1c-1.3,0-2.2-0.7-2.2-2.8v-8.2h5.3v-4.5h-5.3v-7.3l-5.1,2.9v4.3h-3.7V93h3.7v8.4
				c0,5.4,2.5,7.4,6.7,7.4c1.9,0,3.5-0.6,4.8-1.5l-2.4-4C163.7,103.8,163.1,104.1,162.4,104.1"/>
			<path class="st7" d="M147.4,104.1c-1.3,0-2.2-0.7-2.2-2.8v-8.2h5.3v-4.5h-5.3v-7.3l-5.1,2.9v4.3h-3.7V93h3.7v8.4
				c0,5.4,2.5,7.4,6.7,7.4c1.9,0,3.5-0.6,4.8-1.5l-2.4-4C148.7,103.8,148.1,104.1,147.4,104.1"/>
			<path class="st7" d="M120.7,96.3c0.8-2.3,2.8-3.8,5.5-3.8s4.6,1.4,5.3,3.8H120.7z M126.2,88.1c-6,0-10.6,4.6-10.6,10.4
				s4.2,10.3,10.7,10.3c4.4,0,7.3-1.8,9.3-4.6l-4.2-2.4c-1,1.6-2.6,2.7-5,2.7c-3,0-5.1-1.6-5.8-4.2h16v-1.9
				C136.6,92.5,132.3,88.1,126.2,88.1"/>
			<path class="st7" d="M104.6,103.8h-6.2v-6.7h6c3.3,0,4.6,1.2,4.6,3.3S107.5,103.8,104.6,103.8 M98.4,86.2h6.2
				c2.8,0,4.1,1.1,4.1,3c0,1.8-1.2,3.2-4,3.2h-6.3C98.4,92.4,98.4,86.2,98.4,86.2z M110.8,94.5c2-1.1,3.1-3,3.1-5.4
				c0-4.8-3.4-7.5-9.5-7.5H93.2v26.9h11.4c6.1,0,9.8-2.7,9.8-8C114.4,97.7,113.1,95.7,110.8,94.5"/>
		</g>
		<g class="st5">
			<path class="st6" d="M202,103.4c1.8,0,3.1,1.3,3.1,3.2c0,1.8-1.3,3.2-3.1,3.2c-1.9,0-3.1-1.3-3.1-3.2
				C198.8,104.7,200.1,103.4,202,103.4z"/>
		</g>
	</g>
</g>
</svg>
