<?xml version="1.0" encoding="utf-8"?>
<!-- Generator: Adobe Illustrator 24.0.1, SVG Export Plug-In . SVG Version: 6.00 Build 0)  -->
<svg version="1.1" id="Layer_1" xmlns="http://www.w3.org/2000/svg" xmlns:xlink="http://www.w3.org/1999/xlink" x="0px" y="0px"
	 viewBox="0 0 300 124" style="enable-background:new 0 0 300 124;" xml:space="preserve">
<style type="text/css">
	.st0{display:none;}
	.st1{display:inline;fill:#008FBE;}
	.st2{font-family:'SharpSans-Extrabold';}
	.st3{font-size:32.4296px;}
	.st4{display:inline;fill:#003DA6;}
	.st5{fill:#008FBE;}
	.st6{font-size:36.167px;}
	.st7{fill:#003DA6;}
	.st8{font-family:'SharpSans-Bold';}
</style>
<g class="st0">
	<text transform="matrix(1 0 0 1 63.5342 38.2568)" class="st1 st2 st3">Cardiac RN</text>
	<text transform="matrix(1 0 0 1 57.4536 71.6401)" class="st1 st2 st3">Hiring Event</text>
	<text transform="matrix(1 0 0 1 242.5459 71.6401)" class="st1 st2 st3"> </text>
	<text transform="matrix(1 0 0 1 58.4106 105.0239)" class="st4 st2 st3">February 19</text>
</g>
<g>
	<text transform="matrix(1 0 0 1 44.1771 34.9851)" class="st5 st2 st6">Nurses with</text>
	<text transform="matrix(1 0 0 1 18.4631 71.0099)" class="st5 st2 st6">heart make us </text>
	<g>
		<path class="st5" d="M193.8,91.6v-3.1h-5.1v14.9l5.1,5l0,0V97.9c0-3.4,1.7-4.7,4.4-4.7c1.2,0,2.1,0.3,2.7,0.7l1.9-5
			c-0.9-0.4-2.1-0.8-3.4-0.8C196.8,88.2,194.8,89.2,193.8,91.6"/>
		<path class="st5" d="M186.8,98.3c0-5.9-4.4-10.2-10.4-10.2c-1,0-1.9,0.1-2.8,0.4l4.1,4.1c2,0.4,3.5,1.7,4,3.7h-0.2l4,4h1.3
			L186.8,98.3L186.8,98.3z"/>
		<polygon class="st7" points="188.7,103.4 188.7,108.4 193.8,108.4 		"/>
		<g>
			<path class="st7" d="M176.6,104.5c-3,0-5.1-1.6-5.8-4.2h14.7l-4-4H171c0.8-2.3,2.8-3.8,5.5-3.8c0.5,0,0.9,0,1.3,0.1l-4.1-4.1
				c-4.6,1.2-7.7,5.2-7.7,10c0,5.8,4.2,10.3,10.7,10.3c4.4,0,7.3-1.8,9.3-4.6l-4.2-2.4C180.6,103.4,179,104.5,176.6,104.5"/>
			<path class="st7" d="M162.4,104.1c-1.3,0-2.2-0.7-2.2-2.8v-8.2h5.3v-4.5h-5.3v-7.3l-5.1,2.9v4.3h-3.7V93h3.7v8.4
				c0,5.4,2.5,7.4,6.7,7.4c1.9,0,3.5-0.6,4.8-1.5l-2.4-4C163.7,103.8,163.1,104.1,162.4,104.1"/>
			<path class="st7" d="M147.4,104.1c-1.3,0-2.2-0.7-2.2-2.8v-8.2h5.3v-4.5h-5.3v-7.3l-5.1,2.9v4.3h-3.7V93h3.7v8.4
				c0,5.4,2.5,7.4,6.7,7.4c1.9,0,3.5-0.6,4.8-1.5l-2.4-4C148.7,103.8,148.1,104.1,147.4,104.1"/>
			<path class="st7" d="M120.7,96.3c0.8-2.3,2.8-3.8,5.5-3.8s4.6,1.4,5.3,3.8H120.7z M126.2,88.1c-6,0-10.6,4.6-10.6,10.4
				s4.2,10.3,10.7,10.3c4.4,0,7.3-1.8,9.3-4.6l-4.2-2.4c-1,1.6-2.6,2.7-5,2.7c-3,0-5.1-1.6-5.8-4.2h16v-1.9
				C136.6,92.5,132.3,88.1,126.2,88.1"/>
			<path class="st7" d="M104.6,103.8h-6.2v-6.7h6c3.3,0,4.6,1.2,4.6,3.3S107.5,103.8,104.6,103.8 M98.4,86.2h6.2
				c2.8,0,4.1,1.1,4.1,3c0,1.8-1.2,3.2-4,3.2h-6.3C98.4,92.4,98.4,86.2,98.4,86.2z M110.8,94.5c2-1.1,3.1-3,3.1-5.4
				c0-4.8-3.4-7.5-9.5-7.5H93.2v26.9h11.4c6.1,0,9.8-2.7,9.8-8C114.4,97.7,113.1,95.7,110.8,94.5"/>
		</g>
		<text transform="matrix(1 0 0 1 197.342 109.2319)" class="st5 st8 st6">.</text>
	</g>
</g>
</svg>
