<?xml version="1.0" encoding="utf-8"?>
<!-- Generator: Adobe Illustrator 24.0.1, SVG Export Plug-In . SVG Version: 6.00 Build 0)  -->
<svg version="1.1" id="Layer_1" xmlns="http://www.w3.org/2000/svg" xmlns:xlink="http://www.w3.org/1999/xlink" x="0px" y="0px"
	 viewBox="0 0 157.5 32" style="enable-background:new 0 0 157.5 32;" xml:space="preserve">
<style type="text/css">
	.st0{fill:#FFFFFF;}
	.st1{fill:#0090B9;}
	.st2{fill:#00539D;}
</style>
<g>
	<rect x="1.5" y="1.5" class="st0" width="154.5" height="29"/>
	<path class="st1" d="M155,2.5v27H2.5v-27H155 M157,0.5H0.5v31H157V0.5L157,0.5z"/>
</g>
<g>
	<path class="st2" d="M26.7,11h2.2l4.3,11.3h-2.2l-0.7-2.1h-4.7l-0.7,2.1h-2.2L26.7,11z M26.2,18.2h3.3l-1.6-4.5L26.2,18.2z"/>
	<path class="st2" d="M34.9,11h4.5c2.5,0,4.2,1.8,4.2,4.1c0,2.2-1.7,4.1-4.3,4.1h-2.2v3.1h-2.2V11z M37.1,13v4.2h2.1
		c1.3,0,2.2-0.9,2.2-2.1c0-1.2-0.9-2.1-2.2-2.1H37.1z"/>
	<path class="st2" d="M45.9,11h4.5c2.5,0,4.2,1.8,4.2,4.1c0,2.2-1.7,4.1-4.3,4.1h-2.2v3.1h-2.2V11z M48.1,13v4.2h2.1
		c1.3,0,2.2-0.9,2.2-2.1c0-1.2-0.9-2.1-2.2-2.1H48.1z"/>
	<path class="st2" d="M56.8,11H59v9.2h5.2v2.1h-7.4V11z"/>
	<path class="st2" d="M67.3,17.5L63.5,11h2.4l2.6,4.5L71,11h2.4l-3.9,6.6v4.7h-2.2V17.5z"/>
	<path class="st2" d="M79.3,11h2.3l5,7.7V11h2.1v11.3h-2.2l-5.1-7.9v7.9h-2.1V11z"/>
	<path class="st2" d="M91,16.6c0-3.2,2.6-5.8,5.8-5.8c3.2,0,5.8,2.6,5.8,5.8s-2.6,5.8-5.8,5.8C93.6,22.4,91,19.8,91,16.6z
		 M100.4,16.6c0-2-1.6-3.7-3.6-3.7c-2,0-3.6,1.7-3.6,3.7c0,2,1.5,3.7,3.6,3.7C98.8,20.3,100.4,18.6,100.4,16.6z"/>
	<path class="st2" d="M103.6,11h2.2l2.1,7.9l2.4-7.9h2.1l2.3,7.9l2.1-7.9h2.2l-3.2,11.3h-2.2l-2.4-8l-2.4,8h-2.2L103.6,11z"/>
</g>
<polygon class="st1" points="132.6,20.9 132.6,11.2 122.9,11.2 "/>
</svg>
