<?xml version="1.0" encoding="utf-8"?>
<!-- Generator: Adobe Illustrator 24.0.1, SVG Export Plug-In . SVG Version: 6.00 Build 0)  -->
<svg version="1.1" id="content" xmlns="http://www.w3.org/2000/svg" xmlns:xlink="http://www.w3.org/1999/xlink" x="0px" y="0px"
	 viewBox="0 0 600 81" style="enable-background:new 0 0 600 81;" xml:space="preserve">
<style type="text/css">
	.st0{fill:#008FBE;}
	.st1{fill:#00539D;}
</style>
<g>
	<path class="st0" d="M32.3,25.8h21.6v6.9H39.8v5.1h14.1v6.9H39.8v5.3h14.1V57H32.3V25.8z"/>
	<path class="st0" d="M64.2,45.1l-7.9-11.2h8.4l3.9,5.8l3.9-5.8h8.4L73,45.2L81.5,57H73l-4.5-6.2L64.2,57h-8.5L64.2,45.1z"/>
	<path class="st0" d="M90.7,54.5v11.8h-7.2V33.9h7.1v2.9c1.3-2.1,3.5-3.3,6.5-3.3c5.6,0,10.7,4.6,10.7,12c0,7.5-5.2,12-10.6,12
		C94.3,57.5,92.1,56.5,90.7,54.5z M100.7,45.4c0-2.9-2.4-5.2-5.2-5.2s-5.2,2.3-5.2,5.2c0,2.9,2.4,5.2,5.2,5.2S100.7,48.3,100.7,45.4
		z"/>
	<path class="st0" d="M111.1,23.3h7.1V57h-7.1V23.3z"/>
	<path class="st0" d="M121.5,45.5c0-6.6,5.1-12,12.4-12c7.1,0,12.4,5.4,12.4,12c0,6.6-5.1,12-12.4,12
		C126.7,57.5,121.5,52.1,121.5,45.5z M139.2,45.4c0-2.9-2.4-5.2-5.2-5.2s-5.2,2.3-5.2,5.2c0,2.9,2.4,5.2,5.2,5.2
		S139.2,48.3,139.2,45.4z"/>
	<path class="st0" d="M149.7,33.9h7.1v3.3c1.2-2.7,3.5-3.7,6.5-3.7c1.5,0,2.8,0.4,3.9,0.9l-2.5,7.2c-0.7-0.5-1.9-0.9-3.3-0.9
		c-2.8,0-4.6,1.4-4.6,5.1V57h-7.1V33.9z"/>
	<path class="st0" d="M167.3,45.5c0-6.6,5.2-12,12.2-12c7.1,0,12,5.1,12,11.9v2.5h-17.2c0.8,2.3,2.7,3.6,5.4,3.6
		c2.2,0,3.8-0.9,4.8-2.4l5.8,3.4c-2.4,3.2-5.5,5-10.7,5C172,57.5,167.3,52.2,167.3,45.5z M174.5,42.6h9.9c-0.8-2.1-2.5-3.1-4.9-3.1
		C177.2,39.4,175.4,40.6,174.5,42.6z"/>
	<path class="st1" d="M204.5,23.3h7.1v13.2c1.5-1.9,3.6-3.1,6.2-3.1c5.1,0,8.4,3.4,8.4,9.1V57h-7.4V44c0-2.7-1.2-4.2-3.5-4.2
		c-2.1,0-3.6,1.5-3.6,4.5V57h-7.1V23.3z"/>
	<path class="st1" d="M229.4,45.5c0-6.6,5.2-12,12.2-12c7.1,0,12,5.1,12,11.9v2.5h-17.2c0.8,2.3,2.7,3.6,5.4,3.6
		c2.2,0,3.8-0.9,4.8-2.4l5.8,3.4c-2.4,3.2-5.5,5-10.7,5C234.1,57.5,229.4,52.2,229.4,45.5z M236.6,42.6h9.9
		c-0.8-2.1-2.5-3.1-4.9-3.1C239.3,39.4,237.5,40.6,236.6,42.6z"/>
	<path class="st1" d="M256.8,33.9h7.1v3.3c1.2-2.7,3.5-3.7,6.5-3.7c1.5,0,2.8,0.4,3.9,0.9l-2.5,7.2c-0.7-0.5-1.9-0.9-3.3-0.9
		c-2.8,0-4.6,1.4-4.6,5.1V57h-7.1V33.9z"/>
	<path class="st1" d="M274.5,45.5c0-6.6,5.1-12,12.4-12c7.1,0,12.4,5.4,12.4,12c0,6.6-5.1,12-12.4,12
		C279.6,57.5,274.5,52.1,274.5,45.5z M292.1,45.4c0-2.9-2.4-5.2-5.2-5.2s-5.2,2.3-5.2,5.2c0,2.9,2.4,5.2,5.2,5.2
		S292.1,48.3,292.1,45.4z"/>
	<path class="st1" d="M306.3,23.5c2.6,0,4.3,1.8,4.3,4.4c0,2.5-1.8,4.3-4.3,4.3c-2.6,0-4.3-1.8-4.3-4.3
		C302,25.3,303.7,23.5,306.3,23.5z M302.6,33.9h7.4V57h-7.4V33.9z"/>
	<path class="st1" d="M313.3,45.5c0-6.8,5.2-12,12.2-12c5.6,0,9.7,3,11.6,7.6l-6.7,2.5c-0.7-2.1-2.5-3.4-4.7-3.4
		c-2.8,0-5.1,2.4-5.1,5.3c0,2.8,2.4,5.2,5.1,5.2c2.2,0,3.9-1.3,4.7-3.3l6.9,2.7c-2.1,4.3-5.9,7.4-11.7,7.4
		C318.5,57.5,313.3,52.2,313.3,45.5z"/>
	<path class="st0" d="M349.1,45.5c0-6.8,5.2-12,12.2-12c5.6,0,9.7,3,11.6,7.6l-6.7,2.5c-0.7-2.1-2.5-3.4-4.7-3.4
		c-2.8,0-5.1,2.4-5.1,5.3c0,2.8,2.4,5.2,5.1,5.2c2.2,0,3.9-1.3,4.7-3.3l6.9,2.7c-2.1,4.3-5.9,7.4-11.7,7.4
		C354.3,57.5,349.1,52.2,349.1,45.5z"/>
	<path class="st0" d="M374.9,50.6c0-4.8,4.1-7.8,10.4-7.8h5.3v-0.2c0-1.9-1.4-3.2-3.9-3.2c-2.2,0-3.6,0.8-4.4,2.4l-6.8-3
		c2.4-3.1,5.8-5.3,11.1-5.3c7,0,10.9,3.5,10.9,9.5V57h-6.9V54c-1.5,2.2-4.4,3.6-7.9,3.6C378,57.5,374.9,54.9,374.9,50.6z
		 M390.7,48.2v-0.5h-4.4c-2.7,0-3.9,0.9-3.9,2.2c0,1.3,0.9,1.8,2.7,1.8C387.6,51.8,390.1,50.2,390.7,48.2z"/>
	<path class="st0" d="M401.4,33.9h7.1v3.3c1.2-2.7,3.5-3.7,6.5-3.7c1.5,0,2.8,0.4,3.9,0.9l-2.5,7.2c-0.7-0.5-1.9-0.9-3.3-0.9
		c-2.8,0-4.6,1.4-4.6,5.1V57h-7.1V33.9z"/>
	<path class="st0" d="M419.1,45.5c0-6.6,5.2-12,12.2-12c7.1,0,12,5.1,12,11.9v2.5H426c0.8,2.3,2.7,3.6,5.4,3.6
		c2.2,0,3.8-0.9,4.8-2.4l5.8,3.4c-2.4,3.2-5.5,5-10.7,5C423.7,57.5,419.1,52.2,419.1,45.5z M426.3,42.6h9.9
		c-0.8-2.1-2.5-3.1-4.9-3.1C429,39.4,427.2,40.6,426.3,42.6z"/>
	<path class="st0" d="M445.9,45.5c0-6.6,5.2-12,12.2-12c7.1,0,12,5.1,12,11.9v2.5h-17.2c0.8,2.3,2.7,3.6,5.4,3.6
		c2.2,0,3.8-0.9,4.8-2.4l5.8,3.4c-2.4,3.2-5.5,5-10.7,5C450.6,57.5,445.9,52.2,445.9,45.5z M453.1,42.6h9.9
		c-0.8-2.1-2.5-3.1-4.9-3.1C455.8,39.4,454,40.6,453.1,42.6z"/>
	<path class="st0" d="M473.3,33.9h7.1v3.3c1.2-2.7,3.5-3.7,6.5-3.7c1.5,0,2.8,0.4,3.9,0.9l-2.5,7.2c-0.7-0.5-1.9-0.9-3.3-0.9
		c-2.8,0-4.6,1.4-4.6,5.1V57h-7.1V33.9z"/>
	<path class="st0" d="M490.9,51.1l7.2-2.1c0.6,1.9,2.4,2.8,4.4,2.8c1.8,0,2.8-0.8,2.8-1.8c0-1.3-2.1-1.6-5-2.2
		c-3.9-0.8-8.4-1.9-8.4-7c0-4.2,4.1-7.6,10-7.5c5.4,0,8.3,2.1,10.6,5.5l-6.8,2.1c-0.7-1.4-2-2.2-3.8-2.2c-1.8,0-2.6,0.6-2.6,1.5
		c0,1.1,1.7,1.4,4.9,2.1c3.9,0.8,8.6,2.1,8.6,7.2c0,3.9-3.4,8-10.4,7.9C496.2,57.5,492.6,55.2,490.9,51.1z"/>
</g>
</svg>
