<?xml version="1.0" encoding="utf-8"?>
<!-- Generator: Adobe Illustrator 24.0.1, SVG Export Plug-In . SVG Version: 6.00 Build 0)  -->
<svg version="1.1" id="content" xmlns="http://www.w3.org/2000/svg" xmlns:xlink="http://www.w3.org/1999/xlink" x="0px" y="0px"
	 viewBox="0 0 600 81" style="enable-background:new 0 0 600 81;" xml:space="preserve">
<style type="text/css">
	.st0{fill:#008FBE;}
	.st1{fill:#00539D;}
</style>
<g>
	<path class="st0" d="M31.2,25.8h7.6l4.9,19.3L49,25.8h7.1l5.4,19.3l4.9-19.3H74L65.3,57h-7.2l-5.5-19.7L47.2,57h-7.4L31.2,25.8z"/>
	<path class="st0" d="M73.1,45.5c0-6.6,5.2-12,12.2-12c7.1,0,12,5.1,12,11.9v2.5H80.1c0.8,2.3,2.7,3.6,5.4,3.6
		c2.2,0,3.8-0.9,4.8-2.4l5.8,3.4c-2.4,3.2-5.5,5-10.7,5C77.8,57.5,73.1,52.2,73.1,45.5z M80.3,42.6h9.9c-0.8-2.1-2.5-3.1-4.9-3.1
		C83,39.4,81.2,40.6,80.3,42.6z"/>
	<path class="st0" d="M110.3,23.3h7.1v13.2c1.5-1.9,3.6-3.1,6.2-3.1c5.1,0,8.4,3.4,8.4,9.1V57h-7.4V44c0-2.7-1.2-4.2-3.5-4.2
		c-2.1,0-3.6,1.5-3.6,4.5V57h-7.1V23.3z"/>
	<path class="st0" d="M139.5,23.5c2.6,0,4.3,1.8,4.3,4.4c0,2.5-1.8,4.3-4.3,4.3c-2.6,0-4.3-1.8-4.3-4.3
		C135.2,25.3,137,23.5,139.5,23.5z M135.8,33.9h7.4V57h-7.4V33.9z"/>
	<path class="st0" d="M147.3,33.9h7.1v3.3c1.2-2.7,3.5-3.7,6.5-3.7c1.5,0,2.8,0.4,3.9,0.9l-2.5,7.2c-0.7-0.5-1.9-0.9-3.3-0.9
		c-2.8,0-4.6,1.4-4.6,5.1V57h-7.1V33.9z"/>
	<path class="st0" d="M164.9,45.5c0-6.6,5.2-12,12.2-12c7.1,0,12,5.1,12,11.9v2.5h-17.2c0.8,2.3,2.7,3.6,5.4,3.6
		c2.2,0,3.8-0.9,4.8-2.4l5.8,3.4c-2.4,3.2-5.5,5-10.7,5C169.6,57.5,164.9,52.2,164.9,45.5z M172.1,42.6h9.9
		c-0.8-2.1-2.5-3.1-4.9-3.1C174.8,39.4,173,40.6,172.1,42.6z"/>
	<path class="st0" d="M201.7,41.4c0-9.1,6.8-16.1,16-16.1c6,0,11.1,3.1,13.9,7.7l-6.5,4.2c-1.4-2.8-3.9-4.5-7.3-4.5
		c-5,0-8.4,3.9-8.4,8.7c0,4.8,3.4,8.6,8.3,8.6c3.7,0,6.3-2.1,7.6-5.1l6.9,3.7c-2.7,5.2-7.7,8.8-14.4,8.8
		C208.1,57.5,201.7,50.3,201.7,41.4z"/>
	<path class="st0" d="M233.6,41.4c0-8.9,7.1-16.1,16-16.1c8.9,0,16,7.2,16,16.1c0,8.9-7,16-16,16C240.7,57.5,233.6,50.3,233.6,41.4z
		 M258.1,41.4c0-4.8-3.7-8.7-8.5-8.7s-8.4,3.9-8.4,8.7c0,4.8,3.6,8.7,8.4,8.7C254.5,50.1,258.1,46.2,258.1,41.4z"/>
	<path class="st0" d="M265.4,25.8h7.8l7.4,21.1l7.4-21.1h7.7L284.2,57H277L265.4,25.8z"/>
	<path class="st0" d="M298.5,25.8h7.5V57h-7.5V25.8z"/>
	<path class="st0" d="M310.8,25.8h11.1c9.7,0,16.3,6.8,16.3,15.6c0,8.9-6.8,15.6-16.1,15.6h-11.2V25.8z M318.3,32.7v17.3h3.4
		c5.5,0,8.9-3.8,8.9-8.6c0-4.9-3.2-8.7-9.1-8.7H318.3z"/>
	<path class="st0" d="M342.4,43.1h15.8v6.2h-15.8V43.1z"/>
	<path class="st0" d="M369.6,57V36.8c-1.2,2.3-3.7,3.5-6.6,3.5H362v-7.3h0.2c5,0,7.6-2.2,7.6-7.1h7.2V57H369.6z"/>
	<path class="st0" d="M381.1,55.5l3.4-6.5c1.3,0.9,3.1,1.6,5.2,1.6c4.5,0,6.8-1.9,7.3-6.9c-1.2,2.1-3.2,3.2-6.3,3.2
		c-5.3,0-9.7-4-9.7-10.5c0-6.3,4.8-10.8,11.3-10.8c4.1,0,6.5,1.5,8.6,4c1.9,2.4,3,5.6,3,11.4c0,10.4-4.3,16.8-14.4,16.8
		C386.5,57.5,383.4,56.8,381.1,55.5z M396.4,36.2c0-2.3-1.8-4.1-4-4.1c-2.2,0-4.1,1.8-4.1,4.1c0,2.4,1.9,4,4.1,4
		C394.7,40.3,396.4,38.4,396.4,36.2z"/>
	<path class="st1" d="M435.7,45h-10.2v12H418V25.8h7.5v11.9h10.2V25.8h7.5V57h-7.5V45z"/>
	<path class="st1" d="M446.7,45.5c0-6.6,5.2-12,12.2-12c7.1,0,12,5.1,12,11.9v2.5h-17.2c0.8,2.3,2.7,3.6,5.4,3.6
		c2.2,0,3.8-0.9,4.8-2.4l5.8,3.4c-2.4,3.2-5.5,5-10.7,5C451.3,57.5,446.7,52.2,446.7,45.5z M453.9,42.6h9.9
		c-0.8-2.1-2.5-3.1-4.9-3.1C456.6,39.4,454.8,40.6,453.9,42.6z"/>
	<path class="st1" d="M474.1,33.9h7.1v3.3c1.2-2.7,3.5-3.7,6.5-3.7c1.5,0,2.8,0.4,3.9,0.9l-2.5,7.2c-0.7-0.5-1.9-0.9-3.3-0.9
		c-2.8,0-4.6,1.4-4.6,5.1V57h-7.1V33.9z"/>
	<path class="st1" d="M491.7,45.5c0-6.6,5.1-12,12.4-12c7.1,0,12.4,5.4,12.4,12c0,6.6-5.1,12-12.4,12
		C496.8,57.5,491.7,52.1,491.7,45.5z M509.3,45.4c0-2.9-2.4-5.2-5.2-5.2c-2.9,0-5.2,2.3-5.2,5.2c0,2.9,2.4,5.2,5.2,5.2
		C507,50.7,509.3,48.3,509.3,45.4z"/>
	<path class="st1" d="M519.2,45.5c0-6.6,5.2-12,12.2-12c7.1,0,12,5.1,12,11.9v2.5h-17.2c0.8,2.3,2.7,3.6,5.4,3.6
		c2.2,0,3.8-0.9,4.8-2.4l5.8,3.4c-2.4,3.2-5.5,5-10.7,5C523.9,57.5,519.2,52.2,519.2,45.5z M526.4,42.6h9.9
		c-0.8-2.1-2.5-3.1-4.9-3.1C529.1,39.4,527.3,40.6,526.4,42.6z"/>
	<path class="st1" d="M545.3,51.1l7.2-2.1c0.6,1.9,2.4,2.8,4.4,2.8c1.8,0,2.8-0.8,2.8-1.8c0-1.3-2.1-1.6-5-2.2
		c-3.9-0.8-8.4-1.9-8.4-7c0-4.2,4.1-7.6,10-7.5c5.4,0,8.3,2.1,10.6,5.5l-6.8,2.1c-0.7-1.4-2-2.2-3.8-2.2c-1.8,0-2.6,0.6-2.6,1.5
		c0,1.1,1.7,1.4,4.9,2.1c3.9,0.8,8.6,2.1,8.6,7.2c0,3.9-3.4,8-10.4,7.9C550.7,57.5,547,55.2,545.3,51.1z"/>
</g>
</svg>
