<?xml version="1.0" encoding="utf-8"?>
<!-- Generator: Adobe Illustrator 24.0.1, SVG Export Plug-In . SVG Version: 6.00 Build 0)  -->
<svg version="1.1" id="Layer_1" xmlns="http://www.w3.org/2000/svg" xmlns:xlink="http://www.w3.org/1999/xlink" x="0px" y="0px"
	 viewBox="0 0 524.5 95" style="enable-background:new 0 0 524.5 95;" xml:space="preserve">
<style type="text/css">
	.st0{fill:#FFFFFF;}
</style>
<g>
	<path class="st0" d="M25.3,35h-2.1L6,9.1H5.8C6,12.2,6,14.5,6,16.1V35H4V5.8h2l17.3,25.9h0.1c-0.1-2.4-0.2-4.7-0.2-6.8v-19h2V35
		H25.3z"/>
	<path class="st0" d="M51,24.1c0,3.5-0.9,6.3-2.6,8.3c-1.7,2-4.1,3-7.1,3c-1.9,0-3.6-0.5-5-1.4s-2.6-2.2-3.3-4s-1.2-3.7-1.2-5.9
		c0-3.5,0.9-6.3,2.6-8.3c1.7-2,4.1-3,7.1-3s5.3,1,7,3C50.2,17.9,51,20.7,51,24.1z M33.9,24.1c0,3,0.7,5.3,2,7s3.2,2.5,5.6,2.5
		c2.4,0,4.2-0.8,5.6-2.5c1.3-1.7,2-4,2-7s-0.7-5.3-2-7c-1.3-1.6-3.2-2.5-5.6-2.5c-2.4,0-4.2,0.8-5.5,2.5S33.9,21.1,33.9,24.1z"/>
	<path class="st0" d="M74.4,35l-4.7-14.5c-0.3-1-0.7-2.4-1.2-4.3h-0.1L68,17.7l-1,2.8L62.2,35h-2L54,13.3h2.1l3.5,12.6
		c0.8,3.1,1.3,5.4,1.6,6.9h0.1c0.8-3.1,1.4-5.2,1.7-6.2l4.5-13.2h1.8l4.2,13.2c1,3.1,1.5,5.2,1.8,6.2h0.1c0.1-0.9,0.6-3.2,1.6-6.9
		l3.3-12.4h2L76.4,35H74.4z"/>
	<path class="st0" d="M112.3,35V20.9c0-2.2-0.5-3.8-1.4-4.8c-0.9-1-2.3-1.5-4.3-1.5c-2.6,0-4.5,0.7-5.7,2S99.1,20,99.1,23v12h-2V4h2
		v9.9L99,16.7h0.1c0.8-1.3,1.8-2.2,3.1-2.8c1.2-0.6,2.8-0.9,4.6-0.9c4.9,0,7.4,2.6,7.4,7.9V35H112.3z"/>
	<path class="st0" d="M121,7.3c0-1.3,0.4-1.9,1.3-1.9c0.4,0,0.7,0.2,1,0.5c0.2,0.3,0.3,0.8,0.3,1.4s-0.1,1.1-0.3,1.4s-0.6,0.5-1,0.5
		C121.4,9.2,121,8.6,121,7.3z M123.3,35h-2V13.3h2V35z"/>
	<path class="st0" d="M139.1,12.9c0.9,0,1.9,0.1,3,0.3l-0.4,1.9c-0.9-0.2-1.8-0.3-2.8-0.3c-1.8,0-3.4,0.8-4.5,2.4
		c-1.2,1.6-1.8,3.6-1.8,5.9v12h-2V13.3h1.7l0.2,3.9h0.1c0.9-1.6,1.8-2.7,2.9-3.4C136.4,13.2,137.6,12.9,139.1,12.9z"/>
	<path class="st0" d="M146.2,7.3c0-1.3,0.4-1.9,1.3-1.9c0.4,0,0.7,0.2,1,0.5c0.2,0.3,0.3,0.8,0.3,1.4s-0.1,1.1-0.3,1.4
		c-0.2,0.3-0.6,0.5-1,0.5C146.6,9.2,146.2,8.6,146.2,7.3z M148.4,35h-2V13.3h2V35z"/>
	<path class="st0" d="M170.8,35V20.9c0-2.2-0.5-3.8-1.4-4.8c-0.9-1-2.3-1.5-4.3-1.5c-2.6,0-4.5,0.7-5.7,2s-1.8,3.4-1.8,6.4v12h-2
		V13.3h1.7l0.4,3h0.1c1.4-2.3,3.9-3.4,7.5-3.4c4.9,0,7.4,2.6,7.4,7.9V35H170.8z"/>
	<path class="st0" d="M196.7,13.3v1.4l-4.5,0.3c1.2,1.5,1.8,3.1,1.8,4.9c0,2.1-0.7,3.8-2.1,5.1c-1.4,1.3-3.3,1.9-5.6,1.9
		c-1,0-1.7,0-2.1-0.1c-0.8,0.4-1.4,0.9-1.8,1.5s-0.6,1.2-0.6,1.8c0,0.7,0.3,1.2,0.8,1.5s1.4,0.5,2.6,0.5h3.8c2.4,0,4.2,0.5,5.4,1.4
		c1.2,1,1.9,2.4,1.9,4.2c0,2.3-0.9,4.1-2.8,5.3c-1.9,1.2-4.5,1.9-7.9,1.9c-2.7,0-4.8-0.5-6.3-1.6s-2.2-2.5-2.2-4.4
		c0-1.5,0.5-2.7,1.4-3.7s2.2-1.7,3.8-2c-0.7-0.3-1.2-0.7-1.6-1.2c-0.4-0.5-0.6-1.1-0.6-1.8c0-1.4,0.9-2.7,2.8-3.8
		c-1.3-0.5-2.2-1.3-3-2.4s-1.1-2.4-1.1-3.8c0-2.2,0.7-3.9,2.1-5.2c1.4-1.3,3.2-2,5.6-2c1.4,0,2.5,0.1,3.3,0.4h6.9V13.3z M179.1,38.7
		c0,3,2.2,4.5,6.6,4.5c5.7,0,8.5-1.8,8.5-5.4c0-1.3-0.4-2.2-1.3-2.8s-2.3-0.9-4.3-0.9H185C181.1,34,179.1,35.6,179.1,38.7z
		 M180.8,20.1c0,1.7,0.5,3,1.5,3.9s2.4,1.4,4.1,1.4c1.8,0,3.2-0.5,4.2-1.4s1.4-2.2,1.4-4s-0.5-3.2-1.5-4.2c-1-0.9-2.4-1.4-4.2-1.4
		c-1.7,0-3.1,0.5-4.1,1.5C181.3,16.9,180.8,18.3,180.8,20.1z"/>
	<path class="st0" d="M234.4,20.1c0,4.9-1.3,8.6-3.9,11.1c-2.6,2.5-6.3,3.8-11.3,3.8h-7V5.8h7.9c4.7,0,8.2,1.2,10.6,3.7
		C233.2,11.9,234.4,15.5,234.4,20.1z M232.2,20.2c0-4.2-1.1-7.3-3.2-9.4c-2.1-2.1-5.2-3.2-9.3-3.2h-5.4v25.6h4.8
		C227.8,33.2,232.2,28.9,232.2,20.2z"/>
	<path class="st0" d="M240.3,7.3c0-1.3,0.4-1.9,1.3-1.9c0.4,0,0.7,0.2,1,0.5c0.2,0.3,0.3,0.8,0.3,1.4s-0.1,1.1-0.3,1.4
		c-0.2,0.3-0.6,0.5-1,0.5C240.7,9.2,240.3,8.6,240.3,7.3z M242.6,35h-2V13.3h2V35z"/>
	<path class="st0" d="M258.6,35.4c-3.2,0-5.6-1-7.4-2.9c-1.8-1.9-2.6-4.7-2.6-8.2s0.9-6.2,2.6-8.3c1.7-2.1,4-3.1,6.9-3.1
		c2.6,0,4.6,0.9,6,2.7s2.2,4.2,2.2,7.3v1.6h-15.6c0,3,0.7,5.3,2.1,6.8c1.4,1.6,3.3,2.4,5.9,2.4c1.2,0,2.3-0.1,3.3-0.3
		c0.9-0.2,2.1-0.5,3.6-1.1V34c-1.2,0.5-2.4,0.9-3.4,1.1C261,35.3,259.8,35.4,258.6,35.4z M258,14.7c-2.1,0-3.8,0.7-5,2.1
		c-1.3,1.4-2,3.4-2.2,6h13.4c0-2.5-0.5-4.5-1.6-5.9C261.4,15.4,259.9,14.7,258,14.7z"/>
	<path class="st0" d="M285.7,29.4c0,1.9-0.7,3.4-2.2,4.5s-3.6,1.6-6.3,1.6c-2.9,0-5.2-0.4-6.9-1.3v-2.1c2.2,1.1,4.5,1.6,6.9,1.6
		c2.1,0,3.8-0.4,4.9-1.1c1.1-0.7,1.7-1.7,1.7-2.8c0-1.1-0.4-2-1.3-2.8c-0.9-0.7-2.3-1.5-4.4-2.2c-2.2-0.8-3.7-1.5-4.6-2
		c-0.9-0.6-1.5-1.2-2-1.9c-0.4-0.7-0.7-1.6-0.7-2.6c0-1.6,0.7-2.9,2-3.9s3.3-1.4,5.7-1.4c2.3,0,4.6,0.4,6.7,1.3l-0.7,1.8
		c-2.1-0.9-4.1-1.3-5.9-1.3s-3.2,0.3-4.2,0.9s-1.6,1.4-1.6,2.4c0,1.1,0.4,2,1.2,2.7c0.8,0.7,2.4,1.4,4.7,2.3c2,0.7,3.4,1.3,4.3,1.9
		s1.6,1.2,2,1.9C285.5,27.6,285.7,28.4,285.7,29.4z"/>
	<path class="st0" d="M300,35.4c-3.2,0-5.6-1-7.4-2.9c-1.8-1.9-2.6-4.7-2.6-8.2s0.9-6.2,2.6-8.3s4-3.1,6.9-3.1c2.6,0,4.6,0.9,6,2.7
		c1.5,1.8,2.2,4.2,2.2,7.3v1.6h-15.6c0,3,0.7,5.3,2.1,6.8c1.4,1.6,3.3,2.4,5.9,2.4c1.2,0,2.3-0.1,3.3-0.3c0.9-0.2,2.1-0.5,3.6-1.1
		V34c-1.2,0.5-2.4,0.9-3.4,1.1C302.4,35.3,301.3,35.4,300,35.4z M299.5,14.7c-2.1,0-3.8,0.7-5,2.1c-1.3,1.4-2,3.4-2.2,6h13.4
		c0-2.5-0.5-4.5-1.6-5.9C302.9,15.4,301.4,14.7,299.5,14.7z"/>
	<path class="st0" d="M315.7,35h-2V4h2V35z"/>
	<path class="st0" d="M346.9,35L336,8.1h-0.2c0.1,1.6,0.2,3.3,0.2,5.1V35h-2V5.8h3.2l10.3,25.7h0.1L358,5.8h3.1V35H359V12.9
		c0-1.5,0.1-3.1,0.2-4.8H359L348.2,35H346.9z"/>
	<path class="st0" d="M377.6,35.4c-3.2,0-5.6-1-7.4-2.9c-1.8-1.9-2.6-4.7-2.6-8.2s0.9-6.2,2.6-8.3s4-3.1,6.9-3.1
		c2.6,0,4.6,0.9,6,2.7c1.5,1.8,2.2,4.2,2.2,7.3v1.6h-15.6c0,3,0.7,5.3,2.1,6.8c1.4,1.6,3.3,2.4,5.9,2.4c1.2,0,2.3-0.1,3.3-0.3
		c0.9-0.2,2.1-0.5,3.6-1.1V34c-1.2,0.5-2.4,0.9-3.4,1.1C380,35.3,378.8,35.4,377.6,35.4z M377,14.7c-2.1,0-3.8,0.7-5,2.1
		c-1.3,1.4-2,3.4-2.2,6h13.4c0-2.5-0.5-4.5-1.6-5.9C380.4,15.4,378.9,14.7,377,14.7z"/>
	<path class="st0" d="M399.9,35.4c-3.1,0-5.5-1-7.3-2.9c-1.8-2-2.6-4.7-2.6-8.2c0-3.6,0.9-6.4,2.7-8.4c1.8-2,4.3-3,7.5-3
		c1.9,0,3.7,0.3,5.4,1l-0.5,1.8c-1.9-0.6-3.5-0.9-4.9-0.9c-2.7,0-4.7,0.8-6,2.5c-1.4,1.6-2.1,4-2.1,7.1c0,2.9,0.7,5.2,2.1,6.9
		s3.3,2.5,5.7,2.5c2,0,3.8-0.4,5.5-1.1v1.8C403.9,35.1,402.1,35.4,399.9,35.4z"/>
	<path class="st0" d="M425.8,35V20.9c0-2.2-0.5-3.8-1.4-4.8c-0.9-1-2.3-1.5-4.3-1.5c-2.6,0-4.5,0.7-5.7,2s-1.8,3.4-1.8,6.4v12h-2V4
		h2v9.9l-0.1,2.8h0.1c0.8-1.3,1.8-2.2,3.1-2.8c1.2-0.6,2.8-0.9,4.6-0.9c4.9,0,7.4,2.6,7.4,7.9V35H425.8z"/>
	<path class="st0" d="M447.9,35l-0.5-3.4h-0.2c-1.1,1.4-2.2,2.4-3.4,3s-2.5,0.9-4.1,0.9c-2.1,0-3.8-0.5-5-1.6s-1.8-2.6-1.8-4.5
		c0-2.1,0.9-3.8,2.6-4.9c1.8-1.2,4.3-1.8,7.7-1.9l4.1-0.1v-1.4c0-2.1-0.4-3.6-1.3-4.7s-2.2-1.6-4-1.6c-2,0-4.1,0.6-6.2,1.7l-0.7-1.7
		c2.4-1.1,4.7-1.7,7.1-1.7s4.2,0.6,5.3,1.9c1.2,1.2,1.8,3.2,1.8,5.8V35H447.9z M439.9,33.6c2.3,0,4.1-0.7,5.5-2c1.3-1.3,2-3.2,2-5.5
		V24l-3.8,0.2c-3,0.1-5.2,0.6-6.5,1.4s-1.9,2.1-1.9,3.8c0,1.4,0.4,2.4,1.2,3.2C437.2,33.2,438.4,33.6,439.9,33.6z"/>
	<path class="st0" d="M471.5,35V20.9c0-2.2-0.5-3.8-1.4-4.8c-0.9-1-2.3-1.5-4.3-1.5c-2.6,0-4.5,0.7-5.7,2s-1.8,3.4-1.8,6.4v12h-2
		V13.3h1.7l0.4,3h0.1c1.4-2.3,3.9-3.4,7.5-3.4c4.9,0,7.4,2.6,7.4,7.9V35H471.5z"/>
	<path class="st0" d="M480.2,7.3c0-1.3,0.4-1.9,1.3-1.9c0.4,0,0.7,0.2,1,0.5c0.2,0.3,0.3,0.8,0.3,1.4s-0.1,1.1-0.3,1.4
		c-0.2,0.3-0.6,0.5-1,0.5C480.6,9.2,480.2,8.6,480.2,7.3z M482.5,35h-2V13.3h2V35z"/>
	<path class="st0" d="M498.4,35.4c-3.1,0-5.5-1-7.3-2.9c-1.8-2-2.6-4.7-2.6-8.2c0-3.6,0.9-6.4,2.7-8.4c1.8-2,4.3-3,7.5-3
		c1.9,0,3.7,0.3,5.4,1l-0.5,1.8c-1.9-0.6-3.5-0.9-4.9-0.9c-2.7,0-4.7,0.8-6,2.5c-1.4,1.6-2.1,4-2.1,7.1c0,2.9,0.7,5.2,2.1,6.9
		s3.3,2.5,5.7,2.5c2,0,3.8-0.4,5.5-1.1v1.8C502.4,35.1,500.6,35.4,498.4,35.4z"/>
	<path class="st0" d="M522.6,29.4c0,1.9-0.7,3.4-2.2,4.5s-3.6,1.6-6.3,1.6c-2.9,0-5.2-0.4-6.9-1.3v-2.1c2.2,1.1,4.5,1.6,6.9,1.6
		c2.1,0,3.8-0.4,4.9-1.1c1.1-0.7,1.7-1.7,1.7-2.8c0-1.1-0.4-2-1.3-2.8c-0.9-0.7-2.3-1.5-4.4-2.2c-2.2-0.8-3.7-1.5-4.6-2
		c-0.9-0.6-1.5-1.2-2-1.9c-0.4-0.7-0.7-1.6-0.7-2.6c0-1.6,0.7-2.9,2-3.9s3.3-1.4,5.7-1.4c2.3,0,4.6,0.4,6.7,1.3l-0.7,1.8
		c-2.1-0.9-4.1-1.3-5.9-1.3c-1.8,0-3.2,0.3-4.2,0.9s-1.6,1.4-1.6,2.4c0,1.1,0.4,2,1.2,2.7c0.8,0.7,2.4,1.4,4.7,2.3
		c2,0.7,3.4,1.3,4.3,1.9s1.6,1.2,2,1.9C522.4,27.6,522.6,28.4,522.6,29.4z"/>
	<path class="st0" d="M3.4,56.3c0-1.3,0.4-1.9,1.3-1.9c0.4,0,0.7,0.2,1,0.5C5.9,55.2,6,55.7,6,56.3c0,0.6-0.1,1.1-0.3,1.4
		s-0.6,0.5-1,0.5C3.8,58.3,3.4,57.6,3.4,56.3z M5.6,84h-2V62.4h2V84z"/>
	<path class="st0" d="M28,84V70c0-2.2-0.5-3.8-1.4-4.8s-2.3-1.5-4.3-1.5c-2.6,0-4.5,0.7-5.7,2s-1.8,3.4-1.8,6.4v12h-2V62.4h1.7
		l0.4,3H15c1.4-2.3,3.9-3.4,7.5-3.4c4.9,0,7.4,2.6,7.4,7.9V84H28z"/>
	<path class="st0" d="M60.5,56.3c-3.7,0-6.5,1.2-8.6,3.5s-3.2,5.5-3.2,9.6c0,4.2,1,7.4,3,9.7c2,2.3,4.8,3.5,8.5,3.5
		c2.4,0,4.7-0.3,6.7-0.9v1.8c-1.9,0.7-4.3,1-7.2,1c-4.1,0-7.3-1.3-9.7-4c-2.4-2.6-3.5-6.3-3.5-11.1c0-3,0.6-5.6,1.7-7.8
		s2.7-4,4.8-5.2s4.6-1.8,7.4-1.8c2.8,0,5.4,0.5,7.6,1.6L67.2,58C65.1,56.8,62.9,56.3,60.5,56.3z"/>
	<path class="st0" d="M86.1,84l-0.5-3.4h-0.2c-1.1,1.4-2.2,2.4-3.4,3s-2.5,0.9-4.1,0.9c-2.1,0-3.8-0.5-5-1.6s-1.8-2.6-1.8-4.5
		c0-2.1,0.9-3.8,2.6-4.9c1.8-1.2,4.3-1.8,7.7-1.9l4.1-0.1v-1.4c0-2.1-0.4-3.6-1.3-4.7s-2.2-1.6-4-1.6c-2,0-4.1,0.6-6.2,1.7l-0.7-1.7
		c2.4-1.1,4.7-1.7,7.1-1.7s4.2,0.6,5.3,1.9c1.2,1.2,1.8,3.2,1.8,5.8V84H86.1z M78.1,82.6c2.3,0,4.1-0.7,5.5-2c1.3-1.3,2-3.2,2-5.5
		V73l-3.8,0.2c-3,0.1-5.2,0.6-6.5,1.4s-1.9,2.1-1.9,3.8c0,1.4,0.4,2.4,1.2,3.2C75.5,82.3,76.6,82.6,78.1,82.6z"/>
	<path class="st0" d="M103.1,61.9c0.9,0,1.9,0.1,3,0.3l-0.4,1.9c-0.9-0.2-1.8-0.3-2.8-0.3c-1.8,0-3.4,0.8-4.5,2.4
		c-1.2,1.6-1.8,3.6-1.8,5.9v12h-2V62.4h1.7l0.2,3.9h0.1c0.9-1.6,1.8-2.7,2.9-3.4C100.5,62.3,101.7,61.9,103.1,61.9z"/>
	<path class="st0" d="M125.6,84V70c0-2.2-0.5-3.8-1.4-4.8s-2.3-1.5-4.3-1.5c-2.6,0-4.5,0.7-5.7,2s-1.8,3.4-1.8,6.4v12h-2V62.4h1.7
		l0.4,3h0.1c1.4-2.3,3.9-3.4,7.5-3.4c4.9,0,7.4,2.6,7.4,7.9V84H125.6z"/>
	<path class="st0" d="M143.4,84.4c-3.2,0-5.6-1-7.4-2.9c-1.8-1.9-2.6-4.7-2.6-8.2s0.9-6.2,2.6-8.3c1.7-2.1,4-3.1,6.9-3.1
		c2.6,0,4.6,0.9,6,2.7c1.5,1.8,2.2,4.2,2.2,7.3v1.6h-15.6c0,3,0.7,5.3,2.1,6.8c1.4,1.6,3.3,2.4,5.9,2.4c1.2,0,2.3-0.1,3.3-0.3
		c0.9-0.2,2.1-0.5,3.6-1.1v1.8c-1.2,0.5-2.4,0.9-3.4,1.1C145.8,84.3,144.6,84.4,143.4,84.4z M142.8,63.7c-2.1,0-3.8,0.7-5,2.1
		c-1.3,1.4-2,3.4-2.2,6H149c0-2.5-0.5-4.5-1.6-5.9C146.2,64.4,144.7,63.7,142.8,63.7z"/>
	<path class="st0" d="M173.9,62.4v1.4l-4.5,0.3c1.2,1.5,1.8,3.1,1.8,4.9c0,2.1-0.7,3.8-2.1,5.1c-1.4,1.3-3.3,1.9-5.6,1.9
		c-1,0-1.7,0-2.1-0.1c-0.8,0.4-1.4,0.9-1.8,1.5s-0.6,1.2-0.6,1.8c0,0.7,0.3,1.2,0.8,1.5s1.4,0.5,2.6,0.5h3.8c2.4,0,4.2,0.5,5.4,1.4
		c1.2,1,1.9,2.4,1.9,4.2c0,2.3-0.9,4.1-2.8,5.3c-1.9,1.2-4.5,1.9-7.9,1.9c-2.7,0-4.8-0.5-6.3-1.6s-2.2-2.5-2.2-4.4
		c0-1.5,0.5-2.7,1.4-3.7s2.2-1.7,3.8-2c-0.7-0.3-1.2-0.7-1.6-1.2c-0.4-0.5-0.6-1.1-0.6-1.8c0-1.4,0.9-2.7,2.8-3.8
		c-1.3-0.5-2.2-1.3-3-2.4s-1.1-2.4-1.1-3.8c0-2.2,0.7-3.9,2.1-5.2c1.4-1.3,3.2-2,5.6-2c1.4,0,2.5,0.1,3.3,0.4h6.9V62.4z M156.4,87.7
		c0,3,2.2,4.5,6.6,4.5c5.7,0,8.5-1.8,8.5-5.4c0-1.3-0.4-2.2-1.3-2.8s-2.3-0.9-4.3-0.9h-3.6C158.4,83,156.4,84.6,156.4,87.7z
		 M158,69.1c0,1.7,0.5,3,1.5,3.9s2.4,1.4,4.1,1.4c1.8,0,3.2-0.5,4.2-1.4s1.4-2.2,1.4-4s-0.5-3.2-1.5-4.2c-1-0.9-2.4-1.4-4.2-1.4
		c-1.7,0-3.1,0.5-4.1,1.5C158.5,66,158,67.3,158,69.1z"/>
	<path class="st0" d="M178.1,56.3c0-1.3,0.4-1.9,1.3-1.9c0.4,0,0.7,0.2,1,0.5c0.2,0.3,0.3,0.8,0.3,1.4c0,0.6-0.1,1.1-0.3,1.4
		c-0.2,0.3-0.6,0.5-1,0.5C178.5,58.3,178.1,57.6,178.1,56.3z M180.4,84h-2V62.4h2V84z"/>
	<path class="st0" d="M196.4,84.4c-3.2,0-5.6-1-7.4-2.9c-1.8-1.9-2.6-4.7-2.6-8.2s0.9-6.2,2.6-8.3c1.7-2.1,4-3.1,6.9-3.1
		c2.6,0,4.6,0.9,6,2.7c1.5,1.8,2.2,4.2,2.2,7.3v1.6h-15.6c0,3,0.7,5.3,2.1,6.8c1.4,1.6,3.3,2.4,5.9,2.4c1.2,0,2.3-0.1,3.3-0.3
		c0.9-0.2,2.1-0.5,3.6-1.1v1.8c-1.2,0.5-2.4,0.9-3.4,1.1C198.8,84.3,197.6,84.4,196.4,84.4z M195.8,63.7c-2.1,0-3.8,0.7-5,2.1
		c-1.3,1.4-2,3.4-2.2,6H202c0-2.5-0.5-4.5-1.6-5.9C199.2,64.4,197.7,63.7,195.8,63.7z"/>
	<path class="st0" d="M212.3,79.3l0.2,0.4c-1,3.5-2.2,6.7-3.5,9.6h-1.3c1-3.7,1.8-7,2.2-10H212.3z"/>
	<path class="st0" d="M247.5,63.3c0,2.8-1,5-2.9,6.5s-4.6,2.3-8.1,2.3H232v12h-2V54.9h7.1C244,54.9,247.5,57.7,247.5,63.3z
		 M232,70.2h4c3.3,0,5.7-0.5,7.1-1.6c1.5-1.1,2.2-2.8,2.2-5.3c0-2.2-0.7-3.9-2.1-5c-1.4-1.1-3.5-1.6-6.4-1.6H232V70.2z"/>
	<path class="st0" d="M267.9,73.7H256L252,84h-2.3l11.7-29.3h1.3L274.2,84h-2.3L267.9,73.7z M256.8,71.9h10.4l-4-10.5
		c-0.3-0.8-0.7-2-1.2-3.4c-0.4,1.3-0.8,2.4-1.2,3.5L256.8,71.9z"/>
	<path class="st0" d="M277.5,82.5c0-1.3,0.5-2,1.6-2s1.6,0.7,1.6,2s-0.5,2-1.6,2C278,84.4,277.5,83.8,277.5,82.5z"/>
</g>
</svg>
