<?xml version="1.0" encoding="utf-8"?>
<!-- Generator: Adobe Illustrator 24.0.1, SVG Export Plug-In . SVG Version: 6.00 Build 0)  -->
<svg version="1.1" id="Layer_1" xmlns="http://www.w3.org/2000/svg" xmlns:xlink="http://www.w3.org/1999/xlink" x="0px" y="0px"
	 viewBox="0 0 320.1 173.4" style="enable-background:new 0 0 320.1 173.4;" xml:space="preserve">
<style type="text/css">
	.st0{fill:#FFFFFF;}
	.st1{fill:#12C2EC;}
</style>
<g>
	<g>
		<path class="st0" d="M5.9,39.9c0.8-1,1.8-1.4,3.2-1.4c1,0,1.8,0.3,2.3,1s0.9,1.5,1.1,2.6c0.2,1,0.4,2.1,0.5,3.2
			c0.1,1.1,0.2,2.1,0.4,2.9c0.4,1.7,0.8,3.3,1.1,4.7s0.6,2.8,0.9,4.2c0.2,1.4,0.4,2.8,0.6,4.3c0.1,1.5,0.2,3.1,0.3,4.9l2,2
			c1.3-0.9,2.4-2.1,3.3-3.8c0.9-1.6,1.6-3.4,2.2-5.3c0.6-1.9,1.1-3.9,1.5-5.8c0.4-2,0.9-3.7,1.3-5.3c0.5-1.6,1-2.9,1.7-4
			c0.6-1,1.4-1.5,2.4-1.5c0.6,0,1,0.1,1.4,0.2c0.4,0.1,0.9,0.4,1.4,0.8c0.1,0.3,0.2,0.8,0.4,1.5s0.4,1.5,0.6,2.3
			c0.2,0.8,0.4,1.6,0.6,2.3c0.2,0.7,0.3,1.2,0.4,1.5c0.1,0.8,0.3,1.9,0.4,3.5c0.1,1.6,0.3,3.2,0.5,4.8s0.6,3,1.2,4.3
			c0.6,1.2,1.3,1.9,2.3,1.9c0.1,0,0.2,0,0.4-0.1s0.6-0.4,1-0.9c0.5-0.5,0.8-0.8,0.9-0.9l16.2-25.7c0.7-1,1.2-1.6,1.7-1.8
			c0.4-0.2,1.1-0.3,2.2-0.3c1,0,1.7,0.1,2.2,0.4c0.5,0.3,0.7,1,0.7,2.2V39c-2.7,3.1-5.1,6.3-7.3,9.7s-4.4,6.8-6.5,10.2
			s-4.3,6.9-6.5,10.3s-4.6,6.7-7.3,9.8c-0.1,0-0.4,0-0.7,0.1c-0.3,0-0.6,0.1-0.7,0.1c-1.4,0-2.3-0.7-2.7-2s-0.7-2.9-1-4.7
			c-0.2-1.8-0.6-3.6-1-5.4s-1.3-3.3-2.6-4.3c-0.6,0.3-1.1,0.9-1.7,2c-0.6,1.1-1.1,2.2-1.6,3.5c-0.5,1.2-1,2.4-1.4,3.6s-0.8,2-1,2.4
			c-0.1,0.1-0.3,0.4-0.8,0.9s-0.9,0.8-1.1,1c-0.1,0.1-0.4,0.4-0.9,0.8c-0.4,0.4-0.9,0.8-1.4,1.2s-1,0.8-1.4,1.1
			c-0.4,0.3-0.8,0.6-1,0.7c-1.3-0.5-2.4-1.4-3.2-2.7c-0.8-1.3-1.5-2.9-2.1-4.8c-0.6-1.9-1-3.9-1.3-6.2c-0.3-2.2-0.6-4.4-0.9-6.6
			C8.6,57,8.3,54.9,8,53s-0.7-3.6-1.2-4.9c-0.1-0.1-0.2-0.2-0.4-0.5S6,47,5.8,46.7S5.4,46,5.2,45.8c-0.2-0.3-0.3-0.4-0.3-0.5
			s0-0.4-0.1-0.9c0-0.5-0.1-0.9-0.1-1.1C4.7,42,5.1,40.8,5.9,39.9z"/>
		<path class="st0" d="M70.8,72.1h-0.3c-0.2,0.1-0.6,0.2-1.2,0.4c-0.6,0.2-1,0.3-1.2,0.4c-0.2-0.1-0.4-0.2-0.7-0.5
			c-0.3-0.3-0.6-0.6-1-0.9c-0.3-0.3-0.7-0.7-0.9-1c-0.3-0.3-0.5-0.6-0.5-0.7c-0.1-0.3-0.1-0.6-0.1-0.7c0-0.7,0.2-1.2,0.6-1.5
			s0.9-0.6,1.4-0.8c0.5-0.2,1.1-0.5,1.6-0.7s1-0.6,1.2-1c-0.2-1.7-0.1-3.7,0.2-5.9c0.3-2.2,0.8-4.3,1.7-6.3c0.8-2,2-3.6,3.5-5
			c1.5-1.3,3.4-2,5.8-2c0.9,0,1.6,0.2,2.2,0.6c0.6,0.4,1.1,0.9,1.5,1.5s0.7,1.3,0.9,2.1c0.2,0.7,0.3,1.5,0.3,2.2
			c0,1.5-0.4,3-1.2,4.5c-0.8,1.4-1.8,2.8-2.8,4.2s-2,2.7-2.8,4.1c-0.8,1.3-1.2,2.7-1.2,4c0,0.7,0.2,1.3,0.6,1.8s0.9,0.9,1.5,1.2
			c0.6,0.3,1.2,0.5,1.9,0.7c0.7,0.1,1.3,0.2,1.9,0.2c1.4,0,2.8-0.3,4-0.9s2.4-1.2,3.4-1.9c1.1-0.7,2.1-1.3,3-1.9s1.8-0.9,2.7-0.9
			c0.8,0,1.3,0.2,1.5,0.7s0.3,1,0.3,1.7c0,0.1,0,0.4,0,0.8s0,0.7,0,0.8c-1.8,2.3-3.9,4.1-6.2,5.3c-2.3,1.2-5,1.8-8.1,1.8
			c-2.7,0-5-0.6-7-1.9s-3.9-2.8-5.7-4.4L70.8,72.1L70.8,72.1z M75.9,57.5c0,0.3,0,0.5,0,0.8c0.1,0.3,0.1,0.5,0.3,0.7
			c0.1,0.2,0.3,0.3,0.6,0.3c0.5,0,0.9-0.2,1.2-0.5c0.4-0.3,0.7-0.7,0.9-1.1s0.5-0.9,0.6-1.3s0.3-0.8,0.3-1.1
			c0.1-0.9-0.1-1.4-0.6-1.5s-1-0.2-1.4-0.2c-1,0-1.6,0.3-1.8,1c-0.2,0.7-0.3,1.4-0.3,2.2C75.9,57.1,75.9,57.3,75.9,57.5z"/>
		<path class="st0" d="M132.7,46.2c0.6-0.8,1.5-1.2,2.7-1.2c0.9,0,1.5,0.3,1.9,0.9c0.4,0.6,0.7,1.3,0.9,2.1c0.2,0.9,0.3,1.7,0.4,2.6
			c0.1,0.9,0.2,1.7,0.3,2.4c0.3,1.4,0.7,2.7,0.9,3.9c0.3,1.2,0.5,2.3,0.7,3.5c0.2,1.1,0.4,2.3,0.5,3.5c0.1,1.2,0.2,2.6,0.3,4.1
			l1.6,1.6c1.1-0.7,2-1.8,2.7-3.1c0.7-1.3,1.3-2.8,1.8-4.4c0.5-1.6,0.9-3.2,1.3-4.8c0.3-1.6,0.7-3.1,1.1-4.4
			c0.4-1.3,0.9-2.4,1.4-3.3c0.5-0.9,1.2-1.3,2-1.3c0.5,0,0.9,0,1.2,0.1s0.7,0.3,1.2,0.6c0.1,0.2,0.2,0.6,0.3,1.2
			c0.1,0.6,0.3,1.2,0.5,1.9s0.3,1.3,0.5,1.9c0.1,0.6,0.2,1,0.3,1.2c0.1,0.6,0.2,1.6,0.3,2.9c0.1,1.3,0.2,2.6,0.4,4
			c0.2,1.3,0.5,2.5,1,3.5s1.1,1.5,1.9,1.5c0.1,0,0.2,0,0.3-0.1c0.2-0.1,0.5-0.4,0.9-0.8s0.7-0.7,0.8-0.8L176.3,44
			c0.6-0.9,1-1.4,1.4-1.5c0.3-0.1,0.9-0.2,1.8-0.2c0.8,0,1.4,0.1,1.8,0.3c0.4,0.2,0.6,0.8,0.6,1.8v0.3c-2.2,2.6-4.3,5.3-6.1,8.1
			s-3.6,5.7-5.4,8.5c-1.8,2.8-3.6,5.7-5.4,8.5c-1.8,2.9-3.9,5.6-6.1,8.1c-0.1,0-0.3,0-0.6,0s-0.5,0-0.6,0c-1.1,0-1.9-0.6-2.2-1.7
			s-0.6-2.4-0.8-3.9s-0.5-3-0.8-4.5s-1.1-2.7-2.1-3.6c-0.5,0.2-0.9,0.8-1.4,1.7c-0.5,0.9-0.9,1.8-1.3,2.9c-0.4,1-0.8,2-1.2,3
			c-0.3,1-0.6,1.6-0.9,2c-0.1,0.1-0.3,0.4-0.7,0.8s-0.7,0.7-0.9,0.9c-0.1,0.1-0.4,0.3-0.7,0.6c-0.4,0.3-0.8,0.6-1.2,1
			c-0.4,0.3-0.8,0.7-1.2,0.9c-0.4,0.3-0.6,0.5-0.8,0.6c-1.1-0.4-2-1.2-2.7-2.3c-0.7-1.1-1.3-2.4-1.7-4c-0.5-1.6-0.8-3.3-1.1-5.1
			c-0.3-1.9-0.5-3.7-0.7-5.5s-0.5-3.5-0.7-5.1s-0.6-3-1-4.1c-0.1-0.1-0.2-0.2-0.3-0.4c-0.2-0.2-0.3-0.5-0.5-0.8s-0.3-0.5-0.5-0.8
			c-0.2-0.2-0.3-0.4-0.3-0.4s0-0.3,0-0.7s0-0.7,0-0.9C131.7,48,132.1,47,132.7,46.2z"/>
		<path class="st0" d="M185.2,65.2c0.5-1.7,1.2-3.4,2.1-4.9c0.9-1.5,1.9-2.9,3-4.4c1.2-1.4,2.4-3,3.7-4.7c0.3-0.4,0.6-0.8,0.9-1.3
			c0.3-0.5,0.6-0.9,0.9-1.3c0.3-0.4,0.7-0.7,1.1-1c0.4-0.3,0.9-0.4,1.5-0.4c1.1,0,2.2,0.3,3.4,1s2.4,1.5,3.5,2.5s2.2,2.2,3.3,3.6
			c1,1.3,1.9,2.7,2.7,4.1c0.8,1.4,1.4,2.8,1.8,4.1c0.5,1.3,0.7,2.5,0.7,3.5c0,2.1-0.5,4-1.5,5.5s-2.2,2.9-3.6,4.2
			c-1.4,1.2-3,2.4-4.6,3.4c-1.7,1-3.2,2.1-4.6,3.2h-8.8c-1.1,0-2.1-0.4-3-1.2c-0.8-0.8-1.5-1.8-2-3s-0.9-2.3-1.1-3.6
			c-0.2-1.2-0.3-2.2-0.3-3C184.5,69,184.7,66.9,185.2,65.2z M191.3,76.3c0.8,0.8,1.9,1.2,3.2,1.2c1.7,0,3.4-0.3,5.1-0.9
			c1.7-0.6,3.1-1.5,4.5-2.6c1.3-1.1,2.4-2.4,3.2-4c0.8-1.5,1.2-3.2,1.2-5c0-0.7-0.2-1.7-0.6-2.8c-0.4-1.1-0.9-2.2-1.5-3.2
			c-0.7-1-1.4-1.9-2.3-2.7c-0.9-0.7-1.8-1.1-2.8-1.1c-0.1,0-0.4,0-0.8,0.1c-3.7,1.8-6.4,4.2-8,7c-1.6,2.9-2.4,6.4-2.4,10.5
			C190.1,74.3,190.5,75.5,191.3,76.3z"/>
		<path class="st0" d="M217.5,69.3c0.1-1.6,0.2-3.2,0.4-4.9c0.1-1.6,0.2-3.3,0.3-5s0.1-3.5,0-5.5c0.1-0.1,0.4-0.4,0.8-0.8
			c0.4-0.4,0.7-0.7,0.9-0.8c0-0.1,0.1-0.1,0.3-0.1c1,0,1.8,0.4,2.5,1.3c0.7,0.9,1.1,1.7,1.1,2.7v0.9c0,0.1,0,0.4-0.1,0.9
			s-0.2,1-0.3,1.5s-0.2,1-0.3,1.5s-0.1,0.7-0.1,0.9c-0.1,0.1-0.1,0.1,0,0c0-0.1,0-0.1,0-0.1c0.3,0,0.8,0.2,1.6,0.6
			c0.8,0.4,1.3,0.5,1.6,0.4c1.4-0.9,2.8-2.2,4-3.8s2.5-3.2,3.8-4.8s2.7-2.9,4.3-4.1c1.5-1.1,3.4-1.7,5.6-1.7c1.7,0,3.2,0.5,4.4,1.5
			s1.8,2.4,1.8,4.2c0,0.7-0.1,1.3-0.3,1.8s-0.7,0.7-1.5,0.7c-0.6,0-1.1-0.1-1.5-0.3s-0.9-0.4-1.3-0.6c-0.4-0.2-0.9-0.4-1.4-0.6
			c-0.5-0.2-1.1-0.3-1.8-0.3c-0.2,0-0.7,0-1.4,0s-1.1,0-1.4,0c-0.7,0.6-1.6,1.6-2.7,3c-1.1,1.3-2.3,2.8-3.6,4.5
			c-1.3,1.7-2.6,3.4-4,5.1s-2.7,3.3-3.9,4.8s-2.3,2.6-3.3,3.6c-1,0.9-1.8,1.4-2.3,1.4c-1.1,0-1.9-0.2-2.1-0.5
			c-0.3-0.3-0.4-1.1-0.4-2.2C217.3,72.6,217.3,70.9,217.5,69.3z"/>
		<path class="st0" d="M250.8,70.7v-9.1c0-0.6,0-1.5,0.1-2.7s0.1-2.6,0.1-4.1s0.1-3.1,0.1-4.8c0.1-1.7,0.1-3.2,0.2-4.8
			c0.1-1.5,0.1-2.9,0.1-4.1c0-1.2,0.1-2.1,0.1-2.7c0.3-0.8,0.7-1.3,1.2-1.4c0.5-0.1,1-0.2,1.7-0.2c0.5,0,1,0.1,1.7,0.2
			c0.7,0.1,1,0.6,1,1.4v19.2c0,0.1,0.1,0.2,0.3,0.3c0.2,0.2,0.4,0.3,0.5,0.4h0.4h0.4c0.1-0.1,0.2-0.2,0.6-0.4c0.3-0.2,0.6-0.5,1-0.8
			c0.3-0.3,0.7-0.5,1-0.8c0.3-0.2,0.5-0.4,0.6-0.4c0.2-0.1,0.6-0.4,1.3-0.9c0.7-0.5,1.5-1,2.3-1.5s1.5-1,2.2-1.5s1.1-0.7,1.3-0.9
			c0.8-0.7,1.5-1.6,2-2.7c0.5-1,1-2,1.6-2.9c0.5-0.9,1.2-1.7,2-2.3s1.9-0.9,3.3-0.9c0.7,0,1.2,0.3,1.3,1c0.1,0.7,0.2,1.3,0.2,1.8
			c0,1.1-0.3,2.2-0.9,3.2c-0.6,1.1-1.5,2.1-2.5,3.1s-2.2,2-3.4,3c-1.3,0.9-2.5,1.8-3.8,2.6s-2.4,1.5-3.5,2.1s-1.9,1.1-2.6,1.5
			c0,0.1,0,0.2,0,0.3c0,0.2,0,0.3,0,0.4c0,0.6,0.1,1,0.3,1.3c0.2,0.3,0.7,0.7,1.3,1.1c0.2,0.1,0.8,0.4,1.8,0.9s2,1,3,1.5
			c1.1,0.5,2.1,1,3,1.5s1.5,0.7,1.7,0.9c0.1,0,0.3,0.2,0.6,0.5c0.4,0.3,0.8,0.7,1.3,1.1s1,0.8,1.6,1.1c0.5,0.3,1,0.5,1.2,0.6
			c0.5,0.1,1,0.2,1.5,0.1c0.5,0,1,0,1.5,0s0.9,0.2,1.4,0.4c0.4,0.2,0.8,0.6,1.2,1.1c-0.1,0.3-0.3,0.8-0.5,1.3s-0.5,1.1-0.9,1.6
			s-0.7,1-1.2,1.3c-0.4,0.4-0.9,0.6-1.4,0.6c-1.3,0-2.8-0.5-4.4-1.5s-3.3-2.1-5.1-3.3c-1.8-1.2-3.7-2.3-5.6-3.3s-3.8-1.5-5.7-1.5
			c-2.1,0-3.2,1.1-3.2,3.3c0,1.1,0.2,2.3,0.5,3.3c0.3,1.1,0.5,2.3,0.5,3.5c0,0.4,0,0.9,0,1.5s-0.1,1.2-0.3,1.7
			c-0.1,0.5-0.4,1-0.7,1.4c-0.3,0.4-0.8,0.6-1.4,0.6c-1.3,0-2.2-0.4-2.8-1.2c-0.6-0.8-1-1.7-1.2-2.8v-9.2H250.8z"/>
		<path class="st0" d="M5.7,127.3c-0.8,0.2-1.3,0.3-1.6,0.4H3.6c-2.4,0-3.6-1.1-3.6-3.2c0-1.1,0.3-1.8,0.8-2.1
			c0.5-0.3,1.2-0.6,2-0.7s1.6-0.3,2.4-0.5s1.5-0.6,2-1.4c0.5-0.7,0.8-1.4,0.9-2s0.3-1.3,0.3-2.1c0.1-0.7,0.1-1.4,0.1-2.2
			c0-0.8,0.1-1.6,0.3-2.5c0.6-3.9,2.1-7,4.5-9.3s5.5-3.5,9.5-3.5c1.4,0,2.7,0.3,3.7,0.9c1.1,0.6,1.9,1.3,2.6,2.2
			c0.7,0.9,1.1,2,1.5,3.2c0.3,1.2,0.5,2.5,0.5,3.7c0,0.2,0,0.7,0,1.4c0,0.7,0,1.1-0.1,1.4c-0.1,0.1-0.4,0.3-0.8,0.5
			s-0.7,0.3-0.8,0.3c-0.9,0-1.5-0.4-2-1.2c-0.5-0.8-0.9-1.7-1.5-2.7c-0.5-1-1.1-1.9-1.8-2.7c-0.7-0.8-1.8-1.2-3.1-1.2
			c-1.7,0-3,0.5-4,1.6s-1.7,2.4-2.2,3.9s-0.8,3-0.9,4.7c-0.1,1.6-0.2,3-0.2,4.1c2.5,0,4.9-0.1,7.3-0.3c2.4-0.2,4.8-0.3,7.2-0.3
			c0.9,0,1.8,0.3,2.8,0.8s1.5,1.3,1.5,2.3c0,0.3,0,0.7-0.1,1s-0.3,0.5-0.7,0.6c-0.4,0-1.1,0-2.1,0.1s-2,0.1-3.1,0.2
			s-2.1,0.2-3.1,0.3c-1,0.1-1.7,0.2-2.1,0.3c-0.4,0.1-1.1,0.2-2,0.4c-0.9,0.2-1.9,0.5-2.9,0.9s-1.9,0.9-2.7,1.4s-1.2,1.2-1.2,1.8
			c0,1.3,0.2,2.6,0.6,3.8c0.4,1.2,0.9,2.4,1.4,3.6c0.5,1.1,1,2.3,1.4,3.5s0.6,2.4,0.6,3.6c0,0.8-0.3,1.4-0.9,1.8
			c-0.6,0.4-1.3,0.6-2,0.6c-1,0-1.8-0.4-2.4-1.1s-1.2-1.6-1.7-2.7c-0.5-1.1-0.8-2.3-1.1-3.7s-0.5-2.7-0.6-4
			c-0.2-1.3-0.3-2.5-0.5-3.6c-0.1-1.1-0.3-1.9-0.4-2.5C7,127,6.5,127.1,5.7,127.3z"/>
		<path class="st0" d="M33.8,130.9c0.5-1.7,1.2-3.4,2.1-4.9c0.9-1.5,1.9-2.9,3-4.4c1.2-1.4,2.4-3,3.7-4.7c0.3-0.4,0.6-0.8,0.9-1.3
			c0.3-0.5,0.6-0.9,0.9-1.3c0.3-0.4,0.7-0.7,1.1-1c0.4-0.3,0.9-0.4,1.5-0.4c1.1,0,2.2,0.3,3.4,1s2.4,1.5,3.5,2.5s2.2,2.2,3.3,3.6
			c1,1.3,1.9,2.7,2.7,4.1s1.4,2.8,1.8,4.1c0.5,1.3,0.7,2.5,0.7,3.5c0,2.1-0.5,4-1.5,5.5s-2.2,2.9-3.6,4.2c-1.4,1.2-3,2.4-4.6,3.4
			c-1.7,1-3.2,2.1-4.6,3.2h-8.8c-1.1,0-2.1-0.4-3-1.2c-0.8-0.8-1.5-1.8-2-3s-0.9-2.3-1.1-3.6c-0.2-1.2-0.3-2.2-0.3-3
			C33.1,134.7,33.3,132.6,33.8,130.9z M39.8,141.9c0.8,0.8,1.9,1.2,3.2,1.2c1.7,0,3.4-0.3,5.1-0.9c1.7-0.6,3.1-1.5,4.5-2.6
			c1.3-1.1,2.4-2.4,3.2-4c0.8-1.5,1.2-3.2,1.2-5c0-0.7-0.2-1.7-0.6-2.8c-0.4-1.1-0.9-2.2-1.5-3.2c-0.7-1-1.4-1.9-2.3-2.7
			c-0.9-0.7-1.8-1.1-2.8-1.1c-0.1,0-0.4,0-0.8,0.1c-3.7,1.8-6.4,4.2-8,7c-1.6,2.9-2.4,6.4-2.4,10.5C38.6,140,39,141.2,39.8,141.9z"
			/>
		<path class="st0" d="M66,135c0.1-1.6,0.2-3.2,0.4-4.9c0.1-1.6,0.2-3.3,0.3-5c0.1-1.7,0.1-3.5,0-5.5c0.1-0.1,0.4-0.4,0.8-0.8
			s0.7-0.7,0.9-0.8c0-0.1,0.1-0.1,0.3-0.1c1,0,1.8,0.4,2.5,1.3s1.1,1.7,1.1,2.7v0.9c0,0.1,0,0.4-0.1,0.9s-0.2,1-0.3,1.5
			c-0.1,0.5-0.2,1-0.3,1.5c-0.1,0.5-0.1,0.7-0.1,0.9c-0.1,0.1-0.1,0.1,0,0c0-0.1,0-0.1,0-0.1c0.3,0,0.8,0.2,1.6,0.6
			c0.8,0.4,1.3,0.5,1.6,0.4c1.4-0.9,2.8-2.2,4-3.8c1.2-1.6,2.5-3.2,3.8-4.8c1.3-1.6,2.7-2.9,4.3-4.1c1.5-1.1,3.4-1.7,5.6-1.7
			c1.7,0,3.2,0.5,4.4,1.5c1.2,1,1.8,2.4,1.8,4.2c0,0.7-0.1,1.3-0.3,1.8c-0.2,0.5-0.7,0.7-1.5,0.7c-0.6,0-1.1-0.1-1.5-0.3
			c-0.4-0.2-0.9-0.4-1.3-0.6s-0.9-0.4-1.4-0.6s-1.1-0.3-1.8-0.3c-0.2,0-0.7,0-1.4,0c-0.7,0-1.1,0-1.4,0c-0.7,0.6-1.6,1.6-2.7,3
			c-1.1,1.3-2.3,2.8-3.6,4.5c-1.3,1.7-2.6,3.4-4,5.1s-2.7,3.3-3.9,4.8c-1.2,1.5-2.3,2.6-3.3,3.6c-1,0.9-1.8,1.4-2.3,1.4
			c-1.1,0-1.9-0.2-2.1-0.5c-0.3-0.3-0.4-1.1-0.4-2.2C65.9,138.3,65.9,136.6,66,135z"/>
		<path class="st1" d="M132.2,132.4c0-0.3,0.1-0.5,0.1-0.6l7.9-7.9c-0.5-0.6-1.1-1.2-1.9-1.7c-0.8-0.5-1.6-1.1-2.4-1.6
			c-0.8-0.6-1.4-1.2-2-1.8c-0.6-0.6-0.9-1.4-0.9-2.2c0-2.2,0.6-4.4,1.9-6.4s2.9-3.8,4.9-5.3s4.1-2.7,6.4-3.6
			c2.3-0.9,4.4-1.3,6.4-1.3c1.2,0,2.5,0.1,3.8,0.4s2.6,0.7,3.7,1.4c1.1,0.6,2.1,1.4,2.9,2.4c0.8,1,1.2,2.2,1.2,3.7
			c0,0.5,0,1.1,0,1.6c0,0.6-0.1,1.1-0.3,1.6s-0.5,0.9-0.9,1.2c-0.4,0.3-0.9,0.5-1.6,0.5c-1,0-1.7-0.2-2.1-0.5
			c-0.4-0.3-0.8-0.8-1-1.3s-0.4-1.1-0.6-1.8c-0.1-0.6-0.4-1.2-0.8-1.8c-0.4-0.5-1-1-1.8-1.3s-1.9-0.5-3.4-0.5c-2.7,0-5,0.7-7,2.2
			c-1.9,1.5-3.7,3.1-5.3,4.9c0,0.1,0,0.4,0,0.8s0,0.7,0,0.8c0,1.3,0.6,2.3,1.7,3c1.1,0.7,2.3,1,3.6,1h0.4c0.2-0.1,0.6-0.2,1.3-0.4
			c0.7-0.2,1.4-0.5,2.3-0.7c0.8-0.3,1.6-0.5,2.3-0.8s1.1-0.4,1.3-0.5h0.4c0.9,0,1.5,0.4,1.7,1.1s0.3,1.4,0.3,2.1
			c0,1-0.4,1.9-1.2,2.7c-0.8,0.8-1.8,1.5-3,2.2s-2.5,1.3-3.9,2c-1.4,0.6-2.7,1.3-3.9,2.1c-1.2,0.7-2.2,1.6-3,2.4
			c-0.8,0.9-1.2,1.9-1.2,3c0,0.7,0.3,1.3,0.8,1.8s1.2,1,2,1.5c0.8,0.4,1.6,0.8,2.4,1c0.8,0.2,1.5,0.3,2,0.3c0.2,0,0.6,0,1.3-0.1
			s1.5-0.1,2.5-0.2c0.9-0.1,1.9-0.2,2.8-0.3c0.9-0.1,1.6-0.2,2.1-0.2c2.1-0.2,3.7-0.7,4.9-1.5s2.1-1.6,2.8-2.4
			c0.7-0.9,1.3-1.6,1.7-2.3c0.5-0.7,1-1,1.7-1c1,0,1.6,0.4,1.6,1.1c0.1,0.7,0.1,1.5,0.1,2.3s-0.1,1.6-0.3,2.4
			c-0.2,0.8-0.5,1.6-0.9,2.3s-0.9,1.3-1.5,1.9c-0.6,0.5-1.3,0.9-2.2,1.2c-1,0.2-2.1,0.5-3.5,0.8c-1.3,0.3-2.7,0.6-4.2,0.8
			s-2.9,0.5-4.5,0.6c-1.5,0.2-2.9,0.3-4.3,0.3c-1.5,0-3-0.2-4.7-0.7c-1.6-0.5-3.1-1.1-4.5-2s-2.5-2-3.4-3.3s-1.3-2.8-1.3-4.6
			C132.2,133,132.2,132.7,132.2,132.4z"/>
		<path class="st1" d="M171.3,131.8c0.4-1.4,0.9-2.9,1.6-4.4c0.7-1.5,1.5-3,2.4-4.5s2-2.8,3.1-4s2.3-2.1,3.6-2.8
			c1.2-0.7,2.5-1.1,3.8-1.1c0.2,0,0.7,0.2,1.4,0.5s1.4,0.7,2.3,1.2c0.8,0.5,1.6,0.9,2.4,1.3c0.8,0.4,1.4,0.7,1.8,0.9
			c0.1,0.1,0.3,0.2,0.5,0.4c0.2,0.2,0.3,0.3,0.4,0.4c0,0.4,0,1.1,0,2.1s0,2,0,3.1s0,2.1,0,3.1s0,1.7,0,2.1c0,0.5,0,1,0.1,1.7
			s0.2,1.3,0.3,2c0.2,0.7,0.4,1.3,0.7,2c0.3,0.6,0.7,1.1,1.2,1.5c0.3,0,0.9,0,1.8,0c0.9,0,1.5,0,1.8,0c1.2,0,2.3-0.2,3.3-0.5
			s1.9-0.7,2.7-1.1c0.8-0.4,1.6-0.8,2.2-1.1c0.7-0.3,1.2-0.5,1.8-0.5c0.5,0,0.7,0.3,0.8,0.9c0.1,0.6,0.1,1,0.1,1.2
			c0,1.3-0.4,2.4-1.2,3.3c-0.8,0.9-1.9,1.7-3.1,2.4c-1.2,0.6-2.5,1.1-3.9,1.4c-1.4,0.3-2.6,0.5-3.6,0.5c-1.5,0-2.7-0.4-3.7-1.2
			c-0.9-0.8-1.8-1.8-2.6-2.8s-1.5-2-2.2-2.8s-1.5-1.2-2.5-1.2c-0.8,0-1.7,0.6-2.6,1.8c-0.9,1.2-1.9,2.5-3,3.9
			c-1,1.4-2.1,2.7-3.2,3.9c-1.1,1.2-2.2,1.8-3.4,1.8s-2.2-0.4-2.9-1.3c-0.7-0.9-1.3-1.9-1.8-3.1c-0.4-1.2-0.7-2.4-0.9-3.7
			c-0.1-1.3-0.2-2.4-0.2-3.3C170.7,134.4,170.9,133.2,171.3,131.8z M176.5,139.5c0.1,0.3,0.6,0.6,1.4,1c2.4-1.9,4.4-4,5.8-6.3
			c1.5-2.3,2.2-4.9,2.2-8c0-0.1,0-0.3,0-0.7c0-0.4,0-0.8,0-1.2c0-0.4,0-0.8,0-1.2c0-0.4,0-0.7,0-0.9c-0.1-0.1-0.4-0.3-0.8-0.5
			c-0.4-0.2-0.7-0.3-0.9-0.3c-1.4,0-2.6,0.7-3.6,2.1s-1.8,3.1-2.5,5c-0.7,1.9-1.1,3.8-1.5,5.6c-0.3,1.9-0.5,3.2-0.5,4.1
			C176.3,138.8,176.4,139.2,176.5,139.5z"/>
		<path class="st1" d="M212.4,135c0.1-1.6,0.2-3.2,0.4-4.9c0.1-1.6,0.2-3.3,0.3-5s0.1-3.5,0-5.5c0.1-0.1,0.4-0.4,0.8-0.8
			c0.4-0.4,0.7-0.7,0.9-0.8c0-0.1,0.1-0.1,0.3-0.1c1,0,1.8,0.4,2.5,1.3s1.1,1.7,1.1,2.7v0.9c0,0.1,0,0.4-0.1,0.9s-0.2,1-0.3,1.5
			s-0.2,1-0.3,1.5s-0.1,0.7-0.1,0.9c-0.1,0.1-0.1,0.1,0,0c0-0.1,0-0.1,0-0.1c0.3,0,0.8,0.2,1.6,0.6c0.8,0.4,1.3,0.5,1.6,0.4
			c1.4-0.9,2.8-2.2,4-3.8c1.2-1.6,2.5-3.2,3.8-4.8c1.3-1.6,2.7-2.9,4.3-4.1c1.5-1.1,3.4-1.7,5.6-1.7c1.7,0,3.2,0.5,4.4,1.5
			s1.8,2.4,1.8,4.2c0,0.7-0.1,1.3-0.3,1.8s-0.7,0.7-1.5,0.7c-0.6,0-1.1-0.1-1.5-0.3c-0.4-0.2-0.9-0.4-1.3-0.6
			c-0.4-0.2-0.9-0.4-1.4-0.6s-1.1-0.3-1.8-0.3c-0.2,0-0.7,0-1.4,0s-1.1,0-1.4,0c-0.7,0.6-1.6,1.6-2.7,3c-1.1,1.3-2.3,2.8-3.6,4.5
			c-1.3,1.7-2.6,3.4-4,5.1s-2.7,3.3-3.9,4.8s-2.3,2.6-3.3,3.6c-1,0.9-1.8,1.4-2.3,1.4c-1.1,0-1.9-0.2-2.1-0.5
			c-0.3-0.3-0.4-1.1-0.4-2.2C212.2,138.3,212.3,136.6,212.4,135z"/>
		<path class="st1" d="M250.1,132.2c0.2-0.6,0.3-1,0.3-1.2c0.1-0.5,0.1-1.2,0.3-1.9c0.1-0.8,0.2-1.5,0.3-2.3s0.1-1.4,0.2-2
			c0-0.5,0-0.8,0-0.9l-0.8-1.6c-0.4,0-0.9,0-1.6,0c-0.6,0-1.2-0.1-1.8-0.2s-1.1-0.4-1.5-0.7c-0.4-0.3-0.6-0.8-0.6-1.5
			c0-1,0.4-1.7,1.2-2.2s1.8-1,2.8-1.5s2-1.2,2.8-2s1.2-2,1.2-3.5V108c0-0.1-0.1-0.2-0.2-0.6c-0.1-0.3-0.2-0.7-0.3-1
			c-0.1-0.4-0.2-0.7-0.3-1s-0.1-0.5-0.1-0.6c0-0.5,0.2-1.1,0.5-1.6c0.3-0.6,0.7-1.1,1.2-1.6s1-0.9,1.5-1.2c0.5-0.3,1-0.5,1.5-0.5
			c0.9,0,1.7,0.3,2.6,1s1.3,1.4,1.5,2.3c-1.1,0.6-1.8,1.3-2.1,2.1c-0.3,0.8-0.4,1.7-0.3,2.6s0.3,1.8,0.5,2.8
			c0.3,0.9,0.4,1.9,0.4,2.8h9.5c0.2,0,0.4,0.1,0.6,0.3c0.1,0.2,0.2,0.5,0.3,0.7c0,0.3,0,0.5,0,0.8s0,0.5,0,0.5c0,0.1,0,0.3,0,0.6
			c0,0.3,0,0.6-0.1,0.9s-0.1,0.6-0.3,0.9c-0.1,0.3-0.3,0.4-0.5,0.4h-10.4c-0.5,0-0.8,0.3-1.2,1c-0.3,0.7-0.6,1.5-0.8,2.5
			c-0.2,1-0.4,2.1-0.6,3.3c-0.2,1.2-0.3,2.3-0.4,3.3c-0.1,1.1-0.1,2-0.2,2.8c0,0.8,0,1.3,0,1.5c0,1.2,0.2,2.2,0.5,3s0.7,1.6,1.1,2.2
			c0.4,0.6,0.8,1.2,1.1,1.7s0.5,1.1,0.5,1.6c0,1.2-0.3,1.9-0.8,2s-1.4,0.2-2.5,0.2c-0.3,0-0.7,0-1.1,0c-0.4,0-0.8,0-1.2-0.1
			s-0.7-0.3-1-0.5c-0.3-0.3-0.5-0.6-0.6-1.2l-1.5-8.7C249.8,133.2,249.9,132.8,250.1,132.2z"/>
		<path class="st1" d="M273,136.7c0.5-1.5,0.8-3,0.8-4.6c0-0.1,0-0.2-0.1-0.4s-0.2-0.5-0.3-0.8c-0.1-0.3-0.2-0.5-0.3-0.8
			c-0.1-0.2-0.1-0.4-0.1-0.4V129v-0.9c0.1-1,0.1-2.7,0.2-5.1s0.1-5,0.2-7.6c0.1-2.7,0.2-5.2,0.3-7.6c0.1-2.4,0.1-4.1,0.1-5.1
			c0.1-0.6,0.5-0.9,1.1-0.9s1.1,0,1.4,0c0.7,0,1.3,0.1,1.8,0.2s1,0.6,1.2,1.5c0,0.3,0,0.8,0,1.6c0,0.8,0,1.3,0,1.5
			c0,3.3-0.3,6.6-0.9,9.8c-0.6,3.2-0.9,6.5-0.9,9.8c0,0.6,0,1,0.1,1.4c0.1,0.3,0.3,0.8,0.8,1.3c0.7-0.5,1.4-1.2,1.8-2
			c0.5-0.8,0.9-1.7,1.3-2.6s0.7-1.8,1.1-2.7c0.3-0.9,0.8-1.6,1.3-2.3c0.4-0.5,0.9-1.2,1.5-2.1s1.3-1.8,2-2.7s1.6-1.6,2.4-2.3
			c0.9-0.6,1.8-0.9,2.8-0.9c1.4,0,2.6,0.4,3.5,1.3s1.6,2,2,3.4s0.7,2.9,0.9,4.6c0.1,1.7,0.2,3.4,0.1,5c0,1.7-0.1,3.2-0.1,4.6
			c-0.1,1.4-0.1,2.5,0,3.3c0.1,0.7,0.2,1.3,0.6,1.8c0.3,0.5,0.7,1,1.1,1.5s0.8,0.9,1.1,1.4c0.3,0.5,0.5,1,0.5,1.6
			c0,1.4-0.4,2.3-1.1,2.7s-1.7,0.6-2.8,0.6c-1.6,0-2.7-0.2-3.4-0.7c-0.7-0.5-1.1-1.1-1.3-2c-0.2-0.9-0.3-1.9-0.2-3
			c0.1-1.2,0.1-2.5,0-3.9c0-0.5,0-1.4-0.1-2.7s-0.2-2.6-0.3-4c-0.1-1.4-0.2-2.8-0.2-4.1c-0.1-1.3-0.1-2.2-0.2-2.7s-0.3-0.7-0.6-0.8
			c-0.3-0.1-0.6-0.1-0.9-0.1c-0.5,0-0.8,0-0.9,0.1c-0.2,0.1-0.4,0.3-0.7,0.8c-0.5,0.7-1,1.8-1.7,3.2c-0.7,1.4-1.4,3-2.2,4.7
			c-0.8,1.7-1.7,3.5-2.6,5.3s-1.8,3.4-2.7,4.9c-0.9,1.5-1.8,2.7-2.7,3.6c-0.9,0.9-1.7,1.4-2.5,1.4c-1,0-1.7-0.1-2.2-0.2
			c-0.5-0.1-0.8-0.8-0.8-1.8C272.2,139.7,272.4,138.2,273,136.7z"/>
		<path class="st1" d="M304.7,139.3c0.3-0.5,0.6-0.8,1.1-1.1c0.5-0.2,1-0.4,1.7-0.4c0.6-0.1,1.3-0.1,2-0.1c0.2,0,0.7,0,1.4,0
			c0.7,0,1.1,0,1.4,0c0.1,0.1,0.3,0.2,0.4,0.4c0.2,0.2,0.3,0.3,0.4,0.4c0.1,0.2,0.3,0.5,0.5,0.9s0.3,0.6,0.3,0.7
			c-0.2,0.4-0.5,0.8-1,1.3s-1.1,0.9-1.7,1.3c-0.6,0.4-1.3,0.7-1.9,1s-1.2,0.4-1.7,0.4c-0.9,0-1.6-0.2-2.2-0.7s-0.9-1.1-0.9-2.1
			C304.3,140.5,304.4,139.8,304.7,139.3z"/>
	</g>
	<g>
		<path class="st1" d="M318.3,103.8c0,4.3-3.3,7.6-7.7,7.6c-4.3,0-7.8-3.3-7.8-7.6c0-4.2,3.4-7.5,7.8-7.5
			C314.9,96.2,318.3,99.6,318.3,103.8z M304.7,103.8c0,3.3,2.5,6,5.9,6c3.3,0,5.7-2.7,5.7-6s-2.4-6.1-5.8-6.1
			S304.7,100.5,304.7,103.8z M309.4,107.7h-1.7v-7.5c0.7-0.1,1.7-0.2,2.9-0.2c1.4,0,2.1,0.2,2.6,0.6c0.4,0.3,0.7,0.9,0.7,1.7
			c0,0.8-0.6,1.5-1.6,1.7v0.1c0.7,0.3,1.1,0.8,1.4,1.8c0.2,1.1,0.4,1.6,0.5,1.9h-1.9c-0.2-0.3-0.4-1-0.6-1.8
			c-0.1-0.8-0.6-1.2-1.6-1.2h-0.8v2.9H309.4z M309.4,103.4h0.8c1,0,1.7-0.3,1.7-1.1c0-0.7-0.5-1.1-1.6-1.1c-0.5,0-0.8,0-1,0.1v2.1
			H309.4z"/>
	</g>
</g>
</svg>
