<svg xmlns="http://www.w3.org/2000/svg" viewBox="0 0 88 88" height="88" width="88" style="display: block; height: 100%; width: 100%;"><title>Schedule_Rides</title><desc>Schedule_Rides</desc>
    <path d="M88 88h-3.99V40.23H88z" style="fill: rgb(30, 150, 190);"></path>
    <path fill="#f1f1f1" d="M22.64 42.72h61.37V88H22.64z"></path>
    <path d="M55.95 85H41.5V45.7h14.45zM43.5 83h10.45V47.7H43.5z" fill="#fff"></path>
    <path d="M80.68 85H24.61V45.7h56.07zm-54.07-2h52.07V47.7H26.61z" fill="#fff"></path>
    <path d="M80.68 72.58H24.61V58.14h56.07zm-54.07-2h52.07V60.14H26.61z" fill="#fff"></path>
    <path d="M22.64 36.49v6.23H84v-6.6a4.33 4.33 0 0 0-4.33-4.33H27.33a4.71 4.71 0 0 0-4.69 4.7z" style="fill: rgb(163, 233, 236);"></path>
    <path d="M83.67 31.79h-4A4.33 4.33 0 0 1 84 36.13v6.6h4v-6.6a4.33 4.33 0 0 0-4.33-4.34z"></path>
    <path d="M46.62 38a6.16 6.16 0 0 1 0-12.32 1 1 0 1 1 0 2 4.16 4.16 0 0 0 0 8.32 1 1 0 0 1 0 2z" style="fill: rgb(30, 150, 190);"></path>
    <path d="M52.78 31.79h-2a4.16 4.16 0 0 0-4.16-4.16v-2a6.17 6.17 0 0 1 6.16 6.16zM60 38a6.16 6.16 0 0 1 0-12.32 1 1 0 0 1 0 2A4.16 4.16 0 0 0 60 36a1 1 0 0 1 0 2z" style="fill: rgb(30, 150, 190);"></path>
    <path d="M66.19 31.79h-2A4.16 4.16 0 0 0 60 27.63v-2a6.17 6.17 0 0 1 6.19 6.16zM33.21 38a6.16 6.16 0 0 1 0-12.32 1 1 0 0 1 0 2 4.16 4.16 0 0 0 0 8.32 1 1 0 0 1 0 2z" style="fill: rgb(30, 150, 190);"></path>
    <path d="M39.37 31.79h-2a4.16 4.16 0 0 0-4.16-4.16v-2a6.17 6.17 0 0 1 6.16 6.16zM73.44 38a6.16 6.16 0 0 1 0-12.32 1 1 0 0 1 0 2 4.16 4.16 0 0 0 0 8.32 1 1 0 0 1 0 2z" style="fill: rgb(30, 150, 190);"></path>
    <path d="M79.6 31.79h-2a4.16 4.16 0 0 0-4.16-4.16v-2a6.17 6.17 0 0 1 6.16 6.16z" style="fill: rgb(30, 150, 190);"></path>
    <path d="M0 65.36A22.64 22.64 0 0 0 22.64 88V42.72A22.64 22.64 0 0 0 0 65.36z" style="fill: rgb(163, 233, 236);"></path>
    <path d="M22.64 42.72V88a22.64 22.64 0 1 0 0-45.28z" style="fill: rgb(30, 150, 190);"></path>
    <path d="M68.3 85H53.86V45.7H68.3zm-12.44-2H66.3V47.7H55.86z" fill="#fff"></path>
    <path d="M6.59 65.36a16 16 0 0 0 16 16V49.32a16 16 0 0 0-16 16.04z" style="fill: rgb(30, 150, 190);"></path>
    <path d="M22.64 49.32v32.09a16 16 0 0 0 0-32.09z"></path>
    <path d="M22.64 85.91v-2a18.54 18.54 0 0 0 0-37.09v-2a20.54 20.54 0 0 1 0 41.09z" style="fill: rgb(163, 233, 236);"></path>
    <path d="M22.64 85.91a20.54 20.54 0 1 1 0-41.09v2a18.54 18.54 0 1 0 0 37.09z" fill="#fff"></path>
    <path d="M35.13 66.36H22.64a1 1 0 1 1 0-2h12.49a1 1 0 0 1 0 2z" style="fill: rgb(163, 233, 236);"></path>
    <path d="M16.67 72.33a1 1 0 0 1-.67-1.71l6-6a1 1 0 0 1 1.41 1.41l-6 6a1 1 0 0 1-.74.3z" fill="#fff"></path>
    <path d="M22.64 66.36a1 1 0 0 1-1-1V52.87a1 1 0 0 1 2 0v12.49a1 1 0 0 1-1 1z" fill="#fff"></path>
    <circle cx="31.37" cy="65.36" r="2.41" style="fill: rgb(163, 233, 236);"></circle>
</svg>