<svg xmlns="http://www.w3.org/2000/svg" viewBox="0 0 88 88" height="88" width="88" style="display: block; height: 100%; width: 100%;"><title>Message_2</title><desc>Message_2</desc>
    <path d="M61.86 50.63H28.8a13.31 13.31 0 0 0-13.32 13.32v.31H3.4V81a7 7 0 0 0 7 7h54a10 10 0 0 0 10-10V63.16a12.53 12.53 0 0 0-12.54-12.53z" style="fill: rgb(163, 233, 236);"></path>
    <path fill="#fff" d="M36.63 50.63h16.61v37.28H36.63z"></path>
    <path d="M35.35 50.63h8.83V45.8a13.47 13.47 0 0 0-3.91-9.55l-1-1a14.32 14.32 0 0 1-3.95-9.9V25H32.1v25.63z"></path>
    <path d="M51.45 31a12.42 12.42 0 1 0-23.17-6.23v2.59A5.58 5.58 0 0 1 27 31.42c-.36.36.23 1.09.74 1.09h.57v7.36c0 1.28 1.71 1.71 3 1.71h5.37v9.06a8.31 8.31 0 0 0 16.57 0V31z" fill="#d6d6d5"></path>
    <path d="M40.74 12a12.42 12.42 0 0 1 12.5 12.44v18.3l-4.37-4.29a5.52 5.52 0 0 1-1.67-3.85v-6.36a2.25 2.25 0 0 0-2.27-1.92A2.34 2.34 0 0 0 42.7 28h-.44c-1.86 0-4.12-1-4.12-2.82v-1.6c0-1.35-.35-3.15-1.7-3.15h-7.66A13 13 0 0 1 40.74 12z"></path>
    <path d="M39.65 23.45h-15.1v-1.7a5.85 5.85 0 0 1 5.85-5.85h9.25v7.55zm22.66 27.28V45.8a13.65 13.65 0 0 0-4.1-9.55l-1.12-1a14.36 14.36 0 0 1-4-9.9V25H47.2v19.64a6.28 6.28 0 0 0 6 6.1z"></path>
    <path d="M4.72 48.84h2.45v4.94H2.23v-2.46a2.49 2.49 0 0 1 2.49-2.48zM3.41 60.09h7.36v4.17H3.41z" fill="#d6d6d5"></path>
    <rect x="4.73" y="41.96" width="9.06" height="18.12" rx="1.02" ry="1.02"></rect>
    <path d="M9.7 58.1v-6.28a1.61 1.61 0 0 0-1.61-1.61H1.16A1.16 1.16 0 0 0 0 51.37v4.85A2.51 2.51 0 0 0 .73 58l2.45 2.46A3.92 3.92 0 0 0 6 61.6h.2a3.49 3.49 0 0 0 3.5-3.5z" fill="#d6d6d5"></path>
    <path d="M70.76 0v42.22a2.88 2.88 0 0 0 2.8-2l7.73-24.32A11.44 11.44 0 0 0 70.76 0z" style="fill: rgb(30, 150, 190);"></path>
    <path d="M59.32 11.44a11.43 11.43 0 0 0 .31 2.6 11.37 11.37 0 0 0 .56 1.77L68 40.17a2.88 2.88 0 0 0 2.8 2V0a11.44 11.44 0 0 0-11.48 11.44z" style="fill: rgb(163, 233, 236);"></path>
    <circle cx="70.76" cy="11.44" r="4.41" fill="#fff"></circle>
</svg>