<?xml version="1.0" encoding="utf-8"?>
<!-- Generator: Adobe Illustrator 24.0.1, SVG Export Plug-In . SVG Version: 6.00 Build 0)  -->
<svg version="1.1" id="Layer_1" xmlns="http://www.w3.org/2000/svg" xmlns:xlink="http://www.w3.org/1999/xlink" x="0px" y="0px"
	 viewBox="0 0 153.7 227.9" style="enable-background:new 0 0 153.7 227.9;" xml:space="preserve">
<style type="text/css">
	.st0{enable-background:new    ;}
	.st1{fill:#008FBE;}
	.st2{fill:#003DA6;}
</style>
<g class="st0">
	<path class="st1" d="M38.2,20.3h6.6l9.9,15.8V20.3h6v26.4h-6.1L44.3,30.1v16.6h-6V20.3z"/>
	<path class="st1" d="M63.7,37c0-5.6,4.3-10.2,10.5-10.2c6,0,10.5,4.6,10.5,10.2c0,5.6-4.3,10.1-10.5,10.1
		C68.1,47.1,63.7,42.6,63.7,37z M78.6,36.9c0-2.5-2-4.4-4.4-4.4s-4.4,2-4.4,4.4c0,2.5,2,4.4,4.4,4.4S78.6,39.4,78.6,36.9z"/>
	<path class="st1" d="M85.2,27.2h6.1l3.4,11.2l3.9-11.2h5.1l3.8,11.3l3.5-11.3h6.1l-6.4,19.5H105l-4-11.1l-4,11.1h-5.7L85.2,27.2z"
		/>
</g>
<g class="st0">
	<path class="st1" d="M27,56.2h6v11.2c1.2-1.6,3-2.6,5.2-2.6c4.3,0,7.1,2.9,7.1,7.7v12.3h-6.3v-11c0-2.2-1-3.5-3-3.5
		c-1.8,0-3.1,1.3-3.1,3.8v10.7h-6V56.2z"/>
	<path class="st1" d="M51.8,56.4c2.2,0,3.7,1.5,3.7,3.7c0,2.1-1.5,3.6-3.7,3.6c-2.2,0-3.6-1.5-3.6-3.6
		C48.1,57.9,49.6,56.4,51.8,56.4z M48.6,65.2h6.3v19.5h-6.3V65.2z"/>
	<path class="st1" d="M58.3,65.2h6v2.7c1-2.2,3-3.1,5.5-3.1c1.3,0,2.4,0.3,3.3,0.8L71,71.6c-0.6-0.4-1.6-0.8-2.7-0.8
		c-2.4,0-3.9,1.2-3.9,4.3v9.6h-6V65.2z"/>
	<path class="st1" d="M78.3,56.4c2.2,0,3.7,1.5,3.7,3.7c0,2.1-1.5,3.6-3.7,3.6c-2.2,0-3.6-1.5-3.6-3.6
		C74.6,57.9,76.1,56.4,78.3,56.4z M75.2,65.2h6.3v19.5h-6.3V65.2z"/>
	<path class="st1" d="M84.8,65.2h6.1v2.3c1.2-1.7,3-2.7,5.2-2.7c4.3,0,7.1,2.9,7.1,7.7v12.3H97v-11c0-2.2-1-3.5-3-3.5
		c-1.8,0-3.1,1.3-3.1,3.8v10.7h-6.1V65.2z"/>
	<path class="st1" d="M106,74.9c0-6.2,4.3-10.1,9.1-10.1c2.5,0,4.3,1,5.5,2.6v-2.2h6.1v18.2c0,5.5-4,9.8-10.5,9.8
		c-4.2,0-7.1-1.2-9.4-3.7l5.1-3.8c1.1,1.3,2.2,2.2,4.2,2.2c2.6,0,4.5-1.8,4.5-4.4v-1.3c-1.2,1.7-3.1,2.7-5.5,2.7
		C110.4,84.9,106,81.1,106,74.9z M120.9,74.8c0-2.5-2-4.4-4.4-4.4s-4.4,1.9-4.4,4.4c0,2.5,2,4.4,4.4,4.4S120.9,77.3,120.9,74.8z"/>
</g>
<g class="st0">
	<path class="st2" d="M7.3,109.5c0-7.7,5.8-13.6,13.5-13.6c5.1,0,9.4,2.6,11.8,6.5L27,106c-1.2-2.4-3.3-3.8-6.2-3.8
		c-4.2,0-7.1,3.3-7.1,7.4c0,4,2.9,7.3,7.1,7.3c3.1,0,5.3-1.8,6.4-4.3l5.8,3.1c-2.2,4.4-6.5,7.4-12.2,7.4
		C12.7,123.1,7.3,117,7.3,109.5z"/>
	<path class="st2" d="M34.8,117.3c0-4,3.4-6.6,8.8-6.6h4.5v-0.1c0-1.6-1.2-2.7-3.3-2.7c-1.8,0-3,0.7-3.7,2l-5.8-2.6
		c2.1-2.6,4.9-4.4,9.4-4.4c5.9,0,9.2,2.9,9.2,8v11.9h-5.8v-2.6c-1.3,1.8-3.7,3-6.7,3C37.5,123.1,34.8,120.9,34.8,117.3z M48.2,115.3
		v-0.4h-3.7c-2.3,0-3.3,0.8-3.3,1.9c0,1.1,0.8,1.6,2.3,1.6C45.6,118.3,47.6,116.9,48.2,115.3z"/>
	<path class="st2" d="M57.2,103.2h6v2.7c1-2.2,3-3.1,5.5-3.1c1.3,0,2.4,0.3,3.3,0.8l-2.1,6.1c-0.6-0.4-1.6-0.8-2.7-0.8
		c-2.4,0-3.9,1.2-3.9,4.3v9.6h-6V103.2z"/>
	<path class="st2" d="M72.1,113c0-6.3,4.3-10.2,9.1-10.2c2.5,0,4.3,1,5.4,2.6V94.2h6v28.5h-6v-2.4c-1.2,1.8-3.1,2.8-5.5,2.8
		C76.6,123.1,72.1,119.3,72.1,113z M87,112.9c0-2.5-2-4.4-4.4-4.4s-4.4,2-4.4,4.4c0,2.5,2,4.4,4.4,4.4S87,115.4,87,112.9z"/>
	<path class="st2" d="M99.1,94.4c2.2,0,3.7,1.5,3.7,3.7c0,2.1-1.5,3.6-3.7,3.6c-2.2,0-3.6-1.5-3.6-3.6C95.5,95.9,97,94.4,99.1,94.4z
		 M96,103.2h6.3v19.5H96V103.2z"/>
	<path class="st2" d="M105,117.3c0-4,3.4-6.6,8.8-6.6h4.5v-0.1c0-1.6-1.2-2.7-3.3-2.7c-1.8,0-3,0.7-3.7,2l-5.8-2.6
		c2.1-2.6,4.9-4.4,9.4-4.4c5.9,0,9.2,2.9,9.2,8v11.9h-5.8v-2.6c-1.3,1.8-3.7,3-6.7,3C107.6,123.1,105,120.9,105,117.3z M118.4,115.3
		v-0.4h-3.7c-2.3,0-3.3,0.8-3.3,1.9c0,1.1,0.8,1.6,2.3,1.6C115.7,118.3,117.8,116.9,118.4,115.3z"/>
	<path class="st2" d="M126.9,113c0-5.8,4.4-10.2,10.3-10.2c4.7,0,8.2,2.6,9.8,6.4l-5.7,2.1c-0.6-1.8-2.1-2.9-4-2.9
		c-2.4,0-4.3,2-4.3,4.4c0,2.4,2,4.4,4.3,4.4c1.8,0,3.3-1.1,3.9-2.8l5.8,2.3c-1.8,3.7-5,6.3-9.9,6.3
		C131.3,123.1,126.9,118.7,126.9,113z"/>
</g>
<g class="st0">
	<path class="st2" d="M38.2,134.3h11.4c6.4,0,9.9,4.1,9.9,9.1c0,3.4-1.6,6.2-4.3,7.8l4.9,9.5h-6.9l-3.7-7.9h-5v7.9h-6.3V134.3z
		 M44.5,140.1v7h4.6c2.7,0,3.9-1.6,3.9-3.5c0-2.2-1.3-3.5-3.9-3.5H44.5z"/>
	<path class="st2" d="M62.7,134.3h6.6l9.9,15.8v-15.8h6v26.4h-6.1l-10.4-16.6v16.6h-6V134.3z"/>
	<path class="st2" d="M87.6,155.7l6.1-1.7c0.5,1.6,2,2.4,3.7,2.4c1.6,0,2.4-0.7,2.4-1.5c0-1.1-1.8-1.4-4.2-1.8
		c-3.3-0.7-7.1-1.6-7.1-5.9c0-3.5,3.4-6.4,8.5-6.4c4.6,0,7,1.8,8.9,4.7l-5.8,1.8c-0.6-1.2-1.7-1.8-3.2-1.8c-1.5,0-2.2,0.5-2.2,1.3
		c0,0.9,1.4,1.2,4.1,1.7c3.3,0.7,7.3,1.7,7.3,6.1c0,3.3-2.9,6.7-8.8,6.7C92.1,161.1,89,159.2,87.6,155.7z"/>
	<path class="st2" d="M112.4,154c2.1,0,3.5,1.5,3.5,3.6s-1.4,3.5-3.5,3.5c-2.1,0-3.5-1.4-3.5-3.5S110.3,154,112.4,154z"/>
</g>
</svg>
