<?xml version="1.0" encoding="utf-8"?>
<!-- Generator: Adobe Illustrator 24.0.1, SVG Export Plug-In . SVG Version: 6.00 Build 0)  -->
<svg version="1.1" id="Layer_1" xmlns="http://www.w3.org/2000/svg" xmlns:xlink="http://www.w3.org/1999/xlink" x="0px" y="0px"
	 viewBox="0 0 153.7 227.9" style="enable-background:new 0 0 153.7 227.9;" xml:space="preserve">
<style type="text/css">
	.st0{fill:#008FBE;}
	.st1{font-family:'SharpSans-Extrabold';}
	.st2{font-size:36.167px;}
	.st3{fill:#003DA6;}
	.st4{font-family:'SharpSans-Bold';}
</style>
<g>
	<text transform="matrix(1 0 0 1 12.3223 46.7192)" class="st0 st1 st2">Nurses </text>
	<text transform="matrix(1 0 0 1 34.8902 84.7192)" class="st0 st1 st2">with </text>
	<text transform="matrix(1 0 0 1 25.8306 122.7192)" class="st0 st1 st2">heart </text>
	<text transform="matrix(1 0 0 1 3.1065 160.7192)" class="st0 st1 st2">make us</text>
	<g>
		<polygon class="st3" points="112.7,192.9 112.7,197.9 117.8,197.9 		"/>
		<g>
			<path class="st0" d="M117.8,181.1V178h-5.1v14.9l5.1,5l0,0v-10.5c0-3.4,1.7-4.7,4.4-4.7c1.2,0,2.1,0.3,2.7,0.7l1.9-5
				c-0.9-0.4-2.1-0.8-3.4-0.8C120.8,177.7,118.8,178.7,117.8,181.1"/>
			<path class="st0" d="M110.8,187.8c0-5.9-4.4-10.2-10.4-10.2c-1,0-1.9,0.1-2.8,0.4l4.1,4.1c2,0.4,3.5,1.7,4,3.7h-0.2l4,4h1.3
				V187.8z"/>
			<g>
				<g>
					<path class="st3" d="M100.6,193.9c-3,0-5.1-1.6-5.8-4.2h14.7l-4-4H94.9c0.8-2.3,2.8-3.8,5.5-3.8c0.5,0,0.9,0,1.3,0.1l-4.1-4.1
						c-4.6,1.2-7.7,5.2-7.7,10c0,5.8,4.2,10.3,10.7,10.3c4.5,0,7.3-1.8,9.3-4.6l-4.2-2.4C104.6,192.9,103,193.9,100.6,193.9"/>
				</g>
				<g>
					<path class="st3" d="M86.4,193.5c-1.3,0-2.2-0.7-2.2-2.8v-8.2h5.3V178h-5.3v-7.3l-5.1,2.9v4.3h-3.7v4.5h3.7v8.4
						c0,5.4,2.5,7.4,6.7,7.4c1.9,0,3.5-0.6,4.8-1.5l-2.4-4C87.7,193.3,87.1,193.5,86.4,193.5"/>
				</g>
				<g>
					<path class="st3" d="M71.4,193.5c-1.3,0-2.2-0.7-2.2-2.8v-8.2h5.3V178h-5.3v-7.3l-5.1,2.9v4.3h-3.7v4.5h3.7v8.4
						c0,5.4,2.5,7.4,6.7,7.4c1.9,0,3.5-0.6,4.8-1.5l-2.4-4C72.7,193.3,72.1,193.5,71.4,193.5"/>
				</g>
				<g>
					<path class="st3" d="M44.7,185.8c0.8-2.3,2.8-3.8,5.5-3.8s4.6,1.4,5.3,3.8H44.7z M50.2,177.6c-6,0-10.6,4.6-10.6,10.4
						c0,5.8,4.2,10.3,10.7,10.3c4.4,0,7.3-1.8,9.3-4.6l-4.2-2.4c-1,1.6-2.6,2.7-5,2.7c-3,0-5.1-1.6-5.8-4.2h16v-1.9
						C60.6,181.9,56.3,177.6,50.2,177.6"/>
				</g>
				<g>
					<path class="st3" d="M28.6,193.2h-6.2v-6.7h6c3.3,0,4.6,1.2,4.6,3.3S31.5,193.2,28.6,193.2 M22.4,175.6h6.2
						c2.8,0,4.1,1.1,4.1,3c0,1.8-1.2,3.2-4,3.2h-6.3C22.4,181.8,22.4,175.6,22.4,175.6z M34.8,184c2-1.1,3.1-3,3.1-5.4
						c0-4.8-3.4-7.5-9.5-7.5H17.2V198h11.4c6.1,0,9.8-2.7,9.8-8C38.4,187.2,37.1,185.1,34.8,184"/>
				</g>
			</g>
			<text transform="matrix(1 0 0 1 121.3164 198.7192)" class="st0 st4 st2">.</text>
		</g>
	</g>
</g>
</svg>
