<?xml version="1.0" encoding="utf-8"?>
<!-- Generator: Adobe Illustrator 24.0.1, SVG Export Plug-In . SVG Version: 6.00 Build 0)  -->
<svg version="1.1" id="Layer_1" xmlns="http://www.w3.org/2000/svg" xmlns:xlink="http://www.w3.org/1999/xlink" x="0px" y="0px"
	 viewBox="0 0 153.7 227.9" style="enable-background:new 0 0 153.7 227.9;" xml:space="preserve">
<style type="text/css">
	.st0{enable-background:new    ;}
	.st1{fill:#008FBE;}
	.st2{fill:#003DA6;}
</style>
<g>
	<g class="st0">
		<path class="st1" d="M14.3,20.3h6.6l9.9,15.8V20.3h6v26.4h-6.1L20.3,30.1v16.6h-6V20.3z"/>
		<path class="st1" d="M40.2,39.4V27.2h6.3v11c0,2.2,0.9,3.5,3,3.5c1.8,0,3-1.2,3-3.8V27.2l6.2,0v19.5l-6.1,0v-2.2
			c-1.2,1.7-3,2.6-5.2,2.6C42.9,47.1,40.2,44.3,40.2,39.4z"/>
		<path class="st1" d="M62.1,27.2h6v2.7c1-2.2,3-3.1,5.5-3.1c1.3,0,2.4,0.3,3.3,0.8l-2.1,6.1c-0.6-0.4-1.6-0.8-2.7-0.8
			c-2.4,0-3.9,1.2-3.9,4.3v9.6h-6V27.2z"/>
		<path class="st1" d="M76.9,41.7L83,40c0.5,1.6,2,2.4,3.7,2.4c1.6,0,2.4-0.7,2.4-1.5c0-1.1-1.8-1.4-4.2-1.8
			c-3.3-0.7-7.1-1.6-7.1-5.9c0-3.5,3.4-6.4,8.5-6.4c4.6,0,7,1.8,8.9,4.7l-5.8,1.8c-0.6-1.2-1.7-1.8-3.2-1.8c-1.5,0-2.2,0.5-2.2,1.3
			c0,0.9,1.4,1.2,4.1,1.7c3.3,0.7,7.3,1.7,7.3,6.1c0,3.3-2.9,6.7-8.8,6.7C81.4,47.1,78.3,45.2,76.9,41.7z"/>
		<path class="st1" d="M97.5,37c0-5.6,4.4-10.2,10.3-10.2c6,0,10.2,4.3,10.2,10.1V39h-14.5c0.7,2,2.3,3,4.5,3c1.9,0,3.2-0.8,4-2.1
			l4.9,2.9c-2,2.7-4.7,4.3-9,4.3C101.4,47.1,97.5,42.6,97.5,37z M103.5,34.5h8.4c-0.7-1.7-2.1-2.6-4.1-2.6
			C105.8,31.9,104.3,32.9,103.5,34.5z"/>
		<path class="st1" d="M119.5,41.7l6.1-1.7c0.5,1.6,2,2.4,3.7,2.4c1.6,0,2.4-0.7,2.4-1.5c0-1.1-1.8-1.4-4.2-1.8
			c-3.3-0.7-7.1-1.6-7.1-5.9c0-3.5,3.4-6.4,8.5-6.4c4.6,0,7,1.8,8.9,4.7l-5.8,1.8c-0.6-1.2-1.7-1.8-3.2-1.8c-1.5,0-2.2,0.5-2.2,1.3
			c0,0.9,1.4,1.2,4.1,1.7c3.3,0.7,7.3,1.7,7.3,6.1c0,3.3-2.9,6.7-8.8,6.7C124,47.1,121,45.2,119.5,41.7z"/>
	</g>
	<g class="st0">
		<path class="st1" d="M35.3,65.2h6.1l3.4,11.2l3.9-11.2h5.1l3.8,11.3l3.5-11.3h6.1l-6.4,19.5h-5.7l-4-11.1l-4,11.1h-5.7L35.3,65.2z
			"/>
		<path class="st1" d="M72.3,56.4c2.2,0,3.7,1.5,3.7,3.7c0,2.1-1.5,3.6-3.7,3.6c-2.2,0-3.6-1.5-3.6-3.6
			C68.7,57.9,70.2,56.4,72.3,56.4z M69.2,65.2h6.3v19.5h-6.3V65.2z"/>
		<path class="st1" d="M78,65.2h3.4V61l6-3.3v7.5h4.8v5.4h-4.8v6.4c0,2,0.7,2.5,1.7,2.5c0.6,0,1.1-0.2,1.6-0.7l2.7,4.6
			c-1.4,1.1-3.2,1.7-5.2,1.7c-4.3,0-6.8-2-6.8-7.8v-6.8H78V65.2z"/>
		<path class="st1" d="M95.1,56.2h6v11.2c1.2-1.6,3-2.6,5.2-2.6c4.3,0,7.1,2.9,7.1,7.7v12.3h-6.3v-11c0-2.2-1-3.5-3-3.5
			c-1.8,0-3.1,1.3-3.1,3.8v10.7h-6V56.2z"/>
	</g>
	<g class="st0">
		<path class="st1" d="M27.5,94.2h6v11.2c1.2-1.6,3-2.6,5.2-2.6c4.3,0,7.1,2.9,7.1,7.7v12.3h-6.3v-11c0-2.2-1-3.5-3-3.5
			c-1.8,0-3.1,1.3-3.1,3.8v10.7h-6V94.2z"/>
		<path class="st1" d="M48.6,113c0-5.6,4.4-10.2,10.3-10.2c6,0,10.2,4.3,10.2,10.1v2.1H54.5c0.7,2,2.3,3,4.5,3c1.9,0,3.2-0.8,4-2.1
			l4.9,2.9c-2,2.7-4.7,4.3-9,4.3C52.5,123.1,48.6,118.6,48.6,113z M54.7,110.5H63c-0.7-1.7-2.1-2.6-4.1-2.6
			C56.9,107.9,55.4,108.9,54.7,110.5z"/>
		<path class="st1" d="M70.8,117.3c0-4,3.4-6.6,8.8-6.6h4.5v-0.1c0-1.6-1.2-2.7-3.3-2.7c-1.8,0-3,0.7-3.7,2l-5.8-2.6
			c2.1-2.6,4.9-4.4,9.4-4.4c5.9,0,9.2,2.9,9.2,8v11.9h-5.8v-2.6c-1.3,1.8-3.7,3-6.7,3C73.4,123.1,70.8,120.9,70.8,117.3z
			 M84.2,115.3v-0.4h-3.7c-2.3,0-3.3,0.8-3.3,1.9c0,1.1,0.8,1.6,2.3,1.6C81.5,118.3,83.6,116.9,84.2,115.3z"/>
		<path class="st1" d="M93.2,103.2h6v2.7c1-2.2,3-3.1,5.5-3.1c1.3,0,2.4,0.3,3.3,0.8l-2.1,6.1c-0.6-0.4-1.6-0.8-2.7-0.8
			c-2.4,0-3.9,1.2-3.9,4.3v9.6h-6V103.2z"/>
		<path class="st1" d="M109.3,103.2h3.4V99l6-3.3v7.5h4.8v5.4h-4.8v6.4c0,2,0.7,2.5,1.7,2.5c0.6,0,1.1-0.2,1.6-0.7l2.7,4.6
			c-1.4,1.1-3.2,1.7-5.2,1.7c-4.3,0-6.8-2-6.8-7.8v-6.8h-3.4V103.2z"/>
	</g>
	<g class="st0">
		<path class="st1" d="M4.8,141.2h6.1v2.4c1.2-1.7,3.1-2.7,5.3-2.7c2.7,0,4.7,1.1,5.7,3.1c1.2-2,3.3-3.1,5.8-3.1
			c4.6,0,7.1,2.9,7.1,7.6v12.3h-6.2v-11.1c0-2.2-0.8-3.5-2.8-3.5c-1.7,0-2.9,1.2-2.9,3.8v10.8h-6.2v-11.1c0-2.2-0.9-3.4-2.7-3.4
			c-1.8,0-3,1.2-3,3.8v10.8H4.8V141.2z"/>
		<path class="st1" d="M37.3,155.3c0-4,3.4-6.6,8.8-6.6h4.5v-0.1c0-1.6-1.2-2.7-3.3-2.7c-1.8,0-3,0.7-3.7,2l-5.8-2.6
			c2.1-2.6,4.9-4.4,9.4-4.4c5.9,0,9.2,2.9,9.2,8v11.9h-5.8v-2.6c-1.3,1.8-3.7,3-6.7,3C40,161.1,37.3,158.9,37.3,155.3z M50.7,153.3
			v-0.4H47c-2.3,0-3.3,0.8-3.3,1.9c0,1.1,0.8,1.6,2.3,1.6C48.1,156.3,50.1,154.9,50.7,153.3z"/>
		<path class="st1" d="M68.2,153.5l-2.5,2.9v4.3h-6v-28.5h6v17l6.7-8.1h7.2l-7.1,8.4l7.4,11.1h-6.9L68.2,153.5z"/>
		<path class="st1" d="M79.1,151c0-5.6,4.4-10.2,10.3-10.2c6,0,10.2,4.3,10.2,10.1v2.1H85c0.7,2,2.3,3,4.5,3c1.9,0,3.2-0.8,4-2.1
			l4.9,2.9c-2,2.7-4.7,4.3-9,4.3C83.1,161.1,79.1,156.6,79.1,151z M85.2,148.5h8.4c-0.7-1.7-2.1-2.6-4.1-2.6
			C87.5,145.9,86,146.9,85.2,148.5z"/>
		<path class="st1" d="M110.5,153.4v-12.2h6.3v11c0,2.2,0.9,3.5,3,3.5c1.8,0,3-1.2,3-3.8v-10.7l6.2,0v19.5l-6.1,0v-2.2
			c-1.2,1.7-3,2.6-5.2,2.6C113.2,161.1,110.5,158.3,110.5,153.4z"/>
		<path class="st1" d="M131.1,155.7l6.1-1.7c0.5,1.6,2,2.4,3.7,2.4c1.6,0,2.4-0.7,2.4-1.5c0-1.1-1.8-1.4-4.2-1.8
			c-3.3-0.7-7.1-1.6-7.1-5.9c0-3.5,3.4-6.4,8.5-6.4c4.6,0,7,1.8,8.9,4.7l-5.8,1.8c-0.6-1.2-1.7-1.8-3.2-1.8c-1.5,0-2.2,0.5-2.2,1.3
			c0,0.9,1.4,1.2,4.1,1.7c3.3,0.7,7.3,1.7,7.3,6.1c0,3.3-2.9,6.7-8.8,6.7C135.6,161.1,132.5,159.2,131.1,155.7z"/>
	</g>
	<g>
		<polygon class="st2" points="112.7,192.9 112.7,197.9 117.8,197.9 		"/>
		<g>
			<path class="st1" d="M117.8,181.1V178h-5.1v14.9l5.1,5l0,0v-10.5c0-3.4,1.7-4.7,4.4-4.7c1.2,0,2.1,0.3,2.7,0.7l1.9-5
				c-0.9-0.4-2.1-0.8-3.4-0.8C120.8,177.7,118.8,178.7,117.8,181.1"/>
			<path class="st1" d="M110.8,187.8c0-5.9-4.4-10.2-10.4-10.2c-1,0-1.9,0.1-2.8,0.4l4.1,4.1c2,0.4,3.5,1.7,4,3.7h-0.2l4,4h1.3
				V187.8z"/>
			<g>
				<g>
					<path class="st2" d="M100.6,193.9c-3,0-5.1-1.6-5.8-4.2h14.7l-4-4H94.9c0.8-2.3,2.8-3.8,5.5-3.8c0.5,0,0.9,0,1.3,0.1l-4.1-4.1
						c-4.6,1.2-7.7,5.2-7.7,10c0,5.8,4.2,10.3,10.7,10.3c4.5,0,7.3-1.8,9.3-4.6l-4.2-2.4C104.6,192.9,103,193.9,100.6,193.9"/>
				</g>
				<g>
					<path class="st2" d="M86.4,193.5c-1.3,0-2.2-0.7-2.2-2.8v-8.2h5.3V178h-5.3v-7.3l-5.1,2.9v4.3h-3.7v4.5h3.7v8.4
						c0,5.4,2.5,7.4,6.7,7.4c1.9,0,3.5-0.6,4.8-1.5l-2.4-4C87.7,193.3,87.1,193.5,86.4,193.5"/>
				</g>
				<g>
					<path class="st2" d="M71.4,193.5c-1.3,0-2.2-0.7-2.2-2.8v-8.2h5.3V178h-5.3v-7.3l-5.1,2.9v4.3h-3.7v4.5h3.7v8.4
						c0,5.4,2.5,7.4,6.7,7.4c1.9,0,3.5-0.6,4.8-1.5l-2.4-4C72.7,193.3,72.1,193.5,71.4,193.5"/>
				</g>
				<g>
					<path class="st2" d="M44.7,185.8c0.8-2.3,2.8-3.8,5.5-3.8s4.6,1.4,5.3,3.8H44.7z M50.2,177.6c-6,0-10.6,4.6-10.6,10.4
						c0,5.8,4.2,10.3,10.7,10.3c4.4,0,7.3-1.8,9.3-4.6l-4.2-2.4c-1,1.6-2.6,2.7-5,2.7c-3,0-5.1-1.6-5.8-4.2h16v-1.9
						C60.6,181.9,56.3,177.6,50.2,177.6"/>
				</g>
				<g>
					<path class="st2" d="M28.6,193.2h-6.2v-6.7h6c3.3,0,4.6,1.2,4.6,3.3S31.5,193.2,28.6,193.2 M22.4,175.6h6.2
						c2.8,0,4.1,1.1,4.1,3c0,1.8-1.2,3.2-4,3.2h-6.3C22.4,181.8,22.4,175.6,22.4,175.6z M34.8,184c2-1.1,3.1-3,3.1-5.4
						c0-4.8-3.4-7.5-9.5-7.5H17.2V198h11.4c6.1,0,9.8-2.7,9.8-8C38.4,187.2,37.1,185.1,34.8,184"/>
				</g>
			</g>
			<g class="st0">
				<path class="st1" d="M125.9,192.9c1.8,0,3.1,1.3,3.1,3.2c0,1.8-1.3,3.2-3.1,3.2c-1.9,0-3.1-1.3-3.1-3.2
					C122.8,194.2,124.1,192.9,125.9,192.9z"/>
			</g>
		</g>
	</g>
</g>
</svg>
