<?xml version="1.0" encoding="utf-8"?>
<!-- Generator: Adobe Illustrator 19.2.1, SVG Export Plug-In . SVG Version: 6.00 Build 0)  -->
<svg version="1.1" id="Google_Plus_alt" xmlns="http://www.w3.org/2000/svg" xmlns:xlink="http://www.w3.org/1999/xlink" x="0px"
	 y="0px" viewBox="0 0 512 512" style="enable-background:new 0 0 512 512;" xml:space="preserve">
<style type="text/css">
	.st0{fill:#FFFFFF;}
</style>
<path class="st0" d="M317.7,229.8c1.8,9.4,2.7,19.2,2.7,29.4c0,80-53.5,136.9-134.4,136.9c-77.3,0-140-62.7-140-140
	s62.7-140,140-140c37.8,0,69.4,13.9,93.6,36.5L240.2,192v-0.1c-14.7-14-33.3-21.2-54.2-21.2c-46.2,0-83.7,39-83.7,85.2
	c0,46.2,37.5,85.3,83.7,85.3c41.9,0,70.4-24,76.3-56.9H186v-54.6H317.7z M422.2,238.5v-43.8h-35v43.8h-43.8v35h43.8v43.8h35v-43.8
	H466v-35H422.2z"/>
</svg>
