<?xml version="1.0" encoding="utf-8"?>
<!-- Generator: Adobe Illustrator 19.2.1, SVG Export Plug-In . SVG Version: 6.00 Build 0)  -->
<svg version="1.1" id="Google_alt" xmlns="http://www.w3.org/2000/svg" xmlns:xlink="http://www.w3.org/1999/xlink" x="0px" y="0px"
	 viewBox="0 0 420 420" style="enable-background:new 0 0 420 420;" xml:space="preserve">
<style type="text/css">
	.st0{fill:#FFFFFF;}
</style>
<title></title>
<path class="st0" d="M342.8,100.3c0,13.4-10.9,24.3-24.3,24.3c-13.4,0-24.3-10.9-24.3-24.3c0-13.4,10.9-24.3,24.3-24.3c0,0,0,0,0,0
	C331.9,76,342.8,86.9,342.8,100.3z M420,210l0,0.3l-1.4,88.1c-0.7,66.1-54.1,119.5-120.2,120.2L210,420l-0.3,0l-88.1-1.4
	C55.5,417.9,2.1,364.5,1.4,298.4L0,210l0-0.3l1.4-88.1C2.1,55.5,55.5,2.1,121.6,1.4L210,0l0.3,0l88.1,1.4
	c66.1,0.7,119.5,54.1,120.2,120.2L420,210z M380.9,210l-1.4-87.8C379,77.3,342.7,41,297.8,40.5L210,39.1l-87.8,1.4
	C77.3,41,41,77.3,40.5,122.2L39.1,210l1.4,87.8c0.5,44.9,36.8,81.2,81.7,81.7l87.8,1.4l87.8-1.4c44.9-0.5,81.2-36.8,81.7-81.7
	L380.9,210z M317.8,210c0,59.6-48.3,107.8-107.8,107.8S102.2,269.6,102.2,210S150.4,102.2,210,102.2c0,0,0,0,0,0
	C269.5,102.2,317.8,150.5,317.8,210z M278.7,210c0-38-30.8-68.7-68.7-68.7S141.3,172,141.3,210s30.8,68.7,68.7,68.7c0,0,0,0,0,0
	C247.9,278.7,278.7,247.9,278.7,210L278.7,210z"/>
</svg>
