<?xml version="1.0" encoding="utf-8"?>
<!-- Generator: Adobe Illustrator 19.2.1, SVG Export Plug-In . SVG Version: 6.00 Build 0)  -->
<svg version="1.1" id="Twitter_alt" xmlns="http://www.w3.org/2000/svg" xmlns:xlink="http://www.w3.org/1999/xlink" x="0px"
	 y="0px" viewBox="0 0 512 512" style="enable-background:new 0 0 512 512;" xml:space="preserve">
<style type="text/css">
	.st0{fill:#FFFFFF;}
</style>
<path class="st0" d="M423,170.4c0.2,3.7,0.2,7.4,0.2,11.1c0,113.9-86.7,245.2-245.2,245.2c-48.7,0-94-14.3-132.1-38.7
	c6.7,0.8,13.6,1.2,20.6,1.2c40.4,0,77.5-13.8,107-36.9c-37.7-0.7-69.5-25.6-80.5-59.8c5.3,1,10.7,1.5,16.2,1.5
	c7.9,0,15.5-1.1,22.7-3c-39.4-7.9-69.1-42.7-69.1-84.5c0-0.4,0-0.7,0-1.1c11.6,6.5,24.9,10.3,39,10.8
	c-23.1-15.5-38.3-41.8-38.3-71.7c0-15.8,4.3-30.6,11.7-43.3c42.5,52.1,106,86.4,177.6,90c-1.5-6.3-2.2-12.9-2.2-19.6
	c0-47.6,38.6-86.2,86.2-86.2c24.8,0,47.2,10.5,62.9,27.2c19.6-3.9,38.1-11,54.7-20.9c-6.4,20.1-20.1,37-37.9,47.7
	c17.4-2.1,34-6.7,49.5-13.6C454.4,143,439.8,158.2,423,170.4z"/>
</svg>
