<?xml version="1.0" encoding="utf-8"?>
<!-- Generator: Adobe Illustrator 19.2.1, SVG Export Plug-In . SVG Version: 6.00 Build 0)  -->
<svg version="1.1" id="YouTube_alt" xmlns="http://www.w3.org/2000/svg" xmlns:xlink="http://www.w3.org/1999/xlink" x="0px"
	 y="0px" viewBox="0 0 512 512" style="enable-background:new 0 0 512 512;" xml:space="preserve">
<style type="text/css">
	.st0{fill:#FFFFFF;}
</style>
<path class="st0" d="M426.7,284.7c0-27.2-22.4-49.4-50-49.4c-39.4-1.6-79.6-2.4-120.7-2.3c-41.1-0.1-81.4,0.6-120.7,2.3
	c-27.6,0-50,22.1-50,49.4c-1.7,21.6-2.4,43.2-2.3,64.8c-0.1,21.6,0.7,43.2,2.3,64.8c0,27.3,22.4,49.4,50,49.4
	c39.4,1.6,79.7,2.4,120.7,2.3c41.1,0.1,81.4-0.7,120.7-2.3c27.6,0,50-22.1,50-49.4c1.7-21.6,2.4-43.2,2.3-64.8
	C429.1,327.9,428.4,306.3,426.7,284.7z M157.9,423.8h-23.6V293h-24.5v-22.2h72.6V293h-24.5L157.9,423.8L157.9,423.8z M242,423.8h-21
	v-12.5c-3.9,4.6-7.9,8.1-12.1,10.5c-4.2,2.4-8.2,3.6-12.2,3.6c-4.9,0-8.5-1.7-11-5c-2.5-3.4-3.7-8.4-3.7-15.1v-94.4h21v86.6
	c0,2.7,0.4,4.6,1.3,5.8c0.9,1.2,2.3,1.8,4.3,1.8c1.6,0,3.5-0.8,5.9-2.4c2.4-1.6,4.5-3.6,6.5-6.1v-85.7h21V423.8z M322.8,400.5
	c0,8-1.6,14.2-4.9,18.4c-3.3,4.3-8.1,6.4-14.3,6.4c-4.1,0-7.8-0.8-11-2.5c-3.2-1.6-6.2-4.2-9-7.6v8.7h-21.2V270.8h21.2v49.3
	c2.8-3.5,5.8-6.1,9-7.9c3.2-1.8,6.4-2.7,9.7-2.7c6.6,0,11.7,2.4,15.2,7.2c3.5,4.8,5.3,11.9,5.3,21.1V400.5z M400.4,370h-40.2v21.3
	c0,5.9,0.7,10.1,2.1,12.4c1.4,2.3,3.7,3.4,7.1,3.4c3.5,0,5.9-1,7.3-2.9c1.4-1.9,2.1-6.2,2.1-12.9v-7.8h21.6v8.5
	c0,11.6-2.6,20.3-7.9,26.1c-5.3,5.8-13.1,8.8-23.6,8.8c-9.4,0-16.8-3.1-22.2-9.3c-5.4-6.2-8.1-14.7-8.1-25.6v-50.7
	c0-9.8,3-17.8,8.9-24c5.9-6.2,13.6-9.3,23-9.3c9.6,0,17,2.9,22.1,8.6c5.2,5.7,7.7,13.9,7.7,24.7L400.4,370L400.4,370z M266.5,195.7
	c-2.5-3.4-3.7-8.4-3.7-15.1V86.2h21v86.6c0,2.7,0.4,4.6,1.3,5.8c0.9,1.2,2.3,1.8,4.3,1.8c1.6,0,3.5-0.8,5.9-2.4
	c2.4-1.6,4.5-3.6,6.5-6.1V86.2h21v112.9h-21v-12.5c-3.9,4.6-7.9,8.1-12.1,10.5c-4.2,2.4-8.2,3.6-12.2,3.6
	C272.7,200.7,269,199,266.5,195.7z M184.1,170.5c0,9.6,2.8,17.2,8.3,22.9c5.5,5.7,12.9,8.5,22,8.5c9.5,0,17-2.7,22.5-8.2
	c5.4-5.5,8.2-13.1,8.2-22.8v-58.3c0-8.6-2.8-15.7-8.3-21.1c-5.6-5.5-12.7-8.2-21.4-8.2c-9.5,0-17.1,2.6-22.8,7.8
	c-5.7,5.2-8.5,12.1-8.5,20.9L184.1,170.5L184.1,170.5z M205.7,111.1c0-2.5,0.8-4.5,2.4-6c1.6-1.5,3.7-2.3,6.2-2.3
	c2.8,0,5,0.8,6.7,2.3c1.7,1.5,2.6,3.5,2.6,6v61.5c0,3-0.8,5.4-2.5,7.1c-1.7,1.7-4,2.6-6.8,2.6c-2.8,0-4.9-0.8-6.4-2.5
	c-1.5-1.7-2.2-4.1-2.2-7.2L205.7,111.1L205.7,111.1z M299,330.4c1.5,2,2.2,4.9,2.2,8.7v58.3c0,3.6-0.6,6.2-1.8,7.8
	c-1.2,1.6-3.1,2.4-5.7,2.4c-1.8,0-3.5-0.4-5.1-1.2c-1.6-0.8-3.3-2.1-5-4V332c1.4-1.6,2.9-2.7,4.3-3.4s2.9-1.1,4.4-1.1
	C295.3,327.4,297.5,328.4,299,330.4z M376.6,330.9c1.5,2,2.2,5.4,2.2,10.2v11.4h-18.5v-11.4c0-4.7,0.7-8.1,2.2-10.2
	c1.5-2,3.9-3.1,7.2-3.1C372.8,327.9,375.2,328.9,376.6,330.9z M134,138.4L105.9,46h23.8l15.3,61.2h1.5L161.1,46h24l-27.5,89.5v63.5
	H134V138.4z"/>
</svg>
