<?xml version="1.0" encoding="utf-8"?>
<!-- Generator: Adobe Illustrator 19.2.1, SVG Export Plug-In . SVG Version: 6.00 Build 0)  -->
<svg version="1.1" id="Layer_1" xmlns="http://www.w3.org/2000/svg" xmlns:xlink="http://www.w3.org/1999/xlink" x="0px" y="0px"
	 viewBox="0 0 402.5 235" style="enable-background:new 0 0 402.5 235;" xml:space="preserve">
<style type="text/css">
	.st0{writing-mode:tb;}
	.st1{fill:#009530;}
	.st2{font-family:'SourceSansPro-Regular';}
	.st3{font-size:28.4252px;glyph-orientation-vertical:0;}
	.st4{font-size:28.4252px;glyph-orientation-vertical:1;}
	.st5{font-size:16.6526px;}
</style>
<a xlink:href="https://www.instagram.com/schneiderelectric/"  transform="matrix(0.3469 0 0 0.3469 56.5363 157.3689)">
	<image style="overflow:visible;" width="200" height="200" xlink:href="../icons/instagram.png" >
	</image>
</a>
<a xlink:href="https://twitter.com/SchneiderElec"  transform="matrix(1.734642e-02 0 0 1.734642e-02 56.5363 15.4058)">
	<image style="overflow:visible;" width="4000" height="3248" xlink:href="../icons/Twitter_logo_bird_transparent_png.png" >
	</image>
</a>
<a xlink:href="https://www.facebook.com/SchneiderElectricUS/?brand_redir=248492308506194"  transform="matrix(0.2143 0 0 0.2143 58.3866 82.8949)">
	<image style="overflow:visible;" width="300" height="300" xlink:href="../icons/facebook.png" >
	</image>
</a>
<text transform="matrix(1 0 0 1 22.8955 11.6865)" class="st0"><tspan x="0" y="0" class="st1 st2 st3">SHARE</tspan><tspan x="0" y="142.1" class="st1 st2 st4">   </tspan><tspan x="0" y="159.4" class="st1 st2 st3">ON</tspan></text>
<text transform="matrix(1 0 0 1 155.6533 13.0742)" class="st0"><tspan x="0" y="0" class="st1 st2 st3">AND</tspan><tspan x="0" y="85.3" class="st1 st2 st4">        </tspan><tspan x="0" y="131.2" class="st1 st2 st3">WIN</tspan></text>
<image style="overflow:visible;" width="276" height="227" xlink:href="se-bike.png"  transform="matrix(0.4708 0 0 0.4708 212.2442 12.8437)">
</image>
<text transform="matrix(1 0 0 1 183.9209 144.708)"><tspan x="0" y="0" class="st2 st5">This custom bike, from Villy  </tspan><tspan x="0" y="20" class="st2 st5">Custom Bikes, as seen on  </tspan><tspan x="0" y="40" class="st2 st5">Shark Tank, could be yours  </tspan><tspan x="0" y="59.9" class="st2 st5">by participating in our  </tspan><tspan x="0" y="79.9" class="st2 st5">social media contest.</tspan></text>
</svg>
