<?xml version="1.0" encoding="utf-8"?>
<!-- Generator: Adobe Illustrator 24.0.1, SVG Export Plug-In . SVG Version: 6.00 Build 0)  -->
<svg version="1.1" id="Layer_1" xmlns="http://www.w3.org/2000/svg" xmlns:xlink="http://www.w3.org/1999/xlink" x="0px" y="0px"
	 viewBox="0 0 373.7 96.2" style="enable-background:new 0 0 373.7 96.2;" xml:space="preserve">
<style type="text/css">
	.st0{fill:#12C2EC;}
	.st1{fill:#FFFFFF;}
</style>
<g>
	<rect class="st0" width="373.7" height="96.2"/>
	<g>
		<path class="st1" d="M59.9,65.8l-2.3-7.5H46.2l-2.3,7.5h-7.2l11.1-31.5h8.1L67,65.8H59.9z M56,52.7c-2.1-6.8-3.3-10.6-3.6-11.5
			c-0.3-0.9-0.5-1.6-0.6-2.1c-0.5,1.8-1.8,6.4-4.1,13.6C47.7,52.7,56,52.7,56,52.7z"/>
		<path class="st1" d="M92.7,44.2c0,3.4-1.1,6-3.2,7.8s-5.1,2.7-9,2.7h-2.9v11.2H71V34.4h10c3.8,0,6.7,0.8,8.7,2.5
			C91.7,38.5,92.7,40.9,92.7,44.2z M77.7,49.1h2.2c2,0,3.6-0.4,4.6-1.2s1.5-2,1.5-3.5c0-1.6-0.4-2.7-1.3-3.5s-2.2-1.1-4-1.1h-3
			C77.7,39.8,77.7,49.1,77.7,49.1z"/>
		<path class="st1" d="M120.4,44.2c0,3.4-1.1,6-3.2,7.8s-5.1,2.7-9,2.7h-2.9v11.2h-6.7V34.4h10c3.8,0,6.7,0.8,8.7,2.5
			C119.4,38.5,120.4,40.9,120.4,44.2z M105.3,49.1h2.2c2,0,3.6-0.4,4.6-1.2s1.5-2,1.5-3.5c0-1.6-0.4-2.7-1.3-3.5s-2.2-1.1-4-1.1h-3
			C105.3,39.8,105.3,49.1,105.3,49.1z"/>
		<path class="st1" d="M126.3,65.8V34.4h6.7v25.9h12.7v5.5H126.3z"/>
		<path class="st1" d="M160.9,47.3l6.6-12.9h7.2l-10.4,19.2v12.2h-6.6v-12l-10.4-19.4h7.2L160.9,47.3z"/>
		<path class="st1" d="M202.2,65.8h-6.7V39.9H187v-5.5h23.7v5.5h-8.5V65.8z"/>
		<path class="st1" d="M244.1,50c0,5.2-1.3,9.2-3.9,12c-2.6,2.8-6.3,4.2-11.1,4.2s-8.5-1.4-11.1-4.2s-3.9-6.8-3.9-12s1.3-9.2,3.9-12
			s6.3-4.1,11.1-4.1s8.5,1.4,11.1,4.2C242.8,40.8,244.1,44.8,244.1,50z M221.1,50c0,3.5,0.7,6.2,2,7.9c1.3,1.8,3.3,2.7,6,2.7
			c5.3,0,8-3.5,8-10.6s-2.6-10.6-7.9-10.6c-2.7,0-4.6,0.9-6,2.7C221.8,43.9,221.1,46.5,221.1,50z"/>
		<path class="st1" d="M276.6,49.8c0,5.2-1.5,9.1-4.4,11.9c-2.9,2.8-7.2,4.1-12.8,4.1h-8.9V34.4h9.9c5.1,0,9.1,1.4,11.9,4.1
			C275.2,41.1,276.6,44.9,276.6,49.8z M269.7,49.9c0-6.7-3-10.1-8.9-10.1h-3.5v20.5h2.9C266.5,60.3,269.7,56.8,269.7,49.9z"/>
		<path class="st1" d="M302.4,65.8l-2.3-7.5h-11.5l-2.3,7.5h-7.2l11.1-31.5h8.1l11.1,31.5H302.4z M298.5,52.7
			c-2.1-6.8-3.3-10.6-3.6-11.5s-0.5-1.6-0.6-2.1c-0.5,1.8-1.8,6.4-4.1,13.6C290.2,52.7,298.5,52.7,298.5,52.7z"/>
		<path class="st1" d="M323.3,47.3l6.6-12.9h7.2l-10.4,19.2v12.2H320v-12l-10.4-19.4h7.2L323.3,47.3z"/>
	</g>
</g>
</svg>
