<?xml version="1.0" encoding="utf-8"?>
<!-- Generator: Adobe Illustrator 24.0.1, SVG Export Plug-In . SVG Version: 6.00 Build 0)  -->
<svg version="1.1" id="Layer_1" xmlns="http://www.w3.org/2000/svg" xmlns:xlink="http://www.w3.org/1999/xlink" x="0px" y="0px"
	 viewBox="0 0 487.8 217" style="enable-background:new 0 0 487.8 217;" xml:space="preserve">
<style type="text/css">
	.st0{fill:#FFFFFF;}
</style>
<g>
	<path class="st0" d="M34.3,48.5h-3.2L4.1,8H3.9c0.2,4.8,0.4,8.5,0.4,10.9v29.5H1.2V2.9h3.2l27,40.4h0.2c-0.2-3.7-0.3-7.3-0.3-10.7
		V2.9h3.1v45.6H34.3z"/>
	<path class="st0" d="M74.5,31.5c0,5.5-1.3,9.8-4,12.9s-6.4,4.7-11.1,4.7c-3,0-5.6-0.7-7.9-2.2c-2.3-1.4-4-3.5-5.2-6.2
		s-1.8-5.8-1.8-9.3c0-5.5,1.3-9.8,4-12.9s6.4-4.6,11-4.6c4.7,0,8.3,1.6,11,4.7C73.1,21.8,74.5,26.1,74.5,31.5z M47.7,31.5
		c0,4.7,1,8.3,3.1,10.9s4.9,3.9,8.7,3.9c3.7,0,6.6-1.3,8.7-3.9c2-2.6,3.1-6.2,3.1-10.9s-1-8.3-3.1-10.9s-5-3.9-8.7-3.9
		s-6.6,1.3-8.6,3.8C48.7,23.2,47.7,26.8,47.7,31.5z"/>
	<path class="st0" d="M110.9,48.5l-7.4-22.7c-0.5-1.5-1.1-3.8-1.8-6.8h-0.2l-0.7,2.3l-1.4,4.5l-7.5,22.6h-3.1l-9.7-33.9h3.3
		l5.4,19.6c1.3,4.9,2.1,8.4,2.5,10.7h0.2c1.2-4.9,2.1-8.1,2.7-9.7l7-20.7h2.8l6.6,20.6c1.5,4.9,2.4,8.1,2.7,9.7h0.2
		c0.2-1.3,1-5,2.5-10.8l5.2-19.4h3.1l-9.2,33.9L110.9,48.5L110.9,48.5z"/>
	<path class="st0" d="M170.2,48.5v-22c0-3.4-0.7-5.9-2.2-7.4c-1.4-1.5-3.7-2.3-6.7-2.3c-4,0-7,1-8.9,3.1s-2.8,5.4-2.8,10v18.7h-3.1
		V0h3.1v15.4l-0.2,4.3h0.2c1.3-2,2.9-3.5,4.8-4.4s4.3-1.4,7.2-1.4c7.7,0,11.5,4.1,11.5,12.4v22.2H170.2z"/>
	<path class="st0" d="M183.8,5.2c0-2,0.7-3,2-3c0.6,0,1.1,0.3,1.5,0.8s0.5,1.3,0.5,2.2s-0.2,1.7-0.5,2.2c-0.4,0.5-0.9,0.8-1.5,0.8
		C184.4,8.2,183.8,7.2,183.8,5.2z M187.3,48.5h-3.1V14.6h3.1V48.5z"/>
	<path class="st0" d="M212,14c1.4,0,3,0.1,4.6,0.4l-0.6,3c-1.4-0.4-2.9-0.5-4.4-0.5c-2.9,0-5.3,1.2-7.1,3.7s-2.8,5.5-2.8,9.3v18.7
		h-3.1v-34h2.6l0.3,6.1h0.2c1.4-2.5,2.9-4.2,4.5-5.2C207.8,14.5,209.7,14,212,14z"/>
	<path class="st0" d="M223,5.2c0-2,0.7-3,2-3c0.6,0,1.1,0.3,1.5,0.8s0.5,1.3,0.5,2.2s-0.2,1.7-0.5,2.2c-0.4,0.5-0.9,0.8-1.5,0.8
		C223.7,8.2,223,7.2,223,5.2z M226.6,48.5h-3.1V14.6h3.1V48.5z"/>
	<path class="st0" d="M261.5,48.5v-22c0-3.4-0.7-5.9-2.2-7.4c-1.4-1.5-3.7-2.3-6.7-2.3c-4,0-7,1-8.9,3.1s-2.8,5.4-2.8,10v18.7h-3.1
		v-34h2.6l0.6,4.6h0.2c2.2-3.5,6.1-5.3,11.7-5.3c7.7,0,11.5,4.1,11.5,12.4v22.2H261.5z"/>
	<path class="st0" d="M302,14.6v2.1l-7,0.4c1.9,2.3,2.8,4.9,2.8,7.7c0,3.3-1.1,5.9-3.3,7.9c-2.2,2-5.1,3-8.7,3
		c-1.5,0-2.6-0.1-3.2-0.2c-1.2,0.6-2.2,1.4-2.8,2.3c-0.6,0.9-1,1.8-1,2.8c0,1.1,0.4,1.9,1.2,2.4c0.8,0.5,2.2,0.7,4.1,0.7h5.9
		c3.7,0,6.5,0.7,8.4,2.2c2,1.5,2.9,3.7,2.9,6.6c0,3.6-1.4,6.3-4.3,8.3s-7,2.9-12.4,2.9c-4.3,0-7.6-0.8-9.9-2.5
		c-2.3-1.6-3.5-3.9-3.5-6.9c0-2.3,0.7-4.3,2.2-5.8c1.4-1.5,3.4-2.6,5.9-3.1c-1-0.4-1.8-1.1-2.4-1.9c-0.6-0.8-0.9-1.7-0.9-2.8
		c0-2.3,1.4-4.3,4.3-6c-2-0.8-3.5-2.1-4.6-3.8s-1.7-3.7-1.7-6c0-3.4,1.1-6.1,3.2-8.1s5.1-3.1,8.7-3.1c2.2,0,3.9,0.2,5.2,0.7H302
		V14.6z M274.5,54.2c0,4.7,3.5,7,10.4,7c8.9,0,13.3-2.8,13.3-8.5c0-2-0.7-3.5-2.1-4.4s-3.6-1.4-6.8-1.4h-5.5
		C277.6,46.9,274.5,49.3,274.5,54.2z M277.1,25.2c0,2.6,0.8,4.6,2.4,6.1c1.6,1.4,3.7,2.2,6.4,2.2c2.8,0,5-0.7,6.5-2.1
		s2.3-3.5,2.3-6.2c0-2.9-0.8-5.1-2.3-6.5s-3.7-2.2-6.5-2.2c-2.7,0-4.8,0.8-6.4,2.3S277.1,22.4,277.1,25.2z"/>
	<path class="st0" d="M360.8,25.3c0,7.6-2,13.4-6,17.3s-9.9,5.9-17.7,5.9h-10.9V2.9h12.3c7.3,0,12.8,1.9,16.6,5.7
		C359,12.4,360.8,18,360.8,25.3z M357.4,25.4c0-6.5-1.7-11.4-5-14.7s-8.2-4.9-14.6-4.9h-8.4v39.9h7.5
		C350.6,45.7,357.4,38.9,357.4,25.4z"/>
	<path class="st0" d="M370.1,5.2c0-2,0.7-3,2-3c0.6,0,1.1,0.3,1.5,0.8s0.5,1.3,0.5,2.2s-0.2,1.7-0.5,2.2c-0.4,0.5-0.9,0.8-1.5,0.8
		C370.8,8.2,370.1,7.2,370.1,5.2z M373.6,48.5h-3.1V14.6h3.1V48.5z"/>
	<path class="st0" d="M398.6,49.1c-4.9,0-8.8-1.5-11.5-4.5c-2.8-3-4.1-7.3-4.1-12.7s1.3-9.7,4-13c2.7-3.2,6.2-4.9,10.7-4.9
		c4,0,7.1,1.4,9.4,4.2s3.5,6.6,3.5,11.3V32h-24.4c0,4.7,1.1,8.2,3.3,10.7c2.1,2.5,5.2,3.7,9.1,3.7c1.9,0,3.6-0.1,5.1-0.4
		c1.5-0.3,3.3-0.9,5.6-1.7V47c-1.9,0.8-3.7,1.4-5.3,1.7S400.6,49.1,398.6,49.1z M397.7,16.7c-3.3,0-5.9,1.1-7.9,3.2
		s-3.1,5.2-3.5,9.3h20.9c0-3.9-0.9-7-2.6-9.2S400.7,16.7,397.7,16.7z"/>
	<path class="st0" d="M441,39.7c0,3-1.2,5.4-3.5,7s-5.6,2.4-9.8,2.4c-4.5,0-8.1-0.7-10.8-2.1v-3.3c3.4,1.7,7,2.6,10.8,2.6
		c3.3,0,5.9-0.6,7.6-1.7c1.7-1.1,2.6-2.6,2.6-4.4c0-1.7-0.7-3.1-2.1-4.3s-3.7-2.3-6.8-3.4c-3.4-1.2-5.8-2.3-7.1-3.2s-2.4-1.9-3.1-3
		s-1-2.5-1-4.1c0-2.5,1.1-4.5,3.2-6s5.1-2.2,8.9-2.2c3.7,0,7.1,0.7,10.4,2.1l-1.2,2.8c-3.3-1.4-6.4-2.1-9.3-2.1
		c-2.8,0-5,0.5-6.6,1.4s-2.4,2.2-2.4,3.8c0,1.8,0.6,3.2,1.9,4.2c1.3,1.1,3.7,2.2,7.4,3.6c3.1,1.1,5.3,2.1,6.7,3
		c1.4,0.9,2.4,1.9,3.1,3C440.6,36.8,441,38.1,441,39.7z"/>
	<path class="st0" d="M463.4,49.1c-4.9,0-8.8-1.5-11.5-4.5c-2.8-3-4.1-7.3-4.1-12.7s1.3-9.7,4-13c2.7-3.2,6.2-4.9,10.7-4.9
		c4,0,7.1,1.4,9.4,4.2s3.5,6.6,3.5,11.3V32H451c0,4.7,1.1,8.2,3.3,10.7c2.1,2.5,5.2,3.7,9.1,3.7c1.9,0,3.6-0.1,5.1-0.4
		c1.5-0.3,3.3-0.9,5.6-1.7V47c-1.9,0.8-3.7,1.4-5.3,1.7S465.3,49.1,463.4,49.1z M462.5,16.7c-3.3,0-5.9,1.1-7.9,3.2
		s-3.1,5.2-3.5,9.3H472c0-3.9-0.9-7-2.6-9.2S465.5,16.7,462.5,16.7z"/>
	<path class="st0" d="M487.8,48.5h-3.1V0h3.1V48.5z"/>
	<path class="st0" d="M21.2,125.1L4.3,83H4c0.2,2.6,0.2,5.2,0.2,7.9V125h-3V79.5h4.9l16.1,40.1h0.2l16.1-40.1h4.8v45.6h-3.2V90.5
		c0-2.4,0.1-4.9,0.4-7.5h-0.2l-17,42L21.2,125.1L21.2,125.1z"/>
	<path class="st0" d="M69.2,125.7c-4.9,0-8.8-1.5-11.5-4.5c-2.8-3-4.1-7.3-4.1-12.7c0-5.4,1.3-9.7,4-13s6.2-4.9,10.7-4.9
		c4,0,7.1,1.4,9.4,4.2c2.3,2.8,3.5,6.6,3.5,11.3v2.5H56.8c0,4.7,1.1,8.2,3.3,10.7s5.2,3.7,9.1,3.7c1.9,0,3.6-0.1,5.1-0.4
		s3.3-0.9,5.6-1.7v2.8c-1.9,0.8-3.7,1.4-5.3,1.7S71.1,125.7,69.2,125.7z M68.3,93.3c-3.3,0-5.9,1.1-7.9,3.2s-3.1,5.2-3.5,9.3h20.9
		c0-3.9-0.9-7-2.6-9.2C73.6,94.4,71.3,93.3,68.3,93.3z"/>
	<path class="st0" d="M104,125.7c-4.8,0-8.6-1.5-11.4-4.6c-2.7-3.1-4.1-7.3-4.1-12.8c0-5.6,1.4-10,4.3-13.1s6.7-4.7,11.7-4.7
		c2.9,0,5.7,0.5,8.4,1.5l-0.8,2.7c-2.9-1-5.5-1.5-7.6-1.5c-4.2,0-7.3,1.3-9.4,3.8s-3.2,6.3-3.2,11.1c0,4.6,1.1,8.1,3.2,10.7
		s5.1,3.9,9,3.9c3.1,0,5.9-0.5,8.6-1.7v2.9C110.4,125.2,107.5,125.7,104,125.7z"/>
	<path class="st0" d="M144.5,125.1v-22c0-3.4-0.7-5.9-2.2-7.4c-1.4-1.5-3.7-2.3-6.7-2.3c-4,0-7,1-8.9,3.1c-1.9,2-2.8,5.4-2.8,10
		v18.7h-3.1V76.6h3.1V92l-0.2,4.3h0.2c1.3-2,2.9-3.5,4.8-4.4s4.3-1.4,7.2-1.4c7.7,0,11.5,4.1,11.5,12.4v22.2
		C147.4,125.1,144.5,125.1,144.5,125.1z"/>
	<path class="st0" d="M179,125.1l-0.8-5.4H178c-1.7,2.2-3.5,3.7-5.2,4.6c-1.8,0.9-3.9,1.4-6.4,1.4c-3.3,0-5.9-0.9-7.8-2.6
		s-2.8-4.1-2.8-7.1c0-3.3,1.4-5.9,4.1-7.7c2.8-1.8,6.7-2.8,11.9-2.9l6.5-0.2V103c0-3.2-0.7-5.6-2-7.3c-1.3-1.6-3.4-2.5-6.3-2.5
		c-3.1,0-6.4,0.9-9.8,2.6l-1.2-2.7c3.7-1.7,7.4-2.6,11-2.6c3.7,0,6.5,1,8.3,2.9s2.8,4.9,2.8,9v22.5H179V125.1z M166.6,122.9
		c3.6,0,6.5-1,8.6-3.1s3.1-4.9,3.1-8.6v-3.3l-5.9,0.2c-4.8,0.2-8.1,1-10.2,2.2c-2,1.3-3,3.2-3,5.9c0,2.1,0.6,3.8,1.9,4.9
		S164.2,122.9,166.6,122.9z"/>
	<path class="st0" d="M215.9,125.1v-22c0-3.4-0.7-5.9-2.2-7.4c-1.4-1.5-3.7-2.3-6.7-2.3c-4,0-7,1-8.9,3.1c-1.9,2-2.8,5.4-2.8,10
		v18.7h-3.1v-34h2.6l0.6,4.6h0.2c2.2-3.5,6.1-5.3,11.7-5.3c7.7,0,11.5,4.1,11.5,12.4v22.2C218.8,125.1,215.9,125.1,215.9,125.1z"/>
	<path class="st0" d="M229.5,81.8c0-2,0.7-3,2-3c0.6,0,1.1,0.3,1.5,0.8s0.5,1.3,0.5,2.2c0,0.9-0.2,1.7-0.5,2.2
		c-0.4,0.5-0.9,0.8-1.5,0.8C230.1,84.8,229.5,83.8,229.5,81.8z M233,125.1h-3.1V91.2h3.1V125.1z"/>
	<path class="st0" d="M257.9,125.7c-4.8,0-8.6-1.5-11.4-4.6c-2.7-3.1-4.1-7.3-4.1-12.8c0-5.6,1.4-10,4.3-13.1s6.7-4.7,11.7-4.7
		c2.9,0,5.7,0.5,8.4,1.5l-0.8,2.7c-2.9-1-5.5-1.5-7.6-1.5c-4.2,0-7.3,1.3-9.4,3.8s-3.2,6.3-3.2,11.1c0,4.6,1.1,8.1,3.2,10.7
		s5.1,3.9,9,3.9c3.1,0,5.9-0.5,8.6-1.7v2.9C264.2,125.2,261.4,125.7,257.9,125.7z"/>
	<path class="st0" d="M295.7,116.2c0,3-1.2,5.4-3.5,7s-5.6,2.4-9.8,2.4c-4.5,0-8.1-0.7-10.8-2.1v-3.3c3.4,1.7,7,2.6,10.8,2.6
		c3.3,0,5.9-0.6,7.6-1.7s2.6-2.6,2.6-4.4c0-1.7-0.7-3.1-2.1-4.3c-1.4-1.2-3.7-2.3-6.8-3.4c-3.4-1.2-5.8-2.3-7.1-3.2s-2.4-1.9-3.1-3
		s-1-2.5-1-4.1c0-2.5,1.1-4.5,3.2-6s5.1-2.2,8.9-2.2c3.7,0,7.1,0.7,10.4,2.1l-1.2,2.8c-3.3-1.4-6.4-2.1-9.3-2.1
		c-2.8,0-5,0.5-6.6,1.4s-2.4,2.2-2.4,3.8c0,1.8,0.6,3.2,1.9,4.2c1.3,1.1,3.7,2.2,7.4,3.6c3.1,1.1,5.3,2.1,6.7,3s2.4,1.9,3.1,3
		C295.3,113.4,295.7,114.7,295.7,116.2z"/>
	<path class="st0" d="M0,158.4c0-2,0.7-3,2-3c0.6,0,1.1,0.3,1.5,0.8s0.5,1.3,0.5,2.2s-0.2,1.7-0.5,2.2c-0.4,0.5-0.9,0.8-1.5,0.8
		C0.7,161.4,0,160.4,0,158.4z M3.5,201.6H0.4v-33.9h3.1V201.6z"/>
	<path class="st0" d="M38.5,201.6v-22c0-3.4-0.7-5.9-2.2-7.4c-1.4-1.5-3.7-2.3-6.7-2.3c-4,0-7,1-8.9,3.1s-2.8,5.4-2.8,10v18.7h-3.1
		v-33.9h2.6l0.6,4.6h0.2c2.2-3.5,6.1-5.3,11.7-5.3c7.7,0,11.5,4.1,11.5,12.4v22.2h-2.9V201.6z"/>
	<path class="st0" d="M89.3,158.3c-5.7,0-10.2,1.8-13.5,5.5s-4.9,8.7-4.9,15c0,6.5,1.5,11.5,4.6,15.1s7.5,5.4,13.3,5.4
		c3.8,0,7.3-0.5,10.5-1.5v2.8c-3,1.1-6.8,1.6-11.3,1.6c-6.4,0-11.4-2.1-15.1-6.2s-5.5-9.9-5.5-17.3c0-4.6,0.9-8.7,2.6-12.2
		c1.8-3.5,4.3-6.3,7.6-8.2c3.3-1.9,7.1-2.9,11.5-2.9s8.4,0.8,11.9,2.5l-1.3,2.9C96.4,159.1,93,158.3,89.3,158.3z"/>
	<path class="st0" d="M129.3,201.6l-0.8-5.4h-0.2c-1.7,2.2-3.5,3.7-5.2,4.6s-3.9,1.4-6.4,1.4c-3.3,0-5.9-0.9-7.8-2.6
		s-2.8-4.1-2.8-7.1c0-3.3,1.4-5.9,4.1-7.7c2.8-1.8,6.7-2.8,11.9-2.9l6.5-0.2v-2.2c0-3.2-0.7-5.6-2-7.3c-1.3-1.6-3.4-2.5-6.3-2.5
		c-3.1,0-6.4,0.9-9.8,2.6l-1.2-2.7c3.7-1.7,7.4-2.6,11-2.6c3.7,0,6.5,1,8.3,2.9s2.8,4.9,2.8,9v22.5h-2.1V201.6z M116.8,199.5
		c3.6,0,6.5-1,8.6-3.1s3.1-4.9,3.1-8.6v-3.3l-5.9,0.2c-4.8,0.2-8.1,1-10.2,2.2c-2,1.3-3,3.2-3,5.9c0,2.1,0.6,3.8,1.9,4.9
		S114.4,199.5,116.8,199.5z"/>
	<path class="st0" d="M155.9,167.1c1.4,0,3,0.1,4.6,0.4l-0.6,3c-1.4-0.4-2.9-0.5-4.4-0.5c-2.9,0-5.3,1.2-7.1,3.7s-2.8,5.5-2.8,9.3
		v18.7h-3.1v-33.9h2.6l0.3,6.1h0.2c1.4-2.5,2.9-4.2,4.5-5.2C151.7,167.6,153.6,167.1,155.9,167.1z"/>
	<path class="st0" d="M191,201.6v-22c0-3.4-0.7-5.9-2.2-7.4c-1.4-1.5-3.7-2.3-6.7-2.3c-4,0-7,1-8.9,3.1s-2.8,5.4-2.8,10v18.7h-3.1
		v-33.9h2.6l0.6,4.6h0.2c2.2-3.5,6.1-5.3,11.7-5.3c7.7,0,11.5,4.1,11.5,12.4v22.2H191V201.6z"/>
	<path class="st0" d="M218.7,202.3c-4.9,0-8.8-1.5-11.5-4.5c-2.8-3-4.1-7.3-4.1-12.7s1.3-9.7,4-13c2.7-3.2,6.2-4.9,10.7-4.9
		c4,0,7.1,1.4,9.4,4.2c2.3,2.8,3.5,6.6,3.5,11.3v2.5h-24.4c0,4.7,1.1,8.2,3.3,10.7s5.2,3.7,9.1,3.7c1.9,0,3.6-0.1,5.1-0.4
		c1.5-0.3,3.3-0.9,5.6-1.7v2.8c-1.9,0.8-3.7,1.4-5.3,1.7C222.4,202.1,220.6,202.3,218.7,202.3z M217.8,169.8c-3.3,0-5.9,1.1-7.9,3.2
		s-3.1,5.2-3.5,9.3h20.9c0-3.9-0.9-7-2.6-9.2C223.1,171,220.8,169.8,217.8,169.8z"/>
	<path class="st0" d="M266.4,167.8v2.1l-7,0.4c1.9,2.3,2.8,4.9,2.8,7.7c0,3.3-1.1,5.9-3.3,7.9c-2.2,2-5.1,3-8.7,3
		c-1.5,0-2.6-0.1-3.2-0.2c-1.2,0.6-2.2,1.4-2.8,2.3c-0.6,0.9-1,1.8-1,2.8c0,1.1,0.4,1.9,1.2,2.4s2.2,0.7,4.1,0.7h5.9
		c3.7,0,6.5,0.7,8.4,2.2c2,1.5,2.9,3.7,2.9,6.6c0,3.6-1.4,6.3-4.3,8.3c-2.9,1.9-7,2.9-12.4,2.9c-4.3,0-7.6-0.8-9.9-2.5
		s-3.5-3.9-3.5-6.9c0-2.3,0.7-4.3,2.2-5.8s3.4-2.6,5.9-3.1c-1-0.4-1.8-1.1-2.4-1.9c-0.6-0.8-0.9-1.7-0.9-2.8c0-2.3,1.4-4.3,4.3-6
		c-2-0.8-3.5-2.1-4.6-3.8s-1.7-3.7-1.7-6c0-3.4,1.1-6.1,3.2-8.1c2.1-2,5.1-3.1,8.7-3.1c2.2,0,3.9,0.2,5.2,0.7h10.9V167.8z
		 M239,207.4c0,4.7,3.5,7,10.4,7c8.9,0,13.3-2.8,13.3-8.5c0-2-0.7-3.5-2.1-4.4s-3.6-1.4-6.8-1.4h-5.5C242.1,200,239,202.5,239,207.4
		z M241.6,178.3c0,2.6,0.8,4.6,2.4,6.1s3.7,2.2,6.4,2.2c2.8,0,5-0.7,6.5-2.1c1.5-1.4,2.3-3.5,2.3-6.2c0-2.9-0.8-5.1-2.3-6.5
		s-3.7-2.2-6.5-2.2c-2.7,0-4.8,0.8-6.4,2.3C242.4,173.4,241.6,175.6,241.6,178.3z"/>
	<path class="st0" d="M272.9,158.4c0-2,0.7-3,2-3c0.6,0,1.1,0.3,1.5,0.8s0.5,1.3,0.5,2.2s-0.2,1.7-0.5,2.2c-0.4,0.5-0.9,0.8-1.5,0.8
		C273.6,161.4,272.9,160.4,272.9,158.4z M276.5,201.6h-3.1v-33.9h3.1V201.6z"/>
	<path class="st0" d="M301.5,202.3c-4.9,0-8.8-1.5-11.5-4.5c-2.8-3-4.1-7.3-4.1-12.7s1.3-9.7,4-13c2.7-3.2,6.2-4.9,10.7-4.9
		c4,0,7.1,1.4,9.4,4.2s3.5,6.6,3.5,11.3v2.5h-24.4c0,4.7,1.1,8.2,3.3,10.7s5.2,3.7,9.1,3.7c1.9,0,3.6-0.1,5.1-0.4
		c1.5-0.3,3.3-0.9,5.6-1.7v2.8c-1.9,0.8-3.7,1.4-5.3,1.7C305.2,202.1,303.4,202.3,301.5,202.3z M300.6,169.8c-3.3,0-5.9,1.1-7.9,3.2
		s-3.1,5.2-3.5,9.3h20.9c0-3.9-0.9-7-2.6-9.2C306,171,303.6,169.8,300.6,169.8z"/>
	<path class="st0" d="M326.4,194.2l0.4,0.7c-1.6,5.5-3.4,10.5-5.4,15h-2c1.6-5.7,2.7-10.9,3.4-15.6L326.4,194.2L326.4,194.2z"/>
	<path class="st0" d="M381.3,169.2c0,4.4-1.5,7.8-4.5,10.1s-7.2,3.5-12.7,3.5h-7v18.8h-3.2V156h11.2
		C375.9,156.1,381.3,160.4,381.3,169.2z M357.1,180.1h6.3c5.1,0,8.8-0.8,11.1-2.5c2.3-1.7,3.4-4.4,3.4-8.2c0-3.5-1.1-6.1-3.2-7.8
		s-5.5-2.5-10-2.5h-7.5L357.1,180.1L357.1,180.1z"/>
	<path class="st0" d="M413.2,185.6h-18.5l-6.4,16.1h-3.5l18.3-45.7h2l17.9,45.7h-3.6L413.2,185.6z M395.8,182.7h16.3l-6.2-16.4
		c-0.5-1.3-1.1-3.1-1.9-5.4c-0.6,2-1.2,3.8-1.8,5.4L395.8,182.7z"/>
	<path class="st0" d="M428.1,199.2c0-2,0.8-3.1,2.5-3.1s2.6,1,2.6,3.1c0,2-0.9,3.1-2.6,3.1S428.1,201.2,428.1,199.2z"/>
</g>
</svg>
