<?xml version="1.0" encoding="utf-8"?>
<!-- Generator: Adobe Illustrator 24.0.1, SVG Export Plug-In . SVG Version: 6.00 Build 0)  -->
<svg version="1.1" id="Layer_1" xmlns="http://www.w3.org/2000/svg" xmlns:xlink="http://www.w3.org/1999/xlink" x="0px" y="0px"
	 viewBox="0 0 497.1 175.4" style="enable-background:new 0 0 497.1 175.4;" xml:space="preserve">
<style type="text/css">
	.st0{fill:#FFFFFF;}
	.st1{fill:#12C2EC;}
</style>
<g>
	<g>
		<path class="st0" d="M9.2,6.8c1.2-1.5,2.8-2.2,5-2.2c1.6,0,2.8,0.5,3.6,1.6s1.4,2.4,1.8,4s0.6,3.3,0.7,5s0.3,3.2,0.6,4.5
			c0.6,2.7,1.2,5.1,1.8,7.3c0.5,2.2,1,4.4,1.4,6.5s0.7,4.4,0.9,6.7c0.2,2.3,0.4,4.8,0.5,7.6l3.1,3.1c2-1.4,3.7-3.3,5.1-5.9
			c1.3-2.5,2.5-5.3,3.5-8.3s1.8-6,2.4-9.1s1.3-5.8,2.1-8.3s1.6-4.6,2.6-6.2s2.2-2.4,3.7-2.4c0.9,0,1.6,0.1,2.3,0.2s1.4,0.6,2.3,1.2
			c0.1,0.4,0.3,1.2,0.6,2.3s0.6,2.3,0.9,3.6c0.3,1.3,0.6,2.5,0.9,3.6c0.3,1.1,0.5,1.9,0.6,2.3c0.2,1.2,0.4,3,0.6,5.5
			c0.2,2.5,0.4,5,0.8,7.5c0.4,2.5,1,4.7,1.9,6.7c0.9,1.9,2,2.9,3.5,2.9c0.1,0,0.3-0.1,0.6-0.2c0.3-0.2,0.9-0.7,1.6-1.4
			c0.8-0.7,1.2-1.2,1.5-1.4L91.2,3.2c1.1-1.6,1.9-2.6,2.6-2.8C94.4,0.1,95.5,0,97.1,0c1.5,0,2.6,0.2,3.4,0.6s1.1,1.6,1.1,3.4v0.6
			c-4.2,4.8-8,9.9-11.5,15.2c-3.4,5.3-6.8,10.6-10.2,16c-3.3,5.4-6.7,10.7-10.2,16.1c-3.4,5.4-7.3,10.4-11.5,15.3
			c-0.2,0-0.6,0-1.1,0.1s-0.9,0.1-1.1,0.1c-2.2,0-3.5-1-4.2-3.1s-1.2-4.5-1.5-7.3c-0.4-2.8-0.9-5.6-1.5-8.5c-0.6-2.8-2-5.1-4-6.7
			c-0.9,0.4-1.7,1.5-2.6,3.1c-0.9,1.7-1.7,3.5-2.5,5.4s-1.5,3.8-2.2,5.6c-0.6,1.8-1.2,3.1-1.6,3.7c-0.1,0.2-0.5,0.7-1.3,1.5
			s-1.3,1.3-1.8,1.6c-0.2,0.2-0.7,0.6-1.4,1.2c-0.7,0.6-1.5,1.2-2.3,1.9s-1.6,1.2-2.3,1.8c-0.7,0.5-1.2,0.9-1.5,1.1
			c-2-0.8-3.7-2.2-5-4.3c-1.3-2.1-2.4-4.6-3.2-7.5c-0.9-2.9-1.5-6.2-2-9.6c-0.5-3.5-0.9-6.9-1.4-10.3c-0.4-3.4-0.9-6.6-1.4-9.6
			c-0.5-3.1-1.1-5.6-1.9-7.6c-0.1-0.1-0.3-0.4-0.6-0.8s-0.6-0.9-1-1.4c-0.3-0.5-0.6-1-1-1.4c-0.3-0.4-0.5-0.7-0.5-0.8s0-0.6-0.1-1.4
			c-0.1-0.8-0.1-1.4-0.1-1.7C7.4,10,8,8.3,9.2,6.8z"/>
		<path class="st0" d="M110.5,57.1H110c-0.3,0.1-0.9,0.3-1.9,0.6s-1.6,0.5-1.9,0.6c-0.3-0.1-0.6-0.4-1.1-0.8c-0.5-0.4-1-0.9-1.5-1.5
			c-0.5-0.5-1-1-1.5-1.5c-0.4-0.5-0.7-0.9-0.8-1.1c-0.1-0.5-0.1-0.9-0.1-1.1c0-1.1,0.3-1.9,0.9-2.3c0.6-0.5,1.4-0.9,2.2-1.3
			c0.8-0.4,1.7-0.7,2.5-1.1c0.8-0.4,1.5-0.9,1.9-1.6c-0.3-2.7-0.2-5.7,0.3-9.2c0.4-3.4,1.3-6.7,2.6-9.8c1.3-3.1,3.1-5.7,5.4-7.8
			s5.3-3.2,9-3.2c1.3,0,2.5,0.3,3.4,0.9s1.7,1.4,2.3,2.4s1,2.1,1.3,3.2c0.3,1.2,0.5,2.3,0.5,3.5c0,2.4-0.6,4.7-1.9,7
			c-1.3,2.2-2.7,4.4-4.4,6.6c-1.6,2.1-3.1,4.3-4.4,6.4c-1.3,2.1-1.9,4.2-1.9,6.2c0,1.1,0.3,2,1,2.8s1.5,1.5,2.4,1.9
			c0.9,0.5,1.9,0.9,3,1.1c1.1,0.2,2.1,0.3,3,0.3c2.2,0,4.3-0.5,6.2-1.4s3.7-1.9,5.4-3s3.2-2.1,4.7-3s2.9-1.4,4.2-1.4s2,0.4,2.3,1.1
			c0.3,0.7,0.4,1.6,0.4,2.7c0,0.2,0,0.6-0.1,1.3c0,0.7-0.1,1.1-0.1,1.3c-2.9,3.7-6.1,6.4-9.7,8.3c-3.6,1.9-7.8,2.8-12.7,2.8
			c-4.2,0-7.8-1-10.9-3s-6.1-4.3-8.9-6.9H110.5z M118.5,34.3c0,0.4,0,0.8,0.1,1.2s0.2,0.8,0.4,1.1c0.2,0.4,0.5,0.5,0.9,0.5
			c0.7,0,1.4-0.2,1.9-0.7c0.6-0.5,1.1-1.1,1.5-1.7s0.7-1.3,1-2s0.4-1.2,0.5-1.7c0.2-1.3-0.1-2.1-0.9-2.3c-0.8-0.2-1.5-0.3-2.2-0.3
			c-1.6,0-2.5,0.5-2.8,1.6s-0.4,2.2-0.4,3.5C118.6,33.7,118.6,33.9,118.5,34.3z"/>
		<path class="st0" d="M207.2,16.7c1-1.2,2.4-1.9,4.2-1.9c1.3,0,2.3,0.4,3,1.3s1.2,2,1.5,3.3s0.5,2.7,0.6,4.1s0.3,2.7,0.5,3.7
			c0.5,2.2,1,4.2,1.5,6.1c0.4,1.8,0.8,3.6,1.1,5.4c0.3,1.8,0.6,3.6,0.7,5.5c0.2,1.9,0.3,4,0.4,6.3l2.5,2.5c1.7-1.2,3.1-2.8,4.2-4.9
			c1.1-2.1,2.1-4.4,2.9-6.9c0.8-2.5,1.5-5,2-7.5s1.1-4.8,1.7-6.9c0.6-2.1,1.3-3.8,2.1-5.1c0.8-1.3,1.8-2,3.1-2
			c0.7,0,1.3,0.1,1.9,0.2c0.5,0.1,1.2,0.5,1.9,1c0.1,0.4,0.2,1,0.5,1.9c0.2,0.9,0.5,1.9,0.7,3c0.3,1.1,0.5,2.1,0.7,3
			s0.4,1.6,0.5,1.9c0.2,1,0.3,2.5,0.5,4.5c0.1,2,0.4,4.1,0.7,6.2c0.3,2.1,0.8,3.9,1.5,5.5s1.7,2.4,3,2.4c0.1,0,0.3,0,0.5-0.1
			c0.3-0.2,0.7-0.6,1.3-1.2c0.6-0.6,1-1,1.2-1.2l21.1-33.4c0.9-1.3,1.6-2.1,2.1-2.3s1.5-0.3,2.8-0.3s2.2,0.2,2.8,0.5
			c0.6,0.4,0.9,1.3,0.9,2.8v0.5c-3.5,4-6.7,8.2-9.5,12.6c-2.9,4.4-5.7,8.8-8.5,13.3s-5.6,8.9-8.5,13.3c-2.9,4.5-6,8.7-9.5,12.7
			c-0.2,0-0.5,0-0.9,0.1c-0.4,0-0.8,0.1-0.9,0.1c-1.8,0-3-0.9-3.5-2.6s-1-3.8-1.3-6.1s-0.7-4.7-1.3-7c-0.5-2.4-1.7-4.2-3.4-5.6
			c-0.7,0.4-1.4,1.2-2.1,2.6c-0.7,1.4-1.4,2.9-2.1,4.5c-0.7,1.6-1.3,3.2-1.8,4.7s-1,2.5-1.3,3.1c-0.1,0.2-0.4,0.6-1.1,1.2
			c-0.6,0.6-1.1,1.1-1.5,1.3c-0.2,0.2-0.6,0.5-1.1,1c-0.6,0.5-1.2,1-1.9,1.5s-1.3,1-1.9,1.5c-0.6,0.4-1,0.8-1.3,0.9
			c-1.7-0.6-3.1-1.8-4.2-3.5s-2-3.8-2.7-6.3c-0.7-2.4-1.3-5.1-1.7-8s-0.8-5.7-1.1-8.5c-0.4-2.8-0.7-5.5-1.1-8
			c-0.4-2.5-0.9-4.6-1.5-6.3c-0.1-0.1-0.3-0.3-0.5-0.7c-0.3-0.4-0.5-0.8-0.8-1.2c-0.3-0.4-0.5-0.8-0.8-1.2c-0.3-0.4-0.4-0.6-0.4-0.7
			s0-0.5-0.1-1.1c0-0.7-0.1-1.1-0.1-1.4C205.8,19.4,206.3,17.9,207.2,16.7z"/>
		<path class="st0" d="M289.3,46.3c0.8-2.7,1.9-5.3,3.2-7.6c1.3-2.3,2.9-4.6,4.8-6.8c1.8-2.2,3.8-4.7,5.8-7.4
			c0.4-0.6,0.9-1.3,1.3-2.1c0.4-0.8,0.9-1.5,1.4-2.1s1-1.2,1.7-1.6c0.6-0.4,1.4-0.7,2.4-0.7c1.7,0,3.5,0.5,5.4,1.5s3.7,2.3,5.5,4
			c1.8,1.6,3.5,3.5,5.1,5.6s3,4.2,4.2,6.4s2.2,4.3,2.9,6.4c0.7,2.1,1.1,3.9,1.1,5.5c0,3.3-0.8,6.2-2.3,8.6c-1.5,2.4-3.4,4.6-5.6,6.5
			s-4.7,3.7-7.2,5.3c-2.6,1.6-5,3.3-7.1,5h-13.7c-1.8,0-3.3-0.6-4.6-1.9c-1.3-1.3-2.3-2.8-3.2-4.6c-0.8-1.8-1.4-3.6-1.7-5.6
			c-0.4-1.9-0.5-3.5-0.5-4.8C288.1,52.2,288.5,49,289.3,46.3z M298.7,63.6c1.3,1.2,2.9,1.8,5,1.8c2.7,0,5.3-0.5,7.9-1.5
			s4.9-2.3,7-4.1c2.1-1.7,3.7-3.8,5-6.2s1.9-5,1.9-7.8c0-1.2-0.3-2.6-0.9-4.4c-0.6-1.7-1.4-3.4-2.4-5s-2.2-3-3.6-4.2
			c-1.3-1.2-2.8-1.7-4.4-1.7c-0.2,0-0.6,0-1.2,0.1c-5.8,2.9-10,6.5-12.5,11s-3.8,9.9-3.8,16.4C296.8,60.5,297.5,62.4,298.7,63.6z"/>
		<path class="st0" d="M339.6,52.8c0.2-2.5,0.4-5,0.6-7.6c0.2-2.5,0.4-5.1,0.5-7.8c0.1-2.6,0.1-5.5,0-8.5c0.2-0.2,0.6-0.6,1.2-1.2
			s1.1-1,1.3-1.2c0-0.1,0.2-0.1,0.5-0.1c1.5,0,2.8,0.7,4,2c1.1,1.3,1.7,2.7,1.7,4.2v1.3c0,0.2-0.1,0.7-0.2,1.4
			c-0.1,0.8-0.3,1.5-0.4,2.3s-0.3,1.6-0.4,2.3s-0.2,1.2-0.2,1.3c-0.1,0.2-0.1,0.2-0.1,0s0.1-0.2,0.1-0.1c0.4,0,1.3,0.3,2.5,0.9
			c1.2,0.6,2,0.8,2.5,0.6c2.2-1.4,4.3-3.4,6.2-6c1.9-2.5,3.9-5.1,5.9-7.5c2-2.5,4.2-4.6,6.6-6.4s5.3-2.7,8.7-2.7
			c2.7,0,5,0.8,6.9,2.3c1.9,1.6,2.9,3.7,2.9,6.5c0,1.2-0.1,2.1-0.4,2.8s-1,1.1-2.3,1.1c-0.9,0-1.7-0.2-2.3-0.5
			c-0.7-0.3-1.3-0.6-2-0.9s-1.4-0.6-2.1-0.9c-0.8-0.3-1.7-0.5-2.8-0.5c-0.4,0-1.1,0-2.1,0.1c-1.1,0-1.8,0.1-2.1,0.1
			c-1.1,1-2.5,2.5-4.2,4.6s-3.6,4.5-5.6,7c-2,2.6-4.1,5.3-6.2,8s-4.2,5.2-6,7.5s-3.6,4.1-5.2,5.6c-1.6,1.4-2.8,2.1-3.6,2.1
			c-1.8,0-2.9-0.3-3.4-0.8c-0.4-0.5-0.7-1.7-0.7-3.5C339.4,57.9,339.5,55.3,339.6,52.8z"/>
		<path class="st0" d="M391.7,54.9V40.7c0-0.9,0-2.3,0.1-4.2s0.2-4,0.2-6.4s0.1-4.8,0.2-7.4s0.2-5.1,0.3-7.4
			c0.1-2.4,0.2-4.5,0.2-6.4s0.1-3.3,0.2-4.2c0.4-1.3,1-2,1.8-2.2s1.6-0.3,2.6-0.3c0.7,0,1.6,0.1,2.7,0.3s1.6,1,1.6,2.2v29.9
			c0,0.1,0.2,0.3,0.5,0.5c0.3,0.3,0.6,0.5,0.7,0.7h0.7h0.7c0.1-0.1,0.4-0.3,0.9-0.7s1-0.8,1.5-1.2s1-0.8,1.5-1.2s0.8-0.6,1-0.7
			c0.3-0.2,1-0.6,2.1-1.3c1.1-0.7,2.3-1.5,3.6-2.3c1.3-0.8,2.4-1.6,3.5-2.3c1.1-0.7,1.7-1.2,2-1.3c1.3-1.2,2.3-2.5,3.1-4.2
			c0.8-1.6,1.6-3.1,2.5-4.6c0.8-1.4,1.9-2.6,3.2-3.6c1.3-1,3-1.5,5.1-1.5c1.2,0,1.9,0.5,2.1,1.5s0.3,2,0.3,2.9c0,1.7-0.5,3.4-1.5,5
			c-1,1.7-2.3,3.3-3.9,4.9s-3.4,3.2-5.4,4.6c-2,1.5-3.9,2.8-5.9,4.1s-3.8,2.4-5.5,3.4s-3,1.7-4,2.3c0,0.1,0,0.3-0.1,0.5
			c0,0.3-0.1,0.5-0.1,0.7c0,0.9,0.2,1.6,0.5,2.1c0.4,0.5,1,1.1,2,1.7c0.4,0.2,1.3,0.6,2.7,1.3c1.5,0.7,3.1,1.5,4.8,2.3
			c1.7,0.9,3.3,1.6,4.7,2.3c1.4,0.7,2.3,1.2,2.7,1.3c0.1,0,0.4,0.2,1,0.7s1.3,1.1,2.1,1.7c0.8,0.6,1.6,1.2,2.5,1.7
			c0.8,0.5,1.5,0.8,1.9,0.9c0.8,0.2,1.6,0.2,2.4,0.2s1.6,0,2.3,0c0.8,0,1.5,0.2,2.1,0.6c0.7,0.4,1.3,0.9,1.8,1.7
			c-0.2,0.5-0.4,1.2-0.8,2.1c-0.4,0.9-0.8,1.7-1.3,2.5c-0.5,0.8-1.1,1.5-1.8,2.1c-0.7,0.6-1.4,0.9-2.2,0.9c-2.1,0-4.3-0.8-6.8-2.3
			c-2.5-1.6-5.2-3.3-8-5.2s-5.7-3.7-8.7-5.2c-3-1.6-6-2.3-8.9-2.3c-3.3,0-5,1.7-5,5.1c0,1.8,0.2,3.5,0.7,5.2s0.7,3.5,0.7,5.5
			c0,0.6,0,1.4-0.1,2.3c0,0.9-0.2,1.8-0.4,2.7c-0.2,0.8-0.6,1.6-1.1,2.1c-0.5,0.6-1.2,0.9-2.2,0.9c-2,0-3.4-0.6-4.4-1.9
			c-0.9-1.3-1.6-2.7-1.9-4.4V54.9H391.7z"/>
		<path class="st0" d="M8.9,143.4c-1.3,0.3-2.1,0.5-2.5,0.6H5.6c-3.8,0-5.6-1.7-5.6-5c0-1.7,0.4-2.8,1.3-3.4
			c0.9-0.5,1.9-0.9,3.1-1.1c1.2-0.2,2.5-0.5,3.8-0.7c1.3-0.3,2.3-1,3.2-2.1c0.7-1.1,1.2-2.1,1.5-3.2c0.3-1,0.4-2.1,0.5-3.2
			s0.1-2.3,0.1-3.4c0-1.3,0.1-2.5,0.4-3.9c1-6.1,3.3-10.9,7-14.6c3.7-3.6,8.7-5.4,14.8-5.4c2.2,0,4.2,0.4,5.8,1.3
			c1.7,0.9,3,2.1,4,3.5s1.8,3.1,2.3,5s0.7,3.9,0.7,5.8c0,0.4,0,1.1,0,2.1c0,1.1,0,1.8-0.1,2.1c-0.2,0.2-0.6,0.4-1.2,0.7
			c-0.6,0.3-1,0.5-1.2,0.5c-1.3,0-2.4-0.6-3.1-1.9c-0.7-1.3-1.5-2.7-2.3-4.3c-0.8-1.6-1.8-3-2.9-4.3c-1.1-1.3-2.8-1.9-4.9-1.9
			c-2.6,0-4.7,0.9-6.2,2.5c-1.5,1.7-2.7,3.7-3.4,6c-0.8,2.3-1.2,4.8-1.4,7.3c-0.2,2.5-0.3,4.7-0.3,6.4c3.8,0,7.6-0.2,11.4-0.5
			c3.8-0.4,7.5-0.5,11.3-0.5c1.3,0,2.8,0.4,4.4,1.3c1.6,0.9,2.4,2,2.4,3.6c0,0.5-0.1,1.1-0.2,1.5c-0.1,0.5-0.5,0.8-1.1,1
			c-0.6,0-1.7,0-3.3,0.1s-3.2,0.2-4.9,0.3s-3.3,0.3-4.8,0.5s-2.6,0.3-3.2,0.4c-0.6,0.1-1.7,0.3-3.2,0.7s-3,0.9-4.6,1.5
			s-3,1.4-4.2,2.2c-1.2,0.9-1.8,1.8-1.8,2.9c0,2.1,0.3,4,1,6c0.7,1.9,1.4,3.8,2.2,5.6c0.8,1.8,1.5,3.6,2.2,5.4c0.7,1.8,1,3.7,1,5.6
			c0,1.3-0.5,2.2-1.4,2.8s-2,0.9-3.2,0.9c-1.5,0-2.8-0.6-3.8-1.7c-1-1.1-1.9-2.5-2.6-4.2c-0.7-1.7-1.3-3.6-1.7-5.8s-0.7-4.2-1-6.2
			s-0.5-3.9-0.7-5.6c-0.2-1.7-0.4-3-0.6-3.9C10.9,142.9,10.1,143.1,8.9,143.4z"/>
		<path class="st0" d="M52.8,148.9c0.8-2.7,1.9-5.3,3.2-7.6s2.9-4.6,4.8-6.8c1.8-2.2,3.8-4.7,5.8-7.4c0.4-0.6,0.9-1.3,1.3-2.1
			c0.4-0.8,0.9-1.5,1.4-2.1s1.1-1.2,1.7-1.6s1.4-0.7,2.4-0.7c1.7,0,3.5,0.5,5.4,1.5s3.7,2.3,5.5,4c1.8,1.6,3.5,3.5,5.1,5.6
			s3,4.2,4.2,6.4s2.2,4.3,2.9,6.4c0.7,2.1,1.1,3.9,1.1,5.5c0,3.3-0.8,6.2-2.3,8.6c-1.5,2.4-3.4,4.6-5.6,6.5s-4.7,3.7-7.2,5.3
			c-2.6,1.6-5,3.3-7.1,5H61.7c-1.8,0-3.3-0.6-4.6-1.9c-1.3-1.3-2.3-2.8-3.2-4.6c-0.8-1.8-1.4-3.6-1.7-5.6c-0.4-1.9-0.5-3.5-0.5-4.8
			C51.6,154.8,52,151.6,52.8,148.9z M62.2,166.2c1.3,1.2,2.9,1.8,5,1.8c2.7,0,5.3-0.5,7.9-1.5s4.9-2.3,7-4.1c2.1-1.7,3.7-3.8,5-6.2
			s1.9-5,1.9-7.8c0-1.2-0.3-2.6-0.9-4.4c-0.6-1.7-1.4-3.4-2.4-5s-2.2-3-3.6-4.2c-1.3-1.2-2.8-1.7-4.4-1.7c-0.2,0-0.6,0-1.2,0.1
			c-5.8,2.9-10,6.5-12.5,11s-3.8,9.9-3.8,16.4C60.4,163.1,61,165,62.2,166.2z"/>
		<path class="st0" d="M103.2,155.4c0.2-2.5,0.4-5,0.6-7.6c0.2-2.5,0.4-5.1,0.5-7.8c0.1-2.6,0.1-5.5,0-8.5c0.2-0.2,0.6-0.6,1.2-1.2
			c0.6-0.6,1.1-1,1.3-1.2c0-0.1,0.2-0.1,0.5-0.1c1.5,0,2.8,0.7,4,2c1.1,1.3,1.7,2.7,1.7,4.2v1.3c0,0.2-0.1,0.7-0.2,1.4
			c-0.1,0.8-0.3,1.5-0.4,2.3s-0.3,1.6-0.4,2.3s-0.2,1.2-0.2,1.3c-0.1,0.2-0.1,0.2-0.1,0s0.1-0.2,0.1-0.1c0.4,0,1.3,0.3,2.5,0.9
			c1.2,0.6,2,0.8,2.5,0.6c2.2-1.4,4.3-3.4,6.2-6c1.9-2.5,3.9-5.1,5.9-7.5c2-2.5,4.2-4.6,6.6-6.4c2.4-1.8,5.3-2.7,8.7-2.7
			c2.7,0,5,0.8,6.9,2.3c1.9,1.6,2.9,3.7,2.9,6.5c0,1.2-0.1,2.1-0.4,2.8c-0.3,0.7-1,1.1-2.3,1.1c-0.9,0-1.7-0.2-2.3-0.5
			c-0.7-0.3-1.3-0.6-2-0.9c-0.7-0.3-1.4-0.6-2.1-0.9c-0.8-0.3-1.7-0.5-2.8-0.5c-0.4,0-1.1,0-2.1,0.1c-1.1,0-1.8,0.1-2.1,0.1
			c-1.1,1-2.5,2.5-4.2,4.6s-3.6,4.5-5.6,7c-2,2.6-4.1,5.3-6.2,8s-4.2,5.2-6,7.5s-3.6,4.1-5.2,5.6c-1.6,1.4-2.8,2.1-3.6,2.1
			c-1.8,0-2.9-0.3-3.4-0.8c-0.4-0.5-0.7-1.7-0.7-3.5C102.9,160.5,103,157.9,103.2,155.4z"/>
		<path class="st1" d="M206.5,151.2c0-0.5,0.1-0.8,0.2-0.9L219,138c-0.7-1-1.7-1.9-3-2.7s-2.5-1.7-3.8-2.5c-1.2-0.9-2.3-1.8-3.2-2.8
			s-1.3-2.1-1.3-3.5c0-3.5,1-6.8,3-10s4.6-5.9,7.6-8.2c3.1-2.3,6.4-4.2,9.9-5.6s6.9-2.1,10-2.1c1.9,0,3.9,0.2,6,0.7
			c2.1,0.4,4,1.2,5.8,2.1c1.8,1,3.3,2.3,4.5,3.8c1.2,1.6,1.8,3.5,1.8,5.7c0,0.8,0,1.7-0.1,2.5c0,0.9-0.2,1.7-0.5,2.5
			s-0.7,1.4-1.3,1.9s-1.5,0.8-2.5,0.8c-1.5,0-2.6-0.3-3.3-0.8s-1.2-1.2-1.5-2.1c-0.4-0.8-0.6-1.8-0.9-2.8c-0.2-1-0.6-1.9-1.3-2.8
			c-0.6-0.8-1.5-1.5-2.8-2.1c-1.2-0.5-3-0.8-5.3-0.8c-4.2,0-7.8,1.1-10.9,3.4c-3,2.3-5.8,4.9-8.3,7.7c0,0.2,0,0.6-0.1,1.3
			c0,0.7-0.1,1.1-0.1,1.3c0,2.1,0.9,3.6,2.6,4.6c1.7,1,3.6,1.5,5.6,1.5h0.7c0.3-0.1,0.9-0.3,2-0.7c1.1-0.4,2.3-0.7,3.6-1.1
			s2.5-0.8,3.6-1.2s1.7-0.6,2-0.7h0.7c1.4,0,2.3,0.6,2.7,1.7c0.4,1.2,0.5,2.2,0.5,3.2c0,1.6-0.6,3-1.9,4.2c-1.3,1.2-2.8,2.3-4.6,3.4
			c-1.8,1.1-3.8,2.1-6,3.1s-4.2,2.1-6,3.2c-1.8,1.2-3.4,2.4-4.6,3.8c-1.3,1.4-1.9,3-1.9,4.8c0,1.1,0.4,2,1.3,2.9
			c0.8,0.9,1.9,1.6,3.1,2.3c1.2,0.7,2.5,1.2,3.8,1.5c1.3,0.4,2.3,0.5,3.2,0.5c0.3,0,1,0,2.1-0.1s2.4-0.2,3.9-0.3s2.9-0.3,4.4-0.4
			c1.4-0.1,2.5-0.2,3.4-0.3c3.2-0.4,5.7-1.1,7.6-2.3c1.8-1.2,3.3-2.5,4.4-3.8s2-2.5,2.7-3.6c0.7-1,1.6-1.5,2.7-1.5
			c1.6,0,2.5,0.6,2.5,1.7c0.1,1.1,0.1,2.3,0.1,3.6s-0.2,2.5-0.5,3.8s-0.8,2.5-1.4,3.6s-1.4,2.1-2.3,3s-2.1,1.5-3.4,1.8
			c-1.5,0.4-3.3,0.8-5.4,1.2c-2.1,0.4-4.3,0.9-6.6,1.3c-2.3,0.4-4.6,0.7-7,1s-4.6,0.4-6.6,0.4c-2.3,0-4.8-0.4-7.3-1.1
			s-4.9-1.8-7-3.2s-3.9-3.1-5.3-5.2c-1.4-2.1-2.1-4.4-2.1-7.1C206.4,152.2,206.5,151.8,206.5,151.2z"/>
		<path class="st1" d="M267.6,150.4c0.6-2.2,1.5-4.5,2.5-6.8c1.1-2.4,2.3-4.7,3.8-7s3.1-4.4,4.9-6.2s3.6-3.3,5.6-4.4
			c1.9-1.1,3.9-1.7,6-1.7c0.4,0,1.1,0.3,2.1,0.8c1.1,0.5,2.3,1.2,3.6,1.9c1.3,0.7,2.6,1.4,3.8,2.1c1.3,0.7,2.2,1.1,2.8,1.4
			c0.2,0.1,0.4,0.3,0.7,0.6c0.3,0.3,0.5,0.5,0.6,0.6c0,0.6,0,1.7-0.1,3.3c0,1.6-0.1,3.2-0.1,4.9s0,3.3,0.1,4.8
			c0,1.5,0.1,2.6,0.1,3.2c0,0.7,0,1.6,0.1,2.6s0.3,2.1,0.5,3.2c0.3,1.1,0.6,2.1,1.1,3.1c0.4,1,1.1,1.7,1.9,2.3c0.4,0,1.4,0,2.8,0.1
			c1.4,0,2.4,0.1,2.8,0.1c1.9,0,3.6-0.3,5.1-0.8s2.9-1.1,4.2-1.7c1.3-0.6,2.5-1.2,3.5-1.7s1.9-0.8,2.8-0.8c0.7,0,1.1,0.4,1.2,1.3
			c0.1,0.9,0.1,1.5,0.1,1.9c0,2-0.6,3.7-1.9,5.2s-2.9,2.7-4.8,3.7s-4,1.7-6.1,2.2s-4,0.7-5.6,0.7c-2.3,0-4.2-0.7-5.7-1.9
			c-1.5-1.3-2.8-2.8-4-4.4s-2.3-3.1-3.4-4.4c-1.1-1.3-2.4-1.9-3.9-1.9c-1.3,0-2.6,0.9-4.1,2.8c-1.5,1.8-3,3.8-4.6,6s-3.3,4.2-5,6
			s-3.5,2.8-5.4,2.8s-3.4-0.7-4.6-2s-2.1-3-2.8-4.8s-1.1-3.8-1.3-5.8c-0.2-2-0.3-3.7-0.3-5.2C266.7,154.5,267,152.6,267.6,150.4z
			 M275.7,162.3c0.2,0.4,1,0.9,2.2,1.5c3.8-3,6.8-6.3,9.1-9.9c2.3-3.5,3.5-7.7,3.5-12.5c0-0.2,0-0.5,0-1.1s0-1.3-0.1-1.9
			c0-0.7-0.1-1.3-0.1-1.8c0-0.6,0-1.1,0-1.3c-0.2-0.2-0.6-0.4-1.2-0.7s-1.1-0.5-1.3-0.5c-2.1,0-4,1.1-5.6,3.4
			c-1.6,2.2-2.9,4.8-3.9,7.8s-1.8,5.9-2.3,8.8c-0.5,2.9-0.7,5-0.7,6.4C275.4,161.3,275.5,161.9,275.7,162.3z"/>
		<path class="st1" d="M331.7,155.4c0.2-2.5,0.4-5,0.6-7.6c0.2-2.5,0.4-5.1,0.5-7.8c0.1-2.6,0.1-5.5,0-8.5c0.2-0.2,0.6-0.6,1.2-1.2
			c0.6-0.6,1.1-1,1.3-1.2c0-0.1,0.2-0.1,0.5-0.1c1.5,0,2.8,0.7,4,2c1.1,1.3,1.7,2.7,1.7,4.2v1.3c0,0.2-0.1,0.7-0.2,1.4
			c-0.1,0.8-0.3,1.5-0.4,2.3s-0.3,1.6-0.4,2.3s-0.2,1.2-0.2,1.3c-0.1,0.2-0.1,0.2-0.1,0s0.1-0.2,0.1-0.1c0.4,0,1.3,0.3,2.5,0.9
			c1.2,0.6,2,0.8,2.5,0.6c2.2-1.4,4.3-3.4,6.2-6c1.9-2.5,3.9-5.1,5.9-7.5c2-2.5,4.2-4.6,6.6-6.4s5.3-2.7,8.7-2.7
			c2.7,0,5,0.8,6.9,2.3c1.9,1.6,2.9,3.7,2.9,6.5c0,1.2-0.1,2.1-0.4,2.8s-1,1.1-2.3,1.1c-0.9,0-1.7-0.2-2.3-0.5
			c-0.7-0.3-1.3-0.6-2-0.9c-0.7-0.3-1.4-0.6-2.1-0.9c-0.8-0.3-1.7-0.5-2.8-0.5c-0.4,0-1.1,0-2.1,0.1c-1.1,0-1.8,0.1-2.1,0.1
			c-1.1,1-2.5,2.5-4.2,4.6s-3.6,4.5-5.6,7c-2,2.6-4.1,5.3-6.2,8s-4.2,5.2-6,7.5s-3.6,4.1-5.2,5.6c-1.6,1.4-2.8,2.1-3.6,2.1
			c-1.8,0-2.9-0.3-3.4-0.8c-0.4-0.5-0.7-1.7-0.7-3.5C331.5,160.5,331.5,157.9,331.7,155.4z"/>
		<path class="st1" d="M390.6,151c0.3-1,0.4-1.6,0.5-1.9c0.1-0.8,0.2-1.8,0.4-3c0.2-1.2,0.3-2.4,0.5-3.6s0.2-2.2,0.3-3.1
			c0-0.8,0.1-1.3,0.1-1.4l-1.2-2.5c-0.6,0-1.5,0-2.5,0s-1.9-0.1-2.9-0.3c-0.9-0.2-1.7-0.6-2.4-1.1c-0.7-0.5-1-1.3-1-2.3
			c0-1.5,0.6-2.7,1.9-3.4c1.3-0.8,2.8-1.5,4.4-2.3s3.1-1.8,4.4-3.1c1.3-1.3,1.9-3.1,1.9-5.5v-4.2c0-0.1-0.1-0.4-0.3-0.9
			c-0.2-0.5-0.3-1-0.5-1.6c-0.1-0.6-0.3-1.1-0.4-1.5s-0.2-0.8-0.2-0.9c0-0.8,0.3-1.7,0.8-2.5c0.5-0.9,1.2-1.7,1.9-2.5
			c0.7-0.8,1.5-1.4,2.3-1.9s1.6-0.7,2.3-0.7c1.3,0,2.7,0.5,4,1.5s2.1,2.2,2.3,3.6c-1.7,1-2.8,2.1-3.3,3.4s-0.7,2.6-0.5,4
			c0.1,1.4,0.4,2.9,0.8,4.4s0.6,2.9,0.6,4.4h14.9c0.4,0,0.6,0.2,0.9,0.5c0.2,0.4,0.4,0.7,0.4,1.1s0.1,0.8,0.1,1.3c0,0.4,0,0.7,0,0.8
			c0,0.1,0,0.4,0,0.9c0,0.4,0,0.9-0.1,1.5c-0.1,0.5-0.2,1-0.4,1.4c-0.2,0.4-0.4,0.6-0.8,0.6h-16.2c-0.7,0-1.3,0.5-1.8,1.5
			s-0.9,2.3-1.3,3.9c-0.4,1.6-0.7,3.3-0.9,5.1c-0.3,1.8-0.5,3.6-0.6,5.2c-0.1,1.7-0.2,3.1-0.3,4.4c0,1.3-0.1,2-0.1,2.3
			c0,1.9,0.3,3.5,0.8,4.8s1.1,2.4,1.7,3.4s1.2,1.9,1.7,2.7s0.8,1.7,0.8,2.5c0,1.9-0.4,2.9-1.3,3.1c-0.9,0.2-2.2,0.3-4,0.3
			c-0.5,0-1.1,0-1.7,0.1c-0.6,0-1.2,0-1.8-0.1c-0.6-0.1-1.1-0.4-1.6-0.8c-0.5-0.4-0.8-1-0.9-1.8l-2.4-13.5
			C390.1,152.6,390.3,152,390.6,151z"/>
		<path class="st1" d="M426.4,158c0.8-2.4,1.3-4.8,1.3-7.2c0-0.1-0.1-0.3-0.2-0.7s-0.3-0.8-0.4-1.2s-0.3-0.8-0.4-1.2
			s-0.2-0.6-0.2-0.7v-1v-1.3c0.1-1.5,0.2-4.2,0.3-7.9c0.1-3.8,0.2-7.7,0.3-11.9c0.1-4.2,0.3-8.2,0.4-11.9s0.2-6.4,0.2-7.9
			c0.2-0.9,0.8-1.3,1.7-1.3c1,0,1.7,0,2.1,0c1.1,0,2,0.1,2.9,0.3c0.8,0.2,1.5,0.9,1.9,2.3c0,0.4,0,1.3,0.1,2.5
			c0,1.3,0.1,2.1,0.1,2.4c0,5.2-0.4,10.3-1.3,15.3s-1.3,10.1-1.3,15.3c0,0.9,0,1.6,0.1,2.1s0.5,1.2,1.2,2c1.2-0.8,2.1-1.8,2.9-3.1
			s1.4-2.6,2-4s1.1-2.8,1.7-4.2c0.5-1.3,1.2-2.5,2-3.6c0.6-0.8,1.4-1.9,2.3-3.3c0.9-1.4,2-2.8,3.2-4.2c1.2-1.4,2.4-2.6,3.8-3.6
			s2.8-1.5,4.4-1.5c2.2,0,4,0.7,5.4,2.1s2.4,3.2,3.2,5.3c0.7,2.1,1.2,4.5,1.3,7.2c0.2,2.6,0.2,5.3,0.2,7.8c0,2.6-0.1,5-0.2,7.2
			s-0.1,3.9,0,5.2c0.1,1.1,0.4,2,0.9,2.8s1,1.6,1.7,2.3c0.6,0.7,1.2,1.5,1.7,2.2c0.5,0.8,0.7,1.6,0.7,2.5c0,2.2-0.6,3.7-1.7,4.3
			c-1.2,0.6-2.6,0.9-4.4,0.9c-2.5,0-4.3-0.4-5.3-1.1c-1-0.7-1.7-1.7-2-3.1c-0.3-1.3-0.4-2.9-0.3-4.8c0.1-1.8,0.2-3.9,0.1-6.1
			c0-0.8-0.1-2.2-0.2-4.2s-0.3-4.1-0.4-6.3s-0.2-4.4-0.3-6.4c-0.1-2-0.2-3.4-0.3-4.2c-0.2-0.7-0.5-1.1-1-1.2c-0.5-0.1-1-0.1-1.4-0.1
			c-0.7,0-1.2,0-1.5,0.1s-0.6,0.5-1.1,1.2c-0.7,1.2-1.6,2.8-2.7,5s-2.2,4.6-3.5,7.3s-2.6,5.4-4,8.2s-2.9,5.4-4.3,7.6
			c-1.4,2.3-2.8,4.2-4.2,5.6c-1.4,1.5-2.7,2.2-4,2.2c-1.5,0-2.7-0.1-3.5-0.3s-1.2-1.2-1.2-2.9C425.1,162.7,425.5,160.4,426.4,158z"
			/>
		<path class="st1" d="M475.8,162c0.4-0.8,1-1.3,1.7-1.7c0.8-0.4,1.6-0.6,2.6-0.7c1-0.1,2-0.1,3.1-0.1c0.4,0,1.1,0,2.1,0.1
			c1.1,0,1.8,0.1,2.1,0.1c0.2,0.1,0.4,0.3,0.7,0.6c0.3,0.3,0.5,0.5,0.7,0.6c0.2,0.4,0.4,0.9,0.7,1.5c0.3,0.6,0.5,1,0.5,1.1
			c-0.3,0.6-0.8,1.3-1.6,2c-0.8,0.7-1.7,1.4-2.7,2s-2,1.1-3,1.5s-1.9,0.6-2.6,0.6c-1.3,0-2.5-0.4-3.5-1.1c-1-0.7-1.5-1.8-1.5-3.2
			C475.2,163.9,475.4,162.8,475.8,162z"/>
	</g>
	<g>
		<path class="st1" d="M497.1,106.5c0,6.7-5.2,11.9-12,11.9c-6.7,0-12.1-5.2-12.1-11.9c0-6.5,5.4-11.8,12.1-11.8
			C491.9,94.8,497.1,100,497.1,106.5z M475.9,106.5c0,5.2,3.9,9.4,9.2,9.4c5.2,0,9-4.2,9-9.3c0-5.2-3.8-9.5-9-9.5
			C479.8,97.2,475.9,101.4,475.9,106.5z M483.2,112.7h-2.7V101c1.1-0.2,2.6-0.4,4.5-0.4c2.2,0,3.2,0.4,4.1,0.9
			c0.6,0.5,1.1,1.4,1.1,2.6c0,1.3-1,2.3-2.4,2.7v0.1c1.1,0.4,1.8,1.3,2.2,2.9c0.4,1.8,0.6,2.5,0.9,2.9H488c-0.4-0.4-0.6-1.5-0.9-2.9
			c-0.2-1.3-0.9-1.9-2.4-1.9h-1.3v4.8H483.2z M483.3,106h1.3c1.5,0,2.7-0.5,2.7-1.7c0-1.1-0.8-1.8-2.5-1.8c-0.7,0-1.2,0.1-1.5,0.1
			V106z"/>
	</g>
</g>
</svg>
