<?xml version="1.0" encoding="utf-8"?>
<!-- Generator: Adobe Illustrator 19.2.1, SVG Export Plug-In . SVG Version: 6.00 Build 0)  -->
<svg version="1.1" id="Layer_1" xmlns="http://www.w3.org/2000/svg" xmlns:xlink="http://www.w3.org/1999/xlink" x="0px" y="0px"
	 viewBox="0 0 222 44.8" style="enable-background:new 0 0 222 44.8;" xml:space="preserve">
<style type="text/css">
	.st0{fill:#FFFFFF;}
</style>
<path class="st0" d="M219.5,20c-1.4,0-2.5-1.1-2.5-2.5c0-1.4,1.1-2.5,2.5-2.5c1.4,0,2.5,1.1,2.5,2.5C222,18.9,220.9,20,219.5,20z
	 M219.5,15.2c-1.3,0-2.3,1-2.3,2.3c0,1.3,1,2.3,2.3,2.3c1.3,0,2.3-1,2.3-2.3C221.8,16.2,220.8,15.2,219.5,15.2z M219.8,17.6
	c0.1,0,0.2,0.1,0.2,0.1c0.1,0.1,0.2,0.2,0.3,0.4l0.5,0.8h-0.5l-0.4-0.6c-0.1-0.2-0.2-0.3-0.3-0.4c-0.1-0.1-0.1-0.2-0.2-0.2
	c-0.1,0-0.1-0.1-0.2-0.1c0,0-0.1,0-0.2,0h-0.5v1.3h-0.4V16h1.3c0.3,0,0.5,0,0.6,0.1c0.1,0.1,0.2,0.1,0.3,0.3
	c0.1,0.1,0.1,0.3,0.1,0.4c0,0.2-0.1,0.4-0.2,0.5C220.3,17.4,220.1,17.5,219.8,17.6z M220.1,16.4c-0.1-0.1-0.3-0.1-0.5-0.1h-0.9v1
	h0.8c0.2,0,0.3,0,0.4-0.1c0.1,0,0.2-0.1,0.2-0.2c0.1-0.1,0.1-0.2,0.1-0.3C220.3,16.6,220.2,16.5,220.1,16.4z M206.5,28.9H205v-5.2
	l-5.4-7.9h1.8l4.4,6.6l4.4-6.6h1.7l-5.4,7.9V28.9z M195.9,28.9h-1.8l-3.8-5.1h-3.7v5.1h-1.5V15.8h5.6c1.6,0,2.9,0.5,3.7,1.3
	c0.6,0.6,1,1.6,1,2.6v0c0,2.2-1.5,3.4-3.5,3.8v0L195.9,28.9z M194,19.8L194,19.8c0-1.7-1.2-2.6-3.3-2.6h-4v5.3h4.3
	C192.7,22.4,194,21.4,194,19.8z M179.3,28.9h-1.8l-3.8-5.1H170v5.1h-1.5V15.8h5.6c1.6,0,2.9,0.5,3.7,1.3c0.6,0.6,1,1.6,1,2.6v0
	c0,2.2-1.5,3.4-3.5,3.8v0L179.3,28.9z M177.3,19.8L177.3,19.8c0-1.7-1.2-2.6-3.3-2.6h-4v5.3h4.3C176.1,22.4,177.3,21.4,177.3,19.8z
	 M153,15.8h9.4v1.3h-7.9v4.5h7.1V23h-7.1v4.6h8v1.3H153V15.8z M139.9,21.9h7v1.3h-7v5.7h-1.5V15.8h9.4v1.4h-7.9V21.9z M114.6,18.2
	v10.8h-1.4V15.8h1.4l8.2,10.5V15.8h1.4v13.1H123L114.6,18.2z M107.3,28.9h-1.8l-3.8-5.1H98v5.1h-1.5V15.8h5.6c1.6,0,2.9,0.5,3.7,1.3
	c0.6,0.6,1,1.6,1,2.6v0c0,2.2-1.5,3.4-3.5,3.8v0L107.3,28.9z M105.3,19.8L105.3,19.8c0-1.7-1.2-2.6-3.3-2.6h-4v5.3h4.3
	C104.1,22.4,105.3,21.4,105.3,19.8z M83.9,29.2c-4,0-6.6-3.1-6.6-6.8v0c0-3.6,2.7-6.8,6.7-6.8c4,0,6.6,3.1,6.6,6.8v0
	C90.6,26,87.9,29.2,83.9,29.2z M89.1,22.4c0-3-2.2-5.4-5.1-5.4c-3,0-5.1,2.4-5.1,5.4v0c0,3,2.2,5.4,5.1,5.4
	C87,27.8,89.1,25.4,89.1,22.4L89.1,22.4z M72.2,28.9l-5.8-7.4l5.5-5.8h1.9l-5.6,5.7l5.8,7.4H72.2z M63,15.8h1.5v13.1H63V15.8z
	 M35.2,4.8h-4.4V4.2H48v11.7h-0.4C46.1,9.1,42.5,4.8,35.2,4.8z M26.1,0h0.6v44.8h-0.6V0z M0,21.5L14.8,4.2h4.3v0.6h-4.1L4.5,17.1
	l15.9,23h2.9v0.6H13.2L0,21.5z M39.4,14.4h0.4V30h-0.4c-0.2-2.5-0.9-7.6-8.5-7.6v-0.6C36.7,21.9,38.9,19.4,39.4,14.4z"/>
</svg>
