<?xml version="1.0" encoding="utf-8"?>
<!-- Generator: Adobe Illustrator 21.0.2, SVG Export Plug-In . SVG Version: 6.00 Build 0)  -->
<svg version="1.1" id="sunglasses" xmlns="http://www.w3.org/2000/svg" xmlns:xlink="http://www.w3.org/1999/xlink" x="0px" y="0px"
	 viewBox="0 0 200 100" style="enable-background:new 0 0 200 100;" xml:space="preserve">
<style type="text/css">
	.st0{fill:#5B5B5B;}
</style>
<path class="st0" d="M139.7,25.2v-0.5c-0.3-1.8-1.8-2.8-3.4-2.1c-1.8,0.8-3.6,1.7-5.4,2.4c-3.1,1.3-6.2,2.7-9.4,4
	c-2,0.8-4,1.8-6.1,2.7c-3,1.3-6.1,2.6-9.2,3.9c-1.6,0.6-3.1,1.5-4.7,2c-2.3,0.8-4.6,0.9-7,0.6c-2.3-0.4-4.5-0.8-6.6-2.2
	c1.6-0.6,3.1-1.3,4.6-2c4.6-2,9.3-4,13.8-6c4-1.7,7.8-3.4,11.9-5.1c0.6-0.3,1.2-0.7,2-0.4c1.3,0.6,2.6,1.2,4,1.7v-6.3
	c0-1.5-1.7-2.6-3-2.1c-1.5,0.6-2.8,1.3-4.2,1.8c-3,1.2-6,2.6-8.9,3.9c-2,0.8-4,1.7-6.1,2.7c-2.9,1.3-5.9,2.5-8.9,3.8
	c-2.1,0.9-4.2,1.7-6.2,2.7c-2.2,1-4,2.6-4,5.7c0.1,17.2,0,34.5,0,51.6c0,0.6,0.1,1.2,0.4,1.8c0.8,2.3,2.7,3.5,4.8,4.3
	c2.3,0.9,4.6,1.5,7.1,1.7s4.9,0.2,7.3-0.6c3.5-1.1,6.7-2.8,10.2-4.2c2.6-1.1,5.1-2.3,7.6-3.4c3.5-1.5,7-2.9,10.6-4.5
	c2.5-1.1,5-2.2,7.4-3.2c1.1-0.5,1.8-1.5,1.8-2.7C139.7,60.1,139.7,42.7,139.7,25.2L139.7,25.2z M92,23.8c1.9-0.8,3.9-1.7,5.8-2.6
	c3.5-1.5,7-2.9,10.7-4.5c2.6-1.1,5.2-2.3,7.8-3.4c0.6-0.3,0.6-0.5,0.5-0.9c-0.3-0.8-0.8-1.3-1.6-1.7h-1.1c-1.9,0.6-3.8,1.6-5.6,2.4
	c-3.5,1.5-7,2.9-10.5,4.5c-2.5,1.1-5,2.2-7.5,3.3c-3.1,1.4-6.3,2.8-9.6,4c-5.5,2.3-10.2,1.4-11.2,1.1c-1.4-0.4-2.8-0.7-4-1.5
	c-0.2-0.1-0.4-0.2-0.4-0.4c0-0.3,0.3-0.2,0.4-0.2c1.7-0.7,3.2-1.5,4.9-2.2c2-0.8,4-1.7,6-2.6c3.4-1.4,6.7-2.9,10.2-4.3
	c3-1.3,6-2.7,9-4c0.6-0.3,1.3-0.4,2,0.1c0.9,0.6,1.9,0.9,2.9,1.3c0.5,0.2,0.9,0.2,0.8-0.6c-0.2-1.8,0.2-3.7-0.2-5.5
	c-0.3-1.6-1.8-2.4-3-1.9c-2,0.6-4,1.6-6,2.4c-2.5,1-4.9,2.2-7.4,3.2c-3,1.2-6.1,2.6-9,3.9c-2,0.9-4,1.7-6,2.6
	c-2.4,1-4.9,1.9-7.1,3.1c-1.7,0.9-2.8,2.1-2.8,4.2v52.9c0,1.7,0.8,3.1,2.1,4.1c3.2,2.5,7.1,3.2,11.1,3.6c1.3,0.1,2.6-0.2,3.9-0.2
	c1.2-0.1,1.3-0.2,1.3-1.4V35.6c0-3.7,1.8-6.3,5-8C86.1,26.1,89.1,25,92,23.8z"/>
</svg>
