<?xml version="1.0" encoding="utf-8"?>
<!-- Generator: Adobe Illustrator 21.0.2, SVG Export Plug-In . SVG Version: 6.00 Build 0)  -->
<svg version="1.1" id="sunglasses" xmlns="http://www.w3.org/2000/svg" xmlns:xlink="http://www.w3.org/1999/xlink" x="0px" y="0px"
	 viewBox="0 0 200 100" style="enable-background:new 0 0 200 100;" xml:space="preserve">
<style type="text/css">
	.st0{fill:#5B5B5B;}
</style>
<path class="st0" d="M130.6,34.7c1-2.8,1.7-4.9,2.1-7.5c0.8-4.7-2.1-9.2-6.4-10.1c-0.5-0.2-1-0.2-1.4-0.2c-1.6,0-3.2,0.5-4.5,1.6
	c-1.7,1.4-2.9,3.3-3.4,5.6c-0.5,2.6-0.5,4.9-0.5,7.8v4.4c-0.2-0.3-0.3-0.7-0.5-1.2c-1.7-4-3-7.1-2.4-10.9c0.2-1.6,0.5-2.8,0.6-4
	c0.5-2.9,0.8-5.2,0.8-7.8c0-4.9-3.7-8.7-8-8.7c-2.1,0-4.1,0.9-5.6,2.6c-1.4,1.6-2.4,3.8-2.4,6.1c0,2.6,0.3,4.9,0.8,7.8
	c0.2,1.2,0.5,2.6,0.6,4c0.6,3.8-0.8,7-2.4,10.9c-1.1,2.8-2.4,5.9-3.4,9.7c-0.6,3.1-0.8,6.3-0.2,9.6h-1.4c-1.3-2.3-2.7-4-4-5.7
	c-2.6-3.3-4.6-6.1-5-9.9c-0.2-1.6-0.3-2.9-0.3-4.2c-0.2-2.9-0.5-5.2-1.1-7.6c-1-3.8-4.1-6.4-7.7-6.4c-0.6,0-1.4,0.2-2.1,0.3
	c-2.1,0.7-3.8,2.1-4.8,4c-1.1,2.1-1.3,4.4-0.8,6.6c0.6,2.4,1.6,4.5,2.7,7.3c0.5,1,1,2.3,1.6,3.8c1.4,3.6,1,7,0.3,11.3
	c-0.5,2.9-1,6.4-1,10.4c0.2,4.7,1.6,9.2,4.8,14.3c1.4,10.2,9.4,18.1,19.2,18.1c8.5,0,15.5-5.9,18.2-13.9l8,1.6l0.8-1
	c7-8.9,9.9-15.8,9.4-22.9c-0.2-4-1-7.3-1.6-10.2c-1-4.2-1.7-7.6-0.5-11.3C129.8,37.1,130.3,35.9,130.6,34.7L130.6,34.7z M82.5,43.9
	l-7,2.1c-0.2-1.2-0.3-2.3-0.6-3.5l6.7-1.9C81.7,41.8,82,42.9,82.5,43.9z M72.7,37.5c-1.1-2.6-1.9-4.5-2.6-6.8
	c-0.3-1.4-0.2-2.9,0.5-4.2c0.6-1.2,1.7-2.3,3-2.6c0.5-0.2,0.8-0.2,1.3-0.2c2.2,0,4.3,1.7,4.8,4c0.5,2.3,0.8,4.4,1,7.1
	c0,0.7,0.2,1.6,0.2,2.3l-7.5,2.1C73.2,38.8,73,38.2,72.7,37.5L72.7,37.5z M74,64.2c0-3.6,0.5-7,0.8-9.7c0.3-1.7,0.5-3.5,0.6-5
	l8.5-2.4c0.8,1.4,1.9,2.6,2.9,4c1,1.2,2.1,2.8,3,4.4c-7.4,2.1-13,8.9-14.1,17.2C74.7,69.4,74,66.8,74,64.2L74,64.2z M80.6,70
	c-0.3,0-0.6-0.2-1-0.2c0.6-1.9,1.4-3.6,2.6-5.2c0.6,0.5,1.1,1.4,1.1,2.4C83.3,68.6,82.2,70,80.6,70L80.6,70z M85.3,61.1
	c1.4-1.2,3-2.1,4.8-2.8c0.2,0.3,0.2,0.7,0.2,0.9c0,1.7-1.3,2.9-2.7,2.9C86.6,62.3,85.8,61.8,85.3,61.1L85.3,61.1z M88.9,71.5
	c-1.6,0-3-1.4-3-3.3c0-1.7,1.3-3.3,3-3.3c1.6,0,3,1.4,3,3.3C91.9,70.1,90.5,71.5,88.9,71.5z M119.4,37.5l6.7,1.4
	c-0.3,1.2-0.5,2.3-0.5,3.5l-7-1.6C118.9,39.7,119.3,38.7,119.4,37.5L119.4,37.5z M103.4,8.3c1-1,2.2-1.6,3.5-1.6
	c2.7,0,5,2.4,5.1,5.4c0,2.3-0.3,4.4-0.8,7.1c-0.2,0.7-0.2,1.4-0.3,2.3h-7.7c-0.2-0.9-0.3-1.6-0.3-2.3c-0.5-2.8-0.8-4.9-0.8-7.1
	C102,10.7,102.5,9.3,103.4,8.3z M103.6,24.8h6.9c0,1.2,0,2.4,0.2,3.5h-7.2C103.6,27.2,103.7,26,103.6,24.8z M107.3,55.2
	c-0.5,1-0.8,2.1-1.1,3.1c-2.4-1.9-5.4-3.1-8.5-3.6c-0.6-3.3-0.6-6.3,0-9c0.8-3.6,2.1-6.6,3.2-9.2c0.6-1.6,1.3-3.1,1.7-4.7h8.8
	c0.5,1.6,1.1,3.1,1.9,4.7c0.6,1.6,1.3,3.1,1.9,4.9c-0.8,1.7-1.7,3.3-3,5C110.6,48.7,108.9,51.5,107.3,55.2z M120.1,80.5l-6.1-1.2
	c0.2-1.2,0.3-2.6,0.3-4c0-5.7-2.1-10.9-5.6-14.8c0.3-1.4,0.6-2.8,1.3-4c1.4-3.3,3.2-6.1,4.6-8.3c1-1.4,1.9-2.8,2.6-4.4l8.6,1.7
	c0.2,1.6,0.6,3.3,1,5c0.6,2.8,1.4,6.1,1.6,9.7C128.9,66.5,126.3,72.6,120.1,80.5L120.1,80.5z M127.9,33.6c-0.2,0.7-0.5,1.4-0.8,2.1
	l-7.5-1.6v-2.3c0-2.9,0-4.9,0.5-7.3c0.3-1.4,1-2.6,2.1-3.5c0.8-0.7,1.7-0.9,2.9-0.9c0.3,0,0.6,0,1,0.2c2.7,0.5,4.5,3.5,4,6.4
	C129.5,28.9,128.9,30.9,127.9,33.6L127.9,33.6z"/>
</svg>
