<?xml version="1.0" encoding="utf-8"?>
<!-- Generator: Adobe Illustrator 21.0.2, SVG Export Plug-In . SVG Version: 6.00 Build 0)  -->
<svg version="1.1" id="sunglasses" xmlns="http://www.w3.org/2000/svg" xmlns:xlink="http://www.w3.org/1999/xlink" x="0px" y="0px"
	 viewBox="0 0 200 100" style="enable-background:new 0 0 200 100;" xml:space="preserve">
<style type="text/css">
	.st0{fill:#5B5B5B;}
</style>
<path class="st0" d="M132.8,45.7c1.5,3.9,4.5,12.8,3.6,16.2c-1.1,3.9-5.3,8.4-11.1,11.9c-6.7,4-14.6,6.2-22.2,6.2
	c-16.6,0-31.3-9.6-33.4-18.2c-0.8-3.5,2.2-12.2,3.6-16.1l27.4,8.4c0.8,0.2,1.6,0.4,2.4,0.4s1.6-0.1,2.4-0.4L132.8,45.7L132.8,45.7z
	 M162.8,25.7L103.8,7.6c-0.5-0.2-1-0.2-1.4,0L43.2,25.7c-2.3,0.7-2.3,4,0,4.7L61.7,36c-1.5,1.6-3.9,6.5-4.2,7.2
	c-2.4,0.7-4.2,2.9-4.2,5.5c0,1.7,0.7,3.2,1.9,4.2C54.2,63.2,47.6,76,35.5,85.2c0,0,8.1,9.3,15.9,6.9c7.5-2.3,12.5-15.7,10.7-38.6
	c2-1.2,2.7-3.2,2.7-4.8c0-1.5-0.6-2.8-1.5-3.9c3.9-12.4,28.8-18.2,40-19.8c1.6-0.2,3.1,0.9,3.3,2.5c0.2,1.6-0.9,3.1-2.5,3.3
	c-9.5,1.4-21.9,4.8-29.1,9.2l27.2,8.3c0.2,0.1,1.2,0.1,1.4,0l59.1-18.1C165.3,29.5,164.9,26.3,162.8,25.7z"/>
</svg>
