<?xml version="1.0" encoding="utf-8"?>
<!-- Generator: Adobe Illustrator 21.0.2, SVG Export Plug-In . SVG Version: 6.00 Build 0)  -->
<svg version="1.1" id="sunglasses" xmlns="http://www.w3.org/2000/svg" xmlns:xlink="http://www.w3.org/1999/xlink" x="0px" y="0px"
	 viewBox="0 0 200 100" style="enable-background:new 0 0 200 100;" xml:space="preserve">
<style type="text/css">
	.st0{fill:#5B5B5B;}
</style>
<path class="st0" d="M166.6,33.8c-0.4-2.9-0.8-5.5-0.8-6.3c0.1-2.5-2.6-12.8-4.8-13.7c-1.5-0.5-4.1,0.3-8,1.8l-0.5,0.3
	c-3.8,1.5-4.8,2.6-4.5,5.1c0.1,1.2,0.5,2.1,1.1,2.5c0,0.8,0.3,2.1,1,3.3c1,1.8,4,2.3,6.3,2.6h0.4c-0.3,3.6-0.8,10.8-1.5,12.9
	c-1,3-1.4,7.1-1.6,10c-2.3-0.4-7.5-1.4-11.8-1.8c1.1-2.2,2.1-4.3,2.6-6.6c4.9-17.3-4.3-30.6-17.7-30.6c-14.7,0-26.5,14-26.5,14
	s-11.8-14-26.5-14c-13.4,0-22.8,13.3-17.7,30.6c0.5,2.3,1.5,4.5,2.6,6.6c-4.3,0.4-9.7,1.4-12.2,1.8c-0.3-2.7-0.8-6.7-1.6-9.9
	c-0.5-2.2-1.2-9.3-1.5-12.9h0.4c2.5-0.3,5.3-0.8,6.3-2.6c0.5-1.2,1-2.6,1-3.3c0.4-0.4,1-1.2,1.1-2.5c0.3-2.5-0.8-3.6-4.5-5.1
	l-0.7-0.1c-3.8-1.5-6.4-2.5-8-1.8c-2.2,1-4.9,11.2-4.8,13.7c0,0.8-0.3,3.4-0.8,6.3c-1.1,6.7-2.5,16.3-1.6,21
	c0.4,2.6,0.4,5.1,0.4,7.1c0.1,3.4,0.1,6,2.3,6.3c1.6,0.3,3,0.4,4.5,0.5c5.9,1,9.6,1.4,15.1,1.4h2.9c6.4-0.1,11.8-1.2,15.9-2.5
	c1,0.8,1.6,1.5,2.5,2.2c9.2,8,24.1,16.6,24.1,16.6s16.5-8.6,25.7-16.5c0.8-0.5,1.5-1.4,2.5-2.2c3.8,1.1,9.2,2.2,15.6,2.3h2.9
	c5.5,0,9.1-0.5,15.1-1.4c1.4-0.1,2.7-0.4,4.5-0.5c2.2-0.3,2.3-2.9,2.3-6.3c0-2.1,0.1-4.5,0.4-7.1C169.1,50.3,167.7,40.8,166.6,33.8
	L166.6,33.8z M56.9,68c-7.1,0.1-11-0.3-17.6-1.4c-1.4-0.1-2.7-0.4-4.3-0.5c-0.3-0.3-0.4-2.6-0.4-4.1c0-2.1-0.1-4.7-0.5-7.4
	c-0.8-4.1,0.8-13.9,1.6-20.3c0.5-3.8,1-5.9,0.8-6.7C36.5,25,39.1,17.1,40,16c1-0.1,4.3,1.1,6.2,1.8l0.5,0.3c3.3,1.4,3.3,1.8,3,2.6
	c-0.1,1-0.4,1.2-0.4,1.2l-0.4,0.3c-1,0.3-2.5,0.4-4.7,0.1c-0.4,0-0.5-0.1-0.5-0.1v-0.3c-0.1-0.5-0.8-1-1.4-0.8c-0.5,0.1-1,1-0.8,1.5
	c0.1,0.8,0.8,1.6,2.6,2.1c1,0.1,1.8,0.1,2.7,0.1c0.5,0,1.2,0,1.6-0.1c-0.1,0.3-0.1,0.5-0.3,1c-0.4,0.8-3.4,1.2-4.7,1.5
	c-0.5,0.1-1.2,0.1-1.5,0.3L41,27.6v1c0,0.4,0.5,11.4,1.6,14.5c1,3,1.4,7.7,1.6,10.3l0.1,1.6l1.2-0.3c0.1,0,7.8-1.5,13.7-2.2h0.4
	c3,5.2,7.1,9.7,11,13.3C67,67,62.2,67.8,56.9,68L56.9,68z M166.2,54.5c-0.4,2.7-0.4,5.2-0.5,7.4c0,1.5-0.1,3.8-0.3,4.1
	c-1.6,0.3-3,0.4-4.5,0.5c-6.7,1.1-10.4,1.5-17.6,1.4c-5.3-0.1-10.2-1-13.7-1.8c3.8-3.6,7.8-8,11-13.3h0.3c5.8,0.5,13.6,2.2,13.7,2.2
	l1.2,0.3l0.1-1.6c0.3-2.7,0.8-7.3,1.6-10.3c1-3.3,1.6-14,1.6-14.5v-1l-1-0.3c-0.3-0.1-1-0.1-1.5-0.3c-1.2-0.1-4.3-0.5-4.7-1.5
	c-0.1-0.3-0.3-0.5-0.3-1c0.5,0.1,1.2,0.1,1.6,0.1c1,0,1.8-0.1,2.7-0.1c1.8-0.3,2.3-1.1,2.6-2.1c0.1-0.5-0.1-1.2-0.8-1.4
	c-0.5-0.1-1.2,0.1-1.4,0.8v0.3c0,0-0.1,0.1-0.5,0.1c-2.3,0.3-3.8,0.1-4.7-0.1l-0.7-0.5c0,0-0.4-0.3-0.4-1.2c-0.1-1-0.1-1.4,3-2.6
	l0.5-0.3c1.8-0.8,5.2-2.2,6.2-1.8c1.1,1.1,3.6,9.1,3.4,11.5c0,1,0.3,2.9,0.8,6.7C165.4,40.7,166.8,50.3,166.2,54.5L166.2,54.5z"/>
</svg>
