<?xml version="1.0" encoding="utf-8"?>
<!-- Generator: Adobe Illustrator 21.0.2, SVG Export Plug-In . SVG Version: 6.00 Build 0)  -->
<svg version="1.1" id="sunglasses" xmlns="http://www.w3.org/2000/svg" xmlns:xlink="http://www.w3.org/1999/xlink" x="0px" y="0px"
	 viewBox="0 0 200 100" style="enable-background:new 0 0 200 100;" xml:space="preserve">
<style type="text/css">
	.st0{fill:#5B5B5B;}
</style>
<path class="st0" d="M81.2,18.8c0-4.2,3.3-7.7,7.4-7.7h21.9c4.1,0,7.4,3.5,7.4,7.7V20h6.4v-3.8c0-5.6-4.4-10.1-9.8-10.1h-29
	c-5.3,0-9.8,4.6-9.8,10.1V20h5.3v-1.1L81.2,18.8L81.2,18.8z M134.2,23.8H65.8c-8.1,0-14.7,6.8-14.7,15.2v39.6
	c0,8.4,6.6,15.2,14.7,15.2h68.5c8.1,0,14.7-6.8,14.7-15.2V39C148.9,30.6,142.3,23.8,134.2,23.8L134.2,23.8z M118.7,45.9h20.6
	c0.6,0,1,0.6,1,1.2c0,0.7-0.5,1.2-1,1.2h-19c1.4,2.4,2.3,5.1,2.8,8h16.1c0.6,0,1,0.6,1,1.2s-0.5,1.2-1,1.2h-15.9
	c0,0.6,0.1,1.1,0.1,1.6c0,2.2-0.3,4.3-0.8,6.4h16.6c0.6,0,1,0.6,1,1.2c0,0.7-0.5,1.2-1,1.2h-17.5c-1.1,2.9-2.8,5.7-5,8h22.4
	c0.6,0,1,0.6,1,1.2c0,0.7-0.5,1.2-1,1.2h-25c-3.9,2.9-8.5,4.8-13.8,4.8c-5.1,0-9.9-1.8-13.8-4.8H60.4c-0.6,0-1-0.6-1-1.2
	s0.5-1.2,1-1.2h23.6c-2.2-2.3-3.9-5-5-8H60.4c-0.6,0-1-0.6-1-1.2c0-0.7,0.5-1.2,1-1.2h17.8c-0.6-2-0.8-4.1-0.8-6.4
	c0-0.6,0-1.1,0.1-1.6h-17c-0.6,0-1-0.6-1-1.2s0.5-1.2,1-1.2h17.4c0.5-2.8,1.5-5.6,2.8-8H60.4c-0.6,0-1-0.6-1-1.2
	c0-0.7,0.5-1.2,1-1.2h21.7c2.6-3.6,6.3-6.4,10.4-8H60.4c-0.6,0-1-0.6-1-1.2c0-0.7,0.5-1.2,1-1.2h78.8c0.6,0,1,0.6,1,1.2
	c0,0.7-0.5,1.2-1,1.2h-31C112.4,39.5,116,42.3,118.7,45.9L118.7,45.9z M104.7,42.4h-8.6v11.4h-11v9h11v11.3h8.6V62.8h10.9v-9h-10.9
	V42.4z"/>
</svg>
