<?xml version="1.0" encoding="utf-8"?>
<!-- Generator: Adobe Illustrator 24.0.1, SVG Export Plug-In . SVG Version: 6.00 Build 0)  -->
<svg version="1.1" id="content" xmlns="http://www.w3.org/2000/svg" xmlns:xlink="http://www.w3.org/1999/xlink" x="0px" y="0px"
	 viewBox="0 0 468 180" style="enable-background:new 0 0 468 180;" xml:space="preserve">
<style type="text/css">
	.st0{fill:#008FBE;}
	.st1{fill:#00539D;}
</style>
<g>
	<path class="st0" d="M23,40.8h25.3v8.1H31.7v6h16.6V63H31.7v6.2h16.6v8.1H23V40.8z"/>
	<path class="st0" d="M60.3,63.4l-9.2-13.1H61l4.6,6.8l4.5-6.8h9.8l-9.2,13.2l10,13.9h-10l-5.2-7.2l-5,7.2h-10L60.3,63.4z"/>
	<path class="st0" d="M91.4,74.4v13.8H83V50.3h8.4v3.4c1.6-2.4,4.1-3.9,7.7-3.9c6.5,0,12.5,5.4,12.5,14.1c0,8.8-6.1,14.1-12.4,14.1
		C95.7,77.9,93,76.7,91.4,74.4z M103.2,63.8c0-3.4-2.8-6.1-6.1-6.1c-3.4,0-6.1,2.7-6.1,6.1s2.8,6.1,6.1,6.1
		C100.5,69.9,103.2,67.2,103.2,63.8z"/>
	<path class="st0" d="M115.4,37.9h8.4v39.5h-8.4V37.9z"/>
	<path class="st0" d="M127.6,63.9c0-7.8,6-14.1,14.5-14.1c8.3,0,14.5,6.3,14.5,14.1c0,7.8-6,14-14.5,14
		C133.6,77.9,127.6,71.6,127.6,63.9z M148.3,63.8c0-3.4-2.8-6.1-6.1-6.1s-6.1,2.7-6.1,6.1s2.8,6.1,6.1,6.1S148.3,67.2,148.3,63.8z"
		/>
	<path class="st0" d="M160.6,50.3h8.3v3.8c1.4-3.1,4.1-4.4,7.6-4.4c1.8,0,3.3,0.5,4.6,1.1l-2.9,8.4c-0.8-0.6-2.3-1.1-3.8-1.1
		c-3.3,0-5.4,1.7-5.4,6v13.3h-8.4V50.3z"/>
	<path class="st0" d="M181.2,63.9c0-7.8,6.1-14.1,14.2-14.1c8.3,0,14.1,6,14.1,13.9v3h-20.2c0.9,2.7,3.2,4.2,6.3,4.2
		c2.6,0,4.5-1.1,5.6-2.9l6.8,4c-2.8,3.7-6.5,5.9-12.5,5.9C186.7,77.9,181.2,71.7,181.2,63.9z M189.7,60.4h11.6
		c-0.9-2.4-3-3.7-5.7-3.7C192.8,56.8,190.7,58.2,189.7,60.4z"/>
	<path class="st1" d="M224.8,37.9h8.3v15.5c1.7-2.3,4.2-3.6,7.2-3.6c6,0,9.9,4,9.9,10.6v17h-8.7V62.1c0-3.1-1.4-4.9-4.1-4.9
		c-2.5,0-4.3,1.8-4.3,5.3v14.9h-8.3V37.9z"/>
	<path class="st1" d="M254.1,63.9c0-7.8,6.1-14.1,14.2-14.1c8.3,0,14.1,6,14.1,13.9v3h-20.2c0.9,2.7,3.2,4.2,6.3,4.2
		c2.6,0,4.5-1.1,5.6-2.9l6.8,4c-2.8,3.7-6.5,5.9-12.5,5.9C259.5,77.9,254.1,71.7,254.1,63.9z M262.5,60.4h11.6
		c-0.9-2.4-3-3.7-5.7-3.7C265.7,56.8,263.6,58.2,262.5,60.4z"/>
	<path class="st1" d="M286.2,50.3h8.3v3.8c1.4-3.1,4.1-4.4,7.6-4.4c1.8,0,3.3,0.5,4.6,1.1l-2.9,8.4c-0.8-0.6-2.3-1.1-3.8-1.1
		c-3.3,0-5.4,1.7-5.4,6v13.3h-8.4V50.3z"/>
	<path class="st1" d="M306.9,63.9c0-7.8,6-14.1,14.5-14.1c8.3,0,14.5,6.3,14.5,14.1c0,7.8-6,14-14.5,14
		C312.9,77.9,306.9,71.6,306.9,63.9z M327.5,63.8c0-3.4-2.8-6.1-6.1-6.1s-6.1,2.7-6.1,6.1s2.8,6.1,6.1,6.1S327.5,67.2,327.5,63.8z"
		/>
	<path class="st1" d="M344.1,38.1c3,0,5.1,2.1,5.1,5.1c0,2.9-2.1,5-5.1,5c-3,0-5-2.1-5-5C339.1,40.2,341.2,38.1,344.1,38.1z
		 M339.8,50.3h8.7v27.1h-8.7V50.3z"/>
	<path class="st1" d="M352.4,63.9c0-8,6.1-14.1,14.2-14.1c6.6,0,11.4,3.6,13.5,8.9l-7.9,3c-0.8-2.5-3-4-5.5-4c-3.3,0-6,2.8-6,6.2
		c0,3.3,2.8,6.1,6,6.1c2.6,0,4.6-1.6,5.5-3.9l8.1,3.2c-2.5,5.1-7,8.7-13.7,8.7C358.5,77.9,352.4,71.8,352.4,63.9z"/>
	<path class="st0" d="M21.9,124.1c0-8,6.1-14.1,14.2-14.1c6.6,0,11.4,3.6,13.5,8.9l-7.9,3c-0.8-2.5-3-4-5.5-4c-3.3,0-6,2.8-6,6.2
		c0,3.3,2.8,6.1,6,6.1c2.6,0,4.6-1.6,5.5-3.9l8.1,3.2c-2.5,5.1-7,8.7-13.7,8.7C28,138.2,21.9,132,21.9,124.1z"/>
	<path class="st0" d="M52.1,130c0-5.6,4.8-9.2,12.2-9.2h6.2v-0.2c0-2.3-1.6-3.8-4.6-3.8c-2.6,0-4.2,1-5.1,2.8l-8-3.6
		c2.9-3.7,6.8-6.2,13-6.2c8.2,0,12.8,4.1,12.8,11.1v16.6h-8.1V134c-1.8,2.6-5.2,4.2-9.3,4.2C55.8,138.2,52.1,135,52.1,130z
		 M70.7,127.3v-0.6h-5.2c-3.2,0-4.5,1.1-4.5,2.6c0,1.5,1.1,2.2,3.2,2.2C67,131.5,69.9,129.6,70.7,127.3z"/>
	<path class="st0" d="M83.3,110.5h8.3v3.8c1.4-3.1,4.1-4.4,7.6-4.4c1.8,0,3.3,0.5,4.6,1.1l-2.9,8.4c-0.8-0.6-2.3-1.1-3.8-1.1
		c-3.3,0-5.4,1.7-5.4,6v13.3h-8.4V110.5z"/>
	<path class="st0" d="M103.9,124.1c0-7.8,6.1-14.1,14.2-14.1c8.3,0,14.1,6,14.1,13.9v3h-20.2c0.9,2.7,3.2,4.2,6.3,4.2
		c2.6,0,4.5-1.1,5.6-2.9l6.8,4c-2.8,3.7-6.5,5.9-12.5,5.9C109.4,138.1,103.9,131.9,103.9,124.1z M112.4,120.6h11.6
		c-0.9-2.4-3-3.7-5.7-3.7C115.5,117,113.4,118.4,112.4,120.6z"/>
	<path class="st0" d="M135.4,124.1c0-7.8,6.1-14.1,14.2-14.1c8.3,0,14.1,6,14.1,13.9v3h-20.2c0.9,2.7,3.2,4.2,6.3,4.2
		c2.6,0,4.5-1.1,5.6-2.9l6.8,4c-2.8,3.7-6.5,5.9-12.5,5.9C140.9,138.1,135.4,131.9,135.4,124.1z M143.9,120.6h11.6
		c-0.9-2.4-3-3.7-5.7-3.7C147,117,144.9,118.4,143.9,120.6z"/>
	<path class="st0" d="M167.5,110.5h8.3v3.8c1.4-3.1,4.1-4.4,7.6-4.4c1.8,0,3.3,0.5,4.6,1.1l-2.9,8.4c-0.8-0.6-2.3-1.1-3.8-1.1
		c-3.3,0-5.4,1.7-5.4,6v13.3h-8.4V110.5z"/>
	<path class="st0" d="M188.1,130.7l8.5-2.4c0.8,2.2,2.8,3.3,5.1,3.3c2.2,0,3.3-1,3.3-2.1c0-1.5-2.5-1.9-5.8-2.6
		c-4.6-0.9-9.8-2.3-9.8-8.2c0-4.9,4.8-8.9,11.7-8.8c6.3,0,9.7,2.5,12.4,6.5l-8,2.5c-0.8-1.7-2.3-2.6-4.4-2.6c-2.1,0-3.1,0.7-3.1,1.8
		c0,1.3,2,1.7,5.7,2.4c4.6,0.9,10.1,2.4,10.1,8.4c0,4.5-4,9.3-12.2,9.3C194.4,138.2,190.1,135.4,188.1,130.7z"/>
</g>
</svg>
