<?xml version="1.0" encoding="utf-8"?>
<!-- Generator: Adobe Illustrator 24.0.1, SVG Export Plug-In . SVG Version: 6.00 Build 0)  -->
<svg version="1.1" id="content" xmlns="http://www.w3.org/2000/svg" xmlns:xlink="http://www.w3.org/1999/xlink" x="0px" y="0px"
	 viewBox="0 0 468 180" style="enable-background:new 0 0 468 180;" xml:space="preserve">
<style type="text/css">
	.st0{fill:#008FBE;}
	.st1{fill:#00539D;}
</style>
<g>
	<path class="st0" d="M21.6,40.8h8.9l5.8,22.6l6.3-22.6H51l6.3,22.6l5.8-22.6h8.8L61.6,77.4h-8.4l-6.4-23.1l-6.3,23.1h-8.7
		L21.6,40.8z"/>
	<path class="st0" d="M70.8,63.9c0-7.8,6.1-14.1,14.2-14.1c8.3,0,14.1,6,14.1,13.9v3H79c0.9,2.7,3.2,4.2,6.3,4.2
		c2.6,0,4.5-1.1,5.6-2.9l6.8,4c-2.8,3.7-6.5,5.9-12.5,5.9C76.3,77.9,70.8,71.7,70.8,63.9z M79.2,60.4h11.6c-0.9-2.4-3-3.7-5.7-3.7
		C82.4,56.8,80.3,58.2,79.2,60.4z"/>
	<path class="st0" d="M114.4,37.9h8.3v15.5c1.7-2.3,4.2-3.6,7.2-3.6c6,0,9.9,4,9.9,10.6v17h-8.7V62.1c0-3.1-1.4-4.9-4.1-4.9
		c-2.5,0-4.3,1.8-4.3,5.3v14.9h-8.3V37.9z"/>
	<path class="st0" d="M148.7,38.1c3,0,5.1,2.1,5.1,5.1c0,2.9-2.1,5-5.1,5c-3,0-5-2.1-5-5C143.7,40.2,145.7,38.1,148.7,38.1z
		 M144.4,50.3h8.7v27.1h-8.7V50.3z"/>
	<path class="st0" d="M157.8,50.3h8.3v3.8c1.4-3.1,4.1-4.4,7.6-4.4c1.8,0,3.3,0.5,4.6,1.1l-2.9,8.4c-0.8-0.6-2.3-1.1-3.8-1.1
		c-3.3,0-5.4,1.7-5.4,6v13.3h-8.4V50.3z"/>
	<path class="st0" d="M178.4,63.9c0-7.8,6.1-14.1,14.2-14.1c8.3,0,14.1,6,14.1,13.9v3h-20.2c0.9,2.7,3.2,4.2,6.3,4.2
		c2.6,0,4.5-1.1,5.6-2.9l6.8,4c-2.8,3.7-6.5,5.9-12.5,5.9C183.9,77.9,178.4,71.7,178.4,63.9z M186.9,60.4h11.6
		c-0.9-2.4-3-3.7-5.7-3.7C190,56.8,187.9,58.2,186.9,60.4z"/>
	<path class="st0" d="M22.2,119.3c0-10.7,8-18.8,18.8-18.8c7.1,0,13,3.6,16.3,9l-7.7,4.9c-1.7-3.3-4.6-5.3-8.6-5.3
		c-5.8,0-9.9,4.6-9.9,10.2c0,5.6,4,10.1,9.8,10.1c4.4,0,7.4-2.5,8.9-6l8.1,4.3c-3.1,6.1-9.1,10.3-16.9,10.3
		C29.7,138.1,22.2,129.7,22.2,119.3z"/>
	<path class="st0" d="M59.6,119.3c0-10.4,8.3-18.8,18.7-18.8s18.8,8.4,18.8,18.8c0,10.4-8.2,18.8-18.8,18.8
		C67.9,138.1,59.6,129.7,59.6,119.3z M88.3,119.3c0-5.6-4.3-10.2-10-10.2c-5.7,0-9.9,4.6-9.9,10.2c0,5.6,4.2,10.2,9.9,10.2
		C84.1,129.5,88.3,124.9,88.3,119.3z"/>
	<path class="st0" d="M96.9,101h9.1l8.6,24.7l8.7-24.7h9.1l-13.5,36.6h-8.4L96.9,101z"/>
	<path class="st0" d="M135.6,101h8.8v36.6h-8.8V101z"/>
	<path class="st0" d="M150.1,101h13c11.4,0,19.1,7.9,19.1,18.3c0,10.4-8,18.3-18.9,18.3h-13.1V101z M158.8,109.1v20.3h4
		c6.4,0,10.5-4.5,10.5-10.1c0-5.8-3.8-10.2-10.6-10.2H158.8z"/>
	<path class="st0" d="M187.1,121.2h18.6v7.2h-18.6V121.2z"/>
	<path class="st0" d="M218.9,137.6v-23.8c-1.4,2.7-4.4,4.1-7.8,4.1h-1.1v-8.6h0.3c5.9,0,8.9-2.6,8.9-8.4h8.4v36.6H218.9z"/>
	<path class="st0" d="M232.5,135.7l4-7.7c1.6,1.1,3.7,1.9,6.1,1.9c5.2,0,7.9-2.3,8.6-8.1c-1.4,2.4-3.7,3.7-7.4,3.7
		c-6.2,0-11.4-4.7-11.4-12.3c0-7.4,5.6-12.7,13.3-12.7c4.8,0,7.7,1.7,10.1,4.7c2.3,2.8,3.5,6.6,3.5,13.3c0,12.2-5,19.7-16.9,19.7
		C238.7,138.2,235.1,137.4,232.5,135.7z M250.4,113.2c0-2.7-2.1-4.8-4.7-4.8c-2.6,0-4.8,2.2-4.8,4.8c0,2.8,2.2,4.7,4.8,4.7
		C248.4,117.9,250.4,115.8,250.4,113.2z"/>
	<path class="st1" d="M296.4,123.5h-12v14.1h-8.8V101h8.8v13.9h12V101h8.8v36.6h-8.8V123.5z"/>
	<path class="st1" d="M309.3,124.1c0-7.8,6.1-14.1,14.2-14.1c8.3,0,14.1,6,14.1,13.9v3h-20.2c0.9,2.7,3.2,4.2,6.3,4.2
		c2.6,0,4.5-1.1,5.6-2.9l6.8,4c-2.8,3.7-6.5,5.9-12.5,5.9C314.8,138.1,309.3,131.9,309.3,124.1z M317.7,120.6h11.6
		c-0.9-2.4-3-3.7-5.7-3.7C320.9,117,318.8,118.4,317.7,120.6z"/>
	<path class="st1" d="M341.4,110.5h8.3v3.8c1.4-3.1,4.1-4.4,7.6-4.4c1.8,0,3.3,0.5,4.6,1.1l-2.9,8.4c-0.8-0.6-2.3-1.1-3.8-1.1
		c-3.3,0-5.4,1.7-5.4,6v13.3h-8.4V110.5z"/>
	<path class="st1" d="M362.1,124.1c0-7.8,6-14.1,14.5-14.1c8.3,0,14.5,6.3,14.5,14.1c0,7.8-6,14-14.5,14
		C368.1,138.1,362.1,131.8,362.1,124.1z M382.8,124c0-3.4-2.8-6.1-6.1-6.1s-6.1,2.7-6.1,6.1s2.8,6.1,6.1,6.1S382.8,127.4,382.8,124z
		"/>
	<path class="st1" d="M394.4,124.1c0-7.8,6.1-14.1,14.2-14.1c8.3,0,14.1,6,14.1,13.9v3h-20.2c0.9,2.7,3.2,4.2,6.3,4.2
		c2.6,0,4.5-1.1,5.6-2.9l6.8,4c-2.8,3.7-6.5,5.9-12.5,5.9C399.8,138.1,394.4,131.9,394.4,124.1z M402.8,120.6h11.6
		c-0.9-2.4-3-3.7-5.7-3.7C405.9,117,403.8,118.4,402.8,120.6z"/>
	<path class="st1" d="M425,130.7l8.5-2.4c0.8,2.2,2.8,3.3,5.1,3.3c2.2,0,3.3-1,3.3-2.1c0-1.5-2.5-1.9-5.8-2.6
		c-4.6-0.9-9.8-2.3-9.8-8.2c0-4.9,4.8-8.9,11.7-8.8c6.3,0,9.7,2.5,12.4,6.5l-8,2.5c-0.8-1.7-2.3-2.6-4.4-2.6c-2.1,0-3.1,0.7-3.1,1.8
		c0,1.3,2,1.7,5.7,2.4c4.6,0.9,10.1,2.4,10.1,8.4c0,4.5-4,9.3-12.2,9.3C431.2,138.2,427,135.4,425,130.7z"/>
</g>
</svg>
