<svg xmlns="http://www.w3.org/2000/svg" viewBox="0 0 88 88" height="88" width="88" style="display: block; height: 100%; width: 100%;"><title>Money_Payment_4</title><desc>Money_Payment_4</desc>
    <defs>
        <clipPath id="a___-1741977710">
            <path d="M74.7 24.91L49.62 0H41.5L4.2 37.21H0l30 30a8.19 8.19 0 0 0 11.58 0l30-30z" fill="none"></path>
        </clipPath>
    </defs>
    <path d="M0 37.21h71.49V88H0z" style="fill: rgb(30, 150, 190);"></path>
    <path d="M71.5 37.21l-26.9-26.9a12.52 12.52 0 0 0-17.71 0L0 37.21z" style="fill: rgb(163, 233, 236);"></path>
    <path d="M71.5 37.21l-26.9-26.9a12.52 12.52 0 0 0-17.71 0L0 37.21z" style="fill: rgb(163, 233, 236);"></path>
    <path d="M67.3 37.21L43.56 13.47a11.05 11.05 0 0 0-15.63 0L4.2 37.21H0l30 30a8.19 8.19 0 0 0 11.58 0l30-30z"></path>
    <path fill="none" d="M0 37.21h71.49V88H0z"></path>
    <g clip-path="url(#a___-1741977710)">
        <path d="M74.698 24.918L25.627 74.332.543 49.423 49.614.01z" style="fill: rgb(163, 233, 236);"></path>
        <path d="M53.83 42.32a1 1 0 0 1-1-1.25A15.81 15.81 0 0 0 48.72 26a15.81 15.81 0 0 0-15.11-4 1 1 0 0 1-1-1.67l14-14.09a1 1 0 0 1 1.41 0 2.34 2.34 0 0 0 1.59.65 2.24 2.24 0 0 0 1.59-.66 1 1 0 0 1 .71-.3 1 1 0 0 1 .7.29L68.5 21.93a1 1 0 0 1 0 1.41 2.25 2.25 0 0 0 0 3.18 1 1 0 0 1 0 1.41L54.54 42a1 1 0 0 1-.71.32zm-3.7-17.74a17.81 17.81 0 0 1 5.17 13.83l11.18-11.26a4.26 4.26 0 0 1 0-4.43L51.86 8.22a4.22 4.22 0 0 1-2.21.63 4.22 4.22 0 0 1-2.2-.61l-11.2 11.25a17.79 17.79 0 0 1 13.87 5.08z" style="fill: rgb(30, 150, 190);"></path>
        <path d="M37.63 50.8a13.64 13.64 0 0 1 0-27.28 13.64 13.64 0 0 1 .09 27.28zm0-25.28a11.64 11.64 0 0 0 0 23.28 11.64 11.64 0 0 0 0-23.28zm0-1z" style="fill: rgb(30, 150, 190);"></path>
        <path d="M23.31 68.43a1 1 0 0 1-.7-.29L6.75 52.39a1 1 0 0 1 0-1.41 2.25 2.25 0 0 0 0-3.18 1 1 0 0 1 0-1.41l14-14.09a1 1 0 0 1 1.68 1 15.81 15.81 0 0 0 4.14 15.08 15.81 15.81 0 0 0 15.11 4 1 1 0 0 1 1 1.67l-14 14.09a1 1 0 0 1-1.41 0 2.25 2.25 0 0 0-3.18 0 1 1 0 0 1-.71.3zM8.78 51.6l14.61 14.5a4.26 4.26 0 0 1 4.43 0L39 54.83a17.8 17.8 0 0 1-13.87-5.08 17.81 17.81 0 0 1-5.18-13.84L8.77 47.17a4.27 4.27 0 0 1 .01 4.43z" style="fill: rgb(30, 150, 190);"></path>
        <circle cx="54.34" cy="20.33" r="2.26" transform="rotate(-45.2 54.34 20.322)" style="fill: rgb(30, 150, 190);"></circle>
        <path d="M47.236 18.92l5.658-5.698 1.42 1.409-5.66 5.698zm7.142 7.09l5.658-5.699 1.419 1.41-5.658 5.697z" style="fill: rgb(30, 150, 190);"></path>
        <circle cx="20.63" cy="54.27" r="2.26" transform="rotate(-45.2 20.635 54.265)" style="fill: rgb(30, 150, 190);"></circle>
        <path d="M13.525 52.865l5.659-5.698 1.419 1.409-5.659 5.698zm7.142 7.089l5.658-5.698 1.42 1.41-5.659 5.697z" style="fill: rgb(30, 150, 190);"></path>
    </g>
</svg>