<?xml version="1.0" encoding="utf-8"?>
<!-- Generator: Adobe Illustrator 16.0.3, SVG Export Plug-In . SVG Version: 6.00 Build 0)  -->
<!DOCTYPE svg PUBLIC "-//W3C//DTD SVG 1.1//EN" "http://www.w3.org/Graphics/SVG/1.1/DTD/svg11.dtd">
<svg version="1.1" id="Layer_1" xmlns="http://www.w3.org/2000/svg" xmlns:xlink="http://www.w3.org/1999/xlink" x="0px" y="0px"
	 width="160px" height="30px" viewBox="0 0 160 30" enable-background="new 0 0 160 30" xml:space="preserve">
<g>
	<path fill="#FFFFFF" d="M24.041,0.124c0.875,0.338,1.433,1.154,1.433,2.05v25.653c0,0.895-0.557,1.711-1.433,2.05
		c-0.279,0.119-0.577,0.159-0.876,0.159c-0.617,0-1.194-0.219-1.652-0.637l-8.776-8.438L3.96,29.398
		c-0.458,0.418-1.035,0.657-1.652,0.657c-0.299,0-0.597-0.06-0.876-0.179C0.557,29.538,0,28.721,0,27.826V2.173
		c0-0.896,0.557-1.711,1.433-2.05c0.279-0.12,0.577-0.179,0.876-0.179c0.617,0,20.24,0,20.856,0
		C23.464-0.056,23.762,0.004,24.041,0.124z M2.547,2.492v24.717l8.418-8.08l1.771-1.692l1.771,1.692l8.418,8.08V2.492H2.547z"/>
	<path fill="#FFFFFF" d="M31.506,21.077l1.889-0.366V7.972l-1.889-0.366V5.461h14.128v4.864h-2.73l-0.158-2.121h-5.791v4.888h6.217
		v2.742h-6.217v4.876l1.902,0.366v2.133h-7.351V21.077z"/>
	<path fill="#FFFFFF" d="M46.674,23.21v-2.133l1.89-0.366V7.972l-1.89-0.366V5.461h1.89h3.56h1.901v2.145l-1.901,0.366v12.507h5.01
		l0.17-2.231h2.719v4.962H46.674z"/>
	<path fill="#FFFFFF" d="M60.975,21.077l1.268-0.183l5.4-15.432h3.645l5.364,15.432l1.268,0.183v2.133h-6.046v-2.133l1.232-0.22
		l-0.78-2.438H66.57l-0.78,2.438l1.231,0.22v2.133h-6.046V21.077z M67.411,15.798h4.072l-2-6.253h-0.073L67.411,15.798z"/>
	<path fill="#FFFFFF" d="M91.963,5.461v4.729h-2.73l-0.146-1.987H85.82V20.71l1.901,0.366v2.133h-7.363v-2.133l1.902-0.366V8.204
		h-3.254l-0.146,1.987h-2.719V5.461H91.963z"/>
	<path fill="#FFFFFF" d="M101.188,5.461c2.088,0,3.718,0.406,4.888,1.219c1.17,0.813,1.755,2.028,1.755,3.645
		c0,0.821-0.217,1.554-0.652,2.2c-0.435,0.646-1.066,1.132-1.895,1.457c1.064,0.228,1.862,0.715,2.395,1.462
		c0.532,0.749,0.799,1.613,0.799,2.597c0,1.698-0.561,2.984-1.683,3.858c-1.121,0.874-2.71,1.31-4.767,1.31h-8.728v-2.133
		l1.89-0.366V7.972l-1.89-0.366V5.461h1.89H101.188z M98.75,12.897h2.56c0.951,0,1.682-0.195,2.194-0.585
		c0.512-0.39,0.768-0.959,0.768-1.707c0-0.821-0.258-1.426-0.774-1.816s-1.286-0.585-2.31-0.585H98.75V12.897z M98.75,15.359v5.12
		h3.279c0.942,0,1.662-0.205,2.158-0.615c0.495-0.411,0.743-1.018,0.743-1.822c0-0.87-0.211-1.534-0.634-1.993s-1.089-0.689-2-0.689
		H98.75z"/>
	<path fill="#FFFFFF" d="M125.614,14.47c0,2.601-0.743,4.75-2.23,6.448c-1.487,1.699-3.434,2.548-5.839,2.548
		c-2.397,0-4.333-0.849-5.809-2.548c-1.475-1.698-2.212-3.848-2.212-6.448v-0.269c0-2.584,0.735-4.729,2.207-6.436
		c1.471-1.707,3.405-2.56,5.803-2.56c2.405,0,4.354,0.854,5.845,2.56c1.492,1.707,2.237,3.852,2.237,6.436V14.47z M122.067,14.177
		c0-1.836-0.382-3.327-1.146-4.474c-0.764-1.146-1.894-1.719-3.389-1.719c-1.496,0-2.611,0.569-3.347,1.707
		c-0.735,1.138-1.103,2.633-1.103,4.485v0.293c0,1.869,0.372,3.375,1.115,4.516c0.744,1.142,1.859,1.713,3.346,1.713
		c1.503,0,2.633-0.571,3.389-1.713c0.756-1.142,1.134-2.647,1.134-4.516V14.177z"/>
	<path fill="#FFFFFF" d="M142.874,14.47c0,2.601-0.744,4.75-2.23,6.448c-1.487,1.699-3.434,2.548-5.839,2.548
		c-2.398,0-4.333-0.849-5.809-2.548c-1.475-1.698-2.212-3.848-2.212-6.448v-0.269c0-2.584,0.736-4.729,2.207-6.436
		c1.47-1.707,3.405-2.56,5.802-2.56c2.405,0,4.354,0.854,5.845,2.56c1.491,1.707,2.237,3.852,2.237,6.436V14.47z M139.326,14.177
		c0-1.836-0.382-3.327-1.146-4.474c-0.764-1.146-1.894-1.719-3.389-1.719c-1.496,0-2.611,0.569-3.346,1.707
		c-0.736,1.138-1.104,2.633-1.104,4.485v0.293c0,1.869,0.372,3.375,1.115,4.516c0.744,1.142,1.859,1.713,3.347,1.713
		c1.503,0,2.633-0.571,3.389-1.713s1.134-2.647,1.134-4.516V14.177z"/>
	<path fill="#FFFFFF" d="M143.214,21.077l1.89-0.366V7.972l-1.89-0.366V5.461h7.253v2.145l-1.804,0.366v4.742h1.548l3.413-4.961
		l-1.048-0.146V5.461h7.034v2.145l-1.926,0.33l-4.364,5.827l4.9,7.009l1.78,0.305v2.133h-7.034v-2.133l1.097-0.147l-3.413-5.131
		h-1.987v4.912l1.804,0.366v2.133h-7.253V21.077z"/>
</g>
</svg>
