<?xml version="1.0" encoding="utf-8"?>
<!-- Generator: Adobe Illustrator 24.0.1, SVG Export Plug-In . SVG Version: 6.00 Build 0)  -->
<svg version="1.1" id="Layer_1" xmlns="http://www.w3.org/2000/svg" xmlns:xlink="http://www.w3.org/1999/xlink" x="0px" y="0px"
	 viewBox="0 0 171 44" style="enable-background:new 0 0 171 44;" xml:space="preserve">
<style type="text/css">
	.st0{fill:#12C2EC;}
	.st1{fill:#FFFFFF;}
</style>
<g>
	<rect class="st0" width="171" height="44"/>
	<g>
		<path class="st1" d="M27.4,30.1l-1-3.4h-5.2l-1,3.4h-3.3L22,15.7h3.7l5.1,14.4H27.4z M25.6,24.1c-1-3.1-1.5-4.9-1.6-5.3
			c-0.1-0.4-0.2-0.7-0.3-1c-0.2,0.8-0.8,2.9-1.9,6.2h3.8V24.1z"/>
		<path class="st1" d="M42.4,20.2c0,1.5-0.5,2.7-1.5,3.6c-1,0.8-2.3,1.2-4.1,1.2h-1.3v5.1h-3V15.7h4.6c1.7,0,3.1,0.4,4,1.1
			C42,17.6,42.4,18.7,42.4,20.2z M35.5,22.5h1c0.9,0,1.6-0.2,2.1-0.6s0.7-0.9,0.7-1.6s-0.2-1.2-0.6-1.6c-0.4-0.3-1-0.5-1.8-0.5h-1.4
			V22.5z"/>
		<path class="st1" d="M55.1,20.2c0,1.5-0.5,2.7-1.5,3.6c-1,0.8-2.3,1.2-4.1,1.2h-1.3v5.1h-3V15.7h4.6c1.7,0,3.1,0.4,4,1.1
			C54.6,17.6,55.1,18.7,55.1,20.2z M48.2,22.5h1c0.9,0,1.6-0.2,2.1-0.6S52,21,52,20.3s-0.2-1.2-0.6-1.6c-0.4-0.3-1-0.5-1.8-0.5h-1.4
			V22.5z"/>
		<path class="st1" d="M57.8,30.1V15.7h3v11.9h5.8v2.5C66.6,30.1,57.8,30.1,57.8,30.1z"/>
		<path class="st1" d="M73.6,21.6l3-5.9h3.3l-4.8,8.8v5.6h-3v-5.5l-4.8-8.9h3.3L73.6,21.6z"/>
		<path class="st1" d="M92.5,30.1h-3V18.3h-3.9v-2.5h10.9v2.5h-3.9L92.5,30.1L92.5,30.1z"/>
		<path class="st1" d="M111.7,22.9c0,2.4-0.6,4.2-1.8,5.5c-1.2,1.3-2.9,1.9-5.1,1.9s-3.9-0.6-5.1-1.9S98,25.3,98,22.9
			s0.6-4.2,1.8-5.5c1.2-1.3,2.9-1.9,5.1-1.9s3.9,0.6,5.1,1.9C111.1,18.7,111.7,20.5,111.7,22.9z M101.2,22.9c0,1.6,0.3,2.8,0.9,3.6
			c0.6,0.8,1.5,1.2,2.7,1.2c2.4,0,3.6-1.6,3.6-4.8s-1.2-4.9-3.6-4.9c-1.2,0-2.1,0.4-2.7,1.2C101.5,20.1,101.2,21.3,101.2,22.9z"/>
		<path class="st1" d="M126.6,22.8c0,2.4-0.7,4.2-2,5.4c-1.3,1.3-3.3,1.9-5.8,1.9h-4.1V15.7h4.5c2.3,0,4.2,0.6,5.5,1.9
			S126.6,20.5,126.6,22.8z M123.4,22.9c0-3.1-1.4-4.6-4.1-4.6h-1.6v9.4h1.3C122,27.6,123.4,26,123.4,22.9z"/>
		<path class="st1" d="M138.4,30.1l-1-3.4h-5.2l-1,3.4h-3.3l5.1-14.4h3.7l5.1,14.4H138.4z M136.6,24.1c-1-3.1-1.5-4.9-1.6-5.3
			c-0.1-0.4-0.2-0.7-0.3-1c-0.2,0.8-0.8,2.9-1.9,6.2h3.8V24.1z"/>
		<path class="st1" d="M147.9,21.6l3-5.9h3.3l-4.8,8.8v5.6h-3v-5.5l-4.8-8.9h3.3L147.9,21.6z"/>
	</g>
</g>
</svg>
