<?xml version="1.0" encoding="utf-8"?>
<!-- Generator: Adobe Illustrator 24.0.1, SVG Export Plug-In . SVG Version: 6.00 Build 0)  -->
<svg version="1.1" id="Layer_1" xmlns="http://www.w3.org/2000/svg" xmlns:xlink="http://www.w3.org/1999/xlink" x="0px" y="0px"
	 viewBox="0 0 400.4 78.1" style="enable-background:new 0 0 400.4 78.1;" xml:space="preserve">
<style type="text/css">
	.st0{fill:#008FBE;}
	.st1{font-family:'SharpSans-Extrabold';}
	.st2{font-size:34px;}
	.st3{fill:#003DA6;}
</style>
<text transform="matrix(1 0 0 1 10.396 31.7923)" class="st0 st1 st2">Now hiring</text>
<text transform="matrix(1 0 0 1 10.396 68.7955)" class="st3 st1 st2">Cardiac RNs.</text>
<g>
	<text transform="matrix(1 0 0 1 10.8125 158.1693)" class="st0 st1" style="font-size:38.6433px;">Nurses with heart</text>
	<text transform="matrix(1 0 0 1 10.8125 194.6599)" class="st0 st1" style="font-size:38.6433px;">make us </text>
	<g>
		<path class="st0" d="M285.7,176.3V173h-5.4v15.9l5.4,5.3l0,0V183c0-3.6,1.8-5,4.7-5c1.3,0,2.2,0.3,2.9,0.7l2-5.3
			c-1-0.4-2.2-0.9-3.6-0.9C288.9,172.7,286.8,173.8,285.7,176.3"/>
		<path class="st0" d="M278.2,183.5c0-6.3-4.7-10.9-11.1-10.9c-1.1,0-2,0.1-3,0.4l4.4,4.4c2.1,0.4,3.7,1.8,4.3,4h-0.2l4.3,4.3h1.4
			L278.2,183.5L278.2,183.5z"/>
		<polygon class="st3" points="280.2,188.9 280.2,194.3 285.7,194.3 		"/>
		<g>
			<path class="st3" d="M267.3,190.1c-3.2,0-5.4-1.7-6.2-4.5h15.7l-4.3-4.3h-11.2c0.9-2.5,3-4.1,5.9-4.1c0.5,0,1,0,1.4,0.1l-4.4-4.4
				c-4.9,1.3-8.2,5.6-8.2,10.7c0,6.2,4.5,11,11.4,11c4.7,0,7.8-1.9,9.9-4.9l-4.5-2.6C271.6,188.9,269.9,190.1,267.3,190.1"/>
			<path class="st3" d="M252.1,189.7c-1.4,0-2.4-0.7-2.4-3v-8.8h5.7v-4.8h-5.7v-7.8l-5.4,3.1v4.6h-4v4.8h4v9c0,5.8,2.7,7.9,7.2,7.9
				c2,0,3.7-0.6,5.1-1.6l-2.6-4.3C253.5,189.4,252.9,189.7,252.1,189.7"/>
			<path class="st3" d="M236.1,189.7c-1.4,0-2.4-0.7-2.4-3v-8.8h5.7v-4.8h-5.7v-7.8l-5.4,3.1v4.6h-4v4.8h4v9c0,5.8,2.7,7.9,7.2,7.9
				c2,0,3.7-0.6,5.1-1.6l-2.6-4.3C237.5,189.4,236.9,189.7,236.1,189.7"/>
			<path class="st3" d="M207.6,181.3c0.9-2.5,3-4.1,5.9-4.1c2.9,0,4.9,1.5,5.7,4.1H207.6z M213.5,172.6c-6.4,0-11.3,4.9-11.3,11.1
				c0,6.2,4.5,11,11.4,11c4.7,0,7.8-1.9,9.9-4.9l-4.5-2.6c-1.1,1.7-2.8,2.9-5.3,2.9c-3.2,0-5.4-1.7-6.2-4.5h17.1v-2
				C224.6,177.3,220,172.6,213.5,172.6"/>
			<path class="st3" d="M190.4,189.4h-6.6v-7.2h6.4c3.5,0,4.9,1.3,4.9,3.5C195.1,188,193.5,189.4,190.4,189.4 M183.8,170.5h6.6
				c3,0,4.4,1.2,4.4,3.2c0,1.9-1.3,3.4-4.3,3.4h-6.7C183.8,177.2,183.8,170.5,183.8,170.5z M197,179.4c2.1-1.2,3.3-3.2,3.3-5.8
				c0-5.1-3.6-8-10.2-8h-12v28.7h12.2c6.5,0,10.5-2.9,10.5-8.5C200.8,182.8,199.5,180.7,197,179.4"/>
		</g>
		<text transform="matrix(1 0 0 1 289.4692 195.157)" class="st0" style="font-family:'SharpSans-Bold'; font-size:38.6433px;">.</text>
	</g>
</g>
</svg>
