<?xml version="1.0" encoding="utf-8"?>
<!-- Generator: Adobe Illustrator 24.0.1, SVG Export Plug-In . SVG Version: 6.00 Build 0)  -->
<svg version="1.1" id="Layer_1" xmlns="http://www.w3.org/2000/svg" xmlns:xlink="http://www.w3.org/1999/xlink" x="0px" y="0px"
	 viewBox="0 0 400.4 78.1" style="enable-background:new 0 0 400.4 78.1;" xml:space="preserve">
<style type="text/css">
	.st0{enable-background:new    ;}
	.st1{fill:#008FBE;}
	.st2{fill:#003DA6;}
</style>
<g>
	<g class="st0">
		<path class="st1" d="M12.9,6.2h7l10.6,16.9V6.2H37v28.2h-6.5L19.4,16.6v17.7h-6.5V6.2z"/>
		<path class="st1" d="M40.6,26.5v-13h6.7v11.8c0,2.4,1,3.7,3.2,3.7c1.9,0,3.2-1.3,3.2-4.1V13.5l6.6,0v20.9l-6.5,0V32
			c-1.3,1.8-3.2,2.8-5.6,2.8C43.5,34.8,40.6,31.8,40.6,26.5z"/>
		<path class="st1" d="M63.9,13.5h6.4v2.9c1.1-2.4,3.2-3.4,5.9-3.4c1.4,0,2.6,0.3,3.5,0.8l-2.2,6.5c-0.6-0.5-1.7-0.9-2.9-0.9
			c-2.6,0-4.2,1.3-4.2,4.6v10.2h-6.5V13.5z"/>
		<path class="st1" d="M79.8,29l6.5-1.9c0.6,1.7,2.1,2.5,3.9,2.5c1.7,0,2.5-0.7,2.5-1.6c0-1.2-1.9-1.5-4.5-2
			c-3.6-0.7-7.6-1.7-7.6-6.3c0-3.7,3.7-6.8,9-6.8c4.9,0,7.5,1.9,9.5,5l-6.2,1.9c-0.6-1.3-1.8-2-3.4-2c-1.6,0-2.4,0.5-2.4,1.4
			c0,1,1.5,1.3,4.4,1.9c3.5,0.7,7.8,1.9,7.8,6.5c0,3.5-3.1,7.2-9.4,7.2C84.6,34.8,81.3,32.7,79.8,29z"/>
		<path class="st1" d="M101.8,23.9c0-6,4.7-10.9,11-10.9c6.4,0,10.9,4.6,10.9,10.7v2.3h-15.5c0.7,2.1,2.4,3.2,4.8,3.2
			c2,0,3.4-0.8,4.3-2.2l5.3,3.1c-2.1,2.9-5,4.6-9.7,4.6C106,34.8,101.8,30,101.8,23.9z M108.3,21.3h8.9c-0.7-1.9-2.3-2.8-4.4-2.8
			C110.7,18.5,109.1,19.6,108.3,21.3z"/>
		<path class="st1" d="M125.4,29l6.5-1.9c0.6,1.7,2.1,2.5,3.9,2.5c1.7,0,2.5-0.7,2.5-1.6c0-1.2-1.9-1.5-4.5-2
			c-3.6-0.7-7.6-1.7-7.6-6.3c0-3.7,3.7-6.8,9-6.8c4.9,0,7.5,1.9,9.5,5l-6.2,1.9c-0.6-1.3-1.8-2-3.4-2c-1.6,0-2.4,0.5-2.4,1.4
			c0,1,1.5,1.3,4.4,1.9c3.5,0.7,7.8,1.9,7.8,6.5c0,3.5-3.1,7.2-9.4,7.2C130.2,34.8,126.9,32.7,125.4,29z"/>
		<path class="st1" d="M155.4,13.5h6.5l3.6,12l4.2-12h5.5l4.1,12.1l3.7-12.1h6.5l-6.9,20.9h-6.1l-4.3-11.9l-4.3,11.9H162L155.4,13.5
			z"/>
		<path class="st1" d="M194.9,4.1c2.3,0,3.9,1.6,3.9,3.9c0,2.2-1.6,3.9-3.9,3.9c-2.3,0-3.9-1.6-3.9-3.9C191,5.7,192.6,4.1,194.9,4.1
			z M191.6,13.5h6.7v20.9h-6.7V13.5z"/>
		<path class="st1" d="M201,13.5h3.6V9l6.4-3.5v8h5.1v5.7H211v6.8c0,2.1,0.7,2.7,1.8,2.7c0.6,0,1.2-0.2,1.7-0.7l2.9,4.9
			c-1.5,1.2-3.4,1.9-5.6,1.9c-4.6,0-7.3-2.1-7.3-8.3v-7.2H201V13.5z"/>
		<path class="st1" d="M219.3,3.9h6.4v11.9c1.3-1.7,3.2-2.8,5.6-2.8c4.6,0,7.6,3.1,7.6,8.2v13.1h-6.7V22.6c0-2.4-1-3.8-3.2-3.8
			c-1.9,0-3.3,1.4-3.3,4.1v11.5h-6.4V3.9z"/>
		<path class="st1" d="M251.1,3.9h6.4v11.9c1.3-1.7,3.2-2.8,5.6-2.8c4.6,0,7.6,3.1,7.6,8.2v13.1H264V22.6c0-2.4-1-3.8-3.2-3.8
			c-1.9,0-3.3,1.4-3.3,4.1v11.5h-6.4V3.9z"/>
		<path class="st1" d="M273.6,23.9c0-6,4.7-10.9,11-10.9c6.4,0,10.9,4.6,10.9,10.7v2.3h-15.5c0.7,2.1,2.4,3.2,4.8,3.2
			c2,0,3.4-0.8,4.3-2.2l5.3,3.1c-2.1,2.9-5,4.6-9.7,4.6C277.8,34.8,273.6,30,273.6,23.9z M280.1,21.3h8.9c-0.7-1.9-2.3-2.8-4.4-2.8
			C282.5,18.5,280.9,19.6,280.1,21.3z"/>
		<path class="st1" d="M297.3,28.5c0-4.3,3.7-7.1,9.4-7.1h4.8v-0.2c0-1.7-1.2-2.9-3.6-2.9c-2,0-3.2,0.7-3.9,2.2l-6.1-2.7
			c2.2-2.8,5.2-4.8,10-4.8c6.3,0,9.9,3.1,9.9,8.5v12.8h-6.2v-2.8c-1.4,2-4,3.2-7.2,3.2C300.2,34.8,297.3,32.4,297.3,28.5z
			 M311.6,26.4V26h-4c-2.4,0-3.5,0.8-3.5,2c0,1.2,0.9,1.7,2.5,1.7C308.8,29.7,311,28.2,311.6,26.4z"/>
		<path class="st1" d="M321.3,13.5h6.4v2.9c1.1-2.4,3.2-3.4,5.9-3.4c1.4,0,2.6,0.3,3.5,0.8l-2.2,6.5c-0.6-0.5-1.7-0.9-2.9-0.9
			c-2.6,0-4.2,1.3-4.2,4.6v10.2h-6.5V13.5z"/>
		<path class="st1" d="M338.5,13.5h3.6V9l6.4-3.5v8h5.1v5.7h-5.1v6.8c0,2.1,0.7,2.7,1.8,2.7c0.6,0,1.2-0.2,1.7-0.7l2.9,4.9
			c-1.5,1.2-3.4,1.9-5.6,1.9c-4.6,0-7.3-2.1-7.3-8.3v-7.2h-3.6V13.5z"/>
	</g>
	<g class="st0">
		<path class="st1" d="M12.6,49h6.5v2.5c1.3-1.9,3.3-2.9,5.7-2.9c2.9,0,5,1.2,6.1,3.4c1.3-2.1,3.6-3.4,6.2-3.4
			c4.9,0,7.5,3.1,7.5,8.1v13.2H38V58c0-2.4-0.9-3.7-3-3.7c-1.9,0-3.1,1.3-3.1,4v11.6h-6.6V58c0-2.4-0.9-3.7-2.9-3.7
			c-1.9,0-3.2,1.3-3.2,4.1v11.5h-6.6V49z"/>
		<path class="st1" d="M47.4,64c0-4.3,3.7-7.1,9.4-7.1h4.8v-0.2c0-1.7-1.2-2.9-3.6-2.9c-2,0-3.2,0.7-3.9,2.2l-6.1-2.7
			c2.2-2.8,5.2-4.8,10-4.8c6.3,0,9.9,3.1,9.9,8.5v12.8h-6.2v-2.8c-1.4,2-4,3.2-7.2,3.2C50.2,70.3,47.4,67.9,47.4,64z M61.7,61.9
			v-0.4h-4c-2.4,0-3.5,0.8-3.5,2c0,1.2,0.9,1.7,2.5,1.7C58.8,65.2,61.1,63.7,61.7,61.9z"/>
		<path class="st1" d="M80.4,62.2l-2.6,3.1v4.6h-6.5V39.4h6.5v18.2l7.2-8.6h7.7L85,58l7.9,11.9h-7.3L80.4,62.2z"/>
		<path class="st1" d="M92,59.4c0-6,4.7-10.9,11-10.9c6.4,0,10.9,4.6,10.9,10.7v2.3H98.3c0.7,2.1,2.4,3.2,4.8,3.2
			c2,0,3.4-0.8,4.3-2.2l5.3,3.1c-2.1,2.9-5,4.6-9.7,4.6C96.3,70.3,92,65.5,92,59.4z M98.5,56.8h8.9c-0.7-1.9-2.3-2.8-4.4-2.8
			C101,54,99.3,55.1,98.5,56.8z"/>
		<path class="st1" d="M125.5,62V49h6.7v11.8c0,2.4,1,3.7,3.2,3.7c1.9,0,3.2-1.3,3.2-4.1V49l6.6,0v20.9l-6.5,0v-2.4
			c-1.3,1.8-3.2,2.8-5.6,2.8C128.4,70.3,125.5,67.2,125.5,62z"/>
		<path class="st1" d="M147.6,64.5l6.5-1.9c0.6,1.7,2.1,2.5,3.9,2.5c1.7,0,2.5-0.7,2.5-1.6c0-1.2-1.9-1.5-4.5-2
			c-3.6-0.7-7.6-1.7-7.6-6.3c0-3.7,3.7-6.8,9-6.8c4.9,0,7.5,1.9,9.5,5l-6.2,1.9c-0.6-1.3-1.8-2-3.4-2c-1.6,0-2.4,0.5-2.4,1.4
			c0,1,1.5,1.3,4.4,1.9c3.5,0.7,7.8,1.9,7.8,6.5c0,3.5-3.1,7.2-9.4,7.2C152.4,70.3,149.1,68.2,147.6,64.5z"/>
	</g>
	<g>
		<path class="st1" d="M285.7,51.5v-3.3h-5.4v15.9l5.4,5.3l0,0V58.3c0-3.6,1.8-5,4.7-5c1.3,0,2.2,0.3,2.9,0.7l2-5.3
			c-1-0.4-2.2-0.9-3.6-0.9C288.9,47.9,286.8,49,285.7,51.5"/>
		<path class="st1" d="M278.2,58.7c0-6.3-4.7-10.9-11.1-10.9c-1.1,0-2,0.1-3,0.4l4.4,4.4c2.1,0.4,3.7,1.8,4.3,4h-0.2l4.3,4.3h1.4
			L278.2,58.7L278.2,58.7z"/>
		<polygon class="st2" points="280.2,64.1 280.2,69.5 285.7,69.5 		"/>
		<g>
			<path class="st2" d="M267.3,65.3c-3.2,0-5.4-1.7-6.2-4.5h15.7l-4.3-4.3h-11.2c0.9-2.5,3-4.1,5.9-4.1c0.5,0,1,0,1.4,0.1l-4.4-4.4
				c-4.9,1.3-8.2,5.6-8.2,10.7c0,6.2,4.5,11,11.4,11c4.7,0,7.8-1.9,9.9-4.9l-4.5-2.6C271.6,64.1,269.9,65.3,267.3,65.3"/>
			<path class="st2" d="M252.1,64.9c-1.4,0-2.4-0.7-2.4-3v-8.8h5.7v-4.8h-5.7v-7.8l-5.4,3.1v4.6h-4V53h4v9c0,5.8,2.7,7.9,7.2,7.9
				c2,0,3.7-0.6,5.1-1.6L254,64C253.5,64.6,252.9,64.9,252.1,64.9"/>
			<path class="st2" d="M236.1,64.9c-1.4,0-2.4-0.7-2.4-3v-8.8h5.7v-4.8h-5.7v-7.8l-5.4,3.1v4.6h-4V53h4v9c0,5.8,2.7,7.9,7.2,7.9
				c2,0,3.7-0.6,5.1-1.6L238,64C237.5,64.6,236.9,64.9,236.1,64.9"/>
			<path class="st2" d="M207.6,56.6c0.9-2.5,3-4.1,5.9-4.1s4.9,1.5,5.7,4.1H207.6z M213.5,47.8c-6.4,0-11.3,4.9-11.3,11.1
				s4.5,11,11.4,11c4.7,0,7.8-1.9,9.9-4.9l-4.5-2.6c-1.1,1.7-2.8,2.9-5.3,2.9c-3.2,0-5.4-1.7-6.2-4.5h17.1v-2
				C224.6,52.5,220,47.8,213.5,47.8"/>
			<path class="st2" d="M190.4,64.6h-6.6v-7.2h6.4c3.5,0,4.9,1.3,4.9,3.5C195.1,63.2,193.5,64.6,190.4,64.6 M183.8,45.8h6.6
				c3,0,4.4,1.2,4.4,3.2c0,1.9-1.3,3.4-4.3,3.4h-6.7V45.8z M197,54.6c2.1-1.2,3.3-3.2,3.3-5.8c0-5.1-3.6-8-10.2-8h-12v28.7h12.2
				c6.5,0,10.5-2.9,10.5-8.5C200.8,58,199.5,55.9,197,54.6"/>
		</g>
		<g class="st0">
			<path class="st1" d="M294.4,64.1c2,0,3.4,1.4,3.4,3.4c0,2-1.4,3.4-3.4,3.4c-2,0-3.4-1.4-3.4-3.4
				C291.1,65.5,292.4,64.1,294.4,64.1z"/>
		</g>
	</g>
</g>
</svg>
