<?xml version="1.0" encoding="utf-8"?>
<!-- Generator: Adobe Illustrator 24.0.1, SVG Export Plug-In . SVG Version: 6.00 Build 0)  -->
<svg version="1.1" id="content" xmlns="http://www.w3.org/2000/svg" xmlns:xlink="http://www.w3.org/1999/xlink" x="0px" y="0px"
	 viewBox="0 0 320 267" style="enable-background:new 0 0 320 267;" xml:space="preserve">
<style type="text/css">
	.st0{fill:#008FBE;}
	.st1{fill:#00539D;}
</style>
<g>
	<path class="st0" d="M49.2,36.1h30.2v9.7H59.7V53h19.8v9.7H59.7v7.4h19.8v9.7H49.2V36.1z"/>
	<path class="st0" d="M93.8,63.1l-11-15.6h11.8l5.5,8.2l5.4-8.2h11.7l-11,15.8l12,16.6h-12l-6.2-8.6l-6,8.6H82L93.8,63.1z"/>
	<path class="st0" d="M131,76.3v16.5h-10.1V47.5h10v4c1.9-2.9,4.9-4.7,9.2-4.7c7.8,0,15,6.4,15,16.8c0,10.5-7.3,16.8-14.9,16.8
		C136.1,80.5,132.9,79.1,131,76.3z M145.1,63.6c0-4.1-3.3-7.3-7.3-7.3s-7.3,3.2-7.3,7.3s3.3,7.3,7.3,7.3S145.1,67.7,145.1,63.6z"/>
	<path class="st0" d="M159.6,32.6h10v47.2h-10V32.6z"/>
	<path class="st0" d="M174.2,63.7c0-9.3,7.2-16.8,17.3-16.8c10,0,17.4,7.6,17.4,16.8c0,9.3-7.2,16.8-17.4,16.8
		C181.4,80.4,174.2,73,174.2,63.7z M198.9,63.6c0-4.1-3.3-7.3-7.3-7.3s-7.3,3.2-7.3,7.3s3.3,7.3,7.3,7.3S198.9,67.7,198.9,63.6z"/>
	<path class="st0" d="M213.6,47.5h10V52c1.7-3.7,4.9-5.2,9.1-5.2c2.1,0,4,0.5,5.5,1.3l-3.5,10.1c-1-0.7-2.7-1.3-4.6-1.3
		c-4,0-6.5,2-6.5,7.1v15.9h-10V47.5z"/>
	<path class="st0" d="M238.3,63.7c0-9.3,7.3-16.8,17-16.8c9.9,0,16.8,7.1,16.8,16.7V67H248c1.1,3.2,3.8,5,7.5,5
		c3.1,0,5.3-1.3,6.7-3.4l8.2,4.7c-3.3,4.4-7.7,7.1-15,7.1C244.8,80.4,238.3,73.1,238.3,63.7z M248.3,59.6h13.8
		c-1.1-2.9-3.5-4.4-6.8-4.4C252.1,55.2,249.6,56.9,248.3,59.6z"/>
	<path class="st1" d="M67.9,104.5h9.9v18.5c2-2.7,5-4.3,8.6-4.3c7.1,0,11.8,4.7,11.8,12.7v20.3H87.8v-18.3c0-3.7-1.6-5.9-4.9-5.9
		c-2.9,0-5.1,2.1-5.1,6.4v17.8h-9.9V104.5z"/>
	<path class="st1" d="M102.8,135.6c0-9.3,7.3-16.8,17-16.8c9.9,0,16.8,7.1,16.8,16.7v3.5h-24.1c1.1,3.2,3.8,5,7.5,5
		c3.1,0,5.3-1.3,6.7-3.4l8.2,4.7c-3.3,4.4-7.7,7.1-15,7.1C109.4,152.4,102.8,145,102.8,135.6z M112.9,131.5h13.8
		c-1.1-2.9-3.5-4.4-6.8-4.4C116.7,127.1,114.2,128.8,112.9,131.5z"/>
	<path class="st1" d="M141.2,119.4h9.9v4.6c1.7-3.7,4.9-5.2,9.1-5.2c2.1,0,4,0.5,5.5,1.3l-3.5,10.1c-1-0.7-2.7-1.3-4.6-1.3
		c-4,0-6.5,2-6.5,7.1v15.9h-10V119.4z"/>
	<path class="st1" d="M165.9,135.6c0-9.3,7.2-16.8,17.3-16.8c10,0,17.4,7.6,17.4,16.8s-7.2,16.8-17.4,16.8
		C173.1,152.4,165.9,144.9,165.9,135.6z M190.6,135.5c0-4.1-3.3-7.3-7.3-7.3s-7.3,3.2-7.3,7.3c0,4.1,3.3,7.3,7.3,7.3
		S190.6,139.6,190.6,135.5z"/>
	<path class="st1" d="M210.4,104.8c3.6,0,6.1,2.5,6.1,6.1c0,3.5-2.5,6-6.1,6c-3.6,0-6-2.5-6-6C204.4,107.3,206.9,104.8,210.4,104.8z
		 M205.2,119.4h10.4v32.4h-10.4V119.4z"/>
	<path class="st1" d="M220.3,135.6c0-9.5,7.3-16.8,17-16.8c7.9,0,13.6,4.3,16.2,10.7l-9.4,3.5c-1-2.9-3.5-4.7-6.6-4.7
		c-3.9,0-7.1,3.4-7.1,7.4c0,4,3.3,7.3,7.1,7.3c3.1,0,5.5-1.9,6.5-4.7l9.7,3.8c-2.9,6.1-8.3,10.4-16.4,10.4
		C227.5,152.4,220.3,145.1,220.3,135.6z"/>
	<path class="st0" d="M45.5,207.5c0-9.5,7.3-16.8,17-16.8c7.9,0,13.6,4.3,16.2,10.7l-9.4,3.5c-1-2.9-3.5-4.7-6.6-4.7
		c-3.9,0-7.1,3.4-7.1,7.4c0,4,3.3,7.3,7.1,7.3c3.1,0,5.5-1.9,6.5-4.7l9.7,3.8c-2.9,6.1-8.3,10.4-16.4,10.4
		C52.8,224.3,45.5,217,45.5,207.5z"/>
	<path class="st0" d="M81.7,214.6c0-6.7,5.7-11,14.6-11h7.4v-0.2c0-2.7-1.9-4.5-5.5-4.5c-3.1,0-5,1.1-6.1,3.4l-9.5-4.3
		c3.4-4.4,8.1-7.4,15.6-7.4c9.8,0,15.3,4.9,15.3,13.2v19.8h-9.6v-4.3c-2.2,3.1-6.2,5-11.1,5C86,224.3,81.7,220.6,81.7,214.6z
		 M103.8,211.3v-0.7h-6.2c-3.8,0-5.4,1.3-5.4,3.1c0,1.8,1.3,2.6,3.8,2.6C99.5,216.4,102.9,214.1,103.8,211.3z"/>
	<path class="st0" d="M118.8,191.3h9.9v4.6c1.7-3.7,4.9-5.2,9.1-5.2c2.1,0,4,0.5,5.5,1.3l-3.5,10.1c-1-0.7-2.7-1.3-4.6-1.3
		c-4,0-6.5,2-6.5,7.1v15.9h-10V191.3z"/>
	<path class="st0" d="M143.5,207.5c0-9.3,7.3-16.8,17-16.8c9.9,0,16.8,7.1,16.8,16.7v3.5h-24.1c1.1,3.2,3.8,5,7.5,5
		c3.1,0,5.3-1.3,6.7-3.4l8.2,4.7c-3.3,4.4-7.7,7.1-15,7.1C150.1,224.3,143.5,216.9,143.5,207.5z M153.6,203.4h13.8
		c-1.1-2.9-3.5-4.4-6.8-4.4C157.4,199.1,154.8,200.7,153.6,203.4z"/>
	<path class="st0" d="M181.2,207.5c0-9.3,7.3-16.8,17-16.8c9.9,0,16.8,7.1,16.8,16.7v3.5h-24.1c1.1,3.2,3.8,5,7.5,5
		c3.1,0,5.3-1.3,6.7-3.4l8.2,4.7c-3.3,4.4-7.7,7.1-15,7.1C187.7,224.3,181.2,216.9,181.2,207.5z M191.2,203.4h13.8
		c-1.1-2.9-3.5-4.4-6.8-4.4C195,199.1,192.5,200.7,191.2,203.4z"/>
	<path class="st0" d="M219.5,191.3h9.9v4.6c1.7-3.7,4.9-5.2,9.1-5.2c2.1,0,4,0.5,5.5,1.3l-3.5,10.1c-1-0.7-2.7-1.3-4.6-1.3
		c-4,0-6.5,2-6.5,7.1v15.9h-10V191.3z"/>
	<path class="st0" d="M244.1,215.4l10.1-2.9c0.9,2.6,3.3,3.9,6.1,3.9c2.6,0,3.9-1.1,3.9-2.5c0-1.8-3-2.3-7-3.1
		c-5.5-1.1-11.7-2.7-11.7-9.8c0-5.8,5.7-10.6,14-10.5c7.6,0,11.6,2.9,14.8,7.7l-9.6,2.9c-1-2-2.8-3.1-5.3-3.1
		c-2.5,0-3.7,0.8-3.7,2.2c0,1.5,2.3,2,6.8,2.9c5.5,1.1,12,2.9,12,10.1c0,5.4-4.7,11.1-14.6,11.1
		C251.6,224.3,246.5,221.1,244.1,215.4z"/>
</g>
</svg>
