<?xml version="1.0" encoding="utf-8"?>
<!-- Generator: Adobe Illustrator 24.0.1, SVG Export Plug-In . SVG Version: 6.00 Build 0)  -->
<svg version="1.1" id="content" xmlns="http://www.w3.org/2000/svg" xmlns:xlink="http://www.w3.org/1999/xlink" x="0px" y="0px"
	 viewBox="0 0 320 267" style="enable-background:new 0 0 320 267;" xml:space="preserve">
<style type="text/css">
	.st0{fill:#008FBE;}
	.st1{fill:#00539D;}
</style>
<g>
	<path class="st0" d="M49.3,36.1h10.6l6.9,27l7.6-27h10l7.6,27l6.9-27h10.5L97.1,79.8H87l-7.7-27.6l-7.6,27.6H61.3L49.3,36.1z"/>
	<path class="st0" d="M108,63.7c0-9.3,7.3-16.8,17-16.8c9.9,0,16.8,7.1,16.8,16.7V67h-24.1c1.1,3.2,3.8,5,7.5,5
		c3.1,0,5.3-1.3,6.7-3.4l8.2,4.7c-3.3,4.4-7.7,7.1-15,7.1C114.6,80.4,108,73.1,108,63.7z M118.1,59.6H132c-1.1-2.9-3.5-4.4-6.8-4.4
		C121.9,55.2,119.4,56.9,118.1,59.6z"/>
	<path class="st0" d="M160.1,32.6h10v18.5c2-2.7,5-4.3,8.6-4.3c7.1,0,11.8,4.7,11.8,12.7v20.3h-10.4V61.6c0-3.7-1.6-5.9-4.9-5.9
		c-2.9,0-5.1,2.1-5.1,6.4v17.8h-10V32.6z"/>
	<path class="st0" d="M201.1,32.9c3.6,0,6.1,2.5,6.1,6.1c0,3.5-2.5,6-6.1,6c-3.6,0-6-2.5-6-6C195.1,35.4,197.5,32.9,201.1,32.9z
		 M195.9,47.5h10.4v32.4h-10.4V47.5z"/>
	<path class="st0" d="M211.9,47.5h10V52c1.7-3.7,4.9-5.2,9.1-5.2c2.1,0,4,0.5,5.5,1.3l-3.5,10.1c-1-0.7-2.7-1.3-4.6-1.3
		c-4,0-6.5,2-6.5,7.1v15.9h-10V47.5z"/>
	<path class="st0" d="M236.6,63.7c0-9.3,7.3-16.8,17-16.8c9.9,0,16.8,7.1,16.8,16.7V67h-24.1c1.1,3.2,3.8,5,7.5,5
		c3.1,0,5.3-1.3,6.7-3.4l8.2,4.7c-3.3,4.4-7.7,7.1-15,7.1C243.1,80.4,236.6,73.1,236.6,63.7z M246.7,59.6h13.8
		c-1.1-2.9-3.5-4.4-6.8-4.4C250.4,55.2,247.9,56.9,246.7,59.6z"/>
	<path class="st0" d="M18.2,129.9c0-12.8,9.5-22.5,22.4-22.5c8.5,0,15.6,4.3,19.5,10.8l-9.2,5.8c-2-3.9-5.5-6.4-10.2-6.4
		c-7,0-11.8,5.5-11.8,12.2c0,6.7,4.7,12.1,11.7,12.1c5.2,0,8.8-3,10.6-7.1l9.6,5.2c-3.7,7.3-10.8,12.3-20.2,12.3
		C27.1,152.4,18.2,142.4,18.2,129.9z"/>
	<path class="st0" d="M62.8,129.9c0-12.4,9.9-22.5,22.4-22.5s22.4,10.1,22.4,22.5c0,12.5-9.8,22.5-22.4,22.5
		C72.7,152.4,62.8,142.4,62.8,129.9z M97.1,129.9c0-6.7-5.2-12.2-11.9-12.2c-6.8,0-11.8,5.5-11.8,12.2c0,6.7,5,12.2,11.8,12.2
		C92.1,142.1,97.1,136.5,97.1,129.9z"/>
	<path class="st0" d="M107.3,108h10.9l10.3,29.5l10.4-29.5h10.8l-16.2,43.8h-10.1L107.3,108z"/>
	<path class="st0" d="M153.7,108h10.5v43.8h-10.5V108z"/>
	<path class="st0" d="M170.9,108h15.5c13.6,0,22.8,9.5,22.8,21.9c0,12.5-9.6,21.9-22.6,21.9h-15.7V108z M181.4,117.7V142h4.8
		c7.7,0,12.5-5.3,12.5-12.1c0-6.9-4.5-12.2-12.7-12.2H181.4z"/>
	<path class="st0" d="M215.1,132.2h22.2v8.6h-22.2V132.2z"/>
	<path class="st0" d="M253.2,151.8v-28.4c-1.6,3.2-5.2,4.9-9.3,4.9h-1.3V118h0.3c7,0,10.6-3.1,10.6-10h10.1v43.8H253.2z"/>
	<path class="st0" d="M269.4,149.5l4.7-9.2c1.9,1.3,4.4,2.2,7.3,2.2c6.2,0,9.5-2.7,10.2-9.7c-1.6,2.9-4.4,4.4-8.8,4.4
		c-7.4,0-13.6-5.6-13.6-14.7c0-8.8,6.7-15.2,15.9-15.2c5.8,0,9.2,2,12.1,5.6c2.7,3.3,4.1,7.9,4.1,15.9c0,14.6-6,23.5-20.1,23.5
		C276.8,152.4,272.5,151.5,269.4,149.5z M290.8,122.6c0-3.2-2.5-5.7-5.6-5.7c-3.1,0-5.8,2.6-5.8,5.8c0,3.3,2.6,5.6,5.8,5.6
		C288.4,128.3,290.8,125.7,290.8,122.6z"/>
	<path class="st1" d="M81.1,206.8H66.8v16.8H56.3v-43.8h10.5v16.6h14.3v-16.6h10.5v43.8H81.1V206.8z"/>
	<path class="st1" d="M96.5,207.5c0-9.3,7.3-16.8,17-16.8c9.9,0,16.8,7.1,16.8,16.7v3.5h-24.1c1.1,3.2,3.8,5,7.5,5
		c3.1,0,5.3-1.3,6.7-3.4l8.2,4.7c-3.3,4.4-7.7,7.1-15,7.1C103,224.3,96.5,216.9,96.5,207.5z M106.6,203.4h13.8
		c-1.1-2.9-3.5-4.4-6.8-4.4C110.3,199.1,107.8,200.7,106.6,203.4z"/>
	<path class="st1" d="M134.9,191.3h10v4.6c1.7-3.7,4.9-5.2,9.1-5.2c2.1,0,4,0.5,5.5,1.3l-3.5,10.1c-1-0.7-2.7-1.3-4.6-1.3
		c-4,0-6.5,2-6.5,7.1v15.9h-10V191.3z"/>
	<path class="st1" d="M159.6,207.5c0-9.3,7.2-16.8,17.3-16.8c10,0,17.4,7.6,17.4,16.8s-7.2,16.8-17.4,16.8
		C166.7,224.3,159.6,216.8,159.6,207.5z M184.2,207.4c0-4.1-3.3-7.3-7.3-7.3s-7.3,3.2-7.3,7.3c0,4.1,3.3,7.3,7.3,7.3
		S184.2,211.5,184.2,207.4z"/>
	<path class="st1" d="M198.1,207.5c0-9.3,7.3-16.8,17-16.8c9.9,0,16.8,7.1,16.8,16.7v3.5h-24.1c1.1,3.2,3.8,5,7.5,5
		c3.1,0,5.3-1.3,6.7-3.4l8.2,4.7c-3.3,4.4-7.7,7.1-15,7.1C204.6,224.3,198.1,216.9,198.1,207.5z M208.2,203.4H222
		c-1.1-2.9-3.5-4.4-6.8-4.4C211.9,199.1,209.4,200.7,208.2,203.4z"/>
	<path class="st1" d="M234.6,215.4l10.1-2.9c0.9,2.6,3.3,3.9,6.1,3.9c2.6,0,3.9-1.1,3.9-2.5c0-1.8-3-2.3-7-3.1
		c-5.5-1.1-11.7-2.7-11.7-9.8c0-5.8,5.7-10.6,14-10.5c7.6,0,11.6,2.9,14.8,7.7l-9.6,2.9c-1-2-2.8-3.1-5.3-3.1
		c-2.5,0-3.7,0.8-3.7,2.2c0,1.5,2.3,2,6.8,2.9c5.5,1.1,12,2.9,12,10.1c0,5.4-4.7,11.1-14.6,11.1C242.1,224.3,237,221.1,234.6,215.4z
		"/>
</g>
</svg>
