<?xml version="1.0" encoding="utf-8"?>
<!-- Generator: Adobe Illustrator 24.0.1, SVG Export Plug-In . SVG Version: 6.00 Build 0)  -->
<svg version="1.1" id="BSWH_Logo" xmlns="http://www.w3.org/2000/svg" xmlns:xlink="http://www.w3.org/1999/xlink" x="0px" y="0px"
	 viewBox="0 0 445.8 196.5" style="enable-background:new 0 0 445.8 196.5;" xml:space="preserve">
<style type="text/css">
	.st0{fill:#00549D;}
	.st1{fill:#008FBE;}
	.st2{fill:#FFC843;}
</style>
<g>
	<path class="st0" d="M14.6,114.4c0-4.5-0.2-5.6-2.9-5.8l-1.9-0.2c-0.5-0.4-0.4-1.3,0.1-1.5c3.2-0.3,7.3-0.5,12.9-0.5
		c3.8,0,7.4,0.3,10.1,1.7c2.6,1.3,4.6,3.7,4.6,7.5c0,4.3-2.5,6.6-6.1,8.2c0,0.6,0.5,0.8,1.1,0.9c3.2,0.6,8.1,3.6,8.1,10
		c0,7-5.2,11.7-16,11.7c-1.7,0-4.7-0.2-7.2-0.2c-2.6,0-4.7,0.1-6.9,0.2c-0.4-0.2-0.5-1.1-0.1-1.5l1.1-0.2c3.2-0.5,3.3-1.2,3.3-7.5
		V114.4z M19.5,122.4c0,1.7,0.1,1.8,3.1,1.7c6.1-0.2,9.4-2,9.4-7.7c0-5.9-4.4-8.1-9-8.1c-1.3,0-2.2,0.1-2.8,0.4
		c-0.6,0.2-0.8,0.5-0.8,1.6V122.4z M19.5,136.3c0,2.2,0.1,5.2,1.3,6.6c1.1,1.4,2.9,1.7,4.8,1.7c5.4,0,9.4-2.4,9.4-8.4
		c0-4.8-2.4-10.3-12-10.3c-3.2,0-3.5,0.4-3.5,1.6V136.3z"/>
	<path class="st0" d="M56.5,133.8c0.9-0.3,1-0.8,1-1.7l0.1-2.8c0.1-2.2-0.7-5.2-4.4-5.2c-1.7,0-3.7,0.8-3.8,2.7
		c-0.1,1-0.1,1.7-0.6,2c-0.9,0.7-2.5,1.1-3.4,1.1c-0.5,0-0.8-0.3-0.8-0.8c0-3.1,6.8-7.4,11.2-7.4c4.3,0,6.4,2.5,6.3,7l-0.4,10.5
		c-0.1,2.8,0.4,5.2,2.8,5.2c0.6,0,1.1-0.2,1.5-0.4c0.3-0.2,0.6-0.4,0.8-0.4c0.2,0,0.4,0.4,0.4,0.8c0,0.3-2.1,2.6-5,2.6
		c-1.4,0-2.9-0.5-3.9-1.9c-0.2-0.4-0.6-0.8-1-0.8c-0.4,0-1.1,0.5-2.3,1.2c-1.3,0.7-2.6,1.5-4.3,1.5c-1.7,0-3.2-0.5-4.2-1.4
		c-1.1-1-1.9-2.5-1.9-4.2c0-2.3,1.1-3.7,5-5.1L56.5,133.8z M52.8,144.4c1.2,0,3.1-0.9,3.7-1.5c0.7-0.7,0.7-1.6,0.8-2.8l0.1-3.5
		c0-0.7-0.2-0.8-0.6-0.8c-0.4,0-1.4,0.2-2.5,0.6c-3.5,1.2-5.3,2.1-5.3,4.4C49,141.8,49.7,144.4,52.8,144.4"/>
	<path class="st0" d="M67,157.5c0-1.6,1.1-2.4,2.4-2.4h1.1c1,0,1.6-0.4,2-1.1c1.7-2.7,2.4-4.1,2.9-5.5c0.2-0.5,0.6-1.7,0.6-2.6
		c0-1.2-0.2-1.9-1-4.1l-4.7-12.9c-1-2.8-1.4-4.3-3.5-4.7l-1.5-0.3c-0.4-0.3-0.3-1.3,0.2-1.5c1.9,0.1,3.7,0.2,5.7,0.2
		c1.6,0,3.3-0.1,5.2-0.2c0.5,0.2,0.5,1.2,0.1,1.5l-1.5,0.3c-0.8,0.2-1.3,0.4-1.3,0.8c0,0.7,1.4,4.6,1.7,5.7l1.9,5.5
		c0.4,1,1.5,4.1,1.7,4.3c0.2-0.1,1.1-2,2.2-4.5l2-4.7c1.3-3.1,2.1-5.4,2.1-6c0-0.4-0.4-0.8-1.4-1l-1.9-0.3c-0.4-0.3-0.4-1.3,0.1-1.5
		c1.9,0.1,3.7,0.2,5.3,0.2c1.5,0,2.9-0.1,4.6-0.2c0.5,0.2,0.5,1.1,0.1,1.5l-1,0.2c-2,0.4-3.1,2.1-5.1,6.4l-3.4,6.9
		c-2,4-6.4,13.3-9.3,19.9c-1,2.3-2.5,2.8-3.8,2.8C67.9,160.1,67,159,67,157.5"/>
	<path class="st0" d="M98.4,139.5c0,4.3,0.1,4.9,2.3,5.2l1.4,0.2c0.4,0.3,0.3,1.3-0.1,1.5c-2-0.1-3.7-0.2-5.8-0.2
		c-2.2,0-4,0.1-5.8,0.2c-0.4-0.2-0.5-1.2-0.1-1.5l1.4-0.2c2.2-0.3,2.3-0.9,2.3-5.2v-27.2c0-3.5-0.1-3.9-1.9-5l-0.6-0.4
		c-0.3-0.2-0.3-1,0-1.2c1.5-0.5,4.3-1.4,6.5-2.5c0.2,0,0.5,0.1,0.6,0.4c-0.1,1.8-0.2,4.8-0.2,7.5V139.5z"/>
	<path class="st0" d="M129.1,134.2c0,7.5-5.2,12.9-12.7,12.9c-6.9,0-12.3-4.9-12.3-12.4c0-7.6,5.7-13,12.8-13
		C123.7,121.7,129.1,126.8,129.1,134.2 M116.2,123.5c-4,0-6.9,3.8-6.9,10.4c0,5.5,2.5,11.4,7.8,11.4c5.3,0,6.9-5.5,6.9-10.2
		C124,130,121.9,123.5,116.2,123.5"/>
	<path class="st0" d="M135.6,129c0-2.3,0-2.6-1.6-3.7l-0.5-0.4c-0.2-0.2-0.2-0.9,0.1-1.1c1.4-0.5,4.6-2,6.1-2.9
		c0.3,0.1,0.5,0.2,0.5,0.4v3.5c0,0.3,0.1,0.5,0.2,0.5c2.1-1.7,4.4-3.6,6.6-3.6c1.5,0,2.7,1,2.7,2.4c0,2-1.6,2.8-2.6,2.8
		c-0.6,0-0.9-0.2-1.3-0.4c-0.9-0.6-1.8-1-2.6-1c-1,0-1.7,0.5-2.2,1.2c-0.6,0.8-0.8,2.6-0.8,4.6v8.2c0,4.3,0.1,5,2.4,5.2l2.2,0.2
		c0.4,0.3,0.3,1.3-0.1,1.5c-2.8-0.1-4.6-0.2-6.7-0.2c-2.2,0-4,0.1-5.5,0.2c-0.4-0.2-0.5-1.2-0.1-1.5l1.1-0.2
		c2.2-0.4,2.3-0.9,2.3-5.2V129z"/>
	<path class="st0" d="M162.1,147.2c-5.1,0-8.2-1.6-9.4-2.2c-0.7-1.3-1.5-5.6-1.6-8.4c0.3-0.4,1.2-0.5,1.4-0.2c0.9,3.1,3.4,9,10.3,9
		c5.1,0,7.5-3.3,7.5-6.9c0-2.6-0.5-5.6-4.9-8.4l-5.7-3.7c-3-2-6.5-5.4-6.5-10.3c0-5.7,4.5-10.3,12.3-10.3c1.9,0,4,0.4,5.6,0.8
		c0.8,0.2,1.6,0.4,2.1,0.4c0.5,1.4,1.1,4.8,1.1,7.3c-0.2,0.4-1.2,0.5-1.5,0.2c-0.8-2.9-2.4-6.8-8.2-6.8c-5.9,0-7.2,3.9-7.2,6.7
		c0,3.5,2.9,6,5.1,7.4l4.8,3c3.8,2.3,7.5,5.8,7.5,11.5C174.9,142.7,169.9,147.2,162.1,147.2"/>
	<path class="st0" d="M198.6,122.7c0.5,0.4,0.9,1.4,0.9,2.4c0,1.1-0.6,2.2-1.3,2.2c-0.3,0-0.6-0.1-0.8-0.4c-1.3-1.6-3.5-3.2-6-3.2
		c-4.2,0-8.3,3.3-8.3,9.7c0,4.7,3.2,10.3,9.7,10.3c3.5,0,5.3-1.6,6.7-3.6c0.5-0.1,1,0.3,1.1,0.8c-2,4.5-6.6,6.1-10,6.1
		c-3.2,0-6.1-1-8.2-3.1c-2.1-2-3.5-5-3.5-8.9c0-6.5,4.6-13.4,14.6-13.4C194.6,121.7,197,122,198.6,122.7"/>
	<path class="st0" d="M226.2,134.2c0,7.5-5.2,12.9-12.7,12.9c-6.9,0-12.3-4.9-12.3-12.4c0-7.6,5.7-13,12.8-13
		C220.7,121.7,226.2,126.8,226.2,134.2 M213.3,123.5c-4,0-6.9,3.8-6.9,10.4c0,5.5,2.5,11.4,7.8,11.4c5.3,0,6.9-5.5,6.9-10.2
		C221,130,219,123.5,213.3,123.5"/>
	<path class="st0" d="M237.6,125.1c-1,0-1.1,0.2-1.1,1.4v11.2c0,3.5,0.4,6.7,4.4,6.7c0.6,0,1.1-0.1,1.6-0.3c0.5-0.2,1.3-0.8,1.5-0.8
		c0.5,0,0.7,0.7,0.6,1c-1.1,1.3-3.2,2.8-6.3,2.8c-5.2,0-6.3-2.9-6.3-6.5v-13.8c0-1.6-0.1-1.7-1.3-1.7h-1.7c-0.4-0.2-0.4-0.9-0.2-1.3
		c1.7-0.5,3.2-1.3,3.8-1.9c0.8-0.7,1.9-2.3,2.5-3.5c0.3-0.1,1-0.1,1.3,0.3v2.7c0,1.1,0.1,1.1,1.1,1.1h6.7c0.7,0.5,0.6,2.2,0.1,2.5
		H237.6z"/>
	<path class="st0" d="M255.8,125.1c-1,0-1.1,0.2-1.1,1.4v11.2c0,3.5,0.4,6.7,4.4,6.7c0.6,0,1.1-0.1,1.6-0.3c0.5-0.2,1.3-0.8,1.5-0.8
		c0.5,0,0.7,0.7,0.6,1c-1.1,1.3-3.2,2.8-6.3,2.8c-5.2,0-6.3-2.9-6.3-6.5v-13.8c0-1.6-0.1-1.7-1.3-1.7h-1.7c-0.4-0.2-0.4-0.9-0.2-1.3
		c1.7-0.5,3.2-1.3,3.9-1.9c0.8-0.7,1.9-2.3,2.5-3.5c0.3-0.1,1-0.1,1.3,0.3v2.7c0,1.1,0.1,1.1,1.1,1.1h6.7c0.7,0.5,0.6,2.2,0.1,2.5
		H255.8z"/>
	<path class="st0" d="M272.8,121.2c0-4.2,3.3-7.4,7.5-7.4c2.8,0,5.6,1.7,5.6,4.5c0,3-3,4.2-4.1,4.2c-0.2,0-1.2,0-0.5-1
		c0.1-0.2,1-1.1,0.5-2.7c-0.4-1.2-1.5-2.2-3.3-2.3c-2.2-0.2-3.9,1.3-3.9,3.2c0,2,1.2,3.3,5.3,5.5c5.3,2.9,9.9,5.3,13.8,13.4
		c1.4-1.7,2-3.5,2-5.7c0-1.5-0.3-2.7-1.3-4.1c-0.7-0.9-1.6-1.1-2.2-1.2c-0.6-0.1-1.7-0.2-3,0.9c-0.2,0.2-0.4,0.3-0.8,0.2
		c-0.4-0.1-0.5-0.7-0.4-1.4c0.3-2,2.4-3.6,5.3-3.6c0.8,0,2,0.2,3,0.4c1.2,0.2,1.9,0.3,2.3,0.3c0.7,0,1.1-0.1,1.4-0.6
		c0,0,0.2-0.3,0.4-0.3c0.5,0,0.7,0.4,0.7,0.4c0,2.3-1.3,3.5-4.2,4.3c0.7,1.4,0.9,2.4,0.9,3.9c0,2.9-1,5.3-3.3,7.8
		c1.8,3.3,3.5,4.6,6.5,4.6c0.6,0,1.1-0.1,1.6-0.2c0.6-0.2,0.8-0.2,1-0.2c0.3,0,0.4,0.1,0.4,0.4c0,1.1-2.5,2-5.8,2
		c-3.1,0-4.7-0.7-7.3-3c-4,2.3-6.5,3.1-10,3.1c-7.3,0-12.9-4.7-12.9-10.8c0-6.4,4.8-8.7,6.9-9.6
		C273.4,124.5,272.8,123.1,272.8,121.2 M276.5,127.6c-2.4,0.5-3.5,2-3.5,4.9c0,6.2,5.2,11.6,11,11.6c2.1,0,3.5-0.4,6.1-1.7
		c-1-1.2-1.5-1.7-2.6-3.4l-1.3-1.9c-3.3-4.8-6-6.8-8.3-8.6L276.5,127.6z"/>
	<path class="st0" d="M295.7,107.8c-0.4-0.4-0.3-1.2,0.2-1.4c1.6,0.1,4.3,0.2,6.2,0.2c1.7,0,4.7-0.1,6.9-0.2c0.5,0.2,0.5,1,0.1,1.4
		l-1.4,0.1c-1.3,0.1-2,0.5-2,1c0,0.7,1.3,3.8,3.1,8.1c3.4,7.5,6.9,15,10.4,22.4c1.4-3,3.1-6.4,4.6-9.7c0.5-1.1,1-2.2,1-2.5
		c0-0.3-0.2-0.8-0.5-1.6c-2.1-4.8-4.3-9.6-6.6-14.4c-0.9-1.9-1.8-3.1-3.8-3.3l-1.4-0.1c-0.4-0.5-0.4-1.2,0.1-1.4
		c1.7,0.1,4,0.2,6.4,0.2c3,0,5.2-0.1,6.6-0.2c0.4,0.2,0.5,1,0.1,1.4l-1.6,0.1c-2.3,0.2-2.4,0.6-1.3,3.3c1.3,2.9,2.9,6.7,4.6,10.5
		c1.1-2.3,2.2-4.6,3.5-7.9c2.2-5.1,1.9-5.8-0.1-5.9l-1.8-0.1c-0.4-0.6-0.3-1.3,0.1-1.4c1.6,0.1,3.4,0.2,5.7,0.2c2,0,4.4-0.1,5.8-0.2
		c0.4,0.2,0.5,1,0.1,1.4l-1.7,0.1c-2.5,0.2-3.6,2.9-4.9,5.4c-1.3,2.2-3.8,7.5-4.7,9.6c-0.3,0.6-0.5,1.2-0.5,1.4
		c0,0.2,0.1,0.7,0.4,1.4c2,4.6,4.1,9.1,6.1,13.7c1.9-4.2,3.7-8.4,5.4-12.7c1.2-2.9,4.4-10.9,4.8-12c0.8-2.2,1.8-4.7,1.8-5.5
		c0-0.8-0.7-1.3-2-1.4l-1.7-0.1c-0.5-0.5-0.4-1.2,0.1-1.4c2.3,0.1,3.9,0.2,5.8,0.2c2.3,0,4-0.1,5.6-0.2c0.5,0.2,0.5,1,0.1,1.4
		l-1.1,0.1c-3,0.3-3.5,2.1-7.2,10.5l-4.4,10.2c-2.6,6.1-5.1,12-7.5,18.5c-0.2,0.1-0.4,0.2-0.7,0.2c-0.3,0-0.6-0.1-0.8-0.2
		c-1.9-5.4-5.4-12.9-7.3-17.1c-2.2,4.4-5.8,12.1-7.5,17.1c-0.2,0.1-0.4,0.2-0.7,0.2c-0.3,0-0.6-0.1-0.9-0.2c-1-2.5-3.4-7.9-4.1-9.7
		c-3.9-8.4-7.6-16.7-11.5-25.1c-1.1-2.5-1.9-4.1-4.4-4.3L295.7,107.8z"/>
	<path class="st0" d="M353.8,112.3c0-3.8-0.3-4.3-1.1-4l-1.3-1.4c-0.3-0.2-2.3-0.4-1.5-0.4c4.8,0,5.9-2.1,8-3.3
		c0.2-0.1,0.6,0,0.6,0.4c-0.1,1.8-0.2,4.8-0.2,7.5v12.6c0,0.5,0.1,1,0.2,1.1c2.2-1.7,5.1-3.1,8.1-3.1c5.7,0,7.8,3.5,7.8,7.8v10
		c0,4.3,0.1,5,2.3,5.2l1.6,0.2c0.4,0.3,0.3,1.3-0.1,1.5c-2.2-0.1-3.9-0.2-6-0.2c-2.2,0-4,0.1-5.6,0.2c-0.4-0.2-0.5-1.2-0.1-1.5
		l1.2-0.2c2.2-0.4,2.3-0.9,2.3-5.2v-8.6c0-3.8-1.9-6.4-5.7-6.4c-2,0-3.6,0.7-4.7,1.6c-1.1,0.9-1.3,1.2-1.3,3.3v10.1
		c0,4.3,0.1,4.9,2.3,5.2l1.3,0.2c0.4,0.2,0.3,1.3-0.1,1.5c-1.8-0.1-3.6-0.2-5.7-0.2c-2.2,0-4,0.1-5.9,0.2c-0.4-0.2-0.5-1.2-0.1-1.5
		l1.5-0.2c2.2-0.2,2.3-0.9,2.3-5.2V112.3z"/>
	<path class="st0" d="M383.9,129c0-2.3,0-2.6-1.6-3.7l-0.5-0.4c-0.2-0.2-0.2-0.9,0.1-1.1c1.4-0.5,4.8-2,6.2-2.9
		c0.3,0,0.5,0.1,0.6,0.4c-0.1,2.1-0.2,5-0.2,7.5v10.8c0,4.3,0.1,4.9,2.3,5.2l1.3,0.2c0.4,0.3,0.3,1.3-0.1,1.5
		c-1.8-0.1-3.5-0.2-5.7-0.2c-2.2,0-4,0.1-5.7,0.2c-0.4-0.2-0.5-1.2-0.1-1.5l1.3-0.2c2.2-0.3,2.3-0.9,2.3-5.2V129z M388.9,113.8
		c0,2.2-1.5,3.1-3.2,3.1c-1.9,0-3.1-1.4-3.1-3c0-2,1.4-3.2,3.2-3.2C387.7,110.6,388.9,112.1,388.9,113.8"/>
	<path class="st0" d="M402.8,125.1c-1,0-1.1,0.2-1.1,1.4v11.2c0,3.5,0.4,6.7,4.4,6.7c0.6,0,1.1-0.1,1.6-0.3c0.5-0.2,1.3-0.8,1.5-0.8
		c0.5,0,0.7,0.7,0.6,1c-1.1,1.3-3.2,2.8-6.3,2.8c-5.2,0-6.3-2.9-6.3-6.5v-13.8c0-1.6-0.1-1.7-1.3-1.7h-1.7c-0.4-0.2-0.4-0.9-0.2-1.3
		c1.7-0.5,3.2-1.3,3.8-1.9c0.8-0.7,1.9-2.3,2.5-3.5c0.3-0.1,1-0.1,1.3,0.3v2.7c0,1.1,0.1,1.1,1.1,1.1h6.7c0.7,0.5,0.6,2.2,0.1,2.5
		H402.8z"/>
	<path class="st0" d="M416.7,130.8c-1.6,0-1.6,0.1-1.6,1.6c0,6.1,3.5,11.2,10,11.2c2,0,3.7-0.6,5.5-2.9c0.6-0.2,1,0.2,1.1,0.7
		c-2,4.1-6.3,5.6-9.4,5.6c-3.9,0-7-1.7-8.7-4c-1.8-2.3-2.5-5.2-2.5-7.8c0-7.4,4.9-13.6,12.1-13.6c5.2,0,8.5,3.5,8.5,7.2
		c0,0.8-0.1,1.3-0.2,1.6c-0.2,0.4-1,0.4-3.5,0.4H416.7z M420.5,129c4.5,0,5.8-0.2,6.3-0.6c0.2-0.1,0.4-0.4,0.4-1.1
		c0-1.7-1.1-3.8-4.6-3.8c-3.5,0-6.6,3.2-6.7,5.2c0,0.1,0,0.3,0.4,0.3H420.5z"/>
</g>
<g>
	<path class="st0" d="M156.3,166.5v5.9h6.2v-5.9h3.4v15.4h-3.4v-6.6h-6.2v6.6h-3.4v-15.4H156.3z"/>
	<path class="st0" d="M191.6,166.5v2.8h-8.1v3.3h7.4v2.6h-7.4v3.8h8.3v2.8h-11.7v-15.4H191.6z"/>
	<path class="st0" d="M213,166.5l5.7,15.4h-3.5l-1.2-3.4h-5.7l-1.2,3.4h-3.4l5.8-15.4H213z M213.2,175.9l-1.9-5.6h0l-2,5.6H213.2z"
		/>
	<path class="st0" d="M234.8,166.5V179h7.5v2.8h-10.9v-15.4H234.8z"/>
	<path class="st0" d="M254.2,169.3v-2.8h12.6v2.8h-4.6v12.5h-3.4v-12.5H254.2z"/>
	<path class="st0" d="M283.3,166.5v5.9h6.2v-5.9h3.4v15.4h-3.4v-6.6h-6.2v6.6h-3.4v-15.4H283.3z"/>
</g>
<g>
	<path class="st0" d="M223.6,86.8c0-1.1,0.9-2,2-2c1.1,0,2,0.8,2,2c0,1.2-0.9,2-2,2C224.5,88.8,223.6,88,223.6,86.8z M225.6,88.5
		c0.9,0,1.6-0.7,1.6-1.7c0-0.9-0.7-1.7-1.6-1.7c-0.9,0-1.6,0.7-1.6,1.7C224,87.8,224.7,88.5,225.6,88.5z M225.2,88h-0.3v-2.3h0.9
		c0.5,0,0.8,0.2,0.8,0.7c0,0.4-0.3,0.6-0.6,0.6l0.7,1h-0.4l-0.6-1h-0.4V88z M225.6,86.7c0.3,0,0.6,0,0.6-0.4c0-0.3-0.3-0.3-0.5-0.3
		h-0.5v0.7H225.6z"/>
</g>
<polygon class="st1" points="190.7,51.8 221.5,51.8 206,67.4 190.7,67.4 "/>
<polygon class="st0" points="221.5,97 221.5,51.8 206,67.4 206,97 "/>
<polygon class="st0" points="268.7,51.8 223.5,51.8 239.1,67.4 268.7,67.4 "/>
<polygon class="st2" points="223.5,82.7 223.5,51.8 239.1,67.4 239.1,82.7 "/>
<polygon class="st0" points="176.4,49.8 221.5,49.8 206,34.3 176.4,34.3 "/>
<polygon class="st2" points="221.5,19 221.5,49.8 206,34.2 206,19 "/>
<polygon class="st1" points="254.4,49.8 223.5,49.8 239.1,34.3 254.4,34.3 "/>
<polygon class="st0" points="223.5,4.6 223.5,49.8 239.1,34.2 239.1,4.6 "/>
</svg>
